<?xml version="1.0" encoding="UTF-8" standalone="no"?>
<!DOCTYPE svg PUBLIC "-//W3C//DTD SVG 1.1//EN"
 "http://www.w3.org/Graphics/SVG/1.1/DTD/svg11.dtd">
<!-- Generated by graphviz version 12.2.1 (20241206.2353)
 -->
<!-- Title: unified_buffer Pages: 1 -->
<svg width="752pt" height="876pt"
 viewBox="0.00 0.00 752.28 876.00" xmlns="http://www.w3.org/2000/svg" xmlns:xlink="http://www.w3.org/1999/xlink">
<g id="graph0" class="graph" transform="scale(1 1) rotate(0) translate(4 872)">
<title>unified_buffer</title>
<polygon fill="white" stroke="none" points="-4,4 -4,-872 748.28,-872 748.28,4 -4,4"/>
<text text-anchor="middle" x="372.14" y="-7.2" font-family="Times,serif" font-size="14.00">unified_buffer</text>
<!-- n19 -->
<g id="node1" class="node">
<title>n19</title>
<polygon fill="none" stroke="black" points="309.3,-783.04 309.3,-797.96 273.82,-808.5 223.64,-808.5 188.16,-797.96 188.16,-783.04 223.64,-772.5 273.82,-772.5 309.3,-783.04"/>
<text text-anchor="middle" x="248.73" y="-785.45" font-family="Times,serif" font-size="14.00">weight_data</text>
</g>
<!-- p6 -->
<g id="node27" class="node">
<title>p6</title>
<path fill="none" stroke="black" d="M527.35,-595C527.35,-595 386.1,-595 386.1,-595 380.1,-595 374.1,-589 374.1,-583 374.1,-583 374.1,-566 374.1,-566 374.1,-560 380.1,-554 386.1,-554 386.1,-554 527.35,-554 527.35,-554 533.35,-554 539.35,-560 539.35,-566 539.35,-566 539.35,-583 539.35,-583 539.35,-589 533.35,-595 527.35,-595"/>
<text text-anchor="middle" x="456.73" y="-577.7" font-family="Times,serif" font-size="14.00">PROC $9</text>
<text text-anchor="middle" x="456.73" y="-561.2" font-family="Times,serif" font-size="14.00">unified_buffer.sv:42.3&#45;58.6</text>
</g>
<!-- n19&#45;&gt;p6 -->
<g id="edge6" class="edge">
<title>n19:e&#45;&gt;p6:w</title>
<path fill="none" stroke="black" stroke-width="3" d="M310.55,-790.5C327.7,-790.5 330.01,-778.61 338.1,-763.5 356.32,-729.49 336.16,-602.97 363.46,-578.58"/>
<polygon fill="black" stroke="black" stroke-width="3" points="361.78,-582.98 369.86,-576.13 359.27,-576.44 361.78,-582.98"/>
</g>
<!-- n20 -->
<g id="node2" class="node">
<title>n20</title>
<polygon fill="none" stroke="black" points="728.62,-675.04 728.62,-689.96 684.38,-700.5 621.81,-700.5 577.57,-689.96 577.57,-675.04 621.81,-664.5 684.38,-664.5 728.62,-675.04"/>
<text text-anchor="middle" x="653.09" y="-677.45" font-family="Times,serif" font-size="14.00">weight_last_out</text>
</g>
<!-- n20&#45;&gt;p6 -->
<g id="edge9" class="edge">
<title>n20:e&#45;&gt;p6:w</title>
<path fill="none" stroke="black" d="M729.94,-682.5C752.06,-682.5 773.78,-748.34 577.57,-700.5 478.61,-676.37 429.12,-680.73 374.1,-595 372.25,-592.12 370.37,-588.52 369.22,-585.14"/>
<polygon fill="black" stroke="black" points="372.44,-586.52 372.58,-575.92 365.86,-584.11 372.44,-586.52"/>
</g>
<!-- n21 -->
<g id="node3" class="node">
<title>n21</title>
<polygon fill="none" stroke="black" points="730.84,-621.04 730.84,-635.96 685.3,-646.5 620.89,-646.5 575.35,-635.96 575.35,-621.04 620.89,-610.5 685.3,-610.5 730.84,-621.04"/>
<text text-anchor="middle" x="653.09" y="-623.45" font-family="Times,serif" font-size="14.00">weight_first_out</text>
</g>
<!-- n21&#45;&gt;p6 -->
<g id="edge11" class="edge">
<title>n21:e&#45;&gt;p6:w</title>
<path fill="none" stroke="black" d="M732.16,-628.5C740.17,-628.5 736.98,-640.99 731.16,-646.5 718.59,-658.4 592.53,-648.66 575.35,-646.5 483.75,-634.97 432.48,-666.53 374.1,-595 371.85,-592.24 369.81,-588.51 368.71,-584.98"/>
<polygon fill="black" stroke="black" points="371.88,-586.47 372.52,-575.9 365.42,-583.77 371.88,-586.47"/>
</g>
<!-- n22 -->
<g id="node4" class="node">
<title>n22</title>
<polygon fill="none" stroke="black" points="123.35,-456.04 123.35,-470.96 87.22,-481.5 36.13,-481.5 0,-470.96 0,-456.04 36.13,-445.5 87.22,-445.5 123.35,-456.04"/>
<text text-anchor="middle" x="61.68" y="-458.45" font-family="Times,serif" font-size="14.00">weight_addr</text>
</g>
<!-- c40 -->
<g id="node20" class="node">
<title>c40</title>
<polygon fill="none" stroke="black" points="164.73,-366.75 164.73,-440.25 332.73,-440.25 332.73,-366.75 164.73,-366.75"/>
<text text-anchor="middle" x="191.85" y="-422.95" font-family="Times,serif" font-size="14.00">ADDR</text>
<polyline fill="none" stroke="black" points="164.73,-415.75 218.98,-415.75"/>
<text text-anchor="middle" x="191.85" y="-398.45" font-family="Times,serif" font-size="14.00">CLK</text>
<polyline fill="none" stroke="black" points="164.73,-391.25 218.98,-391.25"/>
<text text-anchor="middle" x="191.85" y="-373.95" font-family="Times,serif" font-size="14.00">EN</text>
<polyline fill="none" stroke="black" points="218.98,-366.75 218.98,-440.25"/>
<text text-anchor="middle" x="250.23" y="-406.7" font-family="Times,serif" font-size="14.00">$12</text>
<text text-anchor="middle" x="250.23" y="-390.2" font-family="Times,serif" font-size="14.00">$memrd</text>
<polyline fill="none" stroke="black" points="281.48,-366.75 281.48,-440.25"/>
<text text-anchor="middle" x="307.1" y="-398.45" font-family="Times,serif" font-size="14.00">DATA</text>
</g>
<!-- n22&#45;&gt;c40 -->
<g id="edge12" class="edge">
<title>n22:e&#45;&gt;c40:w</title>
<path fill="none" stroke="black" stroke-width="3" d="M123.35,-463.5C142.58,-463.5 141.53,-440.51 152.84,-431.53"/>
<polygon fill="black" stroke="black" stroke-width="3" points="150.98,-435.82 159.41,-429.4 148.82,-429.16 150.98,-435.82"/>
</g>
<!-- n23 -->
<g id="node5" class="node">
<title>n23</title>
<polygon fill="none" stroke="black" points="319.27,-729.04 319.27,-743.96 277.95,-754.5 219.51,-754.5 178.19,-743.96 178.19,-729.04 219.51,-718.5 277.95,-718.5 319.27,-729.04"/>
<text text-anchor="middle" x="248.73" y="-731.45" font-family="Times,serif" font-size="14.00">weight_last_in</text>
</g>
<!-- n23&#45;&gt;p6 -->
<g id="edge13" class="edge">
<title>n23:e&#45;&gt;p6:w</title>
<path fill="none" stroke="black" d="M320.56,-736.5C392.1,-736.5 308.83,-592.33 362.83,-576"/>
<polygon fill="black" stroke="black" points="363.15,-579.49 372.6,-574.7 362.23,-572.55 363.15,-579.49"/>
</g>
<!-- n24 -->
<g id="node6" class="node">
<title>n24</title>
<polygon fill="none" stroke="black" points="321.48,-675.04 321.48,-689.96 278.86,-700.5 218.59,-700.5 175.97,-689.96 175.97,-675.04 218.59,-664.5 278.86,-664.5 321.48,-675.04"/>
<text text-anchor="middle" x="248.73" y="-677.45" font-family="Times,serif" font-size="14.00">weight_first_in</text>
</g>
<!-- n24&#45;&gt;p6 -->
<g id="edge14" class="edge">
<title>n24:e&#45;&gt;p6:w</title>
<path fill="none" stroke="black" d="M322.79,-682.5C371.57,-682.5 329.25,-591.49 363.09,-576.56"/>
<polygon fill="black" stroke="black" points="363.43,-580.06 372.61,-574.78 362.14,-573.18 363.43,-580.06"/>
</g>
<!-- n25 -->
<g id="node7" class="node">
<title>n25</title>
<polygon fill="none" stroke="black" points="707.01,-567.04 707.01,-581.96 675.43,-592.5 630.76,-592.5 599.17,-581.96 599.17,-567.04 630.76,-556.5 675.43,-556.5 707.01,-567.04"/>
<text text-anchor="middle" x="653.09" y="-569.45" font-family="Times,serif" font-size="14.00">input_data</text>
</g>
<!-- n25&#45;&gt;p6 -->
<g id="edge16" class="edge">
<title>n25:e&#45;&gt;p6:w</title>
<path fill="none" stroke="black" stroke-width="3" d="M708.24,-574.5C716.25,-574.5 713.02,-586.95 707.24,-592.5 700.57,-598.91 380.8,-601.38 374.1,-595 371.42,-592.44 369.25,-588.58 368.22,-584.9"/>
<polygon fill="black" stroke="black" stroke-width="3" points="370.09,-589.15 371.17,-578.61 363.75,-586.17 370.09,-589.15"/>
</g>
<!-- n26 -->
<g id="node8" class="node">
<title>n26</title>
<polygon fill="none" stroke="black" points="721.97,-513.04 721.97,-527.96 681.62,-538.5 624.56,-538.5 584.22,-527.96 584.22,-513.04 624.56,-502.5 681.62,-502.5 721.97,-513.04"/>
<text text-anchor="middle" x="653.09" y="-515.45" font-family="Times,serif" font-size="14.00">input_last_out</text>
</g>
<!-- n26&#45;&gt;p6 -->
<g id="edge18" class="edge">
<title>n26:e&#45;&gt;p6:w</title>
<path fill="none" stroke="black" d="M723.26,-520.5C731.27,-520.5 727.91,-532.82 722.26,-538.5 699.2,-561.69 604.18,-532.06 575.35,-547.5 552,-560.01 563.07,-583.21 539.35,-595 473.58,-627.68 427.29,-645.65 374.1,-595 371.42,-592.44 369.25,-588.58 368.22,-584.9"/>
<polygon fill="black" stroke="black" points="371.38,-586.41 372.46,-575.87 365.04,-583.43 371.38,-586.41"/>
</g>
<!-- n27 -->
<g id="node9" class="node">
<title>n27</title>
<polygon fill="none" stroke="black" points="724.19,-459.04 724.19,-473.96 682.54,-484.5 623.65,-484.5 582,-473.96 582,-459.04 623.65,-448.5 682.54,-448.5 724.19,-459.04"/>
<text text-anchor="middle" x="653.09" y="-461.45" font-family="Times,serif" font-size="14.00">input_first_out</text>
</g>
<!-- n27&#45;&gt;p6 -->
<g id="edge20" class="edge">
<title>n27:e&#45;&gt;p6:w</title>
<path fill="none" stroke="black" d="M725.49,-466.5C733.5,-466.5 730.14,-478.82 724.49,-484.5 701.07,-508.03 601.88,-473.54 575.35,-493.5 537.11,-522.28 578.45,-567.38 539.35,-595 479.36,-637.37 427.29,-645.65 374.1,-595 371.42,-592.44 369.25,-588.58 368.22,-584.9"/>
<polygon fill="black" stroke="black" points="371.38,-586.41 372.46,-575.87 365.04,-583.43 371.38,-586.41"/>
</g>
<!-- n28 -->
<g id="node10" class="node">
<title>n28</title>
<polygon fill="none" stroke="black" points="116.7,-294.04 116.7,-308.96 84.47,-319.5 38.88,-319.5 6.65,-308.96 6.65,-294.04 38.88,-283.5 84.47,-283.5 116.7,-294.04"/>
<text text-anchor="middle" x="61.68" y="-296.45" font-family="Times,serif" font-size="14.00">input_addr</text>
</g>
<!-- c41 -->
<g id="node23" class="node">
<title>c41</title>
<polygon fill="none" stroke="black" points="164.73,-240.75 164.73,-314.25 332.73,-314.25 332.73,-240.75 164.73,-240.75"/>
<text text-anchor="middle" x="191.85" y="-296.95" font-family="Times,serif" font-size="14.00">ADDR</text>
<polyline fill="none" stroke="black" points="164.73,-289.75 218.98,-289.75"/>
<text text-anchor="middle" x="191.85" y="-272.45" font-family="Times,serif" font-size="14.00">CLK</text>
<polyline fill="none" stroke="black" points="164.73,-265.25 218.98,-265.25"/>
<text text-anchor="middle" x="191.85" y="-247.95" font-family="Times,serif" font-size="14.00">EN</text>
<polyline fill="none" stroke="black" points="218.98,-240.75 218.98,-314.25"/>
<text text-anchor="middle" x="250.23" y="-280.7" font-family="Times,serif" font-size="14.00">$11</text>
<text text-anchor="middle" x="250.23" y="-264.2" font-family="Times,serif" font-size="14.00">$memrd</text>
<polyline fill="none" stroke="black" points="281.48,-240.75 281.48,-314.25"/>
<text text-anchor="middle" x="307.1" y="-272.45" font-family="Times,serif" font-size="14.00">DATA</text>
</g>
<!-- n28&#45;&gt;c41 -->
<g id="edge21" class="edge">
<title>n28:e&#45;&gt;c41:w</title>
<path fill="none" stroke="black" stroke-width="3" d="M117.94,-301.5C133.84,-301.5 140.42,-301.81 152.24,-301.94"/>
<polygon fill="black" stroke="black" stroke-width="3" points="149.17,-305.42 159.19,-301.98 149.21,-298.42 149.17,-305.42"/>
</g>
<!-- n29 -->
<g id="node11" class="node">
<title>n29</title>
<polygon fill="none" stroke="black" points="312.62,-621.04 312.62,-635.96 275.19,-646.5 222.26,-646.5 184.84,-635.96 184.84,-621.04 222.26,-610.5 275.19,-610.5 312.62,-621.04"/>
<text text-anchor="middle" x="248.73" y="-623.45" font-family="Times,serif" font-size="14.00">input_last_in</text>
</g>
<!-- n29&#45;&gt;p6 -->
<g id="edge22" class="edge">
<title>n29:e&#45;&gt;p6:w</title>
<path fill="none" stroke="black" d="M313.89,-628.5C345.48,-628.5 340.29,-586.79 362.97,-576.68"/>
<polygon fill="black" stroke="black" points="363.48,-580.15 372.62,-574.79 362.13,-573.28 363.48,-580.15"/>
</g>
<!-- n30 -->
<g id="node12" class="node">
<title>n30</title>
<polygon fill="none" stroke="black" points="314.84,-567.04 314.84,-581.96 276.11,-592.5 221.34,-592.5 182.62,-581.96 182.62,-567.04 221.34,-556.5 276.11,-556.5 314.84,-567.04"/>
<text text-anchor="middle" x="248.73" y="-569.45" font-family="Times,serif" font-size="14.00">input_first_in</text>
</g>
<!-- n30&#45;&gt;p6 -->
<g id="edge24" class="edge">
<title>n30:e&#45;&gt;p6:w</title>
<path fill="none" stroke="black" d="M316.11,-574.5C337.66,-574.5 345.69,-574.5 362.81,-574.5"/>
<polygon fill="black" stroke="black" points="362.59,-578 372.59,-574.5 362.59,-571 362.59,-578"/>
</g>
<!-- n31 -->
<g id="node13" class="node">
<title>n31</title>
<polygon fill="none" stroke="black" points="292.68,-143.04 292.68,-157.96 266.93,-168.5 230.52,-168.5 204.78,-157.96 204.78,-143.04 230.52,-132.5 266.93,-132.5 292.68,-143.04"/>
<text text-anchor="middle" x="248.73" y="-145.45" font-family="Times,serif" font-size="14.00">wr_data</text>
</g>
<!-- p7 -->
<g id="node28" class="node">
<title>p7</title>
<path fill="none" stroke="black" d="M527.35,-144C527.35,-144 386.1,-144 386.1,-144 380.1,-144 374.1,-138 374.1,-132 374.1,-132 374.1,-115 374.1,-115 374.1,-109 380.1,-103 386.1,-103 386.1,-103 527.35,-103 527.35,-103 533.35,-103 539.35,-109 539.35,-115 539.35,-115 539.35,-132 539.35,-132 539.35,-138 533.35,-144 527.35,-144"/>
<text text-anchor="middle" x="456.73" y="-126.7" font-family="Times,serif" font-size="14.00">PROC $2</text>
<text text-anchor="middle" x="456.73" y="-110.2" font-family="Times,serif" font-size="14.00">unified_buffer.sv:35.3&#45;39.6</text>
</g>
<!-- n31&#45;&gt;p7 -->
<g id="edge25" class="edge">
<title>n31:e&#45;&gt;p7:w</title>
<path fill="none" stroke="black" stroke-width="3" d="M294.09,-150.5C327.51,-150.5 335.1,-129.08 362.87,-124.4"/>
<polygon fill="black" stroke="black" stroke-width="3" points="359.89,-128.15 369.58,-123.86 359.33,-121.17 359.89,-128.15"/>
</g>
<!-- n32 -->
<g id="node14" class="node">
<title>n32</title>
<polygon fill="none" stroke="black" points="293.78,-89.04 293.78,-103.96 267.39,-114.5 230.06,-114.5 203.67,-103.96 203.67,-89.04 230.06,-78.5 267.39,-78.5 293.78,-89.04"/>
<text text-anchor="middle" x="248.73" y="-91.45" font-family="Times,serif" font-size="14.00">wr_addr</text>
</g>
<!-- n32&#45;&gt;p7 -->
<g id="edge26" class="edge">
<title>n32:e&#45;&gt;p7:w</title>
<path fill="none" stroke="black" stroke-width="3" d="M295.21,-96.5C328.07,-96.5 335.55,-117.73 362.66,-122.54"/>
<polygon fill="black" stroke="black" stroke-width="3" points="359.32,-125.77 369.58,-123.12 359.91,-118.8 359.32,-125.77"/>
</g>
<!-- n33 -->
<g id="node15" class="node">
<title>n33</title>
<polygon fill="none" stroke="black" points="285.47,-35.04 285.47,-49.96 263.95,-60.5 233.51,-60.5 211.98,-49.96 211.98,-35.04 233.51,-24.5 263.95,-24.5 285.47,-35.04"/>
<text text-anchor="middle" x="248.73" y="-37.45" font-family="Times,serif" font-size="14.00">wr_en</text>
</g>
<!-- n33&#45;&gt;p7 -->
<g id="edge27" class="edge">
<title>n33:e&#45;&gt;p7:w</title>
<path fill="none" stroke="black" d="M286.82,-42.5C312.58,-42.5 318.97,-52.25 338.1,-69.5 356.01,-85.65 348.98,-112.53 363.04,-120.92"/>
<polygon fill="black" stroke="black" points="362.09,-124.29 372.63,-123.16 363.68,-117.48 362.09,-124.29"/>
</g>
<!-- n34 -->
<g id="node16" class="node">
<title>n34</title>
<polygon fill="none" stroke="black" points="93.44,-510.04 93.44,-524.96 74.83,-535.5 48.52,-535.5 29.91,-524.96 29.91,-510.04 48.52,-499.5 74.83,-499.5 93.44,-510.04"/>
<text text-anchor="middle" x="61.68" y="-512.45" font-family="Times,serif" font-size="14.00">rst_n</text>
</g>
<!-- c44 -->
<g id="node24" class="node">
<title>c44</title>
<polygon fill="none" stroke="black" points="186.1,-497 186.1,-538 311.35,-538 311.35,-497 186.1,-497"/>
<text text-anchor="middle" x="198.98" y="-512.7" font-family="Times,serif" font-size="14.00">A</text>
<polyline fill="none" stroke="black" points="211.85,-497 211.85,-538"/>
<text text-anchor="middle" x="248.73" y="-520.7" font-family="Times,serif" font-size="14.00">$10</text>
<text text-anchor="middle" x="248.73" y="-504.2" font-family="Times,serif" font-size="14.00">$logic_not</text>
<polyline fill="none" stroke="black" points="285.6,-497 285.6,-538"/>
<text text-anchor="middle" x="298.48" y="-512.7" font-family="Times,serif" font-size="14.00">Y</text>
</g>
<!-- n34&#45;&gt;c44 -->
<g id="edge28" class="edge">
<title>n34:e&#45;&gt;c44:w</title>
<path fill="none" stroke="black" d="M94.74,-517.5C130.82,-517.5 142.59,-517.7 173.73,-517.74"/>
<polygon fill="black" stroke="black" points="173.59,-521.24 183.59,-517.75 173.59,-514.24 173.59,-521.24"/>
</g>
<!-- n34&#45;&gt;p6 -->
<g id="edge29" class="edge">
<title>n34:e&#45;&gt;p6:w</title>
<path fill="none" stroke="black" d="M94.74,-517.5C126.4,-517.5 128.43,-494.33 159.35,-487.5 236.93,-470.37 272.05,-443.35 338.1,-487.5 368.95,-508.12 340.49,-560.58 362.83,-572.2"/>
<polygon fill="black" stroke="black" points="362.12,-575.63 372.62,-574.2 363.52,-568.77 362.12,-575.63"/>
</g>
<!-- n35 -->
<g id="node17" class="node">
<title>n35</title>
<polygon fill="none" stroke="black" points="275.73,-197.04 275.73,-211.96 259.91,-222.5 237.54,-222.5 221.73,-211.96 221.73,-197.04 237.54,-186.5 259.91,-186.5 275.73,-197.04"/>
<text text-anchor="middle" x="248.73" y="-199.45" font-family="Times,serif" font-size="14.00">clk</text>
</g>
<!-- n35&#45;&gt;p6 -->
<g id="edge30" class="edge">
<title>n35:e&#45;&gt;p6:w</title>
<path fill="none" stroke="black" d="M276.98,-204.5C306.68,-204.5 320.61,-207.5 338.1,-231.5 380.77,-290.05 306.45,-544.41 362.94,-572.06"/>
<polygon fill="black" stroke="black" points="362.11,-575.46 372.62,-574.18 363.6,-568.62 362.11,-575.46"/>
</g>
<!-- n35&#45;&gt;p7 -->
<g id="edge31" class="edge">
<title>n35:e&#45;&gt;p7:w</title>
<path fill="none" stroke="black" d="M276.98,-204.5C306.68,-204.5 315.38,-196.62 338.1,-177.5 356.55,-161.98 349.16,-134.67 363.08,-126.13"/>
<polygon fill="black" stroke="black" points="363.72,-129.58 372.63,-123.85 362.09,-122.77 363.72,-129.58"/>
</g>
<!-- v0 -->
<g id="node18" class="node">
<title>v0</title>
<ellipse fill="none" stroke="black" cx="61.68" cy="-355.5" rx="27" ry="18"/>
<text text-anchor="middle" x="61.68" y="-350.45" font-family="Times,serif" font-size="14.00">1&#39;x</text>
</g>
<!-- v0&#45;&gt;c40 -->
<g id="edge32" class="edge">
<title>v0:e&#45;&gt;c40:w</title>
<path fill="none" stroke="black" d="M89.93,-355.5C120.18,-355.5 127.67,-373.65 152.41,-378.05"/>
<polygon fill="black" stroke="black" points="151.96,-381.52 162.22,-378.87 152.55,-374.55 151.96,-381.52"/>
</g>
<!-- v1 -->
<g id="node19" class="node">
<title>v1</title>
<ellipse fill="none" stroke="black" cx="61.68" cy="-409.5" rx="27" ry="18"/>
<text text-anchor="middle" x="61.68" y="-404.45" font-family="Times,serif" font-size="14.00">1&#39;x</text>
</g>
<!-- v1&#45;&gt;c40 -->
<g id="edge33" class="edge">
<title>v1:e&#45;&gt;c40:w</title>
<path fill="none" stroke="black" d="M89.93,-409.5C118.72,-409.5 128.43,-404.91 152.46,-403.76"/>
<polygon fill="black" stroke="black" points="152.3,-407.26 162.21,-403.53 152.14,-400.26 152.3,-407.26"/>
</g>
<!-- c40&#45;&gt;p6 -->
<g id="edge1" class="edge">
<title>c40:e&#45;&gt;p6:w</title>
<path fill="none" stroke="black" stroke-width="3" d="M333.73,-403.5C407.55,-403.5 308.1,-556.31 362.97,-573.02"/>
<polygon fill="black" stroke="black" stroke-width="3" points="359.23,-576.06 369.6,-573.9 360.15,-569.12 359.23,-576.06"/>
</g>
<!-- v2 -->
<g id="node21" class="node">
<title>v2</title>
<ellipse fill="none" stroke="black" cx="61.68" cy="-193.5" rx="27" ry="18"/>
<text text-anchor="middle" x="61.68" y="-188.45" font-family="Times,serif" font-size="14.00">1&#39;x</text>
</g>
<!-- v2&#45;&gt;c41 -->
<g id="edge34" class="edge">
<title>v2:e&#45;&gt;c41:w</title>
<path fill="none" stroke="black" d="M89.93,-193.5C127.78,-193.5 123.18,-241.53 152.41,-251.28"/>
<polygon fill="black" stroke="black" points="151.82,-254.73 162.23,-252.77 152.87,-247.81 151.82,-254.73"/>
</g>
<!-- v3 -->
<g id="node22" class="node">
<title>v3</title>
<ellipse fill="none" stroke="black" cx="61.68" cy="-247.5" rx="27" ry="18"/>
<text text-anchor="middle" x="61.68" y="-242.45" font-family="Times,serif" font-size="14.00">1&#39;x</text>
</g>
<!-- v3&#45;&gt;c41 -->
<g id="edge35" class="edge">
<title>v3:e&#45;&gt;c41:w</title>
<path fill="none" stroke="black" d="M89.93,-247.5C121.19,-247.5 127.18,-270.88 152.51,-276.36"/>
<polygon fill="black" stroke="black" points="151.92,-279.82 162.22,-277.35 152.63,-272.85 151.92,-279.82"/>
</g>
<!-- c41&#45;&gt;p6 -->
<g id="edge7" class="edge">
<title>c41:e&#45;&gt;p6:w</title>
<path fill="none" stroke="black" stroke-width="3" d="M333.73,-277.5C396.17,-277.5 318.48,-538.54 363.4,-571.16"/>
<polygon fill="black" stroke="black" stroke-width="3" points="359.18,-573.51 369.77,-573.15 361.26,-566.83 359.18,-573.51"/>
</g>
<!-- c44&#45;&gt;p6 -->
<g id="edge23" class="edge">
<title>c44:e&#45;&gt;p6:w</title>
<path fill="none" stroke="black" d="M312.35,-517.75C345.26,-517.75 339.14,-561.98 362.9,-572.34"/>
<polygon fill="black" stroke="black" points="362.13,-575.76 372.62,-574.21 363.46,-568.89 362.13,-575.76"/>
</g>
<!-- v5 -->
<g id="node25" class="node">
<title>v5</title>
<ellipse fill="none" stroke="black" cx="61.68" cy="-847.5" rx="27" ry="18"/>
<text text-anchor="middle" x="61.68" y="-842.45" font-family="Times,serif" font-size="14.00">1&#39;0</text>
</g>
<!-- p4 -->
<g id="node26" class="node">
<title>p4</title>
<path fill="none" stroke="black" d="M326.1,-868C326.1,-868 171.35,-868 171.35,-868 165.35,-868 159.35,-862 159.35,-856 159.35,-856 159.35,-839 159.35,-839 159.35,-833 165.35,-827 171.35,-827 171.35,-827 326.1,-827 326.1,-827 332.1,-827 338.1,-833 338.1,-839 338.1,-839 338.1,-856 338.1,-856 338.1,-862 332.1,-868 326.1,-868"/>
<text text-anchor="middle" x="248.73" y="-850.7" font-family="Times,serif" font-size="14.00">PROC $13</text>
<text text-anchor="middle" x="248.73" y="-834.2" font-family="Times,serif" font-size="14.00">unified_buffer.sv:61.10&#45;61.10</text>
</g>
<!-- v5&#45;&gt;p4 -->
<g id="edge36" class="edge">
<title>v5:e&#45;&gt;p4:w</title>
<path fill="none" stroke="black" d="M89.93,-847.5C116.57,-847.5 125.96,-847.5 147.88,-847.5"/>
<polygon fill="black" stroke="black" points="147.84,-851 157.84,-847.5 147.84,-844 147.84,-851"/>
</g>
<!-- p6&#45;&gt;n19 -->
<g id="edge5" class="edge">
<title>p6:e&#45;&gt;n19:w</title>
<path fill="none" stroke="black" stroke-width="3" d="M540.35,-574.5C613.43,-574.5 377.32,-781.8 309.3,-808.5 284.18,-818.36 207.5,-827.04 187.9,-808.5 185.9,-806.61 184.21,-803.89 183.18,-801.14"/>
<polygon fill="black" stroke="black" stroke-width="3" points="185.4,-805.38 185.4,-794.79 178.8,-803.07 185.4,-805.38"/>
</g>
<!-- p6&#45;&gt;n20 -->
<g id="edge8" class="edge">
<title>p6:e&#45;&gt;n20:w</title>
<path fill="none" stroke="black" d="M539.35,-574.5C585.52,-574.5 536.19,-663.97 565.2,-680.04"/>
<polygon fill="black" stroke="black" points="564.25,-683.42 574.77,-682.17 565.77,-676.58 564.25,-683.42"/>
</g>
<!-- p6&#45;&gt;n21 -->
<g id="edge10" class="edge">
<title>p6:e&#45;&gt;n21:w</title>
<path fill="none" stroke="black" d="M539.35,-574.5C563.46,-574.5 552.26,-612.23 564.79,-624.62"/>
<polygon fill="black" stroke="black" points="563.34,-627.81 573.93,-627.98 565.75,-621.24 563.34,-627.81"/>
</g>
<!-- p6&#45;&gt;n25 -->
<g id="edge15" class="edge">
<title>p6:e&#45;&gt;n25:w</title>
<path fill="none" stroke="black" stroke-width="3" d="M539.35,-574.5C561.12,-574.5 569.24,-574.5 586.53,-574.5"/>
<polygon fill="black" stroke="black" stroke-width="3" points="583.41,-578 593.41,-574.5 583.41,-571 583.41,-578"/>
</g>
<!-- p6&#45;&gt;n26 -->
<g id="edge17" class="edge">
<title>p6:e&#45;&gt;n26:w</title>
<path fill="none" stroke="black" d="M539.35,-574.5C565.61,-574.5 556.38,-535.34 572.11,-523.72"/>
<polygon fill="black" stroke="black" points="572.89,-527.14 581.48,-520.93 570.89,-520.43 572.89,-527.14"/>
</g>
<!-- p6&#45;&gt;n27 -->
<g id="edge19" class="edge">
<title>p6:e&#45;&gt;n27:w</title>
<path fill="none" stroke="black" d="M539.35,-574.5C586.33,-574.5 539.03,-484.26 569.81,-468.76"/>
<polygon fill="black" stroke="black" points="570.14,-472.26 579.22,-466.81 568.72,-465.41 570.14,-472.26"/>
</g>
<!-- n16 -->
<g id="node29" class="node">
<title>n16</title>
<polygon fill="none" stroke="black" points="653.09,-195.5 600.74,-177.5 653.09,-159.5 705.45,-177.5 653.09,-195.5"/>
<text text-anchor="middle" x="653.09" y="-172.45" font-family="Times,serif" font-size="14.00">$1_EN</text>
</g>
<!-- p7&#45;&gt;n16 -->
<g id="edge2" class="edge">
<title>p7:e&#45;&gt;n16:w</title>
<path fill="none" stroke="black" stroke-width="3" d="M539.35,-123.5C570.62,-123.5 565.08,-165.21 587.44,-175.32"/>
<polygon fill="black" stroke="black" stroke-width="3" points="583.49,-178.1 593.98,-176.62 584.85,-171.23 583.49,-178.1"/>
</g>
<!-- n17 -->
<g id="node30" class="node">
<title>n17</title>
<polygon fill="none" stroke="black" points="653.09,-141.5 584.09,-123.5 653.09,-105.5 722.1,-123.5 653.09,-141.5"/>
<text text-anchor="middle" x="653.09" y="-118.45" font-family="Times,serif" font-size="14.00">$1_DATA</text>
</g>
<!-- p7&#45;&gt;n17 -->
<g id="edge3" class="edge">
<title>p7:e&#45;&gt;n17:w</title>
<path fill="none" stroke="black" stroke-width="3" d="M539.35,-123.5C553.5,-123.5 559.61,-123.5 569.87,-123.5"/>
<polygon fill="black" stroke="black" stroke-width="3" points="566.83,-127 576.83,-123.5 566.83,-120 566.83,-127"/>
</g>
<!-- n18 -->
<g id="node31" class="node">
<title>n18</title>
<polygon fill="none" stroke="black" points="653.09,-87.5 581.2,-69.5 653.09,-51.5 724.99,-69.5 653.09,-87.5"/>
<text text-anchor="middle" x="653.09" y="-64.45" font-family="Times,serif" font-size="14.00">$1_ADDR</text>
</g>
<!-- p7&#45;&gt;n18 -->
<g id="edge4" class="edge">
<title>p7:e&#45;&gt;n18:w</title>
<path fill="none" stroke="black" stroke-width="3" d="M539.35,-123.5C564.34,-123.5 553.88,-85.06 567.79,-73.04"/>
<polygon fill="black" stroke="black" stroke-width="3" points="565.72,-77.42 574.1,-70.94 563.5,-70.78 565.72,-77.42"/>
</g>
</g>
</svg>
