<?xml version="1.0" encoding="UTF-8" standalone="no"?>
<!DOCTYPE svg PUBLIC "-//W3C//DTD SVG 1.1//EN"
 "http://www.w3.org/Graphics/SVG/1.1/DTD/svg11.dtd">
<!-- Generated by graphviz version 12.2.1 (20241206.2353)
 -->
<!-- Title: TinyNPUBitSelectionFlow Pages: 1 -->
<svg width="588pt" height="836pt"
 viewBox="0.00 0.00 587.82 836.40" xmlns="http://www.w3.org/2000/svg" xmlns:xlink="http://www.w3.org/1999/xlink">
<g id="graph0" class="graph" transform="scale(1 1) rotate(0) translate(7.2 829.2)">
<title>TinyNPUBitSelectionFlow</title>
<polygon fill="white" stroke="none" points="-7.2,7.2 -7.2,-829.2 580.62,-829.2 580.62,7.2 -7.2,7.2"/>
<!-- Start -->
<g id="node1" class="node">
<title>Start</title>
<ellipse fill="#f4f7fb" stroke="#6f8fb3" stroke-width="1.8" cx="191.14" cy="-800.15" rx="122.36" ry="21.85"/>
<text text-anchor="middle" x="191.14" y="-796.05" font-family="Helvetica,sans-Serif" font-size="13.00" fill="#233142">QAT model + layer list</text>
</g>
<!-- Baseline -->
<g id="node2" class="node">
<title>Baseline</title>
<polygon fill="#e8f0fe" stroke="#557aab" stroke-width="1.8" points="299.41,-749.3 82.87,-749.3 82.87,-701.9 299.41,-701.9 299.41,-749.3"/>
<text text-anchor="middle" x="191.14" y="-729.75" font-family="Helvetica,sans-Serif" font-size="13.00" fill="#1f2d3d">collect baseline layer configs</text>
<text text-anchor="middle" x="191.14" y="-713.25" font-family="Helvetica,sans-Serif" font-size="13.00" fill="#1f2d3d">collect parameter counts</text>
</g>
<!-- Start&#45;&gt;Baseline -->
<g id="edge1" class="edge">
<title>Start&#45;&gt;Baseline</title>
<path fill="none" stroke="#2f2f2f" stroke-width="1.6" d="M191.14,-778.16C191.14,-772.43 191.14,-766.07 191.14,-759.82"/>
<polygon fill="#2f2f2f" stroke="#2f2f2f" stroke-width="1.6" points="193.95,-759.99 191.15,-751.99 188.35,-759.99 193.95,-759.99"/>
</g>
<!-- Candidates -->
<g id="node3" class="node">
<title>Candidates</title>
<polygon fill="#e8f0fe" stroke="#557aab" stroke-width="1.8" points="287.79,-672.9 94.5,-672.9 94.5,-625.5 287.79,-625.5 287.79,-672.9"/>
<text text-anchor="middle" x="191.14" y="-653.35" font-family="Helvetica,sans-Serif" font-size="13.00" fill="#1f2d3d">define candidate bit pairs</text>
<text text-anchor="middle" x="191.14" y="-636.85" font-family="Helvetica,sans-Serif" font-size="13.00" fill="#1f2d3d">(16,16), (8,8), (4,4)</text>
</g>
<!-- Baseline&#45;&gt;Candidates -->
<g id="edge2" class="edge">
<title>Baseline&#45;&gt;Candidates</title>
<path fill="none" stroke="#2f2f2f" stroke-width="1.6" d="M191.14,-701.47C191.14,-695.73 191.14,-689.47 191.14,-683.35"/>
<polygon fill="#2f2f2f" stroke="#2f2f2f" stroke-width="1.6" points="193.95,-683.74 191.15,-675.74 188.35,-683.74 193.95,-683.74"/>
</g>
<!-- Loop -->
<g id="node4" class="node">
<title>Loop</title>
<polygon fill="#f4f7fb" stroke="#6f8fb3" stroke-width="1.8" points="191.14,-596.5 66.11,-549.1 191.14,-501.7 316.18,-549.1 191.14,-596.5"/>
<text text-anchor="middle" x="191.14" y="-553.25" font-family="Helvetica,sans-Serif" font-size="13.00" fill="#233142">for each layer</text>
<text text-anchor="middle" x="191.14" y="-536.75" font-family="Helvetica,sans-Serif" font-size="13.00" fill="#233142">and candidate?</text>
</g>
<!-- Candidates&#45;&gt;Loop -->
<g id="edge3" class="edge">
<title>Candidates&#45;&gt;Loop</title>
<path fill="none" stroke="#2f2f2f" stroke-width="1.6" d="M191.14,-625.45C191.14,-619.8 191.14,-613.49 191.14,-607"/>
<polygon fill="#2f2f2f" stroke="#2f2f2f" stroke-width="1.6" points="193.95,-607.13 191.15,-599.13 188.35,-607.13 193.95,-607.13"/>
</g>
<!-- Apply -->
<g id="node5" class="node">
<title>Apply</title>
<polygon fill="#e8f0fe" stroke="#557aab" stroke-width="1.8" points="294.16,-460.95 130.12,-460.95 130.12,-413.55 294.16,-413.55 294.16,-460.95"/>
<text text-anchor="middle" x="212.14" y="-441.4" font-family="Helvetica,sans-Serif" font-size="13.00" fill="#1f2d3d">apply one trial config</text>
<text text-anchor="middle" x="212.14" y="-424.9" font-family="Helvetica,sans-Serif" font-size="13.00" fill="#1f2d3d">to one layer</text>
</g>
<!-- Loop&#45;&gt;Apply -->
<g id="edge4" class="edge">
<title>Loop&#45;&gt;Apply</title>
<path fill="none" stroke="#2f2f2f" stroke-width="1.6" d="M199.51,-504.37C201.62,-493.33 203.85,-481.66 205.84,-471.25"/>
<polygon fill="#2f2f2f" stroke="#2f2f2f" stroke-width="1.6" points="208.53,-472.09 207.28,-463.71 203.03,-471.04 208.53,-472.09"/>
<text text-anchor="middle" x="213.38" y="-478.2" font-family="Helvetica,sans-Serif" font-size="10.00">yes</text>
</g>
<!-- Rank -->
<g id="node9" class="node">
<title>Rank</title>
<polygon fill="#fff4e8" stroke="#c98a43" stroke-width="1.8" points="565.54,-460.95 340.75,-460.95 340.75,-413.55 565.54,-413.55 565.54,-460.95"/>
<text text-anchor="middle" x="453.14" y="-441.4" font-family="Helvetica,sans-Serif" font-size="13.00" fill="#4a3520">rank layers by sensitivity</text>
<text text-anchor="middle" x="453.14" y="-424.9" font-family="Helvetica,sans-Serif" font-size="13.00" fill="#4a3520">using low&#45;precision score drop</text>
</g>
<!-- Loop&#45;&gt;Rank -->
<g id="edge9" class="edge">
<title>Loop&#45;&gt;Rank</title>
<path fill="none" stroke="#2f2f2f" stroke-width="1.6" d="M249.62,-523.58C290.84,-506.3 346.05,-483.15 388.57,-465.32"/>
<polygon fill="#2f2f2f" stroke="#2f2f2f" stroke-width="1.6" points="389.46,-467.99 395.75,-462.31 387.29,-462.82 389.46,-467.99"/>
<text text-anchor="middle" x="372.92" y="-478.2" font-family="Helvetica,sans-Serif" font-size="10.00">done</text>
</g>
<!-- Recal -->
<g id="node6" class="node">
<title>Recal</title>
<polygon fill="#e8f0fe" stroke="#557aab" stroke-width="1.8" points="305.29,-372.8 133,-372.8 133,-325.4 305.29,-325.4 305.29,-372.8"/>
<text text-anchor="middle" x="219.14" y="-353.25" font-family="Helvetica,sans-Serif" font-size="13.00" fill="#1f2d3d">recalibrate QAT scales</text>
<text text-anchor="middle" x="219.14" y="-336.75" font-family="Helvetica,sans-Serif" font-size="13.00" fill="#1f2d3d">with calibration data</text>
</g>
<!-- Apply&#45;&gt;Recal -->
<g id="edge5" class="edge">
<title>Apply&#45;&gt;Recal</title>
<path fill="none" stroke="#2f2f2f" stroke-width="1.6" d="M214.02,-413.16C214.76,-404.09 215.62,-393.49 216.42,-383.6"/>
<polygon fill="#2f2f2f" stroke="#2f2f2f" stroke-width="1.6" points="219.21,-383.86 217.07,-375.66 213.63,-383.41 219.21,-383.86"/>
<text text-anchor="middle" x="238.19" y="-390.05" font-family="Helvetica,sans-Serif" font-size="10.00">next trial</text>
</g>
<!-- Eval -->
<g id="node7" class="node">
<title>Eval</title>
<polygon fill="#e8f0fe" stroke="#557aab" stroke-width="1.8" points="296.66,-278.95 105.62,-278.95 105.62,-242.95 296.66,-242.95 296.66,-278.95"/>
<text text-anchor="middle" x="201.14" y="-256.85" font-family="Helvetica,sans-Serif" font-size="13.00" fill="#1f2d3d">evaluate validation score</text>
</g>
<!-- Recal&#45;&gt;Eval -->
<g id="edge6" class="edge">
<title>Recal&#45;&gt;Eval</title>
<path fill="none" stroke="#2f2f2f" stroke-width="1.6" d="M214.32,-325.01C212.03,-314.02 209.26,-300.8 206.86,-289.31"/>
<polygon fill="#2f2f2f" stroke="#2f2f2f" stroke-width="1.6" points="209.65,-288.99 205.28,-281.73 204.17,-290.13 209.65,-288.99"/>
<text text-anchor="middle" x="233.35" y="-301.9" font-family="Helvetica,sans-Serif" font-size="10.00">next trial</text>
</g>
<!-- Record -->
<g id="node8" class="node">
<title>Record</title>
<polygon fill="#e8f0fe" stroke="#557aab" stroke-width="1.8" points="208.29,-196.5 0,-196.5 0,-149.1 208.29,-149.1 208.29,-196.5"/>
<text text-anchor="middle" x="104.14" y="-176.95" font-family="Helvetica,sans-Serif" font-size="13.00" fill="#1f2d3d">record score delta</text>
<text text-anchor="middle" x="104.14" y="-160.45" font-family="Helvetica,sans-Serif" font-size="13.00" fill="#1f2d3d">and estimated weight bytes</text>
</g>
<!-- Eval&#45;&gt;Record -->
<g id="edge7" class="edge">
<title>Eval&#45;&gt;Record</title>
<path fill="none" stroke="#2f2f2f" stroke-width="1.6" d="M181.52,-242.52C168.88,-231.29 152.14,-216.42 137.46,-203.39"/>
<polygon fill="#2f2f2f" stroke="#2f2f2f" stroke-width="1.6" points="139.66,-201.59 131.81,-198.37 135.94,-205.78 139.66,-201.59"/>
<text text-anchor="middle" x="180.58" y="-213.75" font-family="Helvetica,sans-Serif" font-size="10.00">next trial</text>
</g>
<!-- Record&#45;&gt;Loop -->
<g id="edge8" class="edge">
<title>Record&#45;&gt;Loop</title>
<path fill="none" stroke="#2f2f2f" stroke-width="1.6" d="M89.53,-196.97C80.31,-213.78 70.14,-237.44 70.14,-259.95 70.14,-438.25 70.14,-438.25 70.14,-438.25 70.14,-472.58 97.17,-498.99 125.68,-517.31"/>
<polygon fill="#2f2f2f" stroke="#2f2f2f" stroke-width="1.6" points="124.19,-519.68 132.48,-521.47 127.11,-514.9 124.19,-519.68"/>
<text text-anchor="middle" x="92.27" y="-345.97" font-family="Helvetica,sans-Serif" font-size="10.00">next trial</text>
</g>
<!-- Select -->
<g id="node10" class="node">
<title>Select</title>
<polygon fill="#fff4e8" stroke="#c98a43" stroke-width="1.8" points="573.41,-372.8 332.88,-372.8 332.88,-325.4 573.41,-325.4 573.41,-372.8"/>
<text text-anchor="middle" x="453.14" y="-353.25" font-family="Helvetica,sans-Serif" font-size="13.00" fill="#4a3520">select lowest accepted precision</text>
<text text-anchor="middle" x="453.14" y="-336.75" font-family="Helvetica,sans-Serif" font-size="13.00" fill="#4a3520">under max acceptable drop</text>
</g>
<!-- Rank&#45;&gt;Select -->
<g id="edge10" class="edge">
<title>Rank&#45;&gt;Select</title>
<path fill="none" stroke="#2f2f2f" stroke-width="1.6" d="M453.14,-413.16C453.14,-404.09 453.14,-393.49 453.14,-383.6"/>
<polygon fill="#2f2f2f" stroke="#2f2f2f" stroke-width="1.6" points="455.95,-383.67 453.15,-375.67 450.35,-383.67 455.95,-383.67"/>
</g>
<!-- FineTune -->
<g id="node11" class="node">
<title>FineTune</title>
<polygon fill="#fff4e8" stroke="#c98a43" stroke-width="1.8" points="556.16,-284.65 350.12,-284.65 350.12,-237.25 556.16,-237.25 556.16,-284.65"/>
<text text-anchor="middle" x="453.14" y="-265.1" font-family="Helvetica,sans-Serif" font-size="13.00" fill="#4a3520">flag fine&#45;tuning if selected</text>
<text text-anchor="middle" x="453.14" y="-248.6" font-family="Helvetica,sans-Serif" font-size="13.00" fill="#4a3520">config causes nonzero drop</text>
</g>
<!-- Select&#45;&gt;FineTune -->
<g id="edge11" class="edge">
<title>Select&#45;&gt;FineTune</title>
<path fill="none" stroke="#2f2f2f" stroke-width="1.6" d="M453.14,-325.01C453.14,-315.94 453.14,-305.34 453.14,-295.45"/>
<polygon fill="#2f2f2f" stroke="#2f2f2f" stroke-width="1.6" points="455.95,-295.52 453.15,-287.52 450.35,-295.52 455.95,-295.52"/>
</g>
<!-- Convert -->
<g id="node12" class="node">
<title>Convert</title>
<polygon fill="#efe8ff" stroke="#8b74bd" stroke-width="1.8" points="550.91,-196.5 355.38,-196.5 355.38,-149.1 550.91,-149.1 550.91,-196.5"/>
<text text-anchor="middle" x="453.14" y="-176.95" font-family="Helvetica,sans-Serif" font-size="13.00" fill="#2c2236">convert selected policy to</text>
<text text-anchor="middle" x="453.14" y="-160.45" font-family="Helvetica,sans-Serif" font-size="13.00" fill="#2c2236">compiler&#45;ready model</text>
</g>
<!-- FineTune&#45;&gt;Convert -->
<g id="edge12" class="edge">
<title>FineTune&#45;&gt;Convert</title>
<path fill="none" stroke="#2f2f2f" stroke-width="1.6" d="M453.14,-236.86C453.14,-227.79 453.14,-217.19 453.14,-207.3"/>
<polygon fill="#2f2f2f" stroke="#2f2f2f" stroke-width="1.6" points="455.95,-207.37 453.15,-199.37 450.35,-207.37 455.95,-207.37"/>
</g>
<!-- Compile -->
<g id="node13" class="node">
<title>Compile</title>
<polygon fill="#efe8ff" stroke="#8b74bd" stroke-width="1.8" points="544.91,-120.1 361.38,-120.1 361.38,-72.7 544.91,-72.7 544.91,-120.1"/>
<text text-anchor="middle" x="453.14" y="-100.55" font-family="Helvetica,sans-Serif" font-size="13.00" fill="#2c2236">compile and validate on</text>
<text text-anchor="middle" x="453.14" y="-84.05" font-family="Helvetica,sans-Serif" font-size="13.00" fill="#2c2236">TinyNPU flow</text>
</g>
<!-- Convert&#45;&gt;Compile -->
<g id="edge13" class="edge">
<title>Convert&#45;&gt;Compile</title>
<path fill="none" stroke="#2f2f2f" stroke-width="1.6" d="M453.14,-148.67C453.14,-142.93 453.14,-136.67 453.14,-130.55"/>
<polygon fill="#2f2f2f" stroke="#2f2f2f" stroke-width="1.6" points="455.95,-130.94 453.15,-122.94 450.35,-130.94 455.95,-130.94"/>
</g>
<!-- Done -->
<g id="node14" class="node">
<title>Done</title>
<ellipse fill="#f4f7fb" stroke="#6f8fb3" stroke-width="1.8" cx="453.14" cy="-21.85" rx="120.24" ry="21.85"/>
<text text-anchor="middle" x="453.14" y="-17.75" font-family="Helvetica,sans-Serif" font-size="13.00" fill="#233142">mixed&#45;precision result</text>
</g>
<!-- Compile&#45;&gt;Done -->
<g id="edge14" class="edge">
<title>Compile&#45;&gt;Done</title>
<path fill="none" stroke="#2f2f2f" stroke-width="1.6" d="M453.14,-72.44C453.14,-66.59 453.14,-60.21 453.14,-54.02"/>
<polygon fill="#2f2f2f" stroke="#2f2f2f" stroke-width="1.6" points="455.95,-54.35 453.15,-46.35 450.35,-54.35 455.95,-54.35"/>
</g>
<!-- Note -->
<g id="node15" class="node">
<title>Note</title>
<polygon fill="#fff7d9" stroke="#c9a227" stroke-width="1.8" points="567.29,-581.05 335,-581.05 335,-517.15 573.29,-517.15 573.29,-575.05 567.29,-581.05"/>
<polyline fill="none" stroke="#c9a227" stroke-width="1.8" points="567.29,-581.05 567.29,-575.05"/>
<polyline fill="none" stroke="#c9a227" stroke-width="1.8" points="573.29,-575.05 567.29,-575.05"/>
<text text-anchor="middle" x="454.14" y="-561.5" font-family="Helvetica,sans-Serif" font-size="13.00" fill="#4a3a00">Heuristic helper only:</text>
<text text-anchor="middle" x="454.14" y="-545" font-family="Helvetica,sans-Serif" font-size="13.00" fill="#4a3a00">one&#45;layer&#45;at&#45;a&#45;time trials</text>
<text text-anchor="middle" x="454.14" y="-528.5" font-family="Helvetica,sans-Serif" font-size="13.00" fill="#4a3a00">not a global bit&#45;allocation solver</text>
</g>
<!-- Note&#45;&gt;Rank -->
<g id="edge15" class="edge">
<title>Note&#45;&gt;Rank</title>
<path fill="none" stroke="#2f2f2f" stroke-width="1.6" stroke-dasharray="5,2" d="M453.86,-516.91C453.7,-499.15 453.5,-477.29 453.35,-461.13"/>
</g>
</g>
</svg>
