<?xml version="1.0" encoding="UTF-8" standalone="no"?>
<!DOCTYPE svg PUBLIC "-//W3C//DTD SVG 1.1//EN"
 "http://www.w3.org/Graphics/SVG/1.1/DTD/svg11.dtd">
<!-- Generated by graphviz version 2.43.0 (0)
 -->
<!-- Title: TinyNPUBitSelectionFlow Pages: 1 -->
<svg width="544pt" height="773pt"
 viewBox="0.00 0.00 543.52 772.60" xmlns="http://www.w3.org/2000/svg" xmlns:xlink="http://www.w3.org/1999/xlink">
<g id="graph0" class="graph" transform="scale(1 1) rotate(0) translate(7.2 765.4)">
<title>TinyNPUBitSelectionFlow</title>
<polygon fill="white" stroke="transparent" points="-7.2,7.2 -7.2,-765.4 536.32,-765.4 536.32,7.2 -7.2,7.2"/>
<!-- Start -->
<g id="node1" class="node">
<title>Start</title>
<ellipse fill="#f4f7fb" stroke="#6f8fb3" stroke-width="1.8" cx="222.5" cy="-738.4" rx="123.99" ry="19.6"/>
<text text-anchor="middle" x="222.5" y="-735" font-family="Helvetica,sans-Serif" font-size="13.00" fill="#233142">QAT model + layer list</text>
</g>
<!-- Baseline -->
<g id="node2" class="node">
<title>Baseline</title>
<polygon fill="#e8f0fe" stroke="#557aab" stroke-width="1.8" points="331.5,-689.6 113.5,-689.6 113.5,-647.6 331.5,-647.6 331.5,-689.6"/>
<text text-anchor="middle" x="222.5" y="-672.2" font-family="Helvetica,sans-Serif" font-size="13.00" fill="#1f2d3d">collect baseline layer configs</text>
<text text-anchor="middle" x="222.5" y="-658.2" font-family="Helvetica,sans-Serif" font-size="13.00" fill="#1f2d3d">collect parameter counts</text>
</g>
<!-- Start&#45;&gt;Baseline -->
<g id="edge1" class="edge">
<title>Start&#45;&gt;Baseline</title>
<path fill="none" stroke="#2f2f2f" stroke-width="1.6" d="M222.5,-718.51C222.5,-712.23 222.5,-705.09 222.5,-698.24"/>
<polygon fill="#2f2f2f" stroke="#2f2f2f" stroke-width="1.6" points="225.3,-697.81 222.5,-689.81 219.7,-697.81 225.3,-697.81"/>
</g>
<!-- Candidates -->
<g id="node3" class="node">
<title>Candidates</title>
<polygon fill="#e8f0fe" stroke="#557aab" stroke-width="1.8" points="320,-618.6 125,-618.6 125,-576.6 320,-576.6 320,-618.6"/>
<text text-anchor="middle" x="222.5" y="-601.2" font-family="Helvetica,sans-Serif" font-size="13.00" fill="#1f2d3d">define candidate bit pairs</text>
<text text-anchor="middle" x="222.5" y="-587.2" font-family="Helvetica,sans-Serif" font-size="13.00" fill="#1f2d3d">(16,16), (8,8), (4,4)</text>
</g>
<!-- Baseline&#45;&gt;Candidates -->
<g id="edge2" class="edge">
<title>Baseline&#45;&gt;Candidates</title>
<path fill="none" stroke="#2f2f2f" stroke-width="1.6" d="M222.5,-647.27C222.5,-641.01 222.5,-633.99 222.5,-627.28"/>
<polygon fill="#2f2f2f" stroke="#2f2f2f" stroke-width="1.6" points="225.3,-627.02 222.5,-619.02 219.7,-627.02 225.3,-627.02"/>
</g>
<!-- Loop -->
<g id="node4" class="node">
<title>Loop</title>
<polygon fill="#f4f7fb" stroke="#6f8fb3" stroke-width="1.8" points="222.5,-547.6 95.5,-505.6 222.5,-463.6 349.5,-505.6 222.5,-547.6"/>
<text text-anchor="middle" x="222.5" y="-509.2" font-family="Helvetica,sans-Serif" font-size="13.00" fill="#233142">for each layer</text>
<text text-anchor="middle" x="222.5" y="-495.2" font-family="Helvetica,sans-Serif" font-size="13.00" fill="#233142">and candidate?</text>
</g>
<!-- Candidates&#45;&gt;Loop -->
<g id="edge3" class="edge">
<title>Candidates&#45;&gt;Loop</title>
<path fill="none" stroke="#2f2f2f" stroke-width="1.6" d="M222.5,-576.18C222.5,-570.14 222.5,-563.25 222.5,-556.2"/>
<polygon fill="#2f2f2f" stroke="#2f2f2f" stroke-width="1.6" points="225.3,-555.91 222.5,-547.91 219.7,-555.91 225.3,-555.91"/>
</g>
<!-- Apply -->
<g id="node5" class="node">
<title>Apply</title>
<polygon fill="#e8f0fe" stroke="#557aab" stroke-width="1.8" points="190.5,-424.6 24.5,-424.6 24.5,-382.6 190.5,-382.6 190.5,-424.6"/>
<text text-anchor="middle" x="107.5" y="-407.2" font-family="Helvetica,sans-Serif" font-size="13.00" fill="#1f2d3d">apply one trial config</text>
<text text-anchor="middle" x="107.5" y="-393.2" font-family="Helvetica,sans-Serif" font-size="13.00" fill="#1f2d3d">to one layer</text>
</g>
<!-- Loop&#45;&gt;Apply -->
<g id="edge4" class="edge">
<title>Loop&#45;&gt;Apply</title>
<path fill="none" stroke="#2f2f2f" stroke-width="1.6" d="M188.31,-474.87C172.09,-460.76 152.89,-444.06 137.27,-430.49"/>
<polygon fill="#2f2f2f" stroke="#2f2f2f" stroke-width="1.6" points="138.69,-428.01 130.82,-424.88 135.02,-432.24 138.69,-428.01"/>
<text text-anchor="middle" x="167.5" y="-441.6" font-family="Helvetica,sans-Serif" font-size="10.00">yes</text>
</g>
<!-- Rank -->
<g id="node9" class="node">
<title>Rank</title>
<polygon fill="#fff4e8" stroke="#c98a43" stroke-width="1.8" points="498.5,-424.6 272.5,-424.6 272.5,-382.6 498.5,-382.6 498.5,-424.6"/>
<text text-anchor="middle" x="385.5" y="-407.2" font-family="Helvetica,sans-Serif" font-size="13.00" fill="#4a3520">rank layers by sensitivity</text>
<text text-anchor="middle" x="385.5" y="-393.2" font-family="Helvetica,sans-Serif" font-size="13.00" fill="#4a3520">using low&#45;precision score drop</text>
</g>
<!-- Loop&#45;&gt;Rank -->
<g id="edge9" class="edge">
<title>Loop&#45;&gt;Rank</title>
<path fill="none" stroke="#2f2f2f" stroke-width="1.6" d="M266.18,-477.8C290.99,-462.58 321.8,-443.68 345.89,-428.9"/>
<polygon fill="#2f2f2f" stroke="#2f2f2f" stroke-width="1.6" points="347.47,-431.22 352.82,-424.65 344.54,-426.44 347.47,-431.22"/>
<text text-anchor="middle" x="340" y="-441.6" font-family="Helvetica,sans-Serif" font-size="10.00">done</text>
</g>
<!-- Recal -->
<g id="node6" class="node">
<title>Recal</title>
<polygon fill="#e8f0fe" stroke="#557aab" stroke-width="1.8" points="184.5,-343.6 10.5,-343.6 10.5,-301.6 184.5,-301.6 184.5,-343.6"/>
<text text-anchor="middle" x="97.5" y="-326.2" font-family="Helvetica,sans-Serif" font-size="13.00" fill="#1f2d3d">recalibrate QAT scales</text>
<text text-anchor="middle" x="97.5" y="-312.2" font-family="Helvetica,sans-Serif" font-size="13.00" fill="#1f2d3d">with calibration data</text>
</g>
<!-- Apply&#45;&gt;Recal -->
<g id="edge5" class="edge">
<title>Apply&#45;&gt;Recal</title>
<path fill="none" stroke="#2f2f2f" stroke-width="1.6" d="M104.92,-382.25C103.75,-372.97 102.34,-361.82 101.06,-351.74"/>
<polygon fill="#2f2f2f" stroke="#2f2f2f" stroke-width="1.6" points="103.81,-351.19 100.03,-343.6 98.26,-351.89 103.81,-351.19"/>
<text text-anchor="middle" x="126" y="-360.6" font-family="Helvetica,sans-Serif" font-size="10.00">next trial</text>
</g>
<!-- Eval -->
<g id="node7" class="node">
<title>Eval</title>
<polygon fill="#e8f0fe" stroke="#557aab" stroke-width="1.8" points="193,-259.6 0,-259.6 0,-223.6 193,-223.6 193,-259.6"/>
<text text-anchor="middle" x="96.5" y="-238.2" font-family="Helvetica,sans-Serif" font-size="13.00" fill="#1f2d3d">evaluate validation score</text>
</g>
<!-- Recal&#45;&gt;Eval -->
<g id="edge6" class="edge">
<title>Recal&#45;&gt;Eval</title>
<path fill="none" stroke="#2f2f2f" stroke-width="1.6" d="M97.24,-301.25C97.11,-291.08 96.96,-278.67 96.82,-267.89"/>
<polygon fill="#2f2f2f" stroke="#2f2f2f" stroke-width="1.6" points="99.62,-267.63 96.72,-259.67 94.02,-267.7 99.62,-267.63"/>
<text text-anchor="middle" x="120" y="-279.6" font-family="Helvetica,sans-Serif" font-size="10.00">next trial</text>
</g>
<!-- Record -->
<g id="node8" class="node">
<title>Record</title>
<polygon fill="#e8f0fe" stroke="#557aab" stroke-width="1.8" points="262.5,-181.6 52.5,-181.6 52.5,-139.6 262.5,-139.6 262.5,-181.6"/>
<text text-anchor="middle" x="157.5" y="-164.2" font-family="Helvetica,sans-Serif" font-size="13.00" fill="#1f2d3d">record score delta</text>
<text text-anchor="middle" x="157.5" y="-150.2" font-family="Helvetica,sans-Serif" font-size="13.00" fill="#1f2d3d">and estimated weight bytes</text>
</g>
<!-- Eval&#45;&gt;Record -->
<g id="edge7" class="edge">
<title>Eval&#45;&gt;Record</title>
<path fill="none" stroke="#2f2f2f" stroke-width="1.6" d="M109.74,-223.46C117.64,-213.21 127.86,-199.98 136.82,-188.38"/>
<polygon fill="#2f2f2f" stroke="#2f2f2f" stroke-width="1.6" points="139.24,-189.82 141.92,-181.78 134.81,-186.4 139.24,-189.82"/>
<text text-anchor="middle" x="154" y="-198.6" font-family="Helvetica,sans-Serif" font-size="10.00">next trial</text>
</g>
<!-- Record&#45;&gt;Loop -->
<g id="edge8" class="edge">
<title>Record&#45;&gt;Loop</title>
<path fill="none" stroke="#2f2f2f" stroke-width="1.6" d="M187.34,-181.79C204.42,-195.96 222.5,-216.62 222.5,-240.6 222.5,-404.6 222.5,-404.6 222.5,-404.6 222.5,-421.01 222.5,-438.93 222.5,-455.02"/>
<polygon fill="#2f2f2f" stroke="#2f2f2f" stroke-width="1.6" points="219.7,-455.24 222.5,-463.24 225.3,-455.24 219.7,-455.24"/>
<text text-anchor="middle" x="245" y="-320.1" font-family="Helvetica,sans-Serif" font-size="10.00">next trial</text>
</g>
<!-- Select -->
<g id="node10" class="node">
<title>Select</title>
<polygon fill="#fff4e8" stroke="#c98a43" stroke-width="1.8" points="528.5,-343.6 286.5,-343.6 286.5,-301.6 528.5,-301.6 528.5,-343.6"/>
<text text-anchor="middle" x="407.5" y="-326.2" font-family="Helvetica,sans-Serif" font-size="13.00" fill="#4a3520">select lowest accepted precision</text>
<text text-anchor="middle" x="407.5" y="-312.2" font-family="Helvetica,sans-Serif" font-size="13.00" fill="#4a3520">under max acceptable drop</text>
</g>
<!-- Rank&#45;&gt;Select -->
<g id="edge10" class="edge">
<title>Rank&#45;&gt;Select</title>
<path fill="none" stroke="#2f2f2f" stroke-width="1.6" d="M391.17,-382.25C393.78,-372.87 396.92,-361.59 399.75,-351.44"/>
<polygon fill="#2f2f2f" stroke="#2f2f2f" stroke-width="1.6" points="402.48,-352.06 401.93,-343.6 397.09,-350.56 402.48,-352.06"/>
</g>
<!-- FineTune -->
<g id="node11" class="node">
<title>FineTune</title>
<polygon fill="#fff4e8" stroke="#c98a43" stroke-width="1.8" points="511.5,-262.6 303.5,-262.6 303.5,-220.6 511.5,-220.6 511.5,-262.6"/>
<text text-anchor="middle" x="407.5" y="-245.2" font-family="Helvetica,sans-Serif" font-size="13.00" fill="#4a3520">flag fine&#45;tuning if selected</text>
<text text-anchor="middle" x="407.5" y="-231.2" font-family="Helvetica,sans-Serif" font-size="13.00" fill="#4a3520">config causes nonzero drop</text>
</g>
<!-- Select&#45;&gt;FineTune -->
<g id="edge11" class="edge">
<title>Select&#45;&gt;FineTune</title>
<path fill="none" stroke="#2f2f2f" stroke-width="1.6" d="M407.5,-301.25C407.5,-291.97 407.5,-280.82 407.5,-270.74"/>
<polygon fill="#2f2f2f" stroke="#2f2f2f" stroke-width="1.6" points="410.3,-270.6 407.5,-262.6 404.7,-270.6 410.3,-270.6"/>
</g>
<!-- Convert -->
<g id="node12" class="node">
<title>Convert</title>
<polygon fill="#efe8ff" stroke="#8b74bd" stroke-width="1.8" points="506,-181.6 309,-181.6 309,-139.6 506,-139.6 506,-181.6"/>
<text text-anchor="middle" x="407.5" y="-164.2" font-family="Helvetica,sans-Serif" font-size="13.00" fill="#2c2236">convert selected policy to</text>
<text text-anchor="middle" x="407.5" y="-150.2" font-family="Helvetica,sans-Serif" font-size="13.00" fill="#2c2236">compiler&#45;ready model</text>
</g>
<!-- FineTune&#45;&gt;Convert -->
<g id="edge12" class="edge">
<title>FineTune&#45;&gt;Convert</title>
<path fill="none" stroke="#2f2f2f" stroke-width="1.6" d="M407.5,-220.25C407.5,-210.97 407.5,-199.82 407.5,-189.74"/>
<polygon fill="#2f2f2f" stroke="#2f2f2f" stroke-width="1.6" points="410.3,-189.6 407.5,-181.6 404.7,-189.6 410.3,-189.6"/>
</g>
<!-- Compile -->
<g id="node13" class="node">
<title>Compile</title>
<polygon fill="#efe8ff" stroke="#8b74bd" stroke-width="1.8" points="500,-110.6 315,-110.6 315,-68.6 500,-68.6 500,-110.6"/>
<text text-anchor="middle" x="407.5" y="-93.2" font-family="Helvetica,sans-Serif" font-size="13.00" fill="#2c2236">compile and validate on</text>
<text text-anchor="middle" x="407.5" y="-79.2" font-family="Helvetica,sans-Serif" font-size="13.00" fill="#2c2236">TinyNPU flow</text>
</g>
<!-- Convert&#45;&gt;Compile -->
<g id="edge13" class="edge">
<title>Convert&#45;&gt;Compile</title>
<path fill="none" stroke="#2f2f2f" stroke-width="1.6" d="M407.5,-139.27C407.5,-133.01 407.5,-125.99 407.5,-119.28"/>
<polygon fill="#2f2f2f" stroke="#2f2f2f" stroke-width="1.6" points="410.3,-119.02 407.5,-111.02 404.7,-119.02 410.3,-119.02"/>
</g>
<!-- Done -->
<g id="node14" class="node">
<title>Done</title>
<ellipse fill="#f4f7fb" stroke="#6f8fb3" stroke-width="1.8" cx="407.5" cy="-19.8" rx="121.74" ry="19.6"/>
<text text-anchor="middle" x="407.5" y="-16.4" font-family="Helvetica,sans-Serif" font-size="13.00" fill="#233142">mixed&#45;precision result</text>
</g>
<!-- Compile&#45;&gt;Done -->
<g id="edge14" class="edge">
<title>Compile&#45;&gt;Done</title>
<path fill="none" stroke="#2f2f2f" stroke-width="1.6" d="M407.5,-68.26C407.5,-61.89 407.5,-54.77 407.5,-48.01"/>
<polygon fill="#2f2f2f" stroke="#2f2f2f" stroke-width="1.6" points="410.3,-47.74 407.5,-39.74 404.7,-47.74 410.3,-47.74"/>
</g>
</g>
</svg>
