<?xml version="1.0" encoding="UTF-8" standalone="no"?>
<!DOCTYPE svg PUBLIC "-//W3C//DTD SVG 1.1//EN"
 "http://www.w3.org/Graphics/SVG/1.1/DTD/svg11.dtd">
<!-- Generated by graphviz version 2.43.0 (0)
 -->
<!-- Title: TinyNPUCompilerStack Pages: 1 -->
<svg width="650pt" height="1147pt"
 viewBox="0.00 0.00 650.40 1147.40" xmlns="http://www.w3.org/2000/svg" xmlns:xlink="http://www.w3.org/1999/xlink">
<g id="graph0" class="graph" transform="scale(1 1) rotate(0) translate(7.2 1140.2)">
<title>TinyNPUCompilerStack</title>
<polygon fill="white" stroke="transparent" points="-7.2,7.2 -7.2,-1140.2 643.2,-1140.2 643.2,7.2 -7.2,7.2"/>
<g id="clust1" class="cluster">
<title>cluster_partition</title>
<path fill="white" stroke="#6f8fb3" stroke-width="2" stroke-dasharray="5,2" d="M82,-701C82,-701 372,-701 372,-701 378,-701 384,-707 384,-713 384,-713 384,-885 384,-885 384,-891 378,-897 372,-897 372,-897 82,-897 82,-897 76,-897 70,-891 70,-885 70,-885 70,-713 70,-713 70,-707 76,-701 82,-701"/>
</g>
<g id="clust2" class="cluster">
<title>cluster_lowering</title>
<polygon fill="#f7fcf8" stroke="#4f9a6c" stroke-width="2.1" points="164,-284 164,-617 600,-617 600,-284 164,-284"/>
<text text-anchor="middle" x="382" y="-600.2" font-family="Helvetica,sans-Serif" font-size="16.00" fill="#2d6a4f">Lowering and Runtime Packaging</text>
</g>
<g id="clust3" class="cluster">
<title>cluster_runtime</title>
<path fill="white" stroke="#d18a66" stroke-width="2" stroke-dasharray="5,2" d="M94,-76C94,-76 569,-76 569,-76 575,-76 581,-82 581,-88 581,-88 581,-162 581,-162 581,-168 575,-174 569,-174 569,-174 94,-174 94,-174 88,-174 82,-168 82,-162 82,-162 82,-88 82,-88 82,-82 88,-76 94,-76"/>
<text text-anchor="middle" x="331.5" y="-157.2" font-family="Helvetica,sans-Serif" font-size="16.00" fill="#8f4f32">Execution Backends</text>
</g>
<!-- Model -->
<g id="node1" class="node">
<title>Model</title>
<polygon fill="#e8f0fe" stroke="#557aab" stroke-width="1.8" points="260.5,-1133 65.5,-1133 65.5,-1097 260.5,-1097 260.5,-1133"/>
<text text-anchor="middle" x="163" y="-1111.6" font-family="Helvetica,sans-Serif" font-size="13.00" fill="#1f2d3d">PyTorch / quantized model</text>
</g>
<!-- Quant -->
<g id="node2" class="node">
<title>Quant</title>
<polygon fill="#e8f0fe" stroke="#557aab" stroke-width="1.8" points="196,-1056 0,-1056 0,-1014 196,-1014 196,-1056"/>
<text text-anchor="middle" x="98" y="-1038.6" font-family="Helvetica,sans-Serif" font-size="13.00" fill="#1f2d3d">tinynpu_quant</text>
<text text-anchor="middle" x="98" y="-1024.6" font-family="Helvetica,sans-Serif" font-size="13.00" fill="#1f2d3d">compiler&#45;ready conversion</text>
</g>
<!-- Model&#45;&gt;Quant -->
<g id="edge1" class="edge">
<title>Model&#45;&gt;Quant</title>
<path fill="none" stroke="#2f2f2f" stroke-width="1.7" d="M98.73,-1096.97C92.58,-1092.99 87.11,-1088.07 83,-1082 79.36,-1076.62 79.29,-1070.29 80.96,-1064.08"/>
<polygon fill="#2f2f2f" stroke="#2f2f2f" stroke-width="1.7" points="83.67,-1064.83 83.87,-1056.35 78.43,-1062.85 83.67,-1064.83"/>
<text text-anchor="middle" x="157" y="-1074" font-family="Helvetica,sans-Serif" font-size="10.00">PTQ / optional QAT conversion</text>
</g>
<!-- FX -->
<g id="node3" class="node">
<title>FX</title>
<polygon fill="#e8f0fe" stroke="#557aab" stroke-width="1.8" points="241,-973 101,-973 101,-931 241,-931 241,-973"/>
<text text-anchor="middle" x="171" y="-955.6" font-family="Helvetica,sans-Serif" font-size="13.00" fill="#1f2d3d">FX tracing</text>
<text text-anchor="middle" x="171" y="-941.6" font-family="Helvetica,sans-Serif" font-size="13.00" fill="#1f2d3d">compile_module()</text>
</g>
<!-- Model&#45;&gt;FX -->
<g id="edge3" class="edge">
<title>Model&#45;&gt;FX</title>
<path fill="none" stroke="#2f2f2f" stroke-width="1.7" d="M216.15,-1096.78C222.02,-1092.81 227.22,-1087.95 231,-1082 253.39,-1046.73 251.81,-1024.23 231,-988 229.04,-984.59 226.6,-981.47 223.84,-978.64"/>
<polygon fill="#2f2f2f" stroke="#2f2f2f" stroke-width="1.7" points="225.6,-976.46 217.77,-973.21 221.87,-980.63 225.6,-976.46"/>
<text text-anchor="middle" x="319" y="-1032.5" font-family="Helvetica,sans-Serif" font-size="10.00">direct quantized module path</text>
</g>
<!-- Quant&#45;&gt;FX -->
<g id="edge2" class="edge">
<title>Quant&#45;&gt;FX</title>
<path fill="none" stroke="#2f2f2f" stroke-width="1.7" d="M102.89,-1013.75C105.69,-1005.15 109.9,-995.42 116,-988 118.95,-984.42 122.36,-981.08 126.02,-978.01"/>
<polygon fill="#2f2f2f" stroke="#2f2f2f" stroke-width="1.7" points="127.76,-980.21 132.36,-973.09 124.32,-975.78 127.76,-980.21"/>
<text text-anchor="middle" x="173.5" y="-991" font-family="Helvetica,sans-Serif" font-size="10.00">compiler&#45;ready module</text>
</g>
<!-- Partition -->
<g id="node4" class="node">
<title>Partition</title>
<polygon fill="#f4f7fb" stroke="#6f8fb3" stroke-width="1.8" points="246.5,-887 95.5,-887 95.5,-851 246.5,-851 246.5,-887"/>
<text text-anchor="middle" x="171" y="-865.6" font-family="Helvetica,sans-Serif" font-size="13.00" fill="#233142">partition_fx_graph()</text>
</g>
<!-- FX&#45;&gt;Partition -->
<g id="edge4" class="edge">
<title>FX&#45;&gt;Partition</title>
<path fill="none" stroke="#2f2f2f" stroke-width="1.7" d="M171,-930.98C171,-920.23 171,-906.86 171,-895.39"/>
<polygon fill="#2f2f2f" stroke="#2f2f2f" stroke-width="1.7" points="173.8,-895.05 171,-887.05 168.2,-895.05 173.8,-895.05"/>
<text text-anchor="middle" x="249" y="-908" font-family="Helvetica,sans-Serif" font-size="10.00">GraphModule + example inputs</text>
</g>
<!-- Plan -->
<g id="node5" class="node">
<title>Plan</title>
<polygon fill="#f4f7fb" stroke="#6f8fb3" stroke-width="1.8" points="374,-810 98,-810 98,-768 374,-768 374,-810"/>
<text text-anchor="middle" x="236" y="-792.6" font-family="Helvetica,sans-Serif" font-size="13.00" fill="#233142">ExecutionPlan</text>
<text text-anchor="middle" x="236" y="-778.6" font-family="Helvetica,sans-Serif" font-size="13.00" fill="#233142">NpuSegment + HostOp + VerifyTensor</text>
</g>
<!-- Partition&#45;&gt;Plan -->
<g id="edge5" class="edge">
<title>Partition&#45;&gt;Plan</title>
<path fill="none" stroke="#2f2f2f" stroke-width="1.7" d="M185.43,-850.69C193.8,-840.63 204.53,-827.76 213.95,-816.46"/>
<polygon fill="#2f2f2f" stroke="#2f2f2f" stroke-width="1.7" points="216.35,-817.96 219.32,-810.02 212.05,-814.37 216.35,-817.96"/>
<text text-anchor="middle" x="257.5" y="-828" font-family="Helvetica,sans-Serif" font-size="10.00">mixed execution plan</text>
</g>
<!-- Expected -->
<g id="node6" class="node">
<title>Expected</title>
<polygon fill="#f4f7fb" stroke="#6f8fb3" stroke-width="1.8" points="215.5,-753 80.5,-753 80.5,-711 215.5,-711 215.5,-753"/>
<text text-anchor="middle" x="148" y="-735.6" font-family="Helvetica,sans-Serif" font-size="13.00" fill="#233142">Expected tensors</text>
<text text-anchor="middle" x="148" y="-721.6" font-family="Helvetica,sans-Serif" font-size="13.00" fill="#233142">for verification</text>
</g>
<!-- Partition&#45;&gt;Expected -->
<g id="edge6" class="edge">
<title>Partition&#45;&gt;Expected</title>
<path fill="none" stroke="#2f2f2f" stroke-width="1.7" d="M132.37,-850.83C116.05,-841.35 98.81,-827.83 90,-810 81.73,-793.27 80.82,-784.26 90,-768 91.92,-764.59 94.32,-761.48 97.05,-758.65"/>
<polygon fill="#2f2f2f" stroke="#2f2f2f" stroke-width="1.7" points="99,-760.66 103.04,-753.21 95.24,-756.51 99,-760.66"/>
<text text-anchor="middle" x="144.5" y="-828" font-family="Helvetica,sans-Serif" font-size="10.00">golden values</text>
</g>
<!-- Validate -->
<g id="node7" class="node">
<title>Validate</title>
<polygon fill="#fff4e8" stroke="#c98a43" stroke-width="1.8" points="280,-693 194,-693 194,-651 280,-651 280,-693"/>
<text text-anchor="middle" x="237" y="-675.6" font-family="Helvetica,sans-Serif" font-size="13.00" fill="#4a3520">HostOp</text>
<text text-anchor="middle" x="237" y="-661.6" font-family="Helvetica,sans-Serif" font-size="13.00" fill="#4a3520">validation</text>
</g>
<!-- Plan&#45;&gt;Validate -->
<g id="edge7" class="edge">
<title>Plan&#45;&gt;Validate</title>
<path fill="none" stroke="#2f2f2f" stroke-width="1.7" d="M236.17,-767.97C236.33,-749.53 236.57,-721.99 236.75,-701.3"/>
<polygon fill="#2f2f2f" stroke="#2f2f2f" stroke-width="1.7" points="239.55,-701.21 236.82,-693.19 233.95,-701.16 239.55,-701.21"/>
<text text-anchor="middle" x="272.5" y="-729.5" font-family="Helvetica,sans-Serif" font-size="10.00">compile_plan()</text>
</g>
<!-- Compiler -->
<g id="node9" class="node">
<title>Compiler</title>
<polygon fill="#e7f6ec" stroke="#4f9a6c" stroke-width="1.8" points="421.5,-500 244.5,-500 244.5,-458 421.5,-458 421.5,-500"/>
<text text-anchor="middle" x="333" y="-482.6" font-family="Helvetica,sans-Serif" font-size="13.00" fill="#1f3328">SegmentCompiler</text>
<text text-anchor="middle" x="333" y="-468.6" font-family="Helvetica,sans-Serif" font-size="13.00" fill="#1f3328">output_layout selection</text>
</g>
<!-- Plan&#45;&gt;Compiler -->
<g id="edge10" class="edge">
<title>Plan&#45;&gt;Compiler</title>
<path fill="none" stroke="#2f2f2f" stroke-width="1.7" d="M297.55,-767.93C303.53,-763.83 308.89,-758.9 313,-753 365.36,-677.87 350.23,-561.17 339.54,-508.05"/>
<polygon fill="#2f2f2f" stroke="#2f2f2f" stroke-width="1.7" points="342.25,-507.34 337.88,-500.08 336.77,-508.49 342.25,-507.34"/>
<text text-anchor="middle" x="385.5" y="-628" font-family="Helvetica,sans-Serif" font-size="10.00">NPU segments</text>
</g>
<!-- Artifact -->
<g id="node13" class="node">
<title>Artifact</title>
<polygon fill="#efe8ff" stroke="#8b74bd" stroke-width="1.8" points="325,-250 23,-250 23,-208 325,-208 325,-250"/>
<text text-anchor="middle" x="174" y="-232.6" font-family="Helvetica,sans-Serif" font-size="13.00" fill="#2c2236">Runtime package</text>
<text text-anchor="middle" x="174" y="-218.6" font-family="Helvetica,sans-Serif" font-size="13.00" fill="#2c2236">program C + runner C + expected tensors</text>
</g>
<!-- Expected&#45;&gt;Artifact -->
<g id="edge16" class="edge">
<title>Expected&#45;&gt;Artifact</title>
<path fill="none" stroke="#2f2f2f" stroke-width="1.7" d="M87.48,-710.99C53.16,-695.43 17,-669.91 17,-631.5 17,-631.5 17,-631.5 17,-312 17,-284.03 36.82,-265.59 62.37,-253.43"/>
<polygon fill="#2f2f2f" stroke="#2f2f2f" stroke-width="1.7" points="63.54,-255.97 69.72,-250.16 61.27,-250.85 63.54,-255.97"/>
<text text-anchor="middle" x="69.5" y="-476.5" font-family="Helvetica,sans-Serif" font-size="10.00">verification reference</text>
</g>
<!-- Planner -->
<g id="node8" class="node">
<title>Planner</title>
<polygon fill="#e7f6ec" stroke="#4f9a6c" stroke-width="1.8" points="301.5,-583 172.5,-583 172.5,-541 301.5,-541 301.5,-583"/>
<text text-anchor="middle" x="237" y="-565.6" font-family="Helvetica,sans-Serif" font-size="13.00" fill="#1f3328">Memory planner</text>
<text text-anchor="middle" x="237" y="-551.6" font-family="Helvetica,sans-Serif" font-size="13.00" fill="#1f3328">roles + layouts</text>
</g>
<!-- Validate&#45;&gt;Planner -->
<g id="edge8" class="edge">
<title>Validate&#45;&gt;Planner</title>
<path fill="none" stroke="#2f2f2f" stroke-width="1.7" d="M237,-650.94C237,-634.22 237,-610.21 237,-591.5"/>
<polygon fill="#2f2f2f" stroke="#2f2f2f" stroke-width="1.7" points="239.8,-591.32 237,-583.32 234.2,-591.32 239.8,-591.32"/>
<text text-anchor="middle" x="272" y="-628" font-family="Helvetica,sans-Serif" font-size="10.00">validated plan</text>
</g>
<!-- Planner&#45;&gt;Compiler -->
<g id="edge9" class="edge">
<title>Planner&#45;&gt;Compiler</title>
<path fill="none" stroke="#2f2f2f" stroke-width="1.7" d="M232.66,-540.62C231.96,-532 232.8,-522.28 238,-515 240.62,-511.33 243.66,-508.05 247.02,-505.11"/>
<polygon fill="#2f2f2f" stroke="#2f2f2f" stroke-width="1.7" points="248.78,-507.29 253.39,-500.18 245.35,-502.87 248.78,-507.29"/>
<text text-anchor="middle" x="279" y="-518" font-family="Helvetica,sans-Serif" font-size="10.00">segment layouts</text>
</g>
<!-- Planner&#45;&gt;Artifact -->
<g id="edge17" class="edge">
<title>Planner&#45;&gt;Artifact</title>
<path fill="none" stroke="#2f2f2f" stroke-width="1.7" d="M192.53,-541C169.85,-527.47 147,-507.12 147,-480 147,-480 147,-480 147,-312 147,-293.37 153.37,-273.49 159.92,-257.97"/>
<polygon fill="#2f2f2f" stroke="#2f2f2f" stroke-width="1.7" points="162.64,-258.74 163.33,-250.29 157.53,-256.47 162.64,-258.74"/>
<text text-anchor="middle" x="200.5" y="-393.5" font-family="Helvetica,sans-Serif" font-size="10.00">global memory report</text>
</g>
<!-- Program -->
<g id="node10" class="node">
<title>Program</title>
<polygon fill="#e7f6ec" stroke="#4f9a6c" stroke-width="1.8" points="485.5,-417 270.5,-417 270.5,-375 485.5,-375 485.5,-417"/>
<text text-anchor="middle" x="378" y="-399.6" font-family="Helvetica,sans-Serif" font-size="13.00" fill="#1f3328">baremetal emitter</text>
<text text-anchor="middle" x="378" y="-385.6" font-family="Helvetica,sans-Serif" font-size="13.00" fill="#1f3328">generate runtime descriptors</text>
</g>
<!-- Compiler&#45;&gt;Program -->
<g id="edge11" class="edge">
<title>Compiler&#45;&gt;Program</title>
<path fill="none" stroke="#2f2f2f" stroke-width="1.7" d="M344.12,-457.98C349.8,-447.76 356.79,-435.17 362.95,-424.09"/>
<polygon fill="#2f2f2f" stroke="#2f2f2f" stroke-width="1.7" points="365.41,-425.43 366.85,-417.07 360.52,-422.71 365.41,-425.43"/>
<text text-anchor="middle" x="414" y="-435" font-family="Helvetica,sans-Serif" font-size="10.00">declare data / emit ISA</text>
</g>
<!-- Segment -->
<g id="node11" class="node">
<title>Segment</title>
<polygon fill="#e7f6ec" stroke="#4f9a6c" stroke-width="1.8" points="413.5,-334 172.5,-334 172.5,-292 413.5,-292 413.5,-334"/>
<text text-anchor="middle" x="293" y="-316.6" font-family="Helvetica,sans-Serif" font-size="13.00" fill="#1f3328">generated program C</text>
<text text-anchor="middle" x="293" y="-302.6" font-family="Helvetica,sans-Serif" font-size="13.00" fill="#1f3328">IM image + UB image + op table</text>
</g>
<!-- Program&#45;&gt;Segment -->
<g id="edge12" class="edge">
<title>Program&#45;&gt;Segment</title>
<path fill="none" stroke="#2f2f2f" stroke-width="1.7" d="M356.99,-374.98C345.85,-364.37 332.05,-351.21 320.11,-339.83"/>
<polygon fill="#2f2f2f" stroke="#2f2f2f" stroke-width="1.7" points="321.79,-337.56 314.06,-334.07 317.92,-341.62 321.79,-337.56"/>
<text text-anchor="middle" x="388.5" y="-352" font-family="Helvetica,sans-Serif" font-size="10.00">static program data</text>
</g>
<!-- Runner -->
<g id="node12" class="node">
<title>Runner</title>
<polygon fill="#e7f6ec" stroke="#4f9a6c" stroke-width="1.8" points="592,-334 430,-334 430,-292 592,-292 592,-334"/>
<text text-anchor="middle" x="511" y="-316.6" font-family="Helvetica,sans-Serif" font-size="13.00" fill="#1f3328">generated *_runner.c</text>
<text text-anchor="middle" x="511" y="-302.6" font-family="Helvetica,sans-Serif" font-size="13.00" fill="#1f3328">input/output binding</text>
</g>
<!-- Program&#45;&gt;Runner -->
<g id="edge13" class="edge">
<title>Program&#45;&gt;Runner</title>
<path fill="none" stroke="#2f2f2f" stroke-width="1.7" d="M415.24,-374.91C423.77,-370.14 432.76,-364.99 441,-360 452.02,-353.33 463.8,-345.77 474.49,-338.73"/>
<polygon fill="#2f2f2f" stroke="#2f2f2f" stroke-width="1.7" points="476.21,-340.94 481.34,-334.19 473.12,-336.28 476.21,-340.94"/>
<text text-anchor="middle" x="513.5" y="-352" font-family="Helvetica,sans-Serif" font-size="10.00">runtime step table use</text>
</g>
<!-- Segment&#45;&gt;Artifact -->
<g id="edge14" class="edge">
<title>Segment&#45;&gt;Artifact</title>
<path fill="none" stroke="#2f2f2f" stroke-width="1.7" d="M263.89,-291.94C247.61,-280.72 227.18,-266.65 209.91,-254.75"/>
<polygon fill="#2f2f2f" stroke="#2f2f2f" stroke-width="1.7" points="211.4,-252.37 203.22,-250.14 208.22,-256.98 211.4,-252.37"/>
<text text-anchor="middle" x="282.5" y="-268" font-family="Helvetica,sans-Serif" font-size="10.00">generated source</text>
</g>
<!-- Runner&#45;&gt;Artifact -->
<g id="edge15" class="edge">
<title>Runner&#45;&gt;Artifact</title>
<path fill="none" stroke="#2f2f2f" stroke-width="1.7" d="M449.93,-291.99C440.61,-289.17 431.08,-286.41 422,-284 377.1,-272.07 327.11,-260.81 283.85,-251.69"/>
<polygon fill="#2f2f2f" stroke="#2f2f2f" stroke-width="1.7" points="284.26,-248.91 275.85,-250.01 283.11,-254.39 284.26,-248.91"/>
<text text-anchor="middle" x="430.5" y="-268" font-family="Helvetica,sans-Serif" font-size="10.00">generated source</text>
</g>
<!-- HostExec -->
<g id="node14" class="node">
<title>HostExec</title>
<polygon fill="#ffe8db" stroke="#d18a66" stroke-width="1.8" points="258,-133 90,-133 90,-91 258,-91 258,-133"/>
<text text-anchor="middle" x="174" y="-115.6" font-family="Helvetica,sans-Serif" font-size="13.00" fill="#40261d">shared runtime library</text>
<text text-anchor="middle" x="174" y="-101.6" font-family="Helvetica,sans-Serif" font-size="13.00" fill="#40261d">executor</text>
</g>
<!-- Artifact&#45;&gt;HostExec -->
<g id="edge18" class="edge">
<title>Artifact&#45;&gt;HostExec</title>
<path fill="none" stroke="#2f2f2f" stroke-width="1.7" d="M174,-207.97C174,-189.53 174,-161.99 174,-141.3"/>
<polygon fill="#2f2f2f" stroke="#2f2f2f" stroke-width="1.7" points="176.8,-141.19 174,-133.19 171.2,-141.19 176.8,-141.19"/>
<text text-anchor="middle" x="258" y="-185" font-family="Helvetica,sans-Serif" font-size="10.00">link runtime + generated program</text>
</g>
<!-- SimExec -->
<g id="node15" class="node">
<title>SimExec</title>
<polygon fill="#ffe8db" stroke="#d18a66" stroke-width="1.8" points="573.5,-140 378.5,-140 378.5,-84 573.5,-84 573.5,-140"/>
<text text-anchor="middle" x="476" y="-122.6" font-family="Helvetica,sans-Serif" font-size="13.00" fill="#40261d">CV32 firmware + Verilator</text>
<text text-anchor="middle" x="476" y="-108.6" font-family="Helvetica,sans-Serif" font-size="13.00" fill="#40261d">shared&#45;SRAM default</text>
<text text-anchor="middle" x="476" y="-94.6" font-family="Helvetica,sans-Serif" font-size="13.00" fill="#40261d">MMIO fallback</text>
</g>
<!-- HostExec&#45;&gt;SimExec -->
<g id="edge19" class="edge">
<title>HostExec&#45;&gt;SimExec</title>
<path fill="none" stroke="#2f2f2f" stroke-width="1.7" d="M258.12,-112C292.85,-112 333.48,-112 370.19,-112"/>
<polygon fill="#2f2f2f" stroke="#2f2f2f" stroke-width="1.7" points="370.45,-114.8 378.45,-112 370.45,-109.2 370.45,-114.8"/>
<text text-anchor="middle" x="318.25" y="-118" font-family="Helvetica,sans-Serif" font-size="10.00">build firmware image</text>
</g>
<!-- Result -->
<g id="node16" class="node">
<title>Result</title>
<polygon fill="#fff7d9" stroke="#c9a227" stroke-width="1.8" points="606,-42 346,-42 346,0 606,0 606,-42"/>
<text text-anchor="middle" x="476" y="-24.6" font-family="Helvetica,sans-Serif" font-size="13.00" fill="#4a3a00">ExecutionResult</text>
<text text-anchor="middle" x="476" y="-10.6" font-family="Helvetica,sans-Serif" font-size="13.00" fill="#4a3a00">outputs + verification + benchmark</text>
</g>
<!-- SimExec&#45;&gt;Result -->
<g id="edge20" class="edge">
<title>SimExec&#45;&gt;Result</title>
<path fill="none" stroke="#2f2f2f" stroke-width="1.7" d="M476,-83.81C476,-73.25 476,-61.13 476,-50.45"/>
<polygon fill="#2f2f2f" stroke="#2f2f2f" stroke-width="1.7" points="478.8,-50.24 476,-42.24 473.2,-50.24 478.8,-50.24"/>
<text text-anchor="middle" x="556" y="-60" font-family="Helvetica,sans-Serif" font-size="10.00">execute + verify + perf counters</text>
</g>
</g>
</svg>
