<?xml version="1.0" encoding="UTF-8" standalone="no"?>
<!DOCTYPE svg PUBLIC "-//W3C//DTD SVG 1.1//EN"
 "http://www.w3.org/Graphics/SVG/1.1/DTD/svg11.dtd">
<!-- Generated by graphviz version 12.2.1 (20241206.2353)
 -->
<!-- Title: TinyNPUCompilerStack Pages: 1 -->
<svg width="639pt" height="1237pt"
 viewBox="0.00 0.00 639.23 1236.95" xmlns="http://www.w3.org/2000/svg" xmlns:xlink="http://www.w3.org/1999/xlink">
<g id="graph0" class="graph" transform="scale(1 1) rotate(0) translate(7.2 1229.75)">
<title>TinyNPUCompilerStack</title>
<polygon fill="white" stroke="none" points="-7.2,7.2 -7.2,-1229.75 632.03,-1229.75 632.03,7.2 -7.2,7.2"/>
<g id="clust1" class="cluster">
<title>cluster_partition</title>
<path fill="white" stroke="#6f8fb3" stroke-width="2" stroke-dasharray="5,2" d="M75.83,-761.95C75.83,-761.95 365.83,-761.95 365.83,-761.95 371.83,-761.95 377.83,-767.95 377.83,-773.95 377.83,-773.95 377.83,-958.5 377.83,-958.5 377.83,-964.5 371.83,-970.5 365.83,-970.5 365.83,-970.5 75.83,-970.5 75.83,-970.5 69.83,-970.5 63.83,-964.5 63.83,-958.5 63.83,-958.5 63.83,-773.95 63.83,-773.95 63.83,-767.95 69.83,-761.95 75.83,-761.95"/>
</g>
<g id="clust2" class="cluster">
<title>cluster_lowering</title>
<polygon fill="#f7fcf8" stroke="#4f9a6c" stroke-width="2.1" points="157.83,-309.45 157.83,-670.8 591.83,-670.8 591.83,-309.45 157.83,-309.45"/>
<text text-anchor="middle" x="374.83" y="-651.6" font-family="Helvetica,sans-Serif" font-size="16.00" fill="#2d6a4f">Lowering and Runtime V2 Packaging</text>
</g>
<g id="clust3" class="cluster">
<title>cluster_runtime</title>
<path fill="white" stroke="#d18a66" stroke-width="2" stroke-dasharray="5,2" d="M90.83,-83.15C90.83,-83.15 558.83,-83.15 558.83,-83.15 564.83,-83.15 570.83,-89.15 570.83,-95.15 570.83,-95.15 570.83,-178.55 570.83,-178.55 570.83,-184.55 564.83,-190.55 558.83,-190.55 558.83,-190.55 90.83,-190.55 90.83,-190.55 84.83,-190.55 78.83,-184.55 78.83,-178.55 78.83,-178.55 78.83,-95.15 78.83,-95.15 78.83,-89.15 84.83,-83.15 90.83,-83.15"/>
<text text-anchor="middle" x="324.83" y="-171.35" font-family="Helvetica,sans-Serif" font-size="16.00" fill="#8f4f32">Execution Backends</text>
</g>
<!-- Model -->
<g id="node1" class="node">
<title>Model</title>
<polygon fill="#e8f0fe" stroke="#557aab" stroke-width="1.8" points="239.41,-1222.55 84.25,-1222.55 84.25,-1186.55 239.41,-1186.55 239.41,-1222.55"/>
<text text-anchor="middle" x="161.83" y="-1200.45" font-family="Helvetica,sans-Serif" font-size="13.00" fill="#1f2d3d">PyTorch / QAT Model</text>
</g>
<!-- Quant -->
<g id="node2" class="node">
<title>Quant</title>
<polygon fill="#e8f0fe" stroke="#557aab" stroke-width="1.8" points="195.66,-1143.8 0,-1143.8 0,-1096.4 195.66,-1096.4 195.66,-1143.8"/>
<text text-anchor="middle" x="97.83" y="-1124.25" font-family="Helvetica,sans-Serif" font-size="13.00" fill="#1f2d3d">tinynpu_quant</text>
<text text-anchor="middle" x="97.83" y="-1107.75" font-family="Helvetica,sans-Serif" font-size="13.00" fill="#1f2d3d">compiler&#45;ready conversion</text>
</g>
<!-- Model&#45;&gt;Quant -->
<g id="edge1" class="edge">
<title>Model&#45;&gt;Quant</title>
<path fill="none" stroke="#2f2f2f" stroke-width="1.7" d="M111.68,-1186.15C106,-1182.2 100.95,-1177.39 97.33,-1171.55 94.14,-1166.4 92.7,-1160.35 92.32,-1154.26"/>
<polygon fill="#2f2f2f" stroke="#2f2f2f" stroke-width="1.7" points="95.11,-1154.76 92.47,-1146.7 89.51,-1154.64 95.11,-1154.76"/>
<text text-anchor="middle" x="156.58" y="-1162.05" font-family="Helvetica,sans-Serif" font-size="10.00">optional QAT conversion</text>
</g>
<!-- FX -->
<g id="node3" class="node">
<title>FX</title>
<polygon fill="#e8f0fe" stroke="#557aab" stroke-width="1.8" points="233.53,-1053.65 94.12,-1053.65 94.12,-1006.25 233.53,-1006.25 233.53,-1053.65"/>
<text text-anchor="middle" x="163.83" y="-1034.1" font-family="Helvetica,sans-Serif" font-size="13.00" fill="#1f2d3d">FX tracing</text>
<text text-anchor="middle" x="163.83" y="-1017.6" font-family="Helvetica,sans-Serif" font-size="13.00" fill="#1f2d3d">compile_module()</text>
</g>
<!-- Model&#45;&gt;FX -->
<g id="edge3" class="edge">
<title>Model&#45;&gt;FX</title>
<path fill="none" stroke="#2f2f2f" stroke-width="1.7" d="M202.36,-1186.19C207.75,-1182.17 212.54,-1177.33 215.83,-1171.55 238.47,-1131.81 236.61,-1109.39 215.83,-1068.65 214.5,-1066.04 212.9,-1063.57 211.09,-1061.24"/>
<polygon fill="#2f2f2f" stroke="#2f2f2f" stroke-width="1.7" points="213.49,-1059.71 206,-1055.73 209.37,-1063.51 213.49,-1059.71"/>
<text text-anchor="middle" x="303.75" y="-1116.98" font-family="Helvetica,sans-Serif" font-size="10.00">direct quantized module path</text>
</g>
<!-- Quant&#45;&gt;FX -->
<g id="edge2" class="edge">
<title>Quant&#45;&gt;FX</title>
<path fill="none" stroke="#2f2f2f" stroke-width="1.7" d="M95.31,-1096.11C95.37,-1086.97 96.86,-1076.73 101.83,-1068.65 103.44,-1066.04 105.3,-1063.58 107.36,-1061.27"/>
<polygon fill="#2f2f2f" stroke="#2f2f2f" stroke-width="1.7" points="109.28,-1063.31 113.14,-1055.76 105.42,-1059.25 109.28,-1063.31"/>
<text text-anchor="middle" x="158.83" y="-1071.9" font-family="Helvetica,sans-Serif" font-size="10.00">compiler&#45;ready module</text>
</g>
<!-- Partition -->
<g id="node4" class="node">
<title>Partition</title>
<polygon fill="#f4f7fb" stroke="#6f8fb3" stroke-width="1.8" points="239.16,-960.5 88.5,-960.5 88.5,-924.5 239.16,-924.5 239.16,-960.5"/>
<text text-anchor="middle" x="163.83" y="-938.4" font-family="Helvetica,sans-Serif" font-size="13.00" fill="#233142">partition_fx_graph()</text>
</g>
<!-- FX&#45;&gt;Partition -->
<g id="edge4" class="edge">
<title>FX&#45;&gt;Partition</title>
<path fill="none" stroke="#2f2f2f" stroke-width="1.7" d="M163.83,-1006.05C163.83,-995.37 163.83,-982.57 163.83,-971.34"/>
<polygon fill="#2f2f2f" stroke="#2f2f2f" stroke-width="1.7" points="166.63,-971.34 163.83,-963.34 161.03,-971.34 166.63,-971.34"/>
<text text-anchor="middle" x="241.45" y="-981.75" font-family="Helvetica,sans-Serif" font-size="10.00">GraphModule + example inputs</text>
</g>
<!-- Plan -->
<g id="node5" class="node">
<title>Plan</title>
<polygon fill="#f4f7fb" stroke="#6f8fb3" stroke-width="1.8" points="367.41,-881.75 92.25,-881.75 92.25,-834.35 367.41,-834.35 367.41,-881.75"/>
<text text-anchor="middle" x="229.83" y="-862.2" font-family="Helvetica,sans-Serif" font-size="13.00" fill="#233142">ExecutionPlan</text>
<text text-anchor="middle" x="229.83" y="-845.7" font-family="Helvetica,sans-Serif" font-size="13.00" fill="#233142">NpuSegment + HostOp + VerifyTensor</text>
</g>
<!-- Partition&#45;&gt;Plan -->
<g id="edge5" class="edge">
<title>Partition&#45;&gt;Plan</title>
<path fill="none" stroke="#2f2f2f" stroke-width="1.7" d="M177.83,-924.01C185.68,-914.2 195.72,-901.66 204.87,-890.23"/>
<polygon fill="#2f2f2f" stroke="#2f2f2f" stroke-width="1.7" points="206.92,-892.15 209.73,-884.16 202.55,-888.65 206.92,-892.15"/>
<text text-anchor="middle" x="250.93" y="-900" font-family="Helvetica,sans-Serif" font-size="10.00">mixed execution plan</text>
</g>
<!-- Expected -->
<g id="node6" class="node">
<title>Expected</title>
<polygon fill="#f4f7fb" stroke="#6f8fb3" stroke-width="1.8" points="208.28,-819.35 73.37,-819.35 73.37,-771.95 208.28,-771.95 208.28,-819.35"/>
<text text-anchor="middle" x="140.83" y="-799.8" font-family="Helvetica,sans-Serif" font-size="13.00" fill="#233142">Expected tensors</text>
<text text-anchor="middle" x="140.83" y="-783.3" font-family="Helvetica,sans-Serif" font-size="13.00" fill="#233142">for verification</text>
</g>
<!-- Partition&#45;&gt;Expected -->
<g id="edge6" class="edge">
<title>Partition&#45;&gt;Expected</title>
<path fill="none" stroke="#2f2f2f" stroke-width="1.7" d="M126.88,-924.2C110.39,-914.32 92.7,-900.18 83.83,-881.75 74.7,-862.77 73.86,-852.91 83.83,-834.35 85.23,-831.75 86.89,-829.31 88.75,-827"/>
<polygon fill="#2f2f2f" stroke="#2f2f2f" stroke-width="1.7" points="90.44,-829.28 93.98,-821.58 86.41,-825.39 90.44,-829.28"/>
<text text-anchor="middle" x="139.3" y="-900" font-family="Helvetica,sans-Serif" font-size="10.00">golden values</text>
</g>
<!-- Validate -->
<g id="node7" class="node">
<title>Validate</title>
<polygon fill="#fff4e8" stroke="#c98a43" stroke-width="1.8" points="272.53,-753.95 187.12,-753.95 187.12,-706.55 272.53,-706.55 272.53,-753.95"/>
<text text-anchor="middle" x="229.83" y="-734.4" font-family="Helvetica,sans-Serif" font-size="13.00" fill="#4a3520">HostOp</text>
<text text-anchor="middle" x="229.83" y="-717.9" font-family="Helvetica,sans-Serif" font-size="13.00" fill="#4a3520">validation</text>
</g>
<!-- Plan&#45;&gt;Validate -->
<g id="edge7" class="edge">
<title>Plan&#45;&gt;Validate</title>
<path fill="none" stroke="#2f2f2f" stroke-width="1.7" d="M229.83,-833.98C229.83,-814.56 229.83,-786.54 229.83,-764.67"/>
<polygon fill="#2f2f2f" stroke="#2f2f2f" stroke-width="1.7" points="232.63,-764.75 229.83,-756.75 227.03,-764.75 232.63,-764.75"/>
<text text-anchor="middle" x="266.2" y="-792.53" font-family="Helvetica,sans-Serif" font-size="10.00">compile_plan()</text>
</g>
<!-- Compiler -->
<g id="node9" class="node">
<title>Compiler</title>
<polygon fill="#e7f6ec" stroke="#4f9a6c" stroke-width="1.8" points="413.91,-545.15 237.75,-545.15 237.75,-497.75 413.91,-497.75 413.91,-545.15"/>
<text text-anchor="middle" x="325.83" y="-525.6" font-family="Helvetica,sans-Serif" font-size="13.00" fill="#1f3328">SegmentCompiler</text>
<text text-anchor="middle" x="325.83" y="-509.1" font-family="Helvetica,sans-Serif" font-size="13.00" fill="#1f3328">output_layout selection</text>
</g>
<!-- Plan&#45;&gt;Compiler -->
<g id="edge10" class="edge">
<title>Plan&#45;&gt;Compiler</title>
<path fill="none" stroke="#2f2f2f" stroke-width="1.7" d="M292.58,-834.05C298.1,-829.9 303.02,-825.04 306.83,-819.35 361.32,-737.92 345.49,-614.15 333.63,-555.5"/>
<polygon fill="#2f2f2f" stroke="#2f2f2f" stroke-width="1.7" points="336.41,-555.09 332.01,-547.85 330.93,-556.25 336.41,-555.09"/>
<text text-anchor="middle" x="381.09" y="-682.05" font-family="Helvetica,sans-Serif" font-size="10.00">NPU segments</text>
</g>
<!-- Artifact -->
<g id="node13" class="node">
<title>Artifact</title>
<polygon fill="#efe8ff" stroke="#8b74bd" stroke-width="1.8" points="318.53,-273.7 17.12,-273.7 17.12,-226.3 318.53,-226.3 318.53,-273.7"/>
<text text-anchor="middle" x="167.83" y="-254.15" font-family="Helvetica,sans-Serif" font-size="13.00" fill="#2c2236">Runtime V2 package</text>
<text text-anchor="middle" x="167.83" y="-237.65" font-family="Helvetica,sans-Serif" font-size="13.00" fill="#2c2236">program C + runner C + expected tensors</text>
</g>
<!-- Expected&#45;&gt;Artifact -->
<g id="edge16" class="edge">
<title>Expected&#45;&gt;Artifact</title>
<path fill="none" stroke="#2f2f2f" stroke-width="1.7" d="M81.99,-771.53C47.97,-753.89 11.83,-725.82 11.83,-686.18 11.83,-686.18 11.83,-686.18 11.83,-340.15 11.83,-311.41 32.04,-291.81 57.91,-278.49"/>
<polygon fill="#2f2f2f" stroke="#2f2f2f" stroke-width="1.7" points="58.92,-281.11 64.95,-275.14 56.52,-276.05 58.92,-281.11"/>
<text text-anchor="middle" x="63.95" y="-518.32" font-family="Helvetica,sans-Serif" font-size="10.00">verification reference</text>
</g>
<!-- Planner -->
<g id="node8" class="node">
<title>Planner</title>
<polygon fill="#e7f6ec" stroke="#4f9a6c" stroke-width="1.8" points="293.91,-635.3 165.75,-635.3 165.75,-587.9 293.91,-587.9 293.91,-635.3"/>
<text text-anchor="middle" x="229.83" y="-615.75" font-family="Helvetica,sans-Serif" font-size="13.00" fill="#1f3328">Memory planner</text>
<text text-anchor="middle" x="229.83" y="-599.25" font-family="Helvetica,sans-Serif" font-size="13.00" fill="#1f3328">roles + layouts</text>
</g>
<!-- Validate&#45;&gt;Planner -->
<g id="edge8" class="edge">
<title>Validate&#45;&gt;Planner</title>
<path fill="none" stroke="#2f2f2f" stroke-width="1.7" d="M229.83,-706.2C229.83,-689.03 229.83,-665.32 229.83,-646.06"/>
<polygon fill="#2f2f2f" stroke="#2f2f2f" stroke-width="1.7" points="232.63,-646.17 229.83,-638.17 227.03,-646.17 232.63,-646.17"/>
<text text-anchor="middle" x="264.7" y="-682.05" font-family="Helvetica,sans-Serif" font-size="10.00">validated plan</text>
</g>
<!-- Planner&#45;&gt;Compiler -->
<g id="edge9" class="edge">
<title>Planner&#45;&gt;Compiler</title>
<path fill="none" stroke="#2f2f2f" stroke-width="1.7" d="M225.19,-587.55C224.58,-578.3 225.62,-567.99 231.08,-560.15 233.05,-557.32 235.28,-554.7 237.7,-552.27"/>
<polygon fill="#2f2f2f" stroke="#2f2f2f" stroke-width="1.7" points="239.31,-554.58 243.56,-547.25 235.66,-550.33 239.31,-554.58"/>
<text text-anchor="middle" x="271.95" y="-563.4" font-family="Helvetica,sans-Serif" font-size="10.00">segment layouts</text>
</g>
<!-- Planner&#45;&gt;Artifact -->
<g id="edge17" class="edge">
<title>Planner&#45;&gt;Artifact</title>
<path fill="none" stroke="#2f2f2f" stroke-width="1.7" d="M185.33,-587.4C163.08,-572.32 140.83,-550.29 140.83,-522.45 140.83,-522.45 140.83,-522.45 140.83,-340.15 140.83,-320.87 146.69,-300.2 152.95,-283.63"/>
<polygon fill="#2f2f2f" stroke="#2f2f2f" stroke-width="1.7" points="155.52,-284.75 155.89,-276.28 150.32,-282.66 155.52,-284.75"/>
<text text-anchor="middle" x="194.08" y="-428.17" font-family="Helvetica,sans-Serif" font-size="10.00">global memory report</text>
</g>
<!-- Program -->
<g id="node10" class="node">
<title>Program</title>
<polygon fill="#e7f6ec" stroke="#4f9a6c" stroke-width="1.8" points="472.41,-455 263.25,-455 263.25,-407.6 472.41,-407.6 472.41,-455"/>
<text text-anchor="middle" x="367.83" y="-435.45" font-family="Helvetica,sans-Serif" font-size="13.00" fill="#1f3328">baremetal_emit_v2.py</text>
<text text-anchor="middle" x="367.83" y="-418.95" font-family="Helvetica,sans-Serif" font-size="13.00" fill="#1f3328">emit Runtime V2 descriptors</text>
</g>
<!-- Compiler&#45;&gt;Program -->
<g id="edge11" class="edge">
<title>Compiler&#45;&gt;Program</title>
<path fill="none" stroke="#2f2f2f" stroke-width="1.7" d="M336.87,-497.29C341.59,-487.37 347.19,-475.61 352.33,-464.84"/>
<polygon fill="#2f2f2f" stroke="#2f2f2f" stroke-width="1.7" points="354.85,-466.06 355.76,-457.63 349.79,-463.65 354.85,-466.06"/>
<text text-anchor="middle" x="405.22" y="-473.25" font-family="Helvetica,sans-Serif" font-size="10.00">declare data / emit ISA</text>
</g>
<!-- Segment -->
<g id="node11" class="node">
<title>Segment</title>
<polygon fill="#e7f6ec" stroke="#4f9a6c" stroke-width="1.8" points="406.16,-364.85 165.5,-364.85 165.5,-317.45 406.16,-317.45 406.16,-364.85"/>
<text text-anchor="middle" x="285.83" y="-345.3" font-family="Helvetica,sans-Serif" font-size="13.00" fill="#1f3328">generated *_program_v2.c</text>
<text text-anchor="middle" x="285.83" y="-328.8" font-family="Helvetica,sans-Serif" font-size="13.00" fill="#1f3328">IM image + UB image + op table</text>
</g>
<!-- Program&#45;&gt;Segment -->
<g id="edge12" class="edge">
<title>Program&#45;&gt;Segment</title>
<path fill="none" stroke="#2f2f2f" stroke-width="1.7" d="M346.29,-407.14C336.49,-396.61 324.77,-384.01 314.27,-372.72"/>
<polygon fill="#2f2f2f" stroke="#2f2f2f" stroke-width="1.7" points="316.48,-370.99 308.98,-367.04 312.38,-374.8 316.48,-370.99"/>
<text text-anchor="middle" x="379.74" y="-383.1" font-family="Helvetica,sans-Serif" font-size="10.00">static program data</text>
</g>
<!-- Runner -->
<g id="node12" class="node">
<title>Runner</title>
<polygon fill="#e7f6ec" stroke="#4f9a6c" stroke-width="1.8" points="583.41,-364.85 422.25,-364.85 422.25,-317.45 583.41,-317.45 583.41,-364.85"/>
<text text-anchor="middle" x="502.83" y="-345.3" font-family="Helvetica,sans-Serif" font-size="13.00" fill="#1f3328">generated *_runner.c</text>
<text text-anchor="middle" x="502.83" y="-328.8" font-family="Helvetica,sans-Serif" font-size="13.00" fill="#1f3328">input/output binding</text>
</g>
<!-- Program&#45;&gt;Runner -->
<g id="edge13" class="edge">
<title>Program&#45;&gt;Runner</title>
<path fill="none" stroke="#2f2f2f" stroke-width="1.7" d="M408.1,-407.29C416.04,-402.55 424.25,-397.51 431.83,-392.6 442.04,-385.98 452.84,-378.55 462.86,-371.45"/>
<polygon fill="#2f2f2f" stroke="#2f2f2f" stroke-width="1.7" points="464.44,-373.76 469.33,-366.84 461.19,-369.2 464.44,-373.76"/>
<text text-anchor="middle" x="504.82" y="-383.1" font-family="Helvetica,sans-Serif" font-size="10.00">runtime step table use</text>
</g>
<!-- Segment&#45;&gt;Artifact -->
<g id="edge14" class="edge">
<title>Segment&#45;&gt;Artifact</title>
<path fill="none" stroke="#2f2f2f" stroke-width="1.7" d="M255.13,-316.96C240.25,-305.71 222.21,-292.09 206.41,-280.14"/>
<polygon fill="#2f2f2f" stroke="#2f2f2f" stroke-width="1.7" points="208.5,-278.21 200.42,-275.63 205.12,-282.68 208.5,-278.21"/>
<text text-anchor="middle" x="276.27" y="-291.95" font-family="Helvetica,sans-Serif" font-size="10.00">generated source</text>
</g>
<!-- Runner&#45;&gt;Artifact -->
<g id="edge15" class="edge">
<title>Runner&#45;&gt;Artifact</title>
<path fill="none" stroke="#2f2f2f" stroke-width="1.7" d="M438.42,-317.09C430.18,-314.39 421.83,-311.78 413.83,-309.45 372.44,-297.43 326.62,-286.03 285.85,-276.54"/>
<polygon fill="#2f2f2f" stroke="#2f2f2f" stroke-width="1.7" points="286.53,-273.83 278.1,-274.76 285.27,-279.28 286.53,-273.83"/>
<text text-anchor="middle" x="423.09" y="-291.95" font-family="Helvetica,sans-Serif" font-size="10.00">generated source</text>
</g>
<!-- HostExec -->
<g id="node14" class="node">
<title>HostExec</title>
<polygon fill="#ffe8db" stroke="#d18a66" stroke-width="1.8" points="249.16,-146.8 86.5,-146.8 86.5,-99.4 249.16,-99.4 249.16,-146.8"/>
<text text-anchor="middle" x="167.83" y="-127.25" font-family="Helvetica,sans-Serif" font-size="13.00" fill="#40261d">tinynpu_runtime_v2.c</text>
<text text-anchor="middle" x="167.83" y="-110.75" font-family="Helvetica,sans-Serif" font-size="13.00" fill="#40261d">shared executor</text>
</g>
<!-- Artifact&#45;&gt;HostExec -->
<g id="edge18" class="edge">
<title>Artifact&#45;&gt;HostExec</title>
<path fill="none" stroke="#2f2f2f" stroke-width="1.7" d="M167.83,-226.09C167.83,-206.93 167.83,-179.34 167.83,-157.68"/>
<polygon fill="#2f2f2f" stroke="#2f2f2f" stroke-width="1.7" points="170.63,-157.86 167.83,-149.86 165.03,-157.86 170.63,-157.86"/>
<text text-anchor="middle" x="251.45" y="-201.8" font-family="Helvetica,sans-Serif" font-size="10.00">link runtime + generated program</text>
</g>
<!-- SimExec -->
<g id="node15" class="node">
<title>SimExec</title>
<polygon fill="#ffe8db" stroke="#d18a66" stroke-width="1.8" points="562.91,-155.05 368.75,-155.05 368.75,-91.15 562.91,-91.15 562.91,-155.05"/>
<text text-anchor="middle" x="465.83" y="-135.5" font-family="Helvetica,sans-Serif" font-size="13.00" fill="#40261d">CV32 firmware + Verilator</text>
<text text-anchor="middle" x="465.83" y="-119" font-family="Helvetica,sans-Serif" font-size="13.00" fill="#40261d">shared&#45;SRAM default</text>
<text text-anchor="middle" x="465.83" y="-102.5" font-family="Helvetica,sans-Serif" font-size="13.00" fill="#40261d">MMIO fallback</text>
</g>
<!-- HostExec&#45;&gt;SimExec -->
<g id="edge19" class="edge">
<title>HostExec&#45;&gt;SimExec</title>
<path fill="none" stroke="#2f2f2f" stroke-width="1.7" d="M249.65,-123.1C283.06,-123.1 322.16,-123.1 357.85,-123.1"/>
<polygon fill="#2f2f2f" stroke="#2f2f2f" stroke-width="1.7" points="357.74,-125.9 365.74,-123.1 357.74,-120.3 357.74,-125.9"/>
<text text-anchor="middle" x="308.95" y="-129.35" font-family="Helvetica,sans-Serif" font-size="10.00">build firmware image</text>
</g>
<!-- Result -->
<g id="node16" class="node">
<title>Result</title>
<polygon fill="#fff7d9" stroke="#c9a227" stroke-width="1.8" points="595.53,-47.4 336.12,-47.4 336.12,0 595.53,0 595.53,-47.4"/>
<text text-anchor="middle" x="465.83" y="-27.85" font-family="Helvetica,sans-Serif" font-size="13.00" fill="#4a3a00">ExecutionResult</text>
<text text-anchor="middle" x="465.83" y="-11.35" font-family="Helvetica,sans-Serif" font-size="13.00" fill="#4a3a00">outputs + verification + benchmark</text>
</g>
<!-- SimExec&#45;&gt;Result -->
<g id="edge20" class="edge">
<title>SimExec&#45;&gt;Result</title>
<path fill="none" stroke="#2f2f2f" stroke-width="1.7" d="M465.83,-90.75C465.83,-80.34 465.83,-68.73 465.83,-58.17"/>
<polygon fill="#2f2f2f" stroke="#2f2f2f" stroke-width="1.7" points="468.63,-58.23 465.83,-50.23 463.03,-58.23 468.63,-58.23"/>
<text text-anchor="middle" x="545.33" y="-65.65" font-family="Helvetica,sans-Serif" font-size="10.00">execute + verify + perf counters</text>
</g>
</g>
</svg>
