<?xml version="1.0" encoding="UTF-8" standalone="no"?>
<!DOCTYPE svg PUBLIC "-//W3C//DTD SVG 1.1//EN"
 "http://www.w3.org/Graphics/SVG/1.1/DTD/svg11.dtd">
<!-- Generated by graphviz version 2.43.0 (0)
 -->
<!-- Title: TinyNPUCompilerStack Pages: 1 -->
<svg width="573pt" height="1127pt"
 viewBox="0.00 0.00 573.40 1127.40" xmlns="http://www.w3.org/2000/svg" xmlns:xlink="http://www.w3.org/1999/xlink">
<g id="graph0" class="graph" transform="scale(1 1) rotate(0) translate(7.2 1120.2)">
<title>TinyNPUCompilerStack</title>
<polygon fill="white" stroke="transparent" points="-7.2,7.2 -7.2,-1120.2 566.2,-1120.2 566.2,7.2 -7.2,7.2"/>
<g id="clust1" class="cluster">
<title>cluster_partition</title>
<path fill="white" stroke="#6f8fb3" stroke-width="2" stroke-dasharray="5,2" d="M57,-687C57,-687 391,-687 391,-687 397,-687 403,-693 403,-699 403,-699 403,-871 403,-871 403,-877 397,-883 391,-883 391,-883 57,-883 57,-883 51,-883 45,-877 45,-871 45,-871 45,-699 45,-699 45,-693 51,-687 57,-687"/>
</g>
<g id="clust2" class="cluster">
<title>cluster_lowering</title>
<polygon fill="#f7fcf8" stroke="#4f9a6c" stroke-width="2.1" points="160,-270 160,-603 551,-603 551,-270 160,-270"/>
<text text-anchor="middle" x="355.5" y="-586.2" font-family="Helvetica,sans-Serif" font-size="16.00" fill="#2d6a4f">Lowering and Runtime Packaging</text>
</g>
<g id="clust3" class="cluster">
<title>cluster_runtime</title>
<path fill="white" stroke="#d18a66" stroke-width="2" stroke-dasharray="5,2" d="M75,-76C75,-76 241,-76 241,-76 247,-76 253,-82 253,-88 253,-88 253,-148 253,-148 253,-154 247,-160 241,-160 241,-160 75,-160 75,-160 69,-160 63,-154 63,-148 63,-148 63,-88 63,-88 63,-82 69,-76 75,-76"/>
<text text-anchor="middle" x="158" y="-143.2" font-family="Helvetica,sans-Serif" font-size="16.00" fill="#8f4f32">Execution</text>
</g>
<!-- Model -->
<g id="node1" class="node">
<title>Model</title>
<polygon fill="#e8f0fe" stroke="#557aab" stroke-width="1.8" points="219.5,-1113 24.5,-1113 24.5,-1077 219.5,-1077 219.5,-1113"/>
<text text-anchor="middle" x="122" y="-1091.6" font-family="Helvetica,sans-Serif" font-size="13.00" fill="#1f2d3d">PyTorch / quantized model</text>
</g>
<!-- Quant -->
<g id="node2" class="node">
<title>Quant</title>
<polygon fill="#e8f0fe" stroke="#557aab" stroke-width="1.8" points="114,-1036 0,-1036 0,-994 114,-994 114,-1036"/>
<text text-anchor="middle" x="57" y="-1018.6" font-family="Helvetica,sans-Serif" font-size="13.00" fill="#1f2d3d">Quantized</text>
<text text-anchor="middle" x="57" y="-1004.6" font-family="Helvetica,sans-Serif" font-size="13.00" fill="#1f2d3d">model artifact</text>
</g>
<!-- Model&#45;&gt;Quant -->
<g id="edge1" class="edge">
<title>Model&#45;&gt;Quant</title>
<path fill="none" stroke="#2f2f2f" stroke-width="1.7" d="M57.73,-1076.97C51.58,-1072.99 46.11,-1068.07 42,-1062 38.36,-1056.62 38.29,-1050.29 39.96,-1044.08"/>
<polygon fill="#2f2f2f" stroke="#2f2f2f" stroke-width="1.7" points="42.67,-1044.83 42.87,-1036.35 37.43,-1042.85 42.67,-1044.83"/>
<text text-anchor="middle" x="116" y="-1054" font-family="Helvetica,sans-Serif" font-size="10.00">PTQ / optional QAT conversion</text>
</g>
<!-- FX -->
<g id="node3" class="node">
<title>FX</title>
<polygon fill="#e8f0fe" stroke="#557aab" stroke-width="1.8" points="185.5,-953 74.5,-953 74.5,-917 185.5,-917 185.5,-953"/>
<text text-anchor="middle" x="130" y="-931.6" font-family="Helvetica,sans-Serif" font-size="13.00" fill="#1f2d3d">Model tracing</text>
</g>
<!-- Model&#45;&gt;FX -->
<g id="edge3" class="edge">
<title>Model&#45;&gt;FX</title>
<path fill="none" stroke="#2f2f2f" stroke-width="1.7" d="M175.15,-1076.78C181.02,-1072.81 186.22,-1067.95 190,-1062 212.39,-1026.73 211.49,-1003.82 190,-968 187.87,-964.45 185.2,-961.28 182.18,-958.44"/>
<polygon fill="#2f2f2f" stroke="#2f2f2f" stroke-width="1.7" points="183.52,-955.92 175.54,-953.07 180,-960.28 183.52,-955.92"/>
<text text-anchor="middle" x="278" y="-1012.5" font-family="Helvetica,sans-Serif" font-size="10.00">direct quantized module path</text>
</g>
<!-- Quant&#45;&gt;FX -->
<g id="edge2" class="edge">
<title>Quant&#45;&gt;FX</title>
<path fill="none" stroke="#2f2f2f" stroke-width="1.7" d="M61.75,-993.63C64.52,-985.01 68.75,-975.29 75,-968 78.25,-964.2 82.08,-960.75 86.17,-957.63"/>
<polygon fill="#2f2f2f" stroke="#2f2f2f" stroke-width="1.7" points="87.82,-959.89 92.77,-953.01 84.61,-955.3 87.82,-959.89"/>
<text text-anchor="middle" x="132.5" y="-971" font-family="Helvetica,sans-Serif" font-size="10.00">compiler&#45;ready module</text>
</g>
<!-- Partition -->
<g id="node4" class="node">
<title>Partition</title>
<polygon fill="#f4f7fb" stroke="#6f8fb3" stroke-width="1.8" points="175,-873 85,-873 85,-837 175,-837 175,-873"/>
<text text-anchor="middle" x="130" y="-851.6" font-family="Helvetica,sans-Serif" font-size="13.00" fill="#233142">Partitioner</text>
</g>
<!-- FX&#45;&gt;Partition -->
<g id="edge4" class="edge">
<title>FX&#45;&gt;Partition</title>
<path fill="none" stroke="#2f2f2f" stroke-width="1.7" d="M130,-916.69C130,-906.29 130,-892.87 130,-881.29"/>
<polygon fill="#2f2f2f" stroke="#2f2f2f" stroke-width="1.7" points="132.8,-881.26 130,-873.26 127.2,-881.26 132.8,-881.26"/>
<text text-anchor="middle" x="208" y="-894" font-family="Helvetica,sans-Serif" font-size="10.00">GraphModule + example inputs</text>
</g>
<!-- Plan -->
<g id="node5" class="node">
<title>Plan</title>
<polygon fill="#f4f7fb" stroke="#6f8fb3" stroke-width="1.8" points="392.5,-796 73.5,-796 73.5,-754 392.5,-754 392.5,-796"/>
<text text-anchor="middle" x="233" y="-778.6" font-family="Helvetica,sans-Serif" font-size="13.00" fill="#233142">Execution IR</text>
<text text-anchor="middle" x="233" y="-764.6" font-family="Helvetica,sans-Serif" font-size="13.00" fill="#233142">accelerator segments + scalar ops + checks</text>
</g>
<!-- Partition&#45;&gt;Plan -->
<g id="edge5" class="edge">
<title>Partition&#45;&gt;Plan</title>
<path fill="none" stroke="#2f2f2f" stroke-width="1.7" d="M152.6,-836.88C166.49,-826.37 184.52,-812.71 199.99,-801"/>
<polygon fill="#2f2f2f" stroke="#2f2f2f" stroke-width="1.7" points="201.75,-803.18 206.44,-796.11 198.37,-798.71 201.75,-803.18"/>
<text text-anchor="middle" x="240" y="-814" font-family="Helvetica,sans-Serif" font-size="10.00">mixed execution graph</text>
</g>
<!-- Expected -->
<g id="node6" class="node">
<title>Expected</title>
<polygon fill="#f4f7fb" stroke="#6f8fb3" stroke-width="1.8" points="190.5,-739 55.5,-739 55.5,-697 190.5,-697 190.5,-739"/>
<text text-anchor="middle" x="123" y="-721.6" font-family="Helvetica,sans-Serif" font-size="13.00" fill="#233142">Expected tensors</text>
<text text-anchor="middle" x="123" y="-707.6" font-family="Helvetica,sans-Serif" font-size="13.00" fill="#233142">for verification</text>
</g>
<!-- Partition&#45;&gt;Expected -->
<g id="edge6" class="edge">
<title>Partition&#45;&gt;Expected</title>
<path fill="none" stroke="#2f2f2f" stroke-width="1.7" d="M102.18,-836.95C88.54,-826.91 73.47,-812.86 66,-796 58.44,-778.93 56.89,-770.29 66,-754 67.92,-750.57 70.33,-747.44 73.06,-744.58"/>
<polygon fill="#2f2f2f" stroke="#2f2f2f" stroke-width="1.7" points="75.05,-746.55 79.08,-739.1 71.28,-742.41 75.05,-746.55"/>
<text text-anchor="middle" x="118.5" y="-814" font-family="Helvetica,sans-Serif" font-size="10.00">golden values</text>
</g>
<!-- Validate -->
<g id="node7" class="node">
<title>Validate</title>
<polygon fill="#fff4e8" stroke="#c98a43" stroke-width="1.8" points="276,-679 190,-679 190,-637 276,-637 276,-679"/>
<text text-anchor="middle" x="233" y="-661.6" font-family="Helvetica,sans-Serif" font-size="13.00" fill="#4a3520">Scalar&#45;op</text>
<text text-anchor="middle" x="233" y="-647.6" font-family="Helvetica,sans-Serif" font-size="13.00" fill="#4a3520">validation</text>
</g>
<!-- Plan&#45;&gt;Validate -->
<g id="edge7" class="edge">
<title>Plan&#45;&gt;Validate</title>
<path fill="none" stroke="#2f2f2f" stroke-width="1.7" d="M233,-753.97C233,-735.53 233,-707.99 233,-687.3"/>
<polygon fill="#2f2f2f" stroke="#2f2f2f" stroke-width="1.7" points="235.8,-687.19 233,-679.19 230.2,-687.19 235.8,-687.19"/>
<text text-anchor="middle" x="253" y="-715.5" font-family="Helvetica,sans-Serif" font-size="10.00">validate</text>
</g>
<!-- Compiler -->
<g id="node9" class="node">
<title>Compiler</title>
<polygon fill="#e7f6ec" stroke="#4f9a6c" stroke-width="1.8" points="399.5,-486 258.5,-486 258.5,-444 399.5,-444 399.5,-486"/>
<text text-anchor="middle" x="329" y="-468.6" font-family="Helvetica,sans-Serif" font-size="13.00" fill="#1f3328">Segment lowering</text>
<text text-anchor="middle" x="329" y="-454.6" font-family="Helvetica,sans-Serif" font-size="13.00" fill="#1f3328">layout selection</text>
</g>
<!-- Plan&#45;&gt;Compiler -->
<g id="edge10" class="edge">
<title>Plan&#45;&gt;Compiler</title>
<path fill="none" stroke="#2f2f2f" stroke-width="1.7" d="M263.95,-753.71C268.88,-749.35 273.5,-744.41 277,-739 327.33,-661.33 331.43,-546.78 330.32,-494.23"/>
<polygon fill="#2f2f2f" stroke="#2f2f2f" stroke-width="1.7" points="333.12,-493.96 330.1,-486.04 327.52,-494.12 333.12,-493.96"/>
<text text-anchor="middle" x="358.5" y="-614" font-family="Helvetica,sans-Serif" font-size="10.00">NPU segments</text>
</g>
<!-- Artifact -->
<g id="node13" class="node">
<title>Artifact</title>
<polygon fill="#efe8ff" stroke="#8b74bd" stroke-width="1.8" points="261.5,-236 54.5,-236 54.5,-194 261.5,-194 261.5,-236"/>
<text text-anchor="middle" x="158" y="-218.6" font-family="Helvetica,sans-Serif" font-size="13.00" fill="#2c2236">Generated C package</text>
<text text-anchor="middle" x="158" y="-204.6" font-family="Helvetica,sans-Serif" font-size="13.00" fill="#2c2236">program + runner + checks</text>
</g>
<!-- Expected&#45;&gt;Artifact -->
<g id="edge16" class="edge">
<title>Expected&#45;&gt;Artifact</title>
<path fill="none" stroke="#2f2f2f" stroke-width="1.7" d="M76.67,-696.96C46.61,-680.49 13,-653.94 13,-617.5 13,-617.5 13,-617.5 13,-298 13,-270.11 33.58,-251.6 59.22,-239.35"/>
<polygon fill="#2f2f2f" stroke="#2f2f2f" stroke-width="1.7" points="60.42,-241.89 66.58,-236.06 58.13,-236.77 60.42,-241.89"/>
<text text-anchor="middle" x="65.5" y="-462.5" font-family="Helvetica,sans-Serif" font-size="10.00">verification reference</text>
</g>
<!-- Planner -->
<g id="node8" class="node">
<title>Planner</title>
<polygon fill="#e7f6ec" stroke="#4f9a6c" stroke-width="1.8" points="297.5,-569 168.5,-569 168.5,-527 297.5,-527 297.5,-569"/>
<text text-anchor="middle" x="233" y="-551.6" font-family="Helvetica,sans-Serif" font-size="13.00" fill="#1f3328">Memory planner</text>
<text text-anchor="middle" x="233" y="-537.6" font-family="Helvetica,sans-Serif" font-size="13.00" fill="#1f3328">roles + layouts</text>
</g>
<!-- Validate&#45;&gt;Planner -->
<g id="edge8" class="edge">
<title>Validate&#45;&gt;Planner</title>
<path fill="none" stroke="#2f2f2f" stroke-width="1.7" d="M233,-636.94C233,-620.22 233,-596.21 233,-577.5"/>
<polygon fill="#2f2f2f" stroke="#2f2f2f" stroke-width="1.7" points="235.8,-577.32 233,-569.32 230.2,-577.32 235.8,-577.32"/>
<text text-anchor="middle" x="268" y="-614" font-family="Helvetica,sans-Serif" font-size="10.00">validated plan</text>
</g>
<!-- Planner&#45;&gt;Compiler -->
<g id="edge9" class="edge">
<title>Planner&#45;&gt;Compiler</title>
<path fill="none" stroke="#2f2f2f" stroke-width="1.7" d="M228.66,-526.62C227.96,-518 228.8,-508.28 234,-501 238.67,-494.45 244.71,-489.13 251.47,-484.8"/>
<polygon fill="#2f2f2f" stroke="#2f2f2f" stroke-width="1.7" points="252.91,-487.2 258.45,-480.79 250.12,-482.35 252.91,-487.2"/>
<text text-anchor="middle" x="275" y="-504" font-family="Helvetica,sans-Serif" font-size="10.00">segment layouts</text>
</g>
<!-- Planner&#45;&gt;Artifact -->
<g id="edge17" class="edge">
<title>Planner&#45;&gt;Artifact</title>
<path fill="none" stroke="#2f2f2f" stroke-width="1.7" d="M188.53,-527C165.85,-513.47 143,-493.12 143,-466 143,-466 143,-466 143,-298 143,-279.76 146.64,-259.61 150.33,-243.84"/>
<polygon fill="#2f2f2f" stroke="#2f2f2f" stroke-width="1.7" points="153.06,-244.47 152.24,-236.03 147.62,-243.13 153.06,-244.47"/>
<text text-anchor="middle" x="196.5" y="-379.5" font-family="Helvetica,sans-Serif" font-size="10.00">global memory report</text>
</g>
<!-- Program -->
<g id="node10" class="node">
<title>Program</title>
<polygon fill="#e7f6ec" stroke="#4f9a6c" stroke-width="1.8" points="449.5,-403 266.5,-403 266.5,-361 449.5,-361 449.5,-403"/>
<text text-anchor="middle" x="358" y="-385.6" font-family="Helvetica,sans-Serif" font-size="13.00" fill="#1f3328">code generator</text>
<text text-anchor="middle" x="358" y="-371.6" font-family="Helvetica,sans-Serif" font-size="13.00" fill="#1f3328">emit instructions + data</text>
</g>
<!-- Compiler&#45;&gt;Program -->
<g id="edge11" class="edge">
<title>Compiler&#45;&gt;Program</title>
<path fill="none" stroke="#2f2f2f" stroke-width="1.7" d="M336.17,-443.98C339.76,-433.95 344.16,-421.65 348.07,-410.73"/>
<polygon fill="#2f2f2f" stroke="#2f2f2f" stroke-width="1.7" points="350.75,-411.55 350.81,-403.07 345.48,-409.66 350.75,-411.55"/>
<text text-anchor="middle" x="370" y="-421" font-family="Helvetica,sans-Serif" font-size="10.00">lower to C</text>
</g>
<!-- Segment -->
<g id="node11" class="node">
<title>Segment</title>
<polygon fill="#e7f6ec" stroke="#4f9a6c" stroke-width="1.8" points="378,-320 168,-320 168,-278 378,-278 378,-320"/>
<text text-anchor="middle" x="273" y="-302.6" font-family="Helvetica,sans-Serif" font-size="13.00" fill="#1f3328">program C</text>
<text text-anchor="middle" x="273" y="-288.6" font-family="Helvetica,sans-Serif" font-size="13.00" fill="#1f3328">instructions + buffer images</text>
</g>
<!-- Program&#45;&gt;Segment -->
<g id="edge12" class="edge">
<title>Program&#45;&gt;Segment</title>
<path fill="none" stroke="#2f2f2f" stroke-width="1.7" d="M336.99,-360.98C325.85,-350.37 312.05,-337.21 300.11,-325.83"/>
<polygon fill="#2f2f2f" stroke="#2f2f2f" stroke-width="1.7" points="301.79,-323.56 294.06,-320.07 297.92,-327.62 301.79,-323.56"/>
<text text-anchor="middle" x="358" y="-338" font-family="Helvetica,sans-Serif" font-size="10.00">program image</text>
</g>
<!-- Runner -->
<g id="node12" class="node">
<title>Runner</title>
<polygon fill="#e7f6ec" stroke="#4f9a6c" stroke-width="1.8" points="543.5,-320 394.5,-320 394.5,-278 543.5,-278 543.5,-320"/>
<text text-anchor="middle" x="469" y="-302.6" font-family="Helvetica,sans-Serif" font-size="13.00" fill="#1f3328">runner C</text>
<text text-anchor="middle" x="469" y="-288.6" font-family="Helvetica,sans-Serif" font-size="13.00" fill="#1f3328">execution schedule</text>
</g>
<!-- Program&#45;&gt;Runner -->
<g id="edge13" class="edge">
<title>Program&#45;&gt;Runner</title>
<path fill="none" stroke="#2f2f2f" stroke-width="1.7" d="M385.44,-360.98C400.38,-350.07 419.01,-336.48 434.88,-324.9"/>
<polygon fill="#2f2f2f" stroke="#2f2f2f" stroke-width="1.7" points="436.68,-327.05 441.49,-320.07 433.38,-322.53 436.68,-327.05"/>
<text text-anchor="middle" x="458.5" y="-338" font-family="Helvetica,sans-Serif" font-size="10.00">execution steps</text>
</g>
<!-- Segment&#45;&gt;Artifact -->
<g id="edge14" class="edge">
<title>Segment&#45;&gt;Artifact</title>
<path fill="none" stroke="#2f2f2f" stroke-width="1.7" d="M244.87,-277.94C229.27,-266.82 209.74,-252.89 193.15,-241.06"/>
<polygon fill="#2f2f2f" stroke="#2f2f2f" stroke-width="1.7" points="194.38,-238.5 186.24,-236.14 191.13,-243.06 194.38,-238.5"/>
<text text-anchor="middle" x="264.5" y="-254" font-family="Helvetica,sans-Serif" font-size="10.00">generated source</text>
</g>
<!-- Runner&#45;&gt;Artifact -->
<g id="edge15" class="edge">
<title>Runner&#45;&gt;Artifact</title>
<path fill="none" stroke="#2f2f2f" stroke-width="1.7" d="M411.58,-277.99C403.04,-275.2 394.31,-272.45 386,-270 345.4,-258.03 300.13,-246.87 260.7,-237.83"/>
<polygon fill="#2f2f2f" stroke="#2f2f2f" stroke-width="1.7" points="261.32,-235.1 252.89,-236.06 260.07,-240.56 261.32,-235.1"/>
<text text-anchor="middle" x="397.5" y="-254" font-family="Helvetica,sans-Serif" font-size="10.00">generated source</text>
</g>
<!-- SimExec -->
<g id="node14" class="node">
<title>SimExec</title>
<polygon fill="#ffe8db" stroke="#d18a66" stroke-width="1.8" points="244.5,-126 71.5,-126 71.5,-84 244.5,-84 244.5,-126"/>
<text text-anchor="middle" x="158" y="-108.6" font-family="Helvetica,sans-Serif" font-size="13.00" fill="#40261d">CV32E40P firmware</text>
<text text-anchor="middle" x="158" y="-94.6" font-family="Helvetica,sans-Serif" font-size="13.00" fill="#40261d">under Verilator</text>
</g>
<!-- Artifact&#45;&gt;SimExec -->
<g id="edge18" class="edge">
<title>Artifact&#45;&gt;SimExec</title>
<path fill="none" stroke="#2f2f2f" stroke-width="1.7" d="M158,-193.94C158,-177.22 158,-153.21 158,-134.5"/>
<polygon fill="#2f2f2f" stroke="#2f2f2f" stroke-width="1.7" points="160.8,-134.32 158,-126.32 155.2,-134.32 160.8,-134.32"/>
<text text-anchor="middle" x="201" y="-171" font-family="Helvetica,sans-Serif" font-size="10.00">compile firmware</text>
</g>
<!-- Result -->
<g id="node15" class="node">
<title>Result</title>
<polygon fill="#fff7d9" stroke="#c9a227" stroke-width="1.8" points="237,-42 79,-42 79,0 237,0 237,-42"/>
<text text-anchor="middle" x="158" y="-24.6" font-family="Helvetica,sans-Serif" font-size="13.00" fill="#4a3a00">Outputs + checks</text>
<text text-anchor="middle" x="158" y="-10.6" font-family="Helvetica,sans-Serif" font-size="13.00" fill="#4a3a00">cycle counts</text>
</g>
<!-- SimExec&#45;&gt;Result -->
<g id="edge19" class="edge">
<title>SimExec&#45;&gt;Result</title>
<path fill="none" stroke="#2f2f2f" stroke-width="1.7" d="M158,-83.73C158,-73.6 158,-61.18 158,-50.15"/>
<polygon fill="#2f2f2f" stroke="#2f2f2f" stroke-width="1.7" points="160.8,-50.04 158,-42.04 155.2,-50.04 160.8,-50.04"/>
<text text-anchor="middle" x="238" y="-60" font-family="Helvetica,sans-Serif" font-size="10.00">execute + verify + perf counters</text>
</g>
</g>
</svg>
