<?xml version="1.0" encoding="UTF-8" standalone="no"?>
<!DOCTYPE svg PUBLIC "-//W3C//DTD SVG 1.1//EN"
 "http://www.w3.org/Graphics/SVG/1.1/DTD/svg11.dtd">
<!-- Generated by graphviz version 12.2.1 (20241206.2353)
 -->
<!-- Title: TinyNPUCompilerStack Pages: 1 -->
<svg width="551pt" height="1198pt"
 viewBox="0.00 0.00 551.08 1197.65" xmlns="http://www.w3.org/2000/svg" xmlns:xlink="http://www.w3.org/1999/xlink">
<g id="graph0" class="graph" transform="scale(1 1) rotate(0) translate(7.2 1190.45)">
<title>TinyNPUCompilerStack</title>
<polygon fill="white" stroke="none" points="-7.2,7.2 -7.2,-1190.45 543.88,-1190.45 543.88,7.2 -7.2,7.2"/>
<g id="clust1" class="cluster">
<title>cluster_partition</title>
<path fill="white" stroke="#6f8fb3" stroke-width="2" stroke-dasharray="5,2" d="M189,-722.65C189,-722.65 479,-722.65 479,-722.65 485,-722.65 491,-728.65 491,-734.65 491,-734.65 491,-919.2 491,-919.2 491,-925.2 485,-931.2 479,-931.2 479,-931.2 189,-931.2 189,-931.2 183,-931.2 177,-925.2 177,-919.2 177,-919.2 177,-734.65 177,-734.65 177,-728.65 183,-722.65 189,-722.65"/>
</g>
<g id="clust2" class="cluster">
<title>cluster_lowering</title>
<polygon fill="#f7fcf8" stroke="#4f9a6c" stroke-width="2.1" points="271,-292.95 271,-631.5 484,-631.5 484,-292.95 271,-292.95"/>
<text text-anchor="middle" x="377.5" y="-612.3" font-family="Helvetica,sans-Serif" font-size="16.00" fill="#2d6a4f">Lowering and Packaging</text>
</g>
<g id="clust3" class="cluster">
<title>cluster_runtime</title>
<path fill="white" stroke="#d18a66" stroke-width="2" stroke-dasharray="5,2" d="M20,-83.15C20,-83.15 362,-83.15 362,-83.15 368,-83.15 374,-89.15 374,-95.15 374,-95.15 374,-162.05 374,-162.05 374,-168.05 368,-174.05 362,-174.05 362,-174.05 20,-174.05 20,-174.05 14,-174.05 8,-168.05 8,-162.05 8,-162.05 8,-95.15 8,-95.15 8,-89.15 14,-83.15 20,-83.15"/>
<text text-anchor="middle" x="191" y="-154.85" font-family="Helvetica,sans-Serif" font-size="16.00" fill="#8f4f32">Execution Backends</text>
</g>
<!-- Model -->
<g id="node1" class="node">
<title>Model</title>
<polygon fill="#e8f0fe" stroke="#557aab" stroke-width="1.8" points="352.58,-1183.25 197.42,-1183.25 197.42,-1147.25 352.58,-1147.25 352.58,-1183.25"/>
<text text-anchor="middle" x="275" y="-1161.15" font-family="Helvetica,sans-Serif" font-size="13.00" fill="#1f2d3d">PyTorch / QAT Model</text>
</g>
<!-- Quant -->
<g id="node2" class="node">
<title>Quant</title>
<polygon fill="#e8f0fe" stroke="#557aab" stroke-width="1.8" points="308.83,-1104.5 113.17,-1104.5 113.17,-1057.1 308.83,-1057.1 308.83,-1104.5"/>
<text text-anchor="middle" x="211" y="-1084.95" font-family="Helvetica,sans-Serif" font-size="13.00" fill="#1f2d3d">tinynpu_quant</text>
<text text-anchor="middle" x="211" y="-1068.45" font-family="Helvetica,sans-Serif" font-size="13.00" fill="#1f2d3d">compiler&#45;ready conversion</text>
</g>
<!-- Model&#45;&gt;Quant -->
<g id="edge1" class="edge">
<title>Model&#45;&gt;Quant</title>
<path fill="none" stroke="#2f2f2f" stroke-width="1.7" d="M224.85,-1146.85C219.17,-1142.9 214.12,-1138.09 210.5,-1132.25 207.31,-1127.1 205.87,-1121.05 205.49,-1114.96"/>
<polygon fill="#2f2f2f" stroke="#2f2f2f" stroke-width="1.7" points="208.28,-1115.46 205.64,-1107.4 202.68,-1115.34 208.28,-1115.46"/>
<text text-anchor="middle" x="269.75" y="-1122.75" font-family="Helvetica,sans-Serif" font-size="10.00">optional QAT conversion</text>
</g>
<!-- FX -->
<g id="node3" class="node">
<title>FX</title>
<polygon fill="#e8f0fe" stroke="#557aab" stroke-width="1.8" points="346.7,-1014.35 207.3,-1014.35 207.3,-966.95 346.7,-966.95 346.7,-1014.35"/>
<text text-anchor="middle" x="277" y="-994.8" font-family="Helvetica,sans-Serif" font-size="13.00" fill="#1f2d3d">FX tracing</text>
<text text-anchor="middle" x="277" y="-978.3" font-family="Helvetica,sans-Serif" font-size="13.00" fill="#1f2d3d">compile_module()</text>
</g>
<!-- Model&#45;&gt;FX -->
<g id="edge3" class="edge">
<title>Model&#45;&gt;FX</title>
<path fill="none" stroke="#2f2f2f" stroke-width="1.7" d="M315.53,-1146.89C320.92,-1142.87 325.71,-1138.03 329,-1132.25 351.64,-1092.51 349.78,-1070.09 329,-1029.35 327.67,-1026.74 326.07,-1024.27 324.26,-1021.94"/>
<polygon fill="#2f2f2f" stroke="#2f2f2f" stroke-width="1.7" points="326.66,-1020.41 319.17,-1016.43 322.54,-1024.21 326.66,-1020.41"/>
<text text-anchor="middle" x="416.92" y="-1077.68" font-family="Helvetica,sans-Serif" font-size="10.00">direct quantized module path</text>
</g>
<!-- Quant&#45;&gt;FX -->
<g id="edge2" class="edge">
<title>Quant&#45;&gt;FX</title>
<path fill="none" stroke="#2f2f2f" stroke-width="1.7" d="M208.48,-1056.81C208.54,-1047.67 210.03,-1037.43 215,-1029.35 216.61,-1026.74 218.47,-1024.28 220.53,-1021.97"/>
<polygon fill="#2f2f2f" stroke="#2f2f2f" stroke-width="1.7" points="222.45,-1024.01 226.31,-1016.46 218.59,-1019.95 222.45,-1024.01"/>
<text text-anchor="middle" x="272" y="-1032.6" font-family="Helvetica,sans-Serif" font-size="10.00">compiler&#45;ready module</text>
</g>
<!-- Partition -->
<g id="node4" class="node">
<title>Partition</title>
<polygon fill="#f4f7fb" stroke="#6f8fb3" stroke-width="1.8" points="352.33,-921.2 201.67,-921.2 201.67,-885.2 352.33,-885.2 352.33,-921.2"/>
<text text-anchor="middle" x="277" y="-899.1" font-family="Helvetica,sans-Serif" font-size="13.00" fill="#233142">partition_fx_graph()</text>
</g>
<!-- FX&#45;&gt;Partition -->
<g id="edge4" class="edge">
<title>FX&#45;&gt;Partition</title>
<path fill="none" stroke="#2f2f2f" stroke-width="1.7" d="M277,-966.75C277,-956.07 277,-943.27 277,-932.04"/>
<polygon fill="#2f2f2f" stroke="#2f2f2f" stroke-width="1.7" points="279.8,-932.04 277,-924.04 274.2,-932.04 279.8,-932.04"/>
<text text-anchor="middle" x="354.62" y="-942.45" font-family="Helvetica,sans-Serif" font-size="10.00">GraphModule + example inputs</text>
</g>
<!-- Plan -->
<g id="node5" class="node">
<title>Plan</title>
<polygon fill="#f4f7fb" stroke="#6f8fb3" stroke-width="1.8" points="480.58,-842.45 205.42,-842.45 205.42,-795.05 480.58,-795.05 480.58,-842.45"/>
<text text-anchor="middle" x="343" y="-822.9" font-family="Helvetica,sans-Serif" font-size="13.00" fill="#233142">ExecutionPlan</text>
<text text-anchor="middle" x="343" y="-806.4" font-family="Helvetica,sans-Serif" font-size="13.00" fill="#233142">NpuSegment + HostOp + VerifyTensor</text>
</g>
<!-- Partition&#45;&gt;Plan -->
<g id="edge5" class="edge">
<title>Partition&#45;&gt;Plan</title>
<path fill="none" stroke="#2f2f2f" stroke-width="1.7" d="M291,-884.71C298.85,-874.9 308.89,-862.36 318.04,-850.93"/>
<polygon fill="#2f2f2f" stroke="#2f2f2f" stroke-width="1.7" points="320.09,-852.85 322.9,-844.86 315.72,-849.35 320.09,-852.85"/>
<text text-anchor="middle" x="364.1" y="-860.7" font-family="Helvetica,sans-Serif" font-size="10.00">mixed execution plan</text>
</g>
<!-- Expected -->
<g id="node6" class="node">
<title>Expected</title>
<polygon fill="#f4f7fb" stroke="#6f8fb3" stroke-width="1.8" points="321.45,-780.05 186.55,-780.05 186.55,-732.65 321.45,-732.65 321.45,-780.05"/>
<text text-anchor="middle" x="254" y="-760.5" font-family="Helvetica,sans-Serif" font-size="13.00" fill="#233142">Expected tensors</text>
<text text-anchor="middle" x="254" y="-744" font-family="Helvetica,sans-Serif" font-size="13.00" fill="#233142">for verification</text>
</g>
<!-- Partition&#45;&gt;Expected -->
<g id="edge6" class="edge">
<title>Partition&#45;&gt;Expected</title>
<path fill="none" stroke="#2f2f2f" stroke-width="1.7" d="M240.05,-884.9C223.56,-875.02 205.87,-860.88 197,-842.45 187.87,-823.47 187.03,-813.61 197,-795.05 198.4,-792.45 200.06,-790.01 201.92,-787.7"/>
<polygon fill="#2f2f2f" stroke="#2f2f2f" stroke-width="1.7" points="203.61,-789.98 207.15,-782.28 199.58,-786.09 203.61,-789.98"/>
<text text-anchor="middle" x="252.47" y="-860.7" font-family="Helvetica,sans-Serif" font-size="10.00">golden values</text>
</g>
<!-- Validate -->
<g id="node7" class="node">
<title>Validate</title>
<polygon fill="#fff4e8" stroke="#c98a43" stroke-width="1.8" points="385.7,-714.65 300.3,-714.65 300.3,-667.25 385.7,-667.25 385.7,-714.65"/>
<text text-anchor="middle" x="343" y="-695.1" font-family="Helvetica,sans-Serif" font-size="13.00" fill="#4a3520">HostOp</text>
<text text-anchor="middle" x="343" y="-678.6" font-family="Helvetica,sans-Serif" font-size="13.00" fill="#4a3520">validation</text>
</g>
<!-- Plan&#45;&gt;Validate -->
<g id="edge7" class="edge">
<title>Plan&#45;&gt;Validate</title>
<path fill="none" stroke="#2f2f2f" stroke-width="1.7" d="M343,-794.68C343,-775.26 343,-747.24 343,-725.37"/>
<polygon fill="#2f2f2f" stroke="#2f2f2f" stroke-width="1.7" points="345.8,-725.45 343,-717.45 340.2,-725.45 345.8,-725.45"/>
<text text-anchor="middle" x="379.38" y="-753.23" font-family="Helvetica,sans-Serif" font-size="10.00">compile_plan()</text>
</g>
<!-- Compiler -->
<g id="node9" class="node">
<title>Compiler</title>
<polygon fill="#e7f6ec" stroke="#4f9a6c" stroke-width="1.8" points="433.33,-517.25 294.67,-517.25 294.67,-481.25 433.33,-481.25 433.33,-517.25"/>
<text text-anchor="middle" x="364" y="-495.15" font-family="Helvetica,sans-Serif" font-size="13.00" fill="#1f3328">SegmentCompiler</text>
</g>
<!-- Plan&#45;&gt;Compiler -->
<g id="edge10" class="edge">
<title>Plan&#45;&gt;Compiler</title>
<path fill="none" stroke="#2f2f2f" stroke-width="1.7" d="M406.4,-794.67C411.72,-790.55 416.42,-785.71 420,-780.05 478.89,-686.97 479.34,-626.89 423,-532.25 421.27,-529.35 419.18,-526.69 416.82,-524.26"/>
<polygon fill="#2f2f2f" stroke="#2f2f2f" stroke-width="1.7" points="418.94,-522.39 411.04,-519.32 415.3,-526.64 418.94,-522.39"/>
<text text-anchor="middle" x="500.68" y="-642.75" font-family="Helvetica,sans-Serif" font-size="10.00">NPU segments</text>
</g>
<!-- Artifact -->
<g id="node12" class="node">
<title>Artifact</title>
<polygon fill="#efe8ff" stroke="#8b74bd" stroke-width="1.8" points="315.71,-257.2 74.29,-257.2 74.29,-209.8 315.71,-209.8 315.71,-257.2"/>
<text text-anchor="middle" x="195" y="-237.65" font-family="Helvetica,sans-Serif" font-size="13.00" fill="#2c2236">CompiledArtifact</text>
<text text-anchor="middle" x="195" y="-221.15" font-family="Helvetica,sans-Serif" font-size="13.00" fill="#2c2236">plan + binaries + memory report</text>
</g>
<!-- Expected&#45;&gt;Artifact -->
<g id="edge14" class="edge">
<title>Expected&#45;&gt;Artifact</title>
<path fill="none" stroke="#2f2f2f" stroke-width="1.7" d="M186.13,-744.55C132.28,-731.65 66,-704.15 66,-646.88 66,-646.88 66,-646.88 66,-323.65 66,-295.89 86.47,-276.1 111.1,-262.33"/>
<polygon fill="#2f2f2f" stroke="#2f2f2f" stroke-width="1.7" points="112.25,-264.89 118.05,-258.72 109.66,-259.93 112.25,-264.89"/>
<text text-anchor="middle" x="118.12" y="-496.12" font-family="Helvetica,sans-Serif" font-size="10.00">verification reference</text>
</g>
<!-- Planner -->
<g id="node8" class="node">
<title>Planner</title>
<polygon fill="#e7f6ec" stroke="#4f9a6c" stroke-width="1.8" points="407.08,-596 278.92,-596 278.92,-560 407.08,-560 407.08,-596"/>
<text text-anchor="middle" x="343" y="-573.9" font-family="Helvetica,sans-Serif" font-size="13.00" fill="#1f3328">Memory planner</text>
</g>
<!-- Validate&#45;&gt;Planner -->
<g id="edge8" class="edge">
<title>Validate&#45;&gt;Planner</title>
<path fill="none" stroke="#2f2f2f" stroke-width="1.7" d="M343,-666.96C343,-649.43 343,-625.21 343,-606.62"/>
<polygon fill="#2f2f2f" stroke="#2f2f2f" stroke-width="1.7" points="345.8,-606.73 343,-598.73 340.2,-606.73 345.8,-606.73"/>
<text text-anchor="middle" x="377.88" y="-642.75" font-family="Helvetica,sans-Serif" font-size="10.00">validated plan</text>
</g>
<!-- Planner&#45;&gt;Compiler -->
<g id="edge9" class="edge">
<title>Planner&#45;&gt;Compiler</title>
<path fill="none" stroke="#2f2f2f" stroke-width="1.7" d="M339.59,-559.63C338.61,-551.18 338.46,-540.99 341.25,-532.25 341.87,-530.3 342.66,-528.37 343.57,-526.48"/>
<polygon fill="#2f2f2f" stroke="#2f2f2f" stroke-width="1.7" points="345.93,-527.99 347.57,-519.68 341.1,-525.15 345.93,-527.99"/>
<text text-anchor="middle" x="382.12" y="-535.5" font-family="Helvetica,sans-Serif" font-size="10.00">segment layouts</text>
</g>
<!-- Planner&#45;&gt;Artifact -->
<g id="edge15" class="edge">
<title>Planner&#45;&gt;Artifact</title>
<path fill="none" stroke="#2f2f2f" stroke-width="1.7" d="M278.52,-568.77C238.63,-559.65 195,-540.48 195,-500.25 195,-500.25 195,-500.25 195,-323.65 195,-305.24 195,-284.69 195,-267.97"/>
<polygon fill="#2f2f2f" stroke="#2f2f2f" stroke-width="1.7" points="197.8,-268.16 195,-260.16 192.2,-268.16 197.8,-268.16"/>
<text text-anchor="middle" x="248.25" y="-411.67" font-family="Helvetica,sans-Serif" font-size="10.00">global memory report</text>
</g>
<!-- Program -->
<g id="node10" class="node">
<title>Program</title>
<polygon fill="#e7f6ec" stroke="#4f9a6c" stroke-width="1.8" points="476.2,-438.5 317.8,-438.5 317.8,-391.1 476.2,-391.1 476.2,-438.5"/>
<text text-anchor="middle" x="397" y="-418.95" font-family="Helvetica,sans-Serif" font-size="13.00" fill="#1f3328">TinyNPUProgram</text>
<text text-anchor="middle" x="397" y="-402.45" font-family="Helvetica,sans-Serif" font-size="13.00" fill="#1f3328">emit + compile</text>
</g>
<!-- Compiler&#45;&gt;Program -->
<g id="edge11" class="edge">
<title>Compiler&#45;&gt;Program</title>
<path fill="none" stroke="#2f2f2f" stroke-width="1.7" d="M371,-480.76C374.74,-471.43 379.46,-459.62 383.85,-448.65"/>
<polygon fill="#2f2f2f" stroke="#2f2f2f" stroke-width="1.7" points="386.43,-449.75 386.8,-441.29 381.23,-447.67 386.43,-449.75"/>
<text text-anchor="middle" x="437.36" y="-456.75" font-family="Helvetica,sans-Serif" font-size="10.00">declare data / emit ISA</text>
</g>
<!-- Segment -->
<g id="node11" class="node">
<title>Segment</title>
<polygon fill="#e7f6ec" stroke="#4f9a6c" stroke-width="1.8" points="452.2,-348.35 293.8,-348.35 293.8,-300.95 452.2,-300.95 452.2,-348.35"/>
<text text-anchor="middle" x="373" y="-328.8" font-family="Helvetica,sans-Serif" font-size="13.00" fill="#1f3328">Segment binaries</text>
<text text-anchor="middle" x="373" y="-312.3" font-family="Helvetica,sans-Serif" font-size="13.00" fill="#1f3328">IM + UB + symbols</text>
</g>
<!-- Program&#45;&gt;Segment -->
<g id="edge12" class="edge">
<title>Program&#45;&gt;Segment</title>
<path fill="none" stroke="#2f2f2f" stroke-width="1.7" d="M390.69,-390.64C388.05,-380.92 384.92,-369.44 382.04,-358.85"/>
<polygon fill="#2f2f2f" stroke="#2f2f2f" stroke-width="1.7" points="384.74,-358.12 379.94,-351.14 379.34,-359.59 384.74,-358.12"/>
<text text-anchor="middle" x="429.94" y="-366.6" font-family="Helvetica,sans-Serif" font-size="10.00">compiled binaries</text>
</g>
<!-- Segment&#45;&gt;Artifact -->
<g id="edge13" class="edge">
<title>Segment&#45;&gt;Artifact</title>
<path fill="none" stroke="#2f2f2f" stroke-width="1.7" d="M326.7,-300.46C303.31,-288.75 274.78,-274.46 250.25,-262.17"/>
<polygon fill="#2f2f2f" stroke="#2f2f2f" stroke-width="1.7" points="251.78,-259.81 243.37,-258.73 249.27,-264.81 251.78,-259.81"/>
<text text-anchor="middle" x="347.53" y="-275.45" font-family="Helvetica,sans-Serif" font-size="10.00">per&#45;segment artifacts</text>
</g>
<!-- HostExec -->
<g id="node13" class="node">
<title>HostExec</title>
<polygon fill="#ffe8db" stroke="#d18a66" stroke-width="1.8" points="191.7,-132.85 16.3,-132.85 16.3,-96.85 191.7,-96.85 191.7,-132.85"/>
<text text-anchor="middle" x="104" y="-110.75" font-family="Helvetica,sans-Serif" font-size="13.00" fill="#40261d">HostEmulationExecutor</text>
</g>
<!-- Artifact&#45;&gt;HostExec -->
<g id="edge16" class="edge">
<title>Artifact&#45;&gt;HostExec</title>
<path fill="none" stroke="#2f2f2f" stroke-width="1.7" d="M149.92,-209.49C144.05,-205.18 138.52,-200.27 134,-194.8 121.75,-179.96 114.17,-159.58 109.7,-143.25"/>
<polygon fill="#2f2f2f" stroke="#2f2f2f" stroke-width="1.7" points="112.47,-142.78 107.81,-135.69 107.04,-144.13 112.47,-142.78"/>
<text text-anchor="middle" x="195.5" y="-185.3" font-family="Helvetica,sans-Serif" font-size="10.00">backend=host&#45;emulation</text>
</g>
<!-- SimExec -->
<g id="node14" class="node">
<title>SimExec</title>
<polygon fill="#ffe8db" stroke="#d18a66" stroke-width="1.8" points="366.2,-138.55 207.8,-138.55 207.8,-91.15 366.2,-91.15 366.2,-138.55"/>
<text text-anchor="middle" x="287" y="-119" font-family="Helvetica,sans-Serif" font-size="13.00" fill="#40261d">Simulator runtime</text>
<text text-anchor="middle" x="287" y="-102.5" font-family="Helvetica,sans-Serif" font-size="13.00" fill="#40261d">run_sim() / session</text>
</g>
<!-- Artifact&#45;&gt;SimExec -->
<g id="edge17" class="edge">
<title>Artifact&#45;&gt;SimExec</title>
<path fill="none" stroke="#2f2f2f" stroke-width="1.7" d="M241.14,-209.35C246.98,-205.08 252.49,-200.22 257,-194.8 267.89,-181.7 275.08,-164.23 279.68,-149.05"/>
<polygon fill="#2f2f2f" stroke="#2f2f2f" stroke-width="1.7" points="282.34,-149.93 281.78,-141.47 276.94,-148.44 282.34,-149.93"/>
<text text-anchor="middle" x="298.26" y="-185.3" font-family="Helvetica,sans-Serif" font-size="10.00">backend=sim</text>
</g>
<!-- Result -->
<g id="node15" class="node">
<title>Result</title>
<polygon fill="#fff7d9" stroke="#c9a227" stroke-width="1.8" points="324.71,-47.4 65.29,-47.4 65.29,0 324.71,0 324.71,-47.4"/>
<text text-anchor="middle" x="195" y="-27.85" font-family="Helvetica,sans-Serif" font-size="13.00" fill="#4a3a00">ExecutionResult</text>
<text text-anchor="middle" x="195" y="-11.35" font-family="Helvetica,sans-Serif" font-size="13.00" fill="#4a3a00">outputs + verification + benchmark</text>
</g>
<!-- HostExec&#45;&gt;Result -->
<g id="edge18" class="edge">
<title>HostExec&#45;&gt;Result</title>
<path fill="none" stroke="#2f2f2f" stroke-width="1.7" d="M121.55,-96.66C133.68,-84.77 150.16,-68.63 164.43,-54.65"/>
<polygon fill="#2f2f2f" stroke="#2f2f2f" stroke-width="1.7" points="166.06,-56.97 169.82,-49.37 162.14,-52.97 166.06,-56.97"/>
<text text-anchor="middle" x="186.07" y="-65.65" font-family="Helvetica,sans-Serif" font-size="10.00">execute plan</text>
</g>
<!-- SimExec&#45;&gt;Result -->
<g id="edge19" class="edge">
<title>SimExec&#45;&gt;Result</title>
<path fill="none" stroke="#2f2f2f" stroke-width="1.7" d="M263.31,-90.89C252.02,-79.95 238.37,-66.73 226.25,-54.98"/>
<polygon fill="#2f2f2f" stroke="#2f2f2f" stroke-width="1.7" points="228.47,-53.24 220.78,-49.68 224.58,-57.26 228.47,-53.24"/>
<text text-anchor="middle" x="305.01" y="-65.65" font-family="Helvetica,sans-Serif" font-size="10.00">execute + perf counters</text>
</g>
</g>
</svg>
