<?xml version="1.0" encoding="UTF-8" standalone="no"?>
<!DOCTYPE svg PUBLIC "-//W3C//DTD SVG 1.1//EN"
 "http://www.w3.org/Graphics/SVG/1.1/DTD/svg11.dtd">
<!-- Generated by graphviz version 12.2.1 (20241206.2353)
 -->
<!-- Title: TinyNPUCompilerStack Pages: 1 -->
<svg width="551pt" height="1220pt"
 viewBox="0.00 0.00 551.29 1220.45" xmlns="http://www.w3.org/2000/svg" xmlns:xlink="http://www.w3.org/1999/xlink">
<g id="graph0" class="graph" transform="scale(1 1) rotate(0) translate(7.2 1213.25)">
<title>TinyNPUCompilerStack</title>
<polygon fill="white" stroke="none" points="-7.2,7.2 -7.2,-1213.25 544.09,-1213.25 544.09,7.2 -7.2,7.2"/>
<g id="clust1" class="cluster">
<title>cluster_partition</title>
<path fill="white" stroke="#6f8fb3" stroke-width="2" stroke-dasharray="5,2" d="M189,-745.45C189,-745.45 479,-745.45 479,-745.45 485,-745.45 491,-751.45 491,-757.45 491,-757.45 491,-942 491,-942 491,-948 485,-954 479,-954 479,-954 189,-954 189,-954 183,-954 177,-948 177,-942 177,-942 177,-757.45 177,-757.45 177,-751.45 183,-745.45 189,-745.45"/>
</g>
<g id="clust2" class="cluster">
<title>cluster_lowering</title>
<polygon fill="#f7fcf8" stroke="#4f9a6c" stroke-width="2.1" points="271,-292.95 271,-654.3 484,-654.3 484,-292.95 271,-292.95"/>
<text text-anchor="middle" x="377.5" y="-635.1" font-family="Helvetica,sans-Serif" font-size="16.00" fill="#2d6a4f">Lowering and Packaging</text>
</g>
<g id="clust3" class="cluster">
<title>cluster_runtime</title>
<path fill="white" stroke="#d18a66" stroke-width="2" stroke-dasharray="5,2" d="M20,-83.15C20,-83.15 362,-83.15 362,-83.15 368,-83.15 374,-89.15 374,-95.15 374,-95.15 374,-162.05 374,-162.05 374,-168.05 368,-174.05 362,-174.05 362,-174.05 20,-174.05 20,-174.05 14,-174.05 8,-168.05 8,-162.05 8,-162.05 8,-95.15 8,-95.15 8,-89.15 14,-83.15 20,-83.15"/>
<text text-anchor="middle" x="191" y="-154.85" font-family="Helvetica,sans-Serif" font-size="16.00" fill="#8f4f32">Execution Backends</text>
</g>
<!-- Model -->
<g id="node1" class="node">
<title>Model</title>
<polygon fill="#e8f0fe" stroke="#557aab" stroke-width="1.8" points="352.58,-1206.05 197.42,-1206.05 197.42,-1170.05 352.58,-1170.05 352.58,-1206.05"/>
<text text-anchor="middle" x="275" y="-1183.95" font-family="Helvetica,sans-Serif" font-size="13.00" fill="#1f2d3d">PyTorch / QAT Model</text>
</g>
<!-- Quant -->
<g id="node2" class="node">
<title>Quant</title>
<polygon fill="#e8f0fe" stroke="#557aab" stroke-width="1.8" points="308.83,-1127.3 113.17,-1127.3 113.17,-1079.9 308.83,-1079.9 308.83,-1127.3"/>
<text text-anchor="middle" x="211" y="-1107.75" font-family="Helvetica,sans-Serif" font-size="13.00" fill="#1f2d3d">tinynpu_quant</text>
<text text-anchor="middle" x="211" y="-1091.25" font-family="Helvetica,sans-Serif" font-size="13.00" fill="#1f2d3d">compiler&#45;ready conversion</text>
</g>
<!-- Model&#45;&gt;Quant -->
<g id="edge1" class="edge">
<title>Model&#45;&gt;Quant</title>
<path fill="none" stroke="#2f2f2f" stroke-width="1.7" d="M224.85,-1169.65C219.17,-1165.7 214.12,-1160.89 210.5,-1155.05 207.31,-1149.9 205.87,-1143.85 205.49,-1137.76"/>
<polygon fill="#2f2f2f" stroke="#2f2f2f" stroke-width="1.7" points="208.28,-1138.26 205.64,-1130.2 202.68,-1138.14 208.28,-1138.26"/>
<text text-anchor="middle" x="269.75" y="-1145.55" font-family="Helvetica,sans-Serif" font-size="10.00">optional QAT conversion</text>
</g>
<!-- FX -->
<g id="node3" class="node">
<title>FX</title>
<polygon fill="#e8f0fe" stroke="#557aab" stroke-width="1.8" points="346.7,-1037.15 207.3,-1037.15 207.3,-989.75 346.7,-989.75 346.7,-1037.15"/>
<text text-anchor="middle" x="277" y="-1017.6" font-family="Helvetica,sans-Serif" font-size="13.00" fill="#1f2d3d">FX tracing</text>
<text text-anchor="middle" x="277" y="-1001.1" font-family="Helvetica,sans-Serif" font-size="13.00" fill="#1f2d3d">compile_module()</text>
</g>
<!-- Model&#45;&gt;FX -->
<g id="edge3" class="edge">
<title>Model&#45;&gt;FX</title>
<path fill="none" stroke="#2f2f2f" stroke-width="1.7" d="M315.53,-1169.69C320.92,-1165.67 325.71,-1160.83 329,-1155.05 351.64,-1115.31 349.78,-1092.89 329,-1052.15 327.67,-1049.54 326.07,-1047.07 324.26,-1044.74"/>
<polygon fill="#2f2f2f" stroke="#2f2f2f" stroke-width="1.7" points="326.66,-1043.21 319.17,-1039.23 322.54,-1047.01 326.66,-1043.21"/>
<text text-anchor="middle" x="416.92" y="-1100.48" font-family="Helvetica,sans-Serif" font-size="10.00">direct quantized module path</text>
</g>
<!-- Quant&#45;&gt;FX -->
<g id="edge2" class="edge">
<title>Quant&#45;&gt;FX</title>
<path fill="none" stroke="#2f2f2f" stroke-width="1.7" d="M208.48,-1079.61C208.54,-1070.47 210.03,-1060.23 215,-1052.15 216.61,-1049.54 218.47,-1047.08 220.53,-1044.77"/>
<polygon fill="#2f2f2f" stroke="#2f2f2f" stroke-width="1.7" points="222.45,-1046.81 226.31,-1039.26 218.59,-1042.75 222.45,-1046.81"/>
<text text-anchor="middle" x="272" y="-1055.4" font-family="Helvetica,sans-Serif" font-size="10.00">compiler&#45;ready module</text>
</g>
<!-- Partition -->
<g id="node4" class="node">
<title>Partition</title>
<polygon fill="#f4f7fb" stroke="#6f8fb3" stroke-width="1.8" points="352.33,-944 201.67,-944 201.67,-908 352.33,-908 352.33,-944"/>
<text text-anchor="middle" x="277" y="-921.9" font-family="Helvetica,sans-Serif" font-size="13.00" fill="#233142">partition_fx_graph()</text>
</g>
<!-- FX&#45;&gt;Partition -->
<g id="edge4" class="edge">
<title>FX&#45;&gt;Partition</title>
<path fill="none" stroke="#2f2f2f" stroke-width="1.7" d="M277,-989.55C277,-978.87 277,-966.07 277,-954.84"/>
<polygon fill="#2f2f2f" stroke="#2f2f2f" stroke-width="1.7" points="279.8,-954.84 277,-946.84 274.2,-954.84 279.8,-954.84"/>
<text text-anchor="middle" x="354.62" y="-965.25" font-family="Helvetica,sans-Serif" font-size="10.00">GraphModule + example inputs</text>
</g>
<!-- Plan -->
<g id="node5" class="node">
<title>Plan</title>
<polygon fill="#f4f7fb" stroke="#6f8fb3" stroke-width="1.8" points="480.58,-865.25 205.42,-865.25 205.42,-817.85 480.58,-817.85 480.58,-865.25"/>
<text text-anchor="middle" x="343" y="-845.7" font-family="Helvetica,sans-Serif" font-size="13.00" fill="#233142">ExecutionPlan</text>
<text text-anchor="middle" x="343" y="-829.2" font-family="Helvetica,sans-Serif" font-size="13.00" fill="#233142">NpuSegment + HostOp + VerifyTensor</text>
</g>
<!-- Partition&#45;&gt;Plan -->
<g id="edge5" class="edge">
<title>Partition&#45;&gt;Plan</title>
<path fill="none" stroke="#2f2f2f" stroke-width="1.7" d="M291,-907.51C298.85,-897.7 308.89,-885.16 318.04,-873.73"/>
<polygon fill="#2f2f2f" stroke="#2f2f2f" stroke-width="1.7" points="320.09,-875.65 322.9,-867.66 315.72,-872.15 320.09,-875.65"/>
<text text-anchor="middle" x="364.1" y="-883.5" font-family="Helvetica,sans-Serif" font-size="10.00">mixed execution plan</text>
</g>
<!-- Expected -->
<g id="node6" class="node">
<title>Expected</title>
<polygon fill="#f4f7fb" stroke="#6f8fb3" stroke-width="1.8" points="321.45,-802.85 186.55,-802.85 186.55,-755.45 321.45,-755.45 321.45,-802.85"/>
<text text-anchor="middle" x="254" y="-783.3" font-family="Helvetica,sans-Serif" font-size="13.00" fill="#233142">Expected tensors</text>
<text text-anchor="middle" x="254" y="-766.8" font-family="Helvetica,sans-Serif" font-size="13.00" fill="#233142">for verification</text>
</g>
<!-- Partition&#45;&gt;Expected -->
<g id="edge6" class="edge">
<title>Partition&#45;&gt;Expected</title>
<path fill="none" stroke="#2f2f2f" stroke-width="1.7" d="M240.05,-907.7C223.56,-897.82 205.87,-883.68 197,-865.25 187.87,-846.27 187.03,-836.41 197,-817.85 198.4,-815.25 200.06,-812.81 201.92,-810.5"/>
<polygon fill="#2f2f2f" stroke="#2f2f2f" stroke-width="1.7" points="203.61,-812.78 207.15,-805.08 199.58,-808.89 203.61,-812.78"/>
<text text-anchor="middle" x="252.47" y="-883.5" font-family="Helvetica,sans-Serif" font-size="10.00">golden values</text>
</g>
<!-- Validate -->
<g id="node7" class="node">
<title>Validate</title>
<polygon fill="#fff4e8" stroke="#c98a43" stroke-width="1.8" points="385.7,-737.45 300.3,-737.45 300.3,-690.05 385.7,-690.05 385.7,-737.45"/>
<text text-anchor="middle" x="343" y="-717.9" font-family="Helvetica,sans-Serif" font-size="13.00" fill="#4a3520">HostOp</text>
<text text-anchor="middle" x="343" y="-701.4" font-family="Helvetica,sans-Serif" font-size="13.00" fill="#4a3520">validation</text>
</g>
<!-- Plan&#45;&gt;Validate -->
<g id="edge7" class="edge">
<title>Plan&#45;&gt;Validate</title>
<path fill="none" stroke="#2f2f2f" stroke-width="1.7" d="M343,-817.48C343,-798.06 343,-770.04 343,-748.17"/>
<polygon fill="#2f2f2f" stroke="#2f2f2f" stroke-width="1.7" points="345.8,-748.25 343,-740.25 340.2,-748.25 345.8,-748.25"/>
<text text-anchor="middle" x="379.38" y="-776.03" font-family="Helvetica,sans-Serif" font-size="10.00">compile_plan()</text>
</g>
<!-- Compiler -->
<g id="node9" class="node">
<title>Compiler</title>
<polygon fill="#e7f6ec" stroke="#4f9a6c" stroke-width="1.8" points="455.08,-528.65 278.92,-528.65 278.92,-481.25 455.08,-481.25 455.08,-528.65"/>
<text text-anchor="middle" x="367" y="-509.1" font-family="Helvetica,sans-Serif" font-size="13.00" fill="#1f3328">SegmentCompiler</text>
<text text-anchor="middle" x="367" y="-492.6" font-family="Helvetica,sans-Serif" font-size="13.00" fill="#1f3328">output_layout selection</text>
</g>
<!-- Plan&#45;&gt;Compiler -->
<g id="edge10" class="edge">
<title>Plan&#45;&gt;Compiler</title>
<path fill="none" stroke="#2f2f2f" stroke-width="1.7" d="M406.4,-817.47C411.72,-813.35 416.42,-808.51 420,-802.85 481.57,-705.47 477.13,-645.35 423,-543.65 421.63,-541.08 420,-538.65 418.17,-536.37"/>
<polygon fill="#2f2f2f" stroke="#2f2f2f" stroke-width="1.7" points="420.6,-534.86 413.06,-530.99 416.55,-538.72 420.6,-534.86"/>
<text text-anchor="middle" x="500.89" y="-665.55" font-family="Helvetica,sans-Serif" font-size="10.00">NPU segments</text>
</g>
<!-- Artifact -->
<g id="node12" class="node">
<title>Artifact</title>
<polygon fill="#efe8ff" stroke="#8b74bd" stroke-width="1.8" points="315.71,-257.2 74.29,-257.2 74.29,-209.8 315.71,-209.8 315.71,-257.2"/>
<text text-anchor="middle" x="195" y="-237.65" font-family="Helvetica,sans-Serif" font-size="13.00" fill="#2c2236">CompiledArtifact</text>
<text text-anchor="middle" x="195" y="-221.15" font-family="Helvetica,sans-Serif" font-size="13.00" fill="#2c2236">plan + binaries + memory report</text>
</g>
<!-- Expected&#45;&gt;Artifact -->
<g id="edge14" class="edge">
<title>Expected&#45;&gt;Artifact</title>
<path fill="none" stroke="#2f2f2f" stroke-width="1.7" d="M186.13,-767.35C132.28,-754.45 66,-726.95 66,-669.68 66,-669.68 66,-669.68 66,-323.65 66,-295.89 86.47,-276.1 111.1,-262.33"/>
<polygon fill="#2f2f2f" stroke="#2f2f2f" stroke-width="1.7" points="112.25,-264.89 118.05,-258.72 109.66,-259.93 112.25,-264.89"/>
<text text-anchor="middle" x="118.12" y="-501.82" font-family="Helvetica,sans-Serif" font-size="10.00">verification reference</text>
</g>
<!-- Planner -->
<g id="node8" class="node">
<title>Planner</title>
<polygon fill="#e7f6ec" stroke="#4f9a6c" stroke-width="1.8" points="407.08,-618.8 278.92,-618.8 278.92,-571.4 407.08,-571.4 407.08,-618.8"/>
<text text-anchor="middle" x="343" y="-599.25" font-family="Helvetica,sans-Serif" font-size="13.00" fill="#1f3328">Memory planner</text>
<text text-anchor="middle" x="343" y="-582.75" font-family="Helvetica,sans-Serif" font-size="13.00" fill="#1f3328">roles + layouts</text>
</g>
<!-- Validate&#45;&gt;Planner -->
<g id="edge8" class="edge">
<title>Validate&#45;&gt;Planner</title>
<path fill="none" stroke="#2f2f2f" stroke-width="1.7" d="M343,-689.7C343,-672.53 343,-648.82 343,-629.56"/>
<polygon fill="#2f2f2f" stroke="#2f2f2f" stroke-width="1.7" points="345.8,-629.67 343,-621.67 340.2,-629.67 345.8,-629.67"/>
<text text-anchor="middle" x="377.88" y="-665.55" font-family="Helvetica,sans-Serif" font-size="10.00">validated plan</text>
</g>
<!-- Planner&#45;&gt;Compiler -->
<g id="edge9" class="edge">
<title>Planner&#45;&gt;Compiler</title>
<path fill="none" stroke="#2f2f2f" stroke-width="1.7" d="M339.04,-571.07C338.34,-562.32 338.56,-552.36 341.25,-543.65 341.85,-541.72 342.58,-539.8 343.42,-537.91"/>
<polygon fill="#2f2f2f" stroke="#2f2f2f" stroke-width="1.7" points="345.79,-539.4 347.1,-531.02 340.86,-536.76 345.79,-539.4"/>
<text text-anchor="middle" x="382.12" y="-546.9" font-family="Helvetica,sans-Serif" font-size="10.00">segment layouts</text>
</g>
<!-- Planner&#45;&gt;Artifact -->
<g id="edge15" class="edge">
<title>Planner&#45;&gt;Artifact</title>
<path fill="none" stroke="#2f2f2f" stroke-width="1.7" d="M278.52,-581.74C238.63,-569.94 195,-547.52 195,-505.95 195,-505.95 195,-505.95 195,-323.65 195,-305.24 195,-284.69 195,-267.97"/>
<polygon fill="#2f2f2f" stroke="#2f2f2f" stroke-width="1.7" points="197.8,-268.16 195,-260.16 192.2,-268.16 197.8,-268.16"/>
<text text-anchor="middle" x="248.25" y="-411.67" font-family="Helvetica,sans-Serif" font-size="10.00">global memory report</text>
</g>
<!-- Program -->
<g id="node10" class="node">
<title>Program</title>
<polygon fill="#e7f6ec" stroke="#4f9a6c" stroke-width="1.8" points="476.2,-438.5 317.8,-438.5 317.8,-391.1 476.2,-391.1 476.2,-438.5"/>
<text text-anchor="middle" x="397" y="-418.95" font-family="Helvetica,sans-Serif" font-size="13.00" fill="#1f3328">TinyNPUProgram</text>
<text text-anchor="middle" x="397" y="-402.45" font-family="Helvetica,sans-Serif" font-size="13.00" fill="#1f3328">emit ISA + layouts</text>
</g>
<!-- Compiler&#45;&gt;Program -->
<g id="edge11" class="edge">
<title>Compiler&#45;&gt;Program</title>
<path fill="none" stroke="#2f2f2f" stroke-width="1.7" d="M374.88,-480.79C378.22,-470.97 382.18,-459.35 385.81,-448.67"/>
<polygon fill="#2f2f2f" stroke="#2f2f2f" stroke-width="1.7" points="388.41,-449.72 388.34,-441.24 383.11,-447.91 388.41,-449.72"/>
<text text-anchor="middle" x="439.67" y="-456.75" font-family="Helvetica,sans-Serif" font-size="10.00">declare data / emit ISA</text>
</g>
<!-- Segment -->
<g id="node11" class="node">
<title>Segment</title>
<polygon fill="#e7f6ec" stroke="#4f9a6c" stroke-width="1.8" points="452.2,-348.35 293.8,-348.35 293.8,-300.95 452.2,-300.95 452.2,-348.35"/>
<text text-anchor="middle" x="373" y="-328.8" font-family="Helvetica,sans-Serif" font-size="13.00" fill="#1f3328">Segment binaries</text>
<text text-anchor="middle" x="373" y="-312.3" font-family="Helvetica,sans-Serif" font-size="13.00" fill="#1f3328">IM + UB + symbols</text>
</g>
<!-- Program&#45;&gt;Segment -->
<g id="edge12" class="edge">
<title>Program&#45;&gt;Segment</title>
<path fill="none" stroke="#2f2f2f" stroke-width="1.7" d="M390.69,-390.64C388.05,-380.92 384.92,-369.44 382.04,-358.85"/>
<polygon fill="#2f2f2f" stroke="#2f2f2f" stroke-width="1.7" points="384.74,-358.12 379.94,-351.14 379.34,-359.59 384.74,-358.12"/>
<text text-anchor="middle" x="429.94" y="-366.6" font-family="Helvetica,sans-Serif" font-size="10.00">compiled binaries</text>
</g>
<!-- Segment&#45;&gt;Artifact -->
<g id="edge13" class="edge">
<title>Segment&#45;&gt;Artifact</title>
<path fill="none" stroke="#2f2f2f" stroke-width="1.7" d="M326.7,-300.46C303.31,-288.75 274.78,-274.46 250.25,-262.17"/>
<polygon fill="#2f2f2f" stroke="#2f2f2f" stroke-width="1.7" points="251.78,-259.81 243.37,-258.73 249.27,-264.81 251.78,-259.81"/>
<text text-anchor="middle" x="347.53" y="-275.45" font-family="Helvetica,sans-Serif" font-size="10.00">per&#45;segment artifacts</text>
</g>
<!-- HostExec -->
<g id="node13" class="node">
<title>HostExec</title>
<polygon fill="#ffe8db" stroke="#d18a66" stroke-width="1.8" points="191.7,-132.85 16.3,-132.85 16.3,-96.85 191.7,-96.85 191.7,-132.85"/>
<text text-anchor="middle" x="104" y="-110.75" font-family="Helvetica,sans-Serif" font-size="13.00" fill="#40261d">HostEmulationExecutor</text>
</g>
<!-- Artifact&#45;&gt;HostExec -->
<g id="edge16" class="edge">
<title>Artifact&#45;&gt;HostExec</title>
<path fill="none" stroke="#2f2f2f" stroke-width="1.7" d="M149.92,-209.49C144.05,-205.18 138.52,-200.27 134,-194.8 121.75,-179.96 114.17,-159.58 109.7,-143.25"/>
<polygon fill="#2f2f2f" stroke="#2f2f2f" stroke-width="1.7" points="112.47,-142.78 107.81,-135.69 107.04,-144.13 112.47,-142.78"/>
<text text-anchor="middle" x="195.5" y="-185.3" font-family="Helvetica,sans-Serif" font-size="10.00">backend=host&#45;emulation</text>
</g>
<!-- SimExec -->
<g id="node14" class="node">
<title>SimExec</title>
<polygon fill="#ffe8db" stroke="#d18a66" stroke-width="1.8" points="366.2,-138.55 207.8,-138.55 207.8,-91.15 366.2,-91.15 366.2,-138.55"/>
<text text-anchor="middle" x="287" y="-119" font-family="Helvetica,sans-Serif" font-size="13.00" fill="#40261d">Simulator runtime</text>
<text text-anchor="middle" x="287" y="-102.5" font-family="Helvetica,sans-Serif" font-size="13.00" fill="#40261d">run_sim() / session</text>
</g>
<!-- Artifact&#45;&gt;SimExec -->
<g id="edge17" class="edge">
<title>Artifact&#45;&gt;SimExec</title>
<path fill="none" stroke="#2f2f2f" stroke-width="1.7" d="M241.14,-209.35C246.98,-205.08 252.49,-200.22 257,-194.8 267.89,-181.7 275.08,-164.23 279.68,-149.05"/>
<polygon fill="#2f2f2f" stroke="#2f2f2f" stroke-width="1.7" points="282.34,-149.93 281.78,-141.47 276.94,-148.44 282.34,-149.93"/>
<text text-anchor="middle" x="298.26" y="-185.3" font-family="Helvetica,sans-Serif" font-size="10.00">backend=sim</text>
</g>
<!-- Result -->
<g id="node15" class="node">
<title>Result</title>
<polygon fill="#fff7d9" stroke="#c9a227" stroke-width="1.8" points="324.71,-47.4 65.29,-47.4 65.29,0 324.71,0 324.71,-47.4"/>
<text text-anchor="middle" x="195" y="-27.85" font-family="Helvetica,sans-Serif" font-size="13.00" fill="#4a3a00">ExecutionResult</text>
<text text-anchor="middle" x="195" y="-11.35" font-family="Helvetica,sans-Serif" font-size="13.00" fill="#4a3a00">outputs + verification + benchmark</text>
</g>
<!-- HostExec&#45;&gt;Result -->
<g id="edge18" class="edge">
<title>HostExec&#45;&gt;Result</title>
<path fill="none" stroke="#2f2f2f" stroke-width="1.7" d="M121.55,-96.66C133.68,-84.77 150.16,-68.63 164.43,-54.65"/>
<polygon fill="#2f2f2f" stroke="#2f2f2f" stroke-width="1.7" points="166.06,-56.97 169.82,-49.37 162.14,-52.97 166.06,-56.97"/>
<text text-anchor="middle" x="186.07" y="-65.65" font-family="Helvetica,sans-Serif" font-size="10.00">execute plan</text>
</g>
<!-- SimExec&#45;&gt;Result -->
<g id="edge19" class="edge">
<title>SimExec&#45;&gt;Result</title>
<path fill="none" stroke="#2f2f2f" stroke-width="1.7" d="M263.31,-90.89C252.02,-79.95 238.37,-66.73 226.25,-54.98"/>
<polygon fill="#2f2f2f" stroke="#2f2f2f" stroke-width="1.7" points="228.47,-53.24 220.78,-49.68 224.58,-57.26 228.47,-53.24"/>
<text text-anchor="middle" x="305.01" y="-65.65" font-family="Helvetica,sans-Serif" font-size="10.00">execute + perf counters</text>
</g>
</g>
</svg>
