<?xml version="1.0" encoding="UTF-8" standalone="no"?>
<!DOCTYPE svg PUBLIC "-//W3C//DTD SVG 1.1//EN"
 "http://www.w3.org/Graphics/SVG/1.1/DTD/svg11.dtd">
<!-- Generated by graphviz version 12.2.1 (20241206.2353)
 -->
<!-- Title: TinyNPUCompilerStack Pages: 1 -->
<svg width="641pt" height="1237pt"
 viewBox="0.00 0.00 641.23 1236.95" xmlns="http://www.w3.org/2000/svg" xmlns:xlink="http://www.w3.org/1999/xlink">
<g id="graph0" class="graph" transform="scale(1 1) rotate(0) translate(7.2 1229.75)">
<title>TinyNPUCompilerStack</title>
<polygon fill="white" stroke="none" points="-7.2,7.2 -7.2,-1229.75 634.03,-1229.75 634.03,7.2 -7.2,7.2"/>
<g id="clust1" class="cluster">
<title>cluster_partition</title>
<path fill="white" stroke="#6f8fb3" stroke-width="2" stroke-dasharray="5,2" d="M75.83,-761.95C75.83,-761.95 365.83,-761.95 365.83,-761.95 371.83,-761.95 377.83,-767.95 377.83,-773.95 377.83,-773.95 377.83,-958.5 377.83,-958.5 377.83,-964.5 371.83,-970.5 365.83,-970.5 365.83,-970.5 75.83,-970.5 75.83,-970.5 69.83,-970.5 63.83,-964.5 63.83,-958.5 63.83,-958.5 63.83,-773.95 63.83,-773.95 63.83,-767.95 69.83,-761.95 75.83,-761.95"/>
</g>
<g id="clust2" class="cluster">
<title>cluster_lowering</title>
<polygon fill="#f7fcf8" stroke="#4f9a6c" stroke-width="2.1" points="157.83,-309.45 157.83,-670.8 591.83,-670.8 591.83,-309.45 157.83,-309.45"/>
<text text-anchor="middle" x="374.83" y="-651.6" font-family="Helvetica,sans-Serif" font-size="16.00" fill="#2d6a4f">Lowering and Runtime Packaging</text>
</g>
<g id="clust3" class="cluster">
<title>cluster_runtime</title>
<path fill="white" stroke="#d18a66" stroke-width="2" stroke-dasharray="5,2" d="M86.83,-83.15C86.83,-83.15 560.83,-83.15 560.83,-83.15 566.83,-83.15 572.83,-89.15 572.83,-95.15 572.83,-95.15 572.83,-178.55 572.83,-178.55 572.83,-184.55 566.83,-190.55 560.83,-190.55 560.83,-190.55 86.83,-190.55 86.83,-190.55 80.83,-190.55 74.83,-184.55 74.83,-178.55 74.83,-178.55 74.83,-95.15 74.83,-95.15 74.83,-89.15 80.83,-83.15 86.83,-83.15"/>
<text text-anchor="middle" x="323.83" y="-171.35" font-family="Helvetica,sans-Serif" font-size="16.00" fill="#8f4f32">Execution Backends</text>
</g>
<!-- Model -->
<g id="node1" class="node">
<title>Model</title>
<polygon fill="#e8f0fe" stroke="#557aab" stroke-width="1.8" points="239.41,-1222.55 84.25,-1222.55 84.25,-1186.55 239.41,-1186.55 239.41,-1222.55"/>
<text text-anchor="middle" x="161.83" y="-1200.45" font-family="Helvetica,sans-Serif" font-size="13.00" fill="#1f2d3d">PyTorch / QAT Model</text>
</g>
<!-- Quant -->
<g id="node2" class="node">
<title>Quant</title>
<polygon fill="#e8f0fe" stroke="#557aab" stroke-width="1.8" points="195.66,-1143.8 0,-1143.8 0,-1096.4 195.66,-1096.4 195.66,-1143.8"/>
<text text-anchor="middle" x="97.83" y="-1124.25" font-family="Helvetica,sans-Serif" font-size="13.00" fill="#1f2d3d">tinynpu_quant</text>
<text text-anchor="middle" x="97.83" y="-1107.75" font-family="Helvetica,sans-Serif" font-size="13.00" fill="#1f2d3d">compiler&#45;ready conversion</text>
</g>
<!-- Model&#45;&gt;Quant -->
<g id="edge1" class="edge">
<title>Model&#45;&gt;Quant</title>
<path fill="none" stroke="#2f2f2f" stroke-width="1.7" d="M111.68,-1186.15C106,-1182.2 100.95,-1177.39 97.33,-1171.55 94.14,-1166.4 92.7,-1160.35 92.32,-1154.26"/>
<polygon fill="#2f2f2f" stroke="#2f2f2f" stroke-width="1.7" points="95.11,-1154.76 92.47,-1146.7 89.51,-1154.64 95.11,-1154.76"/>
<text text-anchor="middle" x="156.58" y="-1162.05" font-family="Helvetica,sans-Serif" font-size="10.00">optional QAT conversion</text>
</g>
<!-- FX -->
<g id="node3" class="node">
<title>FX</title>
<polygon fill="#e8f0fe" stroke="#557aab" stroke-width="1.8" points="233.53,-1053.65 94.12,-1053.65 94.12,-1006.25 233.53,-1006.25 233.53,-1053.65"/>
<text text-anchor="middle" x="163.83" y="-1034.1" font-family="Helvetica,sans-Serif" font-size="13.00" fill="#1f2d3d">FX tracing</text>
<text text-anchor="middle" x="163.83" y="-1017.6" font-family="Helvetica,sans-Serif" font-size="13.00" fill="#1f2d3d">compile_module()</text>
</g>
<!-- Model&#45;&gt;FX -->
<g id="edge3" class="edge">
<title>Model&#45;&gt;FX</title>
<path fill="none" stroke="#2f2f2f" stroke-width="1.7" d="M202.36,-1186.19C207.75,-1182.17 212.54,-1177.33 215.83,-1171.55 238.47,-1131.81 236.61,-1109.39 215.83,-1068.65 214.5,-1066.04 212.9,-1063.57 211.09,-1061.24"/>
<polygon fill="#2f2f2f" stroke="#2f2f2f" stroke-width="1.7" points="213.49,-1059.71 206,-1055.73 209.37,-1063.51 213.49,-1059.71"/>
<text text-anchor="middle" x="303.75" y="-1116.98" font-family="Helvetica,sans-Serif" font-size="10.00">direct quantized module path</text>
</g>
<!-- Quant&#45;&gt;FX -->
<g id="edge2" class="edge">
<title>Quant&#45;&gt;FX</title>
<path fill="none" stroke="#2f2f2f" stroke-width="1.7" d="M95.31,-1096.11C95.37,-1086.97 96.86,-1076.73 101.83,-1068.65 103.44,-1066.04 105.3,-1063.58 107.36,-1061.27"/>
<polygon fill="#2f2f2f" stroke="#2f2f2f" stroke-width="1.7" points="109.28,-1063.31 113.14,-1055.76 105.42,-1059.25 109.28,-1063.31"/>
<text text-anchor="middle" x="158.83" y="-1071.9" font-family="Helvetica,sans-Serif" font-size="10.00">compiler&#45;ready module</text>
</g>
<!-- Partition -->
<g id="node4" class="node">
<title>Partition</title>
<polygon fill="#f4f7fb" stroke="#6f8fb3" stroke-width="1.8" points="239.16,-960.5 88.5,-960.5 88.5,-924.5 239.16,-924.5 239.16,-960.5"/>
<text text-anchor="middle" x="163.83" y="-938.4" font-family="Helvetica,sans-Serif" font-size="13.00" fill="#233142">partition_fx_graph()</text>
</g>
<!-- FX&#45;&gt;Partition -->
<g id="edge4" class="edge">
<title>FX&#45;&gt;Partition</title>
<path fill="none" stroke="#2f2f2f" stroke-width="1.7" d="M163.83,-1006.05C163.83,-995.37 163.83,-982.57 163.83,-971.34"/>
<polygon fill="#2f2f2f" stroke="#2f2f2f" stroke-width="1.7" points="166.63,-971.34 163.83,-963.34 161.03,-971.34 166.63,-971.34"/>
<text text-anchor="middle" x="241.45" y="-981.75" font-family="Helvetica,sans-Serif" font-size="10.00">GraphModule + example inputs</text>
</g>
<!-- Plan -->
<g id="node5" class="node">
<title>Plan</title>
<polygon fill="#f4f7fb" stroke="#6f8fb3" stroke-width="1.8" points="367.41,-881.75 92.25,-881.75 92.25,-834.35 367.41,-834.35 367.41,-881.75"/>
<text text-anchor="middle" x="229.83" y="-862.2" font-family="Helvetica,sans-Serif" font-size="13.00" fill="#233142">ExecutionPlan</text>
<text text-anchor="middle" x="229.83" y="-845.7" font-family="Helvetica,sans-Serif" font-size="13.00" fill="#233142">NpuSegment + HostOp + VerifyTensor</text>
</g>
<!-- Partition&#45;&gt;Plan -->
<g id="edge5" class="edge">
<title>Partition&#45;&gt;Plan</title>
<path fill="none" stroke="#2f2f2f" stroke-width="1.7" d="M177.83,-924.01C185.68,-914.2 195.72,-901.66 204.87,-890.23"/>
<polygon fill="#2f2f2f" stroke="#2f2f2f" stroke-width="1.7" points="206.92,-892.15 209.73,-884.16 202.55,-888.65 206.92,-892.15"/>
<text text-anchor="middle" x="250.93" y="-900" font-family="Helvetica,sans-Serif" font-size="10.00">mixed execution plan</text>
</g>
<!-- Expected -->
<g id="node6" class="node">
<title>Expected</title>
<polygon fill="#f4f7fb" stroke="#6f8fb3" stroke-width="1.8" points="208.28,-819.35 73.37,-819.35 73.37,-771.95 208.28,-771.95 208.28,-819.35"/>
<text text-anchor="middle" x="140.83" y="-799.8" font-family="Helvetica,sans-Serif" font-size="13.00" fill="#233142">Expected tensors</text>
<text text-anchor="middle" x="140.83" y="-783.3" font-family="Helvetica,sans-Serif" font-size="13.00" fill="#233142">for verification</text>
</g>
<!-- Partition&#45;&gt;Expected -->
<g id="edge6" class="edge">
<title>Partition&#45;&gt;Expected</title>
<path fill="none" stroke="#2f2f2f" stroke-width="1.7" d="M126.88,-924.2C110.39,-914.32 92.7,-900.18 83.83,-881.75 74.7,-862.77 73.86,-852.91 83.83,-834.35 85.23,-831.75 86.89,-829.31 88.75,-827"/>
<polygon fill="#2f2f2f" stroke="#2f2f2f" stroke-width="1.7" points="90.44,-829.28 93.98,-821.58 86.41,-825.39 90.44,-829.28"/>
<text text-anchor="middle" x="139.3" y="-900" font-family="Helvetica,sans-Serif" font-size="10.00">golden values</text>
</g>
<!-- Validate -->
<g id="node7" class="node">
<title>Validate</title>
<polygon fill="#fff4e8" stroke="#c98a43" stroke-width="1.8" points="272.53,-753.95 187.12,-753.95 187.12,-706.55 272.53,-706.55 272.53,-753.95"/>
<text text-anchor="middle" x="229.83" y="-734.4" font-family="Helvetica,sans-Serif" font-size="13.00" fill="#4a3520">HostOp</text>
<text text-anchor="middle" x="229.83" y="-717.9" font-family="Helvetica,sans-Serif" font-size="13.00" fill="#4a3520">validation</text>
</g>
<!-- Plan&#45;&gt;Validate -->
<g id="edge7" class="edge">
<title>Plan&#45;&gt;Validate</title>
<path fill="none" stroke="#2f2f2f" stroke-width="1.7" d="M229.83,-833.98C229.83,-814.56 229.83,-786.54 229.83,-764.67"/>
<polygon fill="#2f2f2f" stroke="#2f2f2f" stroke-width="1.7" points="232.63,-764.75 229.83,-756.75 227.03,-764.75 232.63,-764.75"/>
<text text-anchor="middle" x="266.2" y="-792.53" font-family="Helvetica,sans-Serif" font-size="10.00">compile_plan()</text>
</g>
<!-- Compiler -->
<g id="node9" class="node">
<title>Compiler</title>
<polygon fill="#e7f6ec" stroke="#4f9a6c" stroke-width="1.8" points="413.91,-545.15 237.75,-545.15 237.75,-497.75 413.91,-497.75 413.91,-545.15"/>
<text text-anchor="middle" x="325.83" y="-525.6" font-family="Helvetica,sans-Serif" font-size="13.00" fill="#1f3328">SegmentCompiler</text>
<text text-anchor="middle" x="325.83" y="-509.1" font-family="Helvetica,sans-Serif" font-size="13.00" fill="#1f3328">output_layout selection</text>
</g>
<!-- Plan&#45;&gt;Compiler -->
<g id="edge10" class="edge">
<title>Plan&#45;&gt;Compiler</title>
<path fill="none" stroke="#2f2f2f" stroke-width="1.7" d="M292.58,-834.05C298.1,-829.9 303.02,-825.04 306.83,-819.35 361.32,-737.92 345.49,-614.15 333.63,-555.5"/>
<polygon fill="#2f2f2f" stroke="#2f2f2f" stroke-width="1.7" points="336.41,-555.09 332.01,-547.85 330.93,-556.25 336.41,-555.09"/>
<text text-anchor="middle" x="381.09" y="-682.05" font-family="Helvetica,sans-Serif" font-size="10.00">NPU segments</text>
</g>
<!-- Artifact -->
<g id="node13" class="node">
<title>Artifact</title>
<polygon fill="#efe8ff" stroke="#8b74bd" stroke-width="1.8" points="317.53,-273.7 16.12,-273.7 16.12,-226.3 317.53,-226.3 317.53,-273.7"/>
<text text-anchor="middle" x="166.83" y="-254.15" font-family="Helvetica,sans-Serif" font-size="13.00" fill="#2c2236">Runtime package</text>
<text text-anchor="middle" x="166.83" y="-237.65" font-family="Helvetica,sans-Serif" font-size="13.00" fill="#2c2236">program C + runner C + expected tensors</text>
</g>
<!-- Expected&#45;&gt;Artifact -->
<g id="edge16" class="edge">
<title>Expected&#45;&gt;Artifact</title>
<path fill="none" stroke="#2f2f2f" stroke-width="1.7" d="M81.99,-771.53C47.97,-753.89 11.83,-725.82 11.83,-686.18 11.83,-686.18 11.83,-686.18 11.83,-340.15 11.83,-311.41 32.1,-291.8 57.99,-278.47"/>
<polygon fill="#2f2f2f" stroke="#2f2f2f" stroke-width="1.7" points="59.01,-281.08 65.03,-275.12 56.6,-276.03 59.01,-281.08"/>
<text text-anchor="middle" x="63.95" y="-518.32" font-family="Helvetica,sans-Serif" font-size="10.00">verification reference</text>
</g>
<!-- Planner -->
<g id="node8" class="node">
<title>Planner</title>
<polygon fill="#e7f6ec" stroke="#4f9a6c" stroke-width="1.8" points="293.91,-635.3 165.75,-635.3 165.75,-587.9 293.91,-587.9 293.91,-635.3"/>
<text text-anchor="middle" x="229.83" y="-615.75" font-family="Helvetica,sans-Serif" font-size="13.00" fill="#1f3328">Memory planner</text>
<text text-anchor="middle" x="229.83" y="-599.25" font-family="Helvetica,sans-Serif" font-size="13.00" fill="#1f3328">roles + layouts</text>
</g>
<!-- Validate&#45;&gt;Planner -->
<g id="edge8" class="edge">
<title>Validate&#45;&gt;Planner</title>
<path fill="none" stroke="#2f2f2f" stroke-width="1.7" d="M229.83,-706.2C229.83,-689.03 229.83,-665.32 229.83,-646.06"/>
<polygon fill="#2f2f2f" stroke="#2f2f2f" stroke-width="1.7" points="232.63,-646.17 229.83,-638.17 227.03,-646.17 232.63,-646.17"/>
<text text-anchor="middle" x="264.7" y="-682.05" font-family="Helvetica,sans-Serif" font-size="10.00">validated plan</text>
</g>
<!-- Planner&#45;&gt;Compiler -->
<g id="edge9" class="edge">
<title>Planner&#45;&gt;Compiler</title>
<path fill="none" stroke="#2f2f2f" stroke-width="1.7" d="M225.19,-587.55C224.58,-578.3 225.62,-567.99 231.08,-560.15 233.05,-557.32 235.28,-554.7 237.7,-552.27"/>
<polygon fill="#2f2f2f" stroke="#2f2f2f" stroke-width="1.7" points="239.31,-554.58 243.56,-547.25 235.66,-550.33 239.31,-554.58"/>
<text text-anchor="middle" x="271.95" y="-563.4" font-family="Helvetica,sans-Serif" font-size="10.00">segment layouts</text>
</g>
<!-- Planner&#45;&gt;Artifact -->
<g id="edge17" class="edge">
<title>Planner&#45;&gt;Artifact</title>
<path fill="none" stroke="#2f2f2f" stroke-width="1.7" d="M185.33,-587.4C163.08,-572.32 140.83,-550.29 140.83,-522.45 140.83,-522.45 140.83,-522.45 140.83,-340.15 140.83,-320.92 146.47,-300.27 152.5,-283.68"/>
<polygon fill="#2f2f2f" stroke="#2f2f2f" stroke-width="1.7" points="155.07,-284.8 155.33,-276.33 149.84,-282.79 155.07,-284.8"/>
<text text-anchor="middle" x="194.08" y="-428.17" font-family="Helvetica,sans-Serif" font-size="10.00">global memory report</text>
</g>
<!-- Program -->
<g id="node10" class="node">
<title>Program</title>
<polygon fill="#e7f6ec" stroke="#4f9a6c" stroke-width="1.8" points="478.03,-455 263.62,-455 263.62,-407.6 478.03,-407.6 478.03,-455"/>
<text text-anchor="middle" x="370.83" y="-435.45" font-family="Helvetica,sans-Serif" font-size="13.00" fill="#1f3328">baremetal emitter</text>
<text text-anchor="middle" x="370.83" y="-418.95" font-family="Helvetica,sans-Serif" font-size="13.00" fill="#1f3328">generate runtime descriptors</text>
</g>
<!-- Compiler&#45;&gt;Program -->
<g id="edge11" class="edge">
<title>Compiler&#45;&gt;Program</title>
<path fill="none" stroke="#2f2f2f" stroke-width="1.7" d="M337.65,-497.29C342.77,-487.27 348.84,-475.37 354.39,-464.51"/>
<polygon fill="#2f2f2f" stroke="#2f2f2f" stroke-width="1.7" points="356.77,-466 357.92,-457.6 351.78,-463.45 356.77,-466"/>
<text text-anchor="middle" x="406.9" y="-473.25" font-family="Helvetica,sans-Serif" font-size="10.00">declare data / emit ISA</text>
</g>
<!-- Segment -->
<g id="node11" class="node">
<title>Segment</title>
<polygon fill="#e7f6ec" stroke="#4f9a6c" stroke-width="1.8" points="406.16,-364.85 165.5,-364.85 165.5,-317.45 406.16,-317.45 406.16,-364.85"/>
<text text-anchor="middle" x="285.83" y="-345.3" font-family="Helvetica,sans-Serif" font-size="13.00" fill="#1f3328">generated program C</text>
<text text-anchor="middle" x="285.83" y="-328.8" font-family="Helvetica,sans-Serif" font-size="13.00" fill="#1f3328">IM image + UB image + op table</text>
</g>
<!-- Program&#45;&gt;Segment -->
<g id="edge12" class="edge">
<title>Program&#45;&gt;Segment</title>
<path fill="none" stroke="#2f2f2f" stroke-width="1.7" d="M348.5,-407.14C338.35,-396.61 326.2,-384.01 315.31,-372.72"/>
<polygon fill="#2f2f2f" stroke="#2f2f2f" stroke-width="1.7" points="317.37,-370.82 309.8,-367.01 313.34,-374.71 317.37,-370.82"/>
<text text-anchor="middle" x="381.42" y="-383.1" font-family="Helvetica,sans-Serif" font-size="10.00">static program data</text>
</g>
<!-- Runner -->
<g id="node12" class="node">
<title>Runner</title>
<polygon fill="#e7f6ec" stroke="#4f9a6c" stroke-width="1.8" points="583.41,-364.85 422.25,-364.85 422.25,-317.45 583.41,-317.45 583.41,-364.85"/>
<text text-anchor="middle" x="502.83" y="-345.3" font-family="Helvetica,sans-Serif" font-size="13.00" fill="#1f3328">generated *_runner.c</text>
<text text-anchor="middle" x="502.83" y="-328.8" font-family="Helvetica,sans-Serif" font-size="13.00" fill="#1f3328">input/output binding</text>
</g>
<!-- Program&#45;&gt;Runner -->
<g id="edge13" class="edge">
<title>Program&#45;&gt;Runner</title>
<path fill="none" stroke="#2f2f2f" stroke-width="1.7" d="M410.83,-407.12C418.54,-402.44 426.5,-397.46 433.83,-392.6 443.88,-385.94 454.49,-378.43 464.3,-371.28"/>
<polygon fill="#2f2f2f" stroke="#2f2f2f" stroke-width="1.7" points="465.83,-373.63 470.61,-366.64 462.51,-369.12 465.83,-373.63"/>
<text text-anchor="middle" x="506.35" y="-383.1" font-family="Helvetica,sans-Serif" font-size="10.00">runtime step table use</text>
</g>
<!-- Segment&#45;&gt;Artifact -->
<g id="edge14" class="edge">
<title>Segment&#45;&gt;Artifact</title>
<path fill="none" stroke="#2f2f2f" stroke-width="1.7" d="M254.87,-316.96C239.86,-305.71 221.67,-292.09 205.73,-280.14"/>
<polygon fill="#2f2f2f" stroke="#2f2f2f" stroke-width="1.7" points="207.77,-278.17 199.69,-275.62 204.41,-282.65 207.77,-278.17"/>
<text text-anchor="middle" x="275.83" y="-291.95" font-family="Helvetica,sans-Serif" font-size="10.00">generated source</text>
</g>
<!-- Runner&#45;&gt;Artifact -->
<g id="edge15" class="edge">
<title>Runner&#45;&gt;Artifact</title>
<path fill="none" stroke="#2f2f2f" stroke-width="1.7" d="M438.42,-317.09C430.18,-314.39 421.84,-311.77 413.83,-309.45 372.28,-297.4 326.27,-286 285.33,-276.51"/>
<polygon fill="#2f2f2f" stroke="#2f2f2f" stroke-width="1.7" points="285.97,-273.79 277.55,-274.72 284.71,-279.25 285.97,-273.79"/>
<text text-anchor="middle" x="422.96" y="-291.95" font-family="Helvetica,sans-Serif" font-size="10.00">generated source</text>
</g>
<!-- HostExec -->
<g id="node14" class="node">
<title>HostExec</title>
<polygon fill="#ffe8db" stroke="#d18a66" stroke-width="1.8" points="250.78,-146.8 82.87,-146.8 82.87,-99.4 250.78,-99.4 250.78,-146.8"/>
<text text-anchor="middle" x="166.83" y="-127.25" font-family="Helvetica,sans-Serif" font-size="13.00" fill="#40261d">shared runtime library</text>
<text text-anchor="middle" x="166.83" y="-110.75" font-family="Helvetica,sans-Serif" font-size="13.00" fill="#40261d">executor</text>
</g>
<!-- Artifact&#45;&gt;HostExec -->
<g id="edge18" class="edge">
<title>Artifact&#45;&gt;HostExec</title>
<path fill="none" stroke="#2f2f2f" stroke-width="1.7" d="M166.83,-226.09C166.83,-206.93 166.83,-179.34 166.83,-157.68"/>
<polygon fill="#2f2f2f" stroke="#2f2f2f" stroke-width="1.7" points="169.63,-157.86 166.83,-149.86 164.03,-157.86 169.63,-157.86"/>
<text text-anchor="middle" x="250.45" y="-201.8" font-family="Helvetica,sans-Serif" font-size="10.00">link runtime + generated program</text>
</g>
<!-- SimExec -->
<g id="node15" class="node">
<title>SimExec</title>
<polygon fill="#ffe8db" stroke="#d18a66" stroke-width="1.8" points="564.91,-155.05 370.75,-155.05 370.75,-91.15 564.91,-91.15 564.91,-155.05"/>
<text text-anchor="middle" x="467.83" y="-135.5" font-family="Helvetica,sans-Serif" font-size="13.00" fill="#40261d">CV32 firmware + Verilator</text>
<text text-anchor="middle" x="467.83" y="-119" font-family="Helvetica,sans-Serif" font-size="13.00" fill="#40261d">shared&#45;SRAM default</text>
<text text-anchor="middle" x="467.83" y="-102.5" font-family="Helvetica,sans-Serif" font-size="13.00" fill="#40261d">MMIO fallback</text>
</g>
<!-- HostExec&#45;&gt;SimExec -->
<g id="edge19" class="edge">
<title>HostExec&#45;&gt;SimExec</title>
<path fill="none" stroke="#2f2f2f" stroke-width="1.7" d="M251.08,-123.1C284.79,-123.1 324.05,-123.1 359.82,-123.1"/>
<polygon fill="#2f2f2f" stroke="#2f2f2f" stroke-width="1.7" points="359.73,-125.9 367.73,-123.1 359.73,-120.3 359.73,-125.9"/>
<text text-anchor="middle" x="310.77" y="-129.35" font-family="Helvetica,sans-Serif" font-size="10.00">build firmware image</text>
</g>
<!-- Result -->
<g id="node16" class="node">
<title>Result</title>
<polygon fill="#fff7d9" stroke="#c9a227" stroke-width="1.8" points="597.53,-47.4 338.12,-47.4 338.12,0 597.53,0 597.53,-47.4"/>
<text text-anchor="middle" x="467.83" y="-27.85" font-family="Helvetica,sans-Serif" font-size="13.00" fill="#4a3a00">ExecutionResult</text>
<text text-anchor="middle" x="467.83" y="-11.35" font-family="Helvetica,sans-Serif" font-size="13.00" fill="#4a3a00">outputs + verification + benchmark</text>
</g>
<!-- SimExec&#45;&gt;Result -->
<g id="edge20" class="edge">
<title>SimExec&#45;&gt;Result</title>
<path fill="none" stroke="#2f2f2f" stroke-width="1.7" d="M467.83,-90.75C467.83,-80.34 467.83,-68.73 467.83,-58.17"/>
<polygon fill="#2f2f2f" stroke="#2f2f2f" stroke-width="1.7" points="470.63,-58.23 467.83,-50.23 465.03,-58.23 470.63,-58.23"/>
<text text-anchor="middle" x="547.33" y="-65.65" font-family="Helvetica,sans-Serif" font-size="10.00">execute + verify + perf counters</text>
</g>
</g>
</svg>
