<?xml version="1.0" encoding="utf-8" standalone="no"?>
<!DOCTYPE svg PUBLIC "-//W3C//DTD SVG 1.1//EN"
  "http://www.w3.org/Graphics/SVG/1.1/DTD/svg11.dtd">
<svg xmlns:xlink="http://www.w3.org/1999/xlink" width="662.4pt" height="460.8pt" viewBox="0 0 662.4 460.8" xmlns="http://www.w3.org/2000/svg" version="1.1">
 <metadata>
  <rdf:RDF xmlns:dc="http://purl.org/dc/elements/1.1/" xmlns:cc="http://creativecommons.org/ns#" xmlns:rdf="http://www.w3.org/1999/02/22-rdf-syntax-ns#">
   <cc:Work>
    <dc:type rdf:resource="http://purl.org/dc/dcmitype/StillImage"/>
    <dc:date>2026-03-17T00:52:47.483731</dc:date>
    <dc:format>image/svg+xml</dc:format>
    <dc:creator>
     <cc:Agent>
      <dc:title>Matplotlib v3.10.7, https://matplotlib.org/</dc:title>
     </cc:Agent>
    </dc:creator>
   </cc:Work>
  </rdf:RDF>
 </metadata>
 <defs>
  <style type="text/css">*{stroke-linejoin: round; stroke-linecap: butt}</style>
 </defs>
 <g id="figure_1">
  <g id="patch_1">
   <path d="M 0 460.8 
L 662.4 460.8 
L 662.4 0 
L 0 0 
z
" style="fill: #ffffff"/>
  </g>
  <g id="axes_1">
   <g id="patch_2">
    <path d="M 91.536178 261.622929 
L 659.39976 261.622929 
L 659.39976 18.878209 
L 91.536178 18.878209 
z
" style="fill: #ffffff"/>
   </g>
   <g id="matplotlib.axis_1">
    <g id="xtick_1">
     <g id="line2d_1">
      <path d="M 91.536178 261.622929 
L 91.536178 18.878209 
" clip-path="url(#pa9c250137a)" style="fill: none; stroke: #dadada; stroke-width: 0.6; stroke-linecap: square"/>
     </g>
     <g id="line2d_2">
      <defs>
       <path id="m4c96ea3d85" d="M 0 0 
L 0 3.5 
" style="stroke: #000000; stroke-width: 0.8"/>
      </defs>
      <g>
       <use xlink:href="#m4c96ea3d85" x="91.536178" y="261.622929" style="stroke: #000000; stroke-width: 0.8"/>
      </g>
     </g>
     <g id="text_1">
      <!-- 0 -->
      <g transform="translate(88.354928 276.221367) scale(0.1 -0.1)">
       <defs>
        <path id="DejaVuSans-30" d="M 2034 4250 
Q 1547 4250 1301 3770 
Q 1056 3291 1056 2328 
Q 1056 1369 1301 889 
Q 1547 409 2034 409 
Q 2525 409 2770 889 
Q 3016 1369 3016 2328 
Q 3016 3291 2770 3770 
Q 2525 4250 2034 4250 
z
M 2034 4750 
Q 2819 4750 3233 4129 
Q 3647 3509 3647 2328 
Q 3647 1150 3233 529 
Q 2819 -91 2034 -91 
Q 1250 -91 836 529 
Q 422 1150 422 2328 
Q 422 3509 836 4129 
Q 1250 4750 2034 4750 
z
" transform="scale(0.015625)"/>
       </defs>
       <use xlink:href="#DejaVuSans-30"/>
      </g>
     </g>
    </g>
    <g id="xtick_2">
     <g id="line2d_3">
      <path d="M 171.068892 261.622929 
L 171.068892 18.878209 
" clip-path="url(#pa9c250137a)" style="fill: none; stroke: #dadada; stroke-width: 0.6; stroke-linecap: square"/>
     </g>
     <g id="line2d_4">
      <g>
       <use xlink:href="#m4c96ea3d85" x="171.068892" y="261.622929" style="stroke: #000000; stroke-width: 0.8"/>
      </g>
     </g>
     <g id="text_2">
      <!-- 20 -->
      <g transform="translate(164.706392 276.221367) scale(0.1 -0.1)">
       <defs>
        <path id="DejaVuSans-32" d="M 1228 531 
L 3431 531 
L 3431 0 
L 469 0 
L 469 531 
Q 828 903 1448 1529 
Q 2069 2156 2228 2338 
Q 2531 2678 2651 2914 
Q 2772 3150 2772 3378 
Q 2772 3750 2511 3984 
Q 2250 4219 1831 4219 
Q 1534 4219 1204 4116 
Q 875 4013 500 3803 
L 500 4441 
Q 881 4594 1212 4672 
Q 1544 4750 1819 4750 
Q 2544 4750 2975 4387 
Q 3406 4025 3406 3419 
Q 3406 3131 3298 2873 
Q 3191 2616 2906 2266 
Q 2828 2175 2409 1742 
Q 1991 1309 1228 531 
z
" transform="scale(0.015625)"/>
       </defs>
       <use xlink:href="#DejaVuSans-32"/>
       <use xlink:href="#DejaVuSans-30" transform="translate(63.623047 0)"/>
      </g>
     </g>
    </g>
    <g id="xtick_3">
     <g id="line2d_5">
      <path d="M 250.601607 261.622929 
L 250.601607 18.878209 
" clip-path="url(#pa9c250137a)" style="fill: none; stroke: #dadada; stroke-width: 0.6; stroke-linecap: square"/>
     </g>
     <g id="line2d_6">
      <g>
       <use xlink:href="#m4c96ea3d85" x="250.601607" y="261.622929" style="stroke: #000000; stroke-width: 0.8"/>
      </g>
     </g>
     <g id="text_3">
      <!-- 40 -->
      <g transform="translate(244.239107 276.221367) scale(0.1 -0.1)">
       <defs>
        <path id="DejaVuSans-34" d="M 2419 4116 
L 825 1625 
L 2419 1625 
L 2419 4116 
z
M 2253 4666 
L 3047 4666 
L 3047 1625 
L 3713 1625 
L 3713 1100 
L 3047 1100 
L 3047 0 
L 2419 0 
L 2419 1100 
L 313 1100 
L 313 1709 
L 2253 4666 
z
" transform="scale(0.015625)"/>
       </defs>
       <use xlink:href="#DejaVuSans-34"/>
       <use xlink:href="#DejaVuSans-30" transform="translate(63.623047 0)"/>
      </g>
     </g>
    </g>
    <g id="xtick_4">
     <g id="line2d_7">
      <path d="M 330.134321 261.622929 
L 330.134321 18.878209 
" clip-path="url(#pa9c250137a)" style="fill: none; stroke: #dadada; stroke-width: 0.6; stroke-linecap: square"/>
     </g>
     <g id="line2d_8">
      <g>
       <use xlink:href="#m4c96ea3d85" x="330.134321" y="261.622929" style="stroke: #000000; stroke-width: 0.8"/>
      </g>
     </g>
     <g id="text_4">
      <!-- 60 -->
      <g transform="translate(323.771821 276.221367) scale(0.1 -0.1)">
       <defs>
        <path id="DejaVuSans-36" d="M 2113 2584 
Q 1688 2584 1439 2293 
Q 1191 2003 1191 1497 
Q 1191 994 1439 701 
Q 1688 409 2113 409 
Q 2538 409 2786 701 
Q 3034 994 3034 1497 
Q 3034 2003 2786 2293 
Q 2538 2584 2113 2584 
z
M 3366 4563 
L 3366 3988 
Q 3128 4100 2886 4159 
Q 2644 4219 2406 4219 
Q 1781 4219 1451 3797 
Q 1122 3375 1075 2522 
Q 1259 2794 1537 2939 
Q 1816 3084 2150 3084 
Q 2853 3084 3261 2657 
Q 3669 2231 3669 1497 
Q 3669 778 3244 343 
Q 2819 -91 2113 -91 
Q 1303 -91 875 529 
Q 447 1150 447 2328 
Q 447 3434 972 4092 
Q 1497 4750 2381 4750 
Q 2619 4750 2861 4703 
Q 3103 4656 3366 4563 
z
" transform="scale(0.015625)"/>
       </defs>
       <use xlink:href="#DejaVuSans-36"/>
       <use xlink:href="#DejaVuSans-30" transform="translate(63.623047 0)"/>
      </g>
     </g>
    </g>
    <g id="xtick_5">
     <g id="line2d_9">
      <path d="M 409.667036 261.622929 
L 409.667036 18.878209 
" clip-path="url(#pa9c250137a)" style="fill: none; stroke: #dadada; stroke-width: 0.6; stroke-linecap: square"/>
     </g>
     <g id="line2d_10">
      <g>
       <use xlink:href="#m4c96ea3d85" x="409.667036" y="261.622929" style="stroke: #000000; stroke-width: 0.8"/>
      </g>
     </g>
     <g id="text_5">
      <!-- 80 -->
      <g transform="translate(403.304536 276.221367) scale(0.1 -0.1)">
       <defs>
        <path id="DejaVuSans-38" d="M 2034 2216 
Q 1584 2216 1326 1975 
Q 1069 1734 1069 1313 
Q 1069 891 1326 650 
Q 1584 409 2034 409 
Q 2484 409 2743 651 
Q 3003 894 3003 1313 
Q 3003 1734 2745 1975 
Q 2488 2216 2034 2216 
z
M 1403 2484 
Q 997 2584 770 2862 
Q 544 3141 544 3541 
Q 544 4100 942 4425 
Q 1341 4750 2034 4750 
Q 2731 4750 3128 4425 
Q 3525 4100 3525 3541 
Q 3525 3141 3298 2862 
Q 3072 2584 2669 2484 
Q 3125 2378 3379 2068 
Q 3634 1759 3634 1313 
Q 3634 634 3220 271 
Q 2806 -91 2034 -91 
Q 1263 -91 848 271 
Q 434 634 434 1313 
Q 434 1759 690 2068 
Q 947 2378 1403 2484 
z
M 1172 3481 
Q 1172 3119 1398 2916 
Q 1625 2713 2034 2713 
Q 2441 2713 2670 2916 
Q 2900 3119 2900 3481 
Q 2900 3844 2670 4047 
Q 2441 4250 2034 4250 
Q 1625 4250 1398 4047 
Q 1172 3844 1172 3481 
z
" transform="scale(0.015625)"/>
       </defs>
       <use xlink:href="#DejaVuSans-38"/>
       <use xlink:href="#DejaVuSans-30" transform="translate(63.623047 0)"/>
      </g>
     </g>
    </g>
    <g id="xtick_6">
     <g id="line2d_11">
      <path d="M 489.199751 261.622929 
L 489.199751 18.878209 
" clip-path="url(#pa9c250137a)" style="fill: none; stroke: #dadada; stroke-width: 0.6; stroke-linecap: square"/>
     </g>
     <g id="line2d_12">
      <g>
       <use xlink:href="#m4c96ea3d85" x="489.199751" y="261.622929" style="stroke: #000000; stroke-width: 0.8"/>
      </g>
     </g>
     <g id="text_6">
      <!-- 100 -->
      <g transform="translate(479.656001 276.221367) scale(0.1 -0.1)">
       <defs>
        <path id="DejaVuSans-31" d="M 794 531 
L 1825 531 
L 1825 4091 
L 703 3866 
L 703 4441 
L 1819 4666 
L 2450 4666 
L 2450 531 
L 3481 531 
L 3481 0 
L 794 0 
L 794 531 
z
" transform="scale(0.015625)"/>
       </defs>
       <use xlink:href="#DejaVuSans-31"/>
       <use xlink:href="#DejaVuSans-30" transform="translate(63.623047 0)"/>
       <use xlink:href="#DejaVuSans-30" transform="translate(127.246094 0)"/>
      </g>
     </g>
    </g>
    <g id="xtick_7">
     <g id="line2d_13">
      <path d="M 568.732465 261.622929 
L 568.732465 18.878209 
" clip-path="url(#pa9c250137a)" style="fill: none; stroke: #dadada; stroke-width: 0.6; stroke-linecap: square"/>
     </g>
     <g id="line2d_14">
      <g>
       <use xlink:href="#m4c96ea3d85" x="568.732465" y="261.622929" style="stroke: #000000; stroke-width: 0.8"/>
      </g>
     </g>
     <g id="text_7">
      <!-- 120 -->
      <g transform="translate(559.188715 276.221367) scale(0.1 -0.1)">
       <use xlink:href="#DejaVuSans-31"/>
       <use xlink:href="#DejaVuSans-32" transform="translate(63.623047 0)"/>
       <use xlink:href="#DejaVuSans-30" transform="translate(127.246094 0)"/>
      </g>
     </g>
    </g>
    <g id="xtick_8">
     <g id="line2d_15">
      <path d="M 648.26518 261.622929 
L 648.26518 18.878209 
" clip-path="url(#pa9c250137a)" style="fill: none; stroke: #dadada; stroke-width: 0.6; stroke-linecap: square"/>
     </g>
     <g id="line2d_16">
      <g>
       <use xlink:href="#m4c96ea3d85" x="648.26518" y="261.622929" style="stroke: #000000; stroke-width: 0.8"/>
      </g>
     </g>
     <g id="text_8">
      <!-- 140 -->
      <g transform="translate(638.72143 276.221367) scale(0.1 -0.1)">
       <use xlink:href="#DejaVuSans-31"/>
       <use xlink:href="#DejaVuSans-34" transform="translate(63.623047 0)"/>
       <use xlink:href="#DejaVuSans-30" transform="translate(127.246094 0)"/>
      </g>
     </g>
    </g>
    <g id="text_9">
     <!-- Cycles -->
     <g transform="translate(359.197656 289.899492) scale(0.1 -0.1)">
      <defs>
       <path id="DejaVuSans-43" d="M 4122 4306 
L 4122 3641 
Q 3803 3938 3442 4084 
Q 3081 4231 2675 4231 
Q 1875 4231 1450 3742 
Q 1025 3253 1025 2328 
Q 1025 1406 1450 917 
Q 1875 428 2675 428 
Q 3081 428 3442 575 
Q 3803 722 4122 1019 
L 4122 359 
Q 3791 134 3420 21 
Q 3050 -91 2638 -91 
Q 1578 -91 968 557 
Q 359 1206 359 2328 
Q 359 3453 968 4101 
Q 1578 4750 2638 4750 
Q 3056 4750 3426 4639 
Q 3797 4528 4122 4306 
z
" transform="scale(0.015625)"/>
       <path id="DejaVuSans-79" d="M 2059 -325 
Q 1816 -950 1584 -1140 
Q 1353 -1331 966 -1331 
L 506 -1331 
L 506 -850 
L 844 -850 
Q 1081 -850 1212 -737 
Q 1344 -625 1503 -206 
L 1606 56 
L 191 3500 
L 800 3500 
L 1894 763 
L 2988 3500 
L 3597 3500 
L 2059 -325 
z
" transform="scale(0.015625)"/>
       <path id="DejaVuSans-63" d="M 3122 3366 
L 3122 2828 
Q 2878 2963 2633 3030 
Q 2388 3097 2138 3097 
Q 1578 3097 1268 2742 
Q 959 2388 959 1747 
Q 959 1106 1268 751 
Q 1578 397 2138 397 
Q 2388 397 2633 464 
Q 2878 531 3122 666 
L 3122 134 
Q 2881 22 2623 -34 
Q 2366 -91 2075 -91 
Q 1284 -91 818 406 
Q 353 903 353 1747 
Q 353 2603 823 3093 
Q 1294 3584 2113 3584 
Q 2378 3584 2631 3529 
Q 2884 3475 3122 3366 
z
" transform="scale(0.015625)"/>
       <path id="DejaVuSans-6c" d="M 603 4863 
L 1178 4863 
L 1178 0 
L 603 0 
L 603 4863 
z
" transform="scale(0.015625)"/>
       <path id="DejaVuSans-65" d="M 3597 1894 
L 3597 1613 
L 953 1613 
Q 991 1019 1311 708 
Q 1631 397 2203 397 
Q 2534 397 2845 478 
Q 3156 559 3463 722 
L 3463 178 
Q 3153 47 2828 -22 
Q 2503 -91 2169 -91 
Q 1331 -91 842 396 
Q 353 884 353 1716 
Q 353 2575 817 3079 
Q 1281 3584 2069 3584 
Q 2775 3584 3186 3129 
Q 3597 2675 3597 1894 
z
M 3022 2063 
Q 3016 2534 2758 2815 
Q 2500 3097 2075 3097 
Q 1594 3097 1305 2825 
Q 1016 2553 972 2059 
L 3022 2063 
z
" transform="scale(0.015625)"/>
       <path id="DejaVuSans-73" d="M 2834 3397 
L 2834 2853 
Q 2591 2978 2328 3040 
Q 2066 3103 1784 3103 
Q 1356 3103 1142 2972 
Q 928 2841 928 2578 
Q 928 2378 1081 2264 
Q 1234 2150 1697 2047 
L 1894 2003 
Q 2506 1872 2764 1633 
Q 3022 1394 3022 966 
Q 3022 478 2636 193 
Q 2250 -91 1575 -91 
Q 1294 -91 989 -36 
Q 684 19 347 128 
L 347 722 
Q 666 556 975 473 
Q 1284 391 1588 391 
Q 1994 391 2212 530 
Q 2431 669 2431 922 
Q 2431 1156 2273 1281 
Q 2116 1406 1581 1522 
L 1381 1569 
Q 847 1681 609 1914 
Q 372 2147 372 2553 
Q 372 3047 722 3315 
Q 1072 3584 1716 3584 
Q 2034 3584 2315 3537 
Q 2597 3491 2834 3397 
z
" transform="scale(0.015625)"/>
      </defs>
      <use xlink:href="#DejaVuSans-43"/>
      <use xlink:href="#DejaVuSans-79" transform="translate(69.824219 0)"/>
      <use xlink:href="#DejaVuSans-63" transform="translate(129.003906 0)"/>
      <use xlink:href="#DejaVuSans-6c" transform="translate(183.984375 0)"/>
      <use xlink:href="#DejaVuSans-65" transform="translate(211.767578 0)"/>
      <use xlink:href="#DejaVuSans-73" transform="translate(273.291016 0)"/>
     </g>
    </g>
   </g>
   <g id="matplotlib.axis_2">
    <g id="ytick_1">
     <g id="line2d_17">
      <defs>
       <path id="m50cf51be37" d="M 0 0 
L -3.5 0 
" style="stroke: #000000; stroke-width: 0.8"/>
      </defs>
      <g>
       <use xlink:href="#m50cf51be37" x="91.536178" y="38.919285" style="stroke: #000000; stroke-width: 0.8"/>
      </g>
     </g>
     <g id="text_10">
      <!-- IDLE -->
      <g transform="translate(61.995553 42.718504) scale(0.1 -0.1)">
       <defs>
        <path id="DejaVuSans-49" d="M 628 4666 
L 1259 4666 
L 1259 0 
L 628 0 
L 628 4666 
z
" transform="scale(0.015625)"/>
        <path id="DejaVuSans-44" d="M 1259 4147 
L 1259 519 
L 2022 519 
Q 2988 519 3436 956 
Q 3884 1394 3884 2338 
Q 3884 3275 3436 3711 
Q 2988 4147 2022 4147 
L 1259 4147 
z
M 628 4666 
L 1925 4666 
Q 3281 4666 3915 4102 
Q 4550 3538 4550 2338 
Q 4550 1131 3912 565 
Q 3275 0 1925 0 
L 628 0 
L 628 4666 
z
" transform="scale(0.015625)"/>
        <path id="DejaVuSans-4c" d="M 628 4666 
L 1259 4666 
L 1259 531 
L 3531 531 
L 3531 0 
L 628 0 
L 628 4666 
z
" transform="scale(0.015625)"/>
        <path id="DejaVuSans-45" d="M 628 4666 
L 3578 4666 
L 3578 4134 
L 1259 4134 
L 1259 2753 
L 3481 2753 
L 3481 2222 
L 1259 2222 
L 1259 531 
L 3634 531 
L 3634 0 
L 628 0 
L 628 4666 
z
" transform="scale(0.015625)"/>
       </defs>
       <use xlink:href="#DejaVuSans-49"/>
       <use xlink:href="#DejaVuSans-44" transform="translate(29.492188 0)"/>
       <use xlink:href="#DejaVuSans-4c" transform="translate(106.494141 0)"/>
       <use xlink:href="#DejaVuSans-45" transform="translate(162.207031 0)"/>
      </g>
     </g>
    </g>
    <g id="ytick_2">
     <g id="line2d_18">
      <g>
       <use xlink:href="#m50cf51be37" x="91.536178" y="61.437348" style="stroke: #000000; stroke-width: 0.8"/>
      </g>
     </g>
     <g id="text_11">
      <!-- HOST_WRITE -->
      <g transform="translate(19.47524 65.148286) scale(0.1 -0.1)">
       <defs>
        <path id="DejaVuSans-48" d="M 628 4666 
L 1259 4666 
L 1259 2753 
L 3553 2753 
L 3553 4666 
L 4184 4666 
L 4184 0 
L 3553 0 
L 3553 2222 
L 1259 2222 
L 1259 0 
L 628 0 
L 628 4666 
z
" transform="scale(0.015625)"/>
        <path id="DejaVuSans-4f" d="M 2522 4238 
Q 1834 4238 1429 3725 
Q 1025 3213 1025 2328 
Q 1025 1447 1429 934 
Q 1834 422 2522 422 
Q 3209 422 3611 934 
Q 4013 1447 4013 2328 
Q 4013 3213 3611 3725 
Q 3209 4238 2522 4238 
z
M 2522 4750 
Q 3503 4750 4090 4092 
Q 4678 3434 4678 2328 
Q 4678 1225 4090 567 
Q 3503 -91 2522 -91 
Q 1538 -91 948 565 
Q 359 1222 359 2328 
Q 359 3434 948 4092 
Q 1538 4750 2522 4750 
z
" transform="scale(0.015625)"/>
        <path id="DejaVuSans-53" d="M 3425 4513 
L 3425 3897 
Q 3066 4069 2747 4153 
Q 2428 4238 2131 4238 
Q 1616 4238 1336 4038 
Q 1056 3838 1056 3469 
Q 1056 3159 1242 3001 
Q 1428 2844 1947 2747 
L 2328 2669 
Q 3034 2534 3370 2195 
Q 3706 1856 3706 1288 
Q 3706 609 3251 259 
Q 2797 -91 1919 -91 
Q 1588 -91 1214 -16 
Q 841 59 441 206 
L 441 856 
Q 825 641 1194 531 
Q 1563 422 1919 422 
Q 2459 422 2753 634 
Q 3047 847 3047 1241 
Q 3047 1584 2836 1778 
Q 2625 1972 2144 2069 
L 1759 2144 
Q 1053 2284 737 2584 
Q 422 2884 422 3419 
Q 422 4038 858 4394 
Q 1294 4750 2059 4750 
Q 2388 4750 2728 4690 
Q 3069 4631 3425 4513 
z
" transform="scale(0.015625)"/>
        <path id="DejaVuSans-54" d="M -19 4666 
L 3928 4666 
L 3928 4134 
L 2272 4134 
L 2272 0 
L 1638 0 
L 1638 4134 
L -19 4134 
L -19 4666 
z
" transform="scale(0.015625)"/>
        <path id="DejaVuSans-5f" d="M 3263 -1063 
L 3263 -1509 
L -63 -1509 
L -63 -1063 
L 3263 -1063 
z
" transform="scale(0.015625)"/>
        <path id="DejaVuSans-57" d="M 213 4666 
L 850 4666 
L 1831 722 
L 2809 4666 
L 3519 4666 
L 4500 722 
L 5478 4666 
L 6119 4666 
L 4947 0 
L 4153 0 
L 3169 4050 
L 2175 0 
L 1381 0 
L 213 4666 
z
" transform="scale(0.015625)"/>
        <path id="DejaVuSans-52" d="M 2841 2188 
Q 3044 2119 3236 1894 
Q 3428 1669 3622 1275 
L 4263 0 
L 3584 0 
L 2988 1197 
Q 2756 1666 2539 1819 
Q 2322 1972 1947 1972 
L 1259 1972 
L 1259 0 
L 628 0 
L 628 4666 
L 2053 4666 
Q 2853 4666 3247 4331 
Q 3641 3997 3641 3322 
Q 3641 2881 3436 2590 
Q 3231 2300 2841 2188 
z
M 1259 4147 
L 1259 2491 
L 2053 2491 
Q 2509 2491 2742 2702 
Q 2975 2913 2975 3322 
Q 2975 3731 2742 3939 
Q 2509 4147 2053 4147 
L 1259 4147 
z
" transform="scale(0.015625)"/>
       </defs>
       <use xlink:href="#DejaVuSans-48"/>
       <use xlink:href="#DejaVuSans-4f" transform="translate(75.195312 0)"/>
       <use xlink:href="#DejaVuSans-53" transform="translate(153.90625 0)"/>
       <use xlink:href="#DejaVuSans-54" transform="translate(217.382812 0)"/>
       <use xlink:href="#DejaVuSans-5f" transform="translate(278.466797 0)"/>
       <use xlink:href="#DejaVuSans-57" transform="translate(328.466797 0)"/>
       <use xlink:href="#DejaVuSans-52" transform="translate(427.34375 0)"/>
       <use xlink:href="#DejaVuSans-49" transform="translate(496.826172 0)"/>
       <use xlink:href="#DejaVuSans-54" transform="translate(526.318359 0)"/>
       <use xlink:href="#DejaVuSans-45" transform="translate(587.402344 0)"/>
      </g>
     </g>
    </g>
    <g id="ytick_3">
     <g id="line2d_19">
      <g>
       <use xlink:href="#m50cf51be37" x="91.536178" y="83.955411" style="stroke: #000000; stroke-width: 0.8"/>
      </g>
     </g>
     <g id="text_12">
      <!-- FETCH -->
      <g transform="translate(52.442428 87.75463) scale(0.1 -0.1)">
       <defs>
        <path id="DejaVuSans-46" d="M 628 4666 
L 3309 4666 
L 3309 4134 
L 1259 4134 
L 1259 2759 
L 3109 2759 
L 3109 2228 
L 1259 2228 
L 1259 0 
L 628 0 
L 628 4666 
z
" transform="scale(0.015625)"/>
       </defs>
       <use xlink:href="#DejaVuSans-46"/>
       <use xlink:href="#DejaVuSans-45" transform="translate(57.519531 0)"/>
       <use xlink:href="#DejaVuSans-54" transform="translate(120.703125 0)"/>
       <use xlink:href="#DejaVuSans-43" transform="translate(175.912109 0)"/>
       <use xlink:href="#DejaVuSans-48" transform="translate(245.736328 0)"/>
      </g>
     </g>
    </g>
    <g id="ytick_4">
     <g id="line2d_20">
      <g>
       <use xlink:href="#m50cf51be37" x="91.536178" y="106.473474" style="stroke: #000000; stroke-width: 0.8"/>
      </g>
     </g>
     <g id="text_13">
      <!-- DECODE -->
      <g transform="translate(41.64399 110.272693) scale(0.1 -0.1)">
       <use xlink:href="#DejaVuSans-44"/>
       <use xlink:href="#DejaVuSans-45" transform="translate(77.001953 0)"/>
       <use xlink:href="#DejaVuSans-43" transform="translate(140.185547 0)"/>
       <use xlink:href="#DejaVuSans-4f" transform="translate(210.009766 0)"/>
       <use xlink:href="#DejaVuSans-44" transform="translate(288.720703 0)"/>
       <use xlink:href="#DejaVuSans-45" transform="translate(365.722656 0)"/>
      </g>
     </g>
    </g>
    <g id="ytick_5">
     <g id="line2d_21">
      <g>
       <use xlink:href="#m50cf51be37" x="91.536178" y="128.991537" style="stroke: #000000; stroke-width: 0.8"/>
      </g>
     </g>
     <g id="text_14">
      <!-- EXEC_MATMUL -->
      <g transform="translate(10.745553 132.702475) scale(0.1 -0.1)">
       <defs>
        <path id="DejaVuSans-58" d="M 403 4666 
L 1081 4666 
L 2241 2931 
L 3406 4666 
L 4084 4666 
L 2584 2425 
L 4184 0 
L 3506 0 
L 2194 1984 
L 872 0 
L 191 0 
L 1856 2491 
L 403 4666 
z
" transform="scale(0.015625)"/>
        <path id="DejaVuSans-4d" d="M 628 4666 
L 1569 4666 
L 2759 1491 
L 3956 4666 
L 4897 4666 
L 4897 0 
L 4281 0 
L 4281 4097 
L 3078 897 
L 2444 897 
L 1241 4097 
L 1241 0 
L 628 0 
L 628 4666 
z
" transform="scale(0.015625)"/>
        <path id="DejaVuSans-41" d="M 2188 4044 
L 1331 1722 
L 3047 1722 
L 2188 4044 
z
M 1831 4666 
L 2547 4666 
L 4325 0 
L 3669 0 
L 3244 1197 
L 1141 1197 
L 716 0 
L 50 0 
L 1831 4666 
z
" transform="scale(0.015625)"/>
        <path id="DejaVuSans-55" d="M 556 4666 
L 1191 4666 
L 1191 1831 
Q 1191 1081 1462 751 
Q 1734 422 2344 422 
Q 2950 422 3222 751 
Q 3494 1081 3494 1831 
L 3494 4666 
L 4128 4666 
L 4128 1753 
Q 4128 841 3676 375 
Q 3225 -91 2344 -91 
Q 1459 -91 1007 375 
Q 556 841 556 1753 
L 556 4666 
z
" transform="scale(0.015625)"/>
       </defs>
       <use xlink:href="#DejaVuSans-45"/>
       <use xlink:href="#DejaVuSans-58" transform="translate(63.183594 0)"/>
       <use xlink:href="#DejaVuSans-45" transform="translate(131.689453 0)"/>
       <use xlink:href="#DejaVuSans-43" transform="translate(194.873047 0)"/>
       <use xlink:href="#DejaVuSans-5f" transform="translate(264.697266 0)"/>
       <use xlink:href="#DejaVuSans-4d" transform="translate(314.697266 0)"/>
       <use xlink:href="#DejaVuSans-41" transform="translate(400.976562 0)"/>
       <use xlink:href="#DejaVuSans-54" transform="translate(461.634766 0)"/>
       <use xlink:href="#DejaVuSans-4d" transform="translate(522.71875 0)"/>
       <use xlink:href="#DejaVuSans-55" transform="translate(608.998047 0)"/>
       <use xlink:href="#DejaVuSans-4c" transform="translate(682.191406 0)"/>
      </g>
     </g>
    </g>
    <g id="ytick_6">
     <g id="line2d_22">
      <g>
       <use xlink:href="#m50cf51be37" x="91.536178" y="151.5096" style="stroke: #000000; stroke-width: 0.8"/>
      </g>
     </g>
     <g id="text_15">
      <!-- MM_CLEAR -->
      <g transform="translate(29.617428 155.220538) scale(0.1 -0.1)">
       <use xlink:href="#DejaVuSans-4d"/>
       <use xlink:href="#DejaVuSans-4d" transform="translate(86.279297 0)"/>
       <use xlink:href="#DejaVuSans-5f" transform="translate(172.558594 0)"/>
       <use xlink:href="#DejaVuSans-43" transform="translate(222.558594 0)"/>
       <use xlink:href="#DejaVuSans-4c" transform="translate(292.382812 0)"/>
       <use xlink:href="#DejaVuSans-45" transform="translate(348.095703 0)"/>
       <use xlink:href="#DejaVuSans-41" transform="translate(411.279297 0)"/>
       <use xlink:href="#DejaVuSans-52" transform="translate(479.6875 0)"/>
      </g>
     </g>
    </g>
    <g id="ytick_7">
     <g id="line2d_23">
      <g>
       <use xlink:href="#m50cf51be37" x="91.536178" y="174.027664" style="stroke: #000000; stroke-width: 0.8"/>
      </g>
     </g>
     <g id="text_16">
      <!-- MM_FEED -->
      <g transform="translate(36.190865 177.68782) scale(0.1 -0.1)">
       <use xlink:href="#DejaVuSans-4d"/>
       <use xlink:href="#DejaVuSans-4d" transform="translate(86.279297 0)"/>
       <use xlink:href="#DejaVuSans-5f" transform="translate(172.558594 0)"/>
       <use xlink:href="#DejaVuSans-46" transform="translate(222.558594 0)"/>
       <use xlink:href="#DejaVuSans-45" transform="translate(280.078125 0)"/>
       <use xlink:href="#DejaVuSans-45" transform="translate(343.261719 0)"/>
       <use xlink:href="#DejaVuSans-44" transform="translate(406.445312 0)"/>
      </g>
     </g>
    </g>
    <g id="ytick_8">
     <g id="line2d_24">
      <g>
       <use xlink:href="#m50cf51be37" x="91.536178" y="196.545727" style="stroke: #000000; stroke-width: 0.8"/>
      </g>
     </g>
     <g id="text_17">
      <!-- MM_WAIT -->
      <g transform="translate(37.04399 200.205883) scale(0.1 -0.1)">
       <use xlink:href="#DejaVuSans-4d"/>
       <use xlink:href="#DejaVuSans-4d" transform="translate(86.279297 0)"/>
       <use xlink:href="#DejaVuSans-5f" transform="translate(172.558594 0)"/>
       <use xlink:href="#DejaVuSans-57" transform="translate(222.558594 0)"/>
       <use xlink:href="#DejaVuSans-41" transform="translate(315.935547 0)"/>
       <use xlink:href="#DejaVuSans-49" transform="translate(384.34375 0)"/>
       <use xlink:href="#DejaVuSans-54" transform="translate(413.835938 0)"/>
      </g>
     </g>
    </g>
    <g id="ytick_9">
     <g id="line2d_25">
      <g>
       <use xlink:href="#m50cf51be37" x="91.536178" y="219.06379" style="stroke: #000000; stroke-width: 0.8"/>
      </g>
     </g>
     <g id="text_18">
      <!-- MM_DRAIN_SA -->
      <g transform="translate(12.383053 222.774727) scale(0.1 -0.1)">
       <defs>
        <path id="DejaVuSans-4e" d="M 628 4666 
L 1478 4666 
L 3547 763 
L 3547 4666 
L 4159 4666 
L 4159 0 
L 3309 0 
L 1241 3903 
L 1241 0 
L 628 0 
L 628 4666 
z
" transform="scale(0.015625)"/>
       </defs>
       <use xlink:href="#DejaVuSans-4d"/>
       <use xlink:href="#DejaVuSans-4d" transform="translate(86.279297 0)"/>
       <use xlink:href="#DejaVuSans-5f" transform="translate(172.558594 0)"/>
       <use xlink:href="#DejaVuSans-44" transform="translate(222.558594 0)"/>
       <use xlink:href="#DejaVuSans-52" transform="translate(299.560547 0)"/>
       <use xlink:href="#DejaVuSans-41" transform="translate(365.042969 0)"/>
       <use xlink:href="#DejaVuSans-49" transform="translate(433.451172 0)"/>
       <use xlink:href="#DejaVuSans-4e" transform="translate(462.943359 0)"/>
       <use xlink:href="#DejaVuSans-5f" transform="translate(537.748047 0)"/>
       <use xlink:href="#DejaVuSans-53" transform="translate(587.748047 0)"/>
       <use xlink:href="#DejaVuSans-41" transform="translate(653.099609 0)"/>
      </g>
     </g>
    </g>
    <g id="ytick_10">
     <g id="line2d_26">
      <g>
       <use xlink:href="#m50cf51be37" x="91.536178" y="241.581853" style="stroke: #000000; stroke-width: 0.8"/>
      </g>
     </g>
     <g id="text_19">
      <!-- MM_WRITEBACK -->
      <g transform="translate(3.00024 245.29279) scale(0.1 -0.1)">
       <defs>
        <path id="DejaVuSans-42" d="M 1259 2228 
L 1259 519 
L 2272 519 
Q 2781 519 3026 730 
Q 3272 941 3272 1375 
Q 3272 1813 3026 2020 
Q 2781 2228 2272 2228 
L 1259 2228 
z
M 1259 4147 
L 1259 2741 
L 2194 2741 
Q 2656 2741 2882 2914 
Q 3109 3088 3109 3444 
Q 3109 3797 2882 3972 
Q 2656 4147 2194 4147 
L 1259 4147 
z
M 628 4666 
L 2241 4666 
Q 2963 4666 3353 4366 
Q 3744 4066 3744 3513 
Q 3744 3084 3544 2831 
Q 3344 2578 2956 2516 
Q 3422 2416 3680 2098 
Q 3938 1781 3938 1306 
Q 3938 681 3513 340 
Q 3088 0 2303 0 
L 628 0 
L 628 4666 
z
" transform="scale(0.015625)"/>
        <path id="DejaVuSans-4b" d="M 628 4666 
L 1259 4666 
L 1259 2694 
L 3353 4666 
L 4166 4666 
L 1850 2491 
L 4331 0 
L 3500 0 
L 1259 2247 
L 1259 0 
L 628 0 
L 628 4666 
z
" transform="scale(0.015625)"/>
       </defs>
       <use xlink:href="#DejaVuSans-4d"/>
       <use xlink:href="#DejaVuSans-4d" transform="translate(86.279297 0)"/>
       <use xlink:href="#DejaVuSans-5f" transform="translate(172.558594 0)"/>
       <use xlink:href="#DejaVuSans-57" transform="translate(222.558594 0)"/>
       <use xlink:href="#DejaVuSans-52" transform="translate(321.435547 0)"/>
       <use xlink:href="#DejaVuSans-49" transform="translate(390.917969 0)"/>
       <use xlink:href="#DejaVuSans-54" transform="translate(420.410156 0)"/>
       <use xlink:href="#DejaVuSans-45" transform="translate(481.494141 0)"/>
       <use xlink:href="#DejaVuSans-42" transform="translate(544.677734 0)"/>
       <use xlink:href="#DejaVuSans-41" transform="translate(613.28125 0)"/>
       <use xlink:href="#DejaVuSans-43" transform="translate(679.939453 0)"/>
       <use xlink:href="#DejaVuSans-4b" transform="translate(749.763672 0)"/>
      </g>
     </g>
    </g>
   </g>
   <g id="patch_3">
    <path d="M 91.536178 29.91206 
L 119.372628 29.91206 
L 119.372628 47.92651 
L 91.536178 47.92651 
z
" clip-path="url(#pa9c250137a)" style="fill: #d9a441; stroke: #2a2a2a; stroke-width: 0.8; stroke-linejoin: miter"/>
   </g>
   <g id="patch_4">
    <path d="M 91.536178 52.430123 
L 95.512813 52.430123 
L 95.512813 70.444573 
L 91.536178 70.444573 
z
" clip-path="url(#pa9c250137a)" style="fill: #d9a441; stroke: #2a2a2a; stroke-width: 0.8; stroke-linejoin: miter"/>
   </g>
   <g id="patch_5">
    <path d="M 91.536178 74.948186 
L 103.466085 74.948186 
L 103.466085 92.962636 
L 91.536178 92.962636 
z
" clip-path="url(#pa9c250137a)" style="fill: #6d6e71; stroke: #2a2a2a; stroke-width: 0.8; stroke-linejoin: miter"/>
   </g>
   <g id="patch_6">
    <path d="M 91.536178 97.466249 
L 103.466085 97.466249 
L 103.466085 115.4807 
L 91.536178 115.4807 
z
" clip-path="url(#pa9c250137a)" style="fill: #6d6e71; stroke: #2a2a2a; stroke-width: 0.8; stroke-linejoin: miter"/>
   </g>
   <g id="patch_7">
    <path d="M 91.536178 119.984312 
L 147.209078 119.984312 
L 147.209078 137.998763 
L 91.536178 137.998763 
z
" clip-path="url(#pa9c250137a)" style="fill: #4a7ebb; stroke: #2a2a2a; stroke-width: 0.8; stroke-linejoin: miter"/>
   </g>
   <g id="patch_8">
    <path d="M 91.536178 142.502375 
L 123.349263 142.502375 
L 123.349263 160.516826 
L 91.536178 160.516826 
z
" clip-path="url(#pa9c250137a)" style="fill: #4a7ebb; stroke: #2a2a2a; stroke-width: 0.8; stroke-linejoin: miter"/>
   </g>
   <g id="patch_9">
    <path d="M 91.536178 165.020438 
L 600.545551 165.020438 
L 600.545551 183.034889 
L 91.536178 183.034889 
z
" clip-path="url(#pa9c250137a)" style="fill: #4a7ebb; stroke: #2a2a2a; stroke-width: 0.8; stroke-linejoin: miter"/>
   </g>
   <g id="patch_10">
    <path d="M 91.536178 187.538501 
L 632.358637 187.538501 
L 632.358637 205.552952 
L 91.536178 205.552952 
z
" clip-path="url(#pa9c250137a)" style="fill: #4a7ebb; stroke: #2a2a2a; stroke-width: 0.8; stroke-linejoin: miter"/>
   </g>
   <g id="patch_11">
    <path d="M 91.536178 210.056565 
L 346.040864 210.056565 
L 346.040864 228.071015 
L 91.536178 228.071015 
z
" clip-path="url(#pa9c250137a)" style="fill: #4a7ebb; stroke: #2a2a2a; stroke-width: 0.8; stroke-linejoin: miter"/>
   </g>
   <g id="patch_12">
    <path d="M 91.536178 232.574628 
L 346.040864 232.574628 
L 346.040864 250.589078 
L 91.536178 250.589078 
z
" clip-path="url(#pa9c250137a)" style="fill: #4a7ebb; stroke: #2a2a2a; stroke-width: 0.8; stroke-linejoin: miter"/>
   </g>
   <g id="patch_13">
    <path d="M 91.536178 261.622929 
L 91.536178 18.878209 
" style="fill: none; stroke: #000000; stroke-width: 0.8; stroke-linejoin: miter; stroke-linecap: square"/>
   </g>
   <g id="patch_14">
    <path d="M 659.39976 261.622929 
L 659.39976 18.878209 
" style="fill: none; stroke: #000000; stroke-width: 0.8; stroke-linejoin: miter; stroke-linecap: square"/>
   </g>
   <g id="patch_15">
    <path d="M 91.536178 261.622929 
L 659.39976 261.622929 
" style="fill: none; stroke: #000000; stroke-width: 0.8; stroke-linejoin: miter; stroke-linecap: square"/>
   </g>
   <g id="patch_16">
    <path d="M 91.536178 18.878209 
L 659.39976 18.878209 
" style="fill: none; stroke: #000000; stroke-width: 0.8; stroke-linejoin: miter; stroke-linecap: square"/>
   </g>
   <g id="text_20">
    <!-- 7 -->
    <g transform="translate(127.325899 41.402722) scale(0.09 -0.09)">
     <defs>
      <path id="DejaVuSans-37" d="M 525 4666 
L 3525 4666 
L 3525 4397 
L 1831 0 
L 1172 0 
L 2766 4134 
L 525 4134 
L 525 4666 
z
" transform="scale(0.015625)"/>
     </defs>
     <use xlink:href="#DejaVuSans-37"/>
    </g>
   </g>
   <g id="text_21">
    <!-- 1 -->
    <g transform="translate(103.466085 63.920786) scale(0.09 -0.09)">
     <use xlink:href="#DejaVuSans-31"/>
    </g>
   </g>
   <g id="text_22">
    <!-- 3 -->
    <g transform="translate(111.419356 86.438849) scale(0.09 -0.09)">
     <defs>
      <path id="DejaVuSans-33" d="M 2597 2516 
Q 3050 2419 3304 2112 
Q 3559 1806 3559 1356 
Q 3559 666 3084 287 
Q 2609 -91 1734 -91 
Q 1441 -91 1130 -33 
Q 819 25 488 141 
L 488 750 
Q 750 597 1062 519 
Q 1375 441 1716 441 
Q 2309 441 2620 675 
Q 2931 909 2931 1356 
Q 2931 1769 2642 2001 
Q 2353 2234 1838 2234 
L 1294 2234 
L 1294 2753 
L 1863 2753 
Q 2328 2753 2575 2939 
Q 2822 3125 2822 3475 
Q 2822 3834 2567 4026 
Q 2313 4219 1838 4219 
Q 1578 4219 1281 4162 
Q 984 4106 628 3988 
L 628 4550 
Q 988 4650 1302 4700 
Q 1616 4750 1894 4750 
Q 2613 4750 3031 4423 
Q 3450 4097 3450 3541 
Q 3450 3153 3228 2886 
Q 3006 2619 2597 2516 
z
" transform="scale(0.015625)"/>
     </defs>
     <use xlink:href="#DejaVuSans-33"/>
    </g>
   </g>
   <g id="text_23">
    <!-- 3 -->
    <g transform="translate(111.419356 108.956912) scale(0.09 -0.09)">
     <use xlink:href="#DejaVuSans-33"/>
    </g>
   </g>
   <g id="text_24">
    <!-- 14 -->
    <g transform="translate(155.162349 131.474975) scale(0.09 -0.09)">
     <use xlink:href="#DejaVuSans-31"/>
     <use xlink:href="#DejaVuSans-34" transform="translate(63.623047 0)"/>
    </g>
   </g>
   <g id="text_25">
    <!-- 8 -->
    <g transform="translate(131.302535 153.993038) scale(0.09 -0.09)">
     <use xlink:href="#DejaVuSans-38"/>
    </g>
   </g>
   <g id="text_26">
    <!-- 128 -->
    <g transform="translate(608.498823 176.511101) scale(0.09 -0.09)">
     <use xlink:href="#DejaVuSans-31"/>
     <use xlink:href="#DejaVuSans-32" transform="translate(63.623047 0)"/>
     <use xlink:href="#DejaVuSans-38" transform="translate(127.246094 0)"/>
    </g>
   </g>
   <g id="text_27">
    <!-- 136 -->
    <g transform="translate(640.311908 199.029164) scale(0.09 -0.09)">
     <use xlink:href="#DejaVuSans-31"/>
     <use xlink:href="#DejaVuSans-33" transform="translate(63.623047 0)"/>
     <use xlink:href="#DejaVuSans-36" transform="translate(127.246094 0)"/>
    </g>
   </g>
   <g id="text_28">
    <!-- 64 -->
    <g transform="translate(353.994136 221.547227) scale(0.09 -0.09)">
     <use xlink:href="#DejaVuSans-36"/>
     <use xlink:href="#DejaVuSans-34" transform="translate(63.623047 0)"/>
    </g>
   </g>
   <g id="text_29">
    <!-- 64 -->
    <g transform="translate(353.994136 244.06529) scale(0.09 -0.09)">
     <use xlink:href="#DejaVuSans-36"/>
     <use xlink:href="#DejaVuSans-34" transform="translate(63.623047 0)"/>
    </g>
   </g>
   <g id="text_30">
    <!-- Representative perf-observability run (simple_chain.npu, total run window = 428 cycles) -->
    <g transform="translate(87.375781 12.878209) scale(0.13 -0.13)">
     <defs>
      <path id="DejaVuSans-70" d="M 1159 525 
L 1159 -1331 
L 581 -1331 
L 581 3500 
L 1159 3500 
L 1159 2969 
Q 1341 3281 1617 3432 
Q 1894 3584 2278 3584 
Q 2916 3584 3314 3078 
Q 3713 2572 3713 1747 
Q 3713 922 3314 415 
Q 2916 -91 2278 -91 
Q 1894 -91 1617 61 
Q 1341 213 1159 525 
z
M 3116 1747 
Q 3116 2381 2855 2742 
Q 2594 3103 2138 3103 
Q 1681 3103 1420 2742 
Q 1159 2381 1159 1747 
Q 1159 1113 1420 752 
Q 1681 391 2138 391 
Q 2594 391 2855 752 
Q 3116 1113 3116 1747 
z
" transform="scale(0.015625)"/>
      <path id="DejaVuSans-72" d="M 2631 2963 
Q 2534 3019 2420 3045 
Q 2306 3072 2169 3072 
Q 1681 3072 1420 2755 
Q 1159 2438 1159 1844 
L 1159 0 
L 581 0 
L 581 3500 
L 1159 3500 
L 1159 2956 
Q 1341 3275 1631 3429 
Q 1922 3584 2338 3584 
Q 2397 3584 2469 3576 
Q 2541 3569 2628 3553 
L 2631 2963 
z
" transform="scale(0.015625)"/>
      <path id="DejaVuSans-6e" d="M 3513 2113 
L 3513 0 
L 2938 0 
L 2938 2094 
Q 2938 2591 2744 2837 
Q 2550 3084 2163 3084 
Q 1697 3084 1428 2787 
Q 1159 2491 1159 1978 
L 1159 0 
L 581 0 
L 581 3500 
L 1159 3500 
L 1159 2956 
Q 1366 3272 1645 3428 
Q 1925 3584 2291 3584 
Q 2894 3584 3203 3211 
Q 3513 2838 3513 2113 
z
" transform="scale(0.015625)"/>
      <path id="DejaVuSans-74" d="M 1172 4494 
L 1172 3500 
L 2356 3500 
L 2356 3053 
L 1172 3053 
L 1172 1153 
Q 1172 725 1289 603 
Q 1406 481 1766 481 
L 2356 481 
L 2356 0 
L 1766 0 
Q 1100 0 847 248 
Q 594 497 594 1153 
L 594 3053 
L 172 3053 
L 172 3500 
L 594 3500 
L 594 4494 
L 1172 4494 
z
" transform="scale(0.015625)"/>
      <path id="DejaVuSans-61" d="M 2194 1759 
Q 1497 1759 1228 1600 
Q 959 1441 959 1056 
Q 959 750 1161 570 
Q 1363 391 1709 391 
Q 2188 391 2477 730 
Q 2766 1069 2766 1631 
L 2766 1759 
L 2194 1759 
z
M 3341 1997 
L 3341 0 
L 2766 0 
L 2766 531 
Q 2569 213 2275 61 
Q 1981 -91 1556 -91 
Q 1019 -91 701 211 
Q 384 513 384 1019 
Q 384 1609 779 1909 
Q 1175 2209 1959 2209 
L 2766 2209 
L 2766 2266 
Q 2766 2663 2505 2880 
Q 2244 3097 1772 3097 
Q 1472 3097 1187 3025 
Q 903 2953 641 2809 
L 641 3341 
Q 956 3463 1253 3523 
Q 1550 3584 1831 3584 
Q 2591 3584 2966 3190 
Q 3341 2797 3341 1997 
z
" transform="scale(0.015625)"/>
      <path id="DejaVuSans-69" d="M 603 3500 
L 1178 3500 
L 1178 0 
L 603 0 
L 603 3500 
z
M 603 4863 
L 1178 4863 
L 1178 4134 
L 603 4134 
L 603 4863 
z
" transform="scale(0.015625)"/>
      <path id="DejaVuSans-76" d="M 191 3500 
L 800 3500 
L 1894 563 
L 2988 3500 
L 3597 3500 
L 2284 0 
L 1503 0 
L 191 3500 
z
" transform="scale(0.015625)"/>
      <path id="DejaVuSans-20" transform="scale(0.015625)"/>
      <path id="DejaVuSans-66" d="M 2375 4863 
L 2375 4384 
L 1825 4384 
Q 1516 4384 1395 4259 
Q 1275 4134 1275 3809 
L 1275 3500 
L 2222 3500 
L 2222 3053 
L 1275 3053 
L 1275 0 
L 697 0 
L 697 3053 
L 147 3053 
L 147 3500 
L 697 3500 
L 697 3744 
Q 697 4328 969 4595 
Q 1241 4863 1831 4863 
L 2375 4863 
z
" transform="scale(0.015625)"/>
      <path id="DejaVuSans-2d" d="M 313 2009 
L 1997 2009 
L 1997 1497 
L 313 1497 
L 313 2009 
z
" transform="scale(0.015625)"/>
      <path id="DejaVuSans-6f" d="M 1959 3097 
Q 1497 3097 1228 2736 
Q 959 2375 959 1747 
Q 959 1119 1226 758 
Q 1494 397 1959 397 
Q 2419 397 2687 759 
Q 2956 1122 2956 1747 
Q 2956 2369 2687 2733 
Q 2419 3097 1959 3097 
z
M 1959 3584 
Q 2709 3584 3137 3096 
Q 3566 2609 3566 1747 
Q 3566 888 3137 398 
Q 2709 -91 1959 -91 
Q 1206 -91 779 398 
Q 353 888 353 1747 
Q 353 2609 779 3096 
Q 1206 3584 1959 3584 
z
" transform="scale(0.015625)"/>
      <path id="DejaVuSans-62" d="M 3116 1747 
Q 3116 2381 2855 2742 
Q 2594 3103 2138 3103 
Q 1681 3103 1420 2742 
Q 1159 2381 1159 1747 
Q 1159 1113 1420 752 
Q 1681 391 2138 391 
Q 2594 391 2855 752 
Q 3116 1113 3116 1747 
z
M 1159 2969 
Q 1341 3281 1617 3432 
Q 1894 3584 2278 3584 
Q 2916 3584 3314 3078 
Q 3713 2572 3713 1747 
Q 3713 922 3314 415 
Q 2916 -91 2278 -91 
Q 1894 -91 1617 61 
Q 1341 213 1159 525 
L 1159 0 
L 581 0 
L 581 4863 
L 1159 4863 
L 1159 2969 
z
" transform="scale(0.015625)"/>
      <path id="DejaVuSans-75" d="M 544 1381 
L 544 3500 
L 1119 3500 
L 1119 1403 
Q 1119 906 1312 657 
Q 1506 409 1894 409 
Q 2359 409 2629 706 
Q 2900 1003 2900 1516 
L 2900 3500 
L 3475 3500 
L 3475 0 
L 2900 0 
L 2900 538 
Q 2691 219 2414 64 
Q 2138 -91 1772 -91 
Q 1169 -91 856 284 
Q 544 659 544 1381 
z
M 1991 3584 
L 1991 3584 
z
" transform="scale(0.015625)"/>
      <path id="DejaVuSans-28" d="M 1984 4856 
Q 1566 4138 1362 3434 
Q 1159 2731 1159 2009 
Q 1159 1288 1364 580 
Q 1569 -128 1984 -844 
L 1484 -844 
Q 1016 -109 783 600 
Q 550 1309 550 2009 
Q 550 2706 781 3412 
Q 1013 4119 1484 4856 
L 1984 4856 
z
" transform="scale(0.015625)"/>
      <path id="DejaVuSans-6d" d="M 3328 2828 
Q 3544 3216 3844 3400 
Q 4144 3584 4550 3584 
Q 5097 3584 5394 3201 
Q 5691 2819 5691 2113 
L 5691 0 
L 5113 0 
L 5113 2094 
Q 5113 2597 4934 2840 
Q 4756 3084 4391 3084 
Q 3944 3084 3684 2787 
Q 3425 2491 3425 1978 
L 3425 0 
L 2847 0 
L 2847 2094 
Q 2847 2600 2669 2842 
Q 2491 3084 2119 3084 
Q 1678 3084 1418 2786 
Q 1159 2488 1159 1978 
L 1159 0 
L 581 0 
L 581 3500 
L 1159 3500 
L 1159 2956 
Q 1356 3278 1631 3431 
Q 1906 3584 2284 3584 
Q 2666 3584 2933 3390 
Q 3200 3197 3328 2828 
z
" transform="scale(0.015625)"/>
      <path id="DejaVuSans-68" d="M 3513 2113 
L 3513 0 
L 2938 0 
L 2938 2094 
Q 2938 2591 2744 2837 
Q 2550 3084 2163 3084 
Q 1697 3084 1428 2787 
Q 1159 2491 1159 1978 
L 1159 0 
L 581 0 
L 581 4863 
L 1159 4863 
L 1159 2956 
Q 1366 3272 1645 3428 
Q 1925 3584 2291 3584 
Q 2894 3584 3203 3211 
Q 3513 2838 3513 2113 
z
" transform="scale(0.015625)"/>
      <path id="DejaVuSans-2e" d="M 684 794 
L 1344 794 
L 1344 0 
L 684 0 
L 684 794 
z
" transform="scale(0.015625)"/>
      <path id="DejaVuSans-2c" d="M 750 794 
L 1409 794 
L 1409 256 
L 897 -744 
L 494 -744 
L 750 256 
L 750 794 
z
" transform="scale(0.015625)"/>
      <path id="DejaVuSans-77" d="M 269 3500 
L 844 3500 
L 1563 769 
L 2278 3500 
L 2956 3500 
L 3675 769 
L 4391 3500 
L 4966 3500 
L 4050 0 
L 3372 0 
L 2619 2869 
L 1863 0 
L 1184 0 
L 269 3500 
z
" transform="scale(0.015625)"/>
      <path id="DejaVuSans-64" d="M 2906 2969 
L 2906 4863 
L 3481 4863 
L 3481 0 
L 2906 0 
L 2906 525 
Q 2725 213 2448 61 
Q 2172 -91 1784 -91 
Q 1150 -91 751 415 
Q 353 922 353 1747 
Q 353 2572 751 3078 
Q 1150 3584 1784 3584 
Q 2172 3584 2448 3432 
Q 2725 3281 2906 2969 
z
M 947 1747 
Q 947 1113 1208 752 
Q 1469 391 1925 391 
Q 2381 391 2643 752 
Q 2906 1113 2906 1747 
Q 2906 2381 2643 2742 
Q 2381 3103 1925 3103 
Q 1469 3103 1208 2742 
Q 947 2381 947 1747 
z
" transform="scale(0.015625)"/>
      <path id="DejaVuSans-3d" d="M 678 2906 
L 4684 2906 
L 4684 2381 
L 678 2381 
L 678 2906 
z
M 678 1631 
L 4684 1631 
L 4684 1100 
L 678 1100 
L 678 1631 
z
" transform="scale(0.015625)"/>
      <path id="DejaVuSans-29" d="M 513 4856 
L 1013 4856 
Q 1481 4119 1714 3412 
Q 1947 2706 1947 2009 
Q 1947 1309 1714 600 
Q 1481 -109 1013 -844 
L 513 -844 
Q 928 -128 1133 580 
Q 1338 1288 1338 2009 
Q 1338 2731 1133 3434 
Q 928 4138 513 4856 
z
" transform="scale(0.015625)"/>
     </defs>
     <use xlink:href="#DejaVuSans-52"/>
     <use xlink:href="#DejaVuSans-65" transform="translate(64.982422 0)"/>
     <use xlink:href="#DejaVuSans-70" transform="translate(126.505859 0)"/>
     <use xlink:href="#DejaVuSans-72" transform="translate(189.982422 0)"/>
     <use xlink:href="#DejaVuSans-65" transform="translate(228.845703 0)"/>
     <use xlink:href="#DejaVuSans-73" transform="translate(290.369141 0)"/>
     <use xlink:href="#DejaVuSans-65" transform="translate(342.46875 0)"/>
     <use xlink:href="#DejaVuSans-6e" transform="translate(403.992188 0)"/>
     <use xlink:href="#DejaVuSans-74" transform="translate(467.371094 0)"/>
     <use xlink:href="#DejaVuSans-61" transform="translate(506.580078 0)"/>
     <use xlink:href="#DejaVuSans-74" transform="translate(567.859375 0)"/>
     <use xlink:href="#DejaVuSans-69" transform="translate(607.068359 0)"/>
     <use xlink:href="#DejaVuSans-76" transform="translate(634.851562 0)"/>
     <use xlink:href="#DejaVuSans-65" transform="translate(694.03125 0)"/>
     <use xlink:href="#DejaVuSans-20" transform="translate(755.554688 0)"/>
     <use xlink:href="#DejaVuSans-70" transform="translate(787.341797 0)"/>
     <use xlink:href="#DejaVuSans-65" transform="translate(850.818359 0)"/>
     <use xlink:href="#DejaVuSans-72" transform="translate(912.341797 0)"/>
     <use xlink:href="#DejaVuSans-66" transform="translate(953.455078 0)"/>
     <use xlink:href="#DejaVuSans-2d" transform="translate(983.160156 0)"/>
     <use xlink:href="#DejaVuSans-6f" transform="translate(1021.119141 0)"/>
     <use xlink:href="#DejaVuSans-62" transform="translate(1082.300781 0)"/>
     <use xlink:href="#DejaVuSans-73" transform="translate(1145.777344 0)"/>
     <use xlink:href="#DejaVuSans-65" transform="translate(1197.876953 0)"/>
     <use xlink:href="#DejaVuSans-72" transform="translate(1259.400391 0)"/>
     <use xlink:href="#DejaVuSans-76" transform="translate(1300.513672 0)"/>
     <use xlink:href="#DejaVuSans-61" transform="translate(1359.693359 0)"/>
     <use xlink:href="#DejaVuSans-62" transform="translate(1420.972656 0)"/>
     <use xlink:href="#DejaVuSans-69" transform="translate(1484.449219 0)"/>
     <use xlink:href="#DejaVuSans-6c" transform="translate(1512.232422 0)"/>
     <use xlink:href="#DejaVuSans-69" transform="translate(1540.015625 0)"/>
     <use xlink:href="#DejaVuSans-74" transform="translate(1567.798828 0)"/>
     <use xlink:href="#DejaVuSans-79" transform="translate(1607.007812 0)"/>
     <use xlink:href="#DejaVuSans-20" transform="translate(1666.1875 0)"/>
     <use xlink:href="#DejaVuSans-72" transform="translate(1697.974609 0)"/>
     <use xlink:href="#DejaVuSans-75" transform="translate(1739.087891 0)"/>
     <use xlink:href="#DejaVuSans-6e" transform="translate(1802.466797 0)"/>
     <use xlink:href="#DejaVuSans-20" transform="translate(1865.845703 0)"/>
     <use xlink:href="#DejaVuSans-28" transform="translate(1897.632812 0)"/>
     <use xlink:href="#DejaVuSans-73" transform="translate(1936.646484 0)"/>
     <use xlink:href="#DejaVuSans-69" transform="translate(1988.746094 0)"/>
     <use xlink:href="#DejaVuSans-6d" transform="translate(2016.529297 0)"/>
     <use xlink:href="#DejaVuSans-70" transform="translate(2113.941406 0)"/>
     <use xlink:href="#DejaVuSans-6c" transform="translate(2177.417969 0)"/>
     <use xlink:href="#DejaVuSans-65" transform="translate(2205.201172 0)"/>
     <use xlink:href="#DejaVuSans-5f" transform="translate(2266.724609 0)"/>
     <use xlink:href="#DejaVuSans-63" transform="translate(2316.724609 0)"/>
     <use xlink:href="#DejaVuSans-68" transform="translate(2371.705078 0)"/>
     <use xlink:href="#DejaVuSans-61" transform="translate(2435.083984 0)"/>
     <use xlink:href="#DejaVuSans-69" transform="translate(2496.363281 0)"/>
     <use xlink:href="#DejaVuSans-6e" transform="translate(2524.146484 0)"/>
     <use xlink:href="#DejaVuSans-2e" transform="translate(2587.525391 0)"/>
     <use xlink:href="#DejaVuSans-6e" transform="translate(2619.3125 0)"/>
     <use xlink:href="#DejaVuSans-70" transform="translate(2682.691406 0)"/>
     <use xlink:href="#DejaVuSans-75" transform="translate(2746.167969 0)"/>
     <use xlink:href="#DejaVuSans-2c" transform="translate(2809.546875 0)"/>
     <use xlink:href="#DejaVuSans-20" transform="translate(2841.333984 0)"/>
     <use xlink:href="#DejaVuSans-74" transform="translate(2873.121094 0)"/>
     <use xlink:href="#DejaVuSans-6f" transform="translate(2912.330078 0)"/>
     <use xlink:href="#DejaVuSans-74" transform="translate(2973.511719 0)"/>
     <use xlink:href="#DejaVuSans-61" transform="translate(3012.720703 0)"/>
     <use xlink:href="#DejaVuSans-6c" transform="translate(3074 0)"/>
     <use xlink:href="#DejaVuSans-20" transform="translate(3101.783203 0)"/>
     <use xlink:href="#DejaVuSans-72" transform="translate(3133.570312 0)"/>
     <use xlink:href="#DejaVuSans-75" transform="translate(3174.683594 0)"/>
     <use xlink:href="#DejaVuSans-6e" transform="translate(3238.0625 0)"/>
     <use xlink:href="#DejaVuSans-20" transform="translate(3301.441406 0)"/>
     <use xlink:href="#DejaVuSans-77" transform="translate(3333.228516 0)"/>
     <use xlink:href="#DejaVuSans-69" transform="translate(3415.015625 0)"/>
     <use xlink:href="#DejaVuSans-6e" transform="translate(3442.798828 0)"/>
     <use xlink:href="#DejaVuSans-64" transform="translate(3506.177734 0)"/>
     <use xlink:href="#DejaVuSans-6f" transform="translate(3569.654297 0)"/>
     <use xlink:href="#DejaVuSans-77" transform="translate(3630.835938 0)"/>
     <use xlink:href="#DejaVuSans-20" transform="translate(3712.623047 0)"/>
     <use xlink:href="#DejaVuSans-3d" transform="translate(3744.410156 0)"/>
     <use xlink:href="#DejaVuSans-20" transform="translate(3828.199219 0)"/>
     <use xlink:href="#DejaVuSans-34" transform="translate(3859.986328 0)"/>
     <use xlink:href="#DejaVuSans-32" transform="translate(3923.609375 0)"/>
     <use xlink:href="#DejaVuSans-38" transform="translate(3987.232422 0)"/>
     <use xlink:href="#DejaVuSans-20" transform="translate(4050.855469 0)"/>
     <use xlink:href="#DejaVuSans-63" transform="translate(4082.642578 0)"/>
     <use xlink:href="#DejaVuSans-79" transform="translate(4137.623047 0)"/>
     <use xlink:href="#DejaVuSans-63" transform="translate(4196.802734 0)"/>
     <use xlink:href="#DejaVuSans-6c" transform="translate(4251.783203 0)"/>
     <use xlink:href="#DejaVuSans-65" transform="translate(4279.566406 0)"/>
     <use xlink:href="#DejaVuSans-73" transform="translate(4341.089844 0)"/>
     <use xlink:href="#DejaVuSans-29" transform="translate(4393.189453 0)"/>
    </g>
   </g>
  </g>
  <g id="axes_2">
   <g id="patch_17">
    <path d="M 91.536178 427.44351 
L 659.39976 427.44351 
L 659.39976 297.979659 
L 91.536178 297.979659 
z
" style="fill: #ffffff"/>
   </g>
   <g id="matplotlib.axis_3">
    <g id="xtick_9">
     <g id="line2d_27">
      <path d="M 91.536178 427.44351 
L 91.536178 297.979659 
" clip-path="url(#pe72485b840)" style="fill: none; stroke: #dadada; stroke-width: 0.6; stroke-linecap: square"/>
     </g>
     <g id="line2d_28">
      <g>
       <use xlink:href="#m4c96ea3d85" x="91.536178" y="427.44351" style="stroke: #000000; stroke-width: 0.8"/>
      </g>
     </g>
     <g id="text_31">
      <!-- 0 -->
      <g transform="translate(88.354928 442.041947) scale(0.1 -0.1)">
       <use xlink:href="#DejaVuSans-30"/>
      </g>
     </g>
    </g>
    <g id="xtick_10">
     <g id="line2d_29">
      <path d="M 199.700669 427.44351 
L 199.700669 297.979659 
" clip-path="url(#pe72485b840)" style="fill: none; stroke: #dadada; stroke-width: 0.6; stroke-linecap: square"/>
     </g>
     <g id="line2d_30">
      <g>
       <use xlink:href="#m4c96ea3d85" x="199.700669" y="427.44351" style="stroke: #000000; stroke-width: 0.8"/>
      </g>
     </g>
     <g id="text_32">
      <!-- 2 -->
      <g transform="translate(196.519419 442.041947) scale(0.1 -0.1)">
       <use xlink:href="#DejaVuSans-32"/>
      </g>
     </g>
    </g>
    <g id="xtick_11">
     <g id="line2d_31">
      <path d="M 307.865161 427.44351 
L 307.865161 297.979659 
" clip-path="url(#pe72485b840)" style="fill: none; stroke: #dadada; stroke-width: 0.6; stroke-linecap: square"/>
     </g>
     <g id="line2d_32">
      <g>
       <use xlink:href="#m4c96ea3d85" x="307.865161" y="427.44351" style="stroke: #000000; stroke-width: 0.8"/>
      </g>
     </g>
     <g id="text_33">
      <!-- 4 -->
      <g transform="translate(304.683911 442.041947) scale(0.1 -0.1)">
       <use xlink:href="#DejaVuSans-34"/>
      </g>
     </g>
    </g>
    <g id="xtick_12">
     <g id="line2d_33">
      <path d="M 416.029653 427.44351 
L 416.029653 297.979659 
" clip-path="url(#pe72485b840)" style="fill: none; stroke: #dadada; stroke-width: 0.6; stroke-linecap: square"/>
     </g>
     <g id="line2d_34">
      <g>
       <use xlink:href="#m4c96ea3d85" x="416.029653" y="427.44351" style="stroke: #000000; stroke-width: 0.8"/>
      </g>
     </g>
     <g id="text_34">
      <!-- 6 -->
      <g transform="translate(412.848403 442.041947) scale(0.1 -0.1)">
       <use xlink:href="#DejaVuSans-36"/>
      </g>
     </g>
    </g>
    <g id="xtick_13">
     <g id="line2d_35">
      <path d="M 524.194145 427.44351 
L 524.194145 297.979659 
" clip-path="url(#pe72485b840)" style="fill: none; stroke: #dadada; stroke-width: 0.6; stroke-linecap: square"/>
     </g>
     <g id="line2d_36">
      <g>
       <use xlink:href="#m4c96ea3d85" x="524.194145" y="427.44351" style="stroke: #000000; stroke-width: 0.8"/>
      </g>
     </g>
     <g id="text_35">
      <!-- 8 -->
      <g transform="translate(521.012895 442.041947) scale(0.1 -0.1)">
       <use xlink:href="#DejaVuSans-38"/>
      </g>
     </g>
    </g>
    <g id="xtick_14">
     <g id="line2d_37">
      <path d="M 632.358637 427.44351 
L 632.358637 297.979659 
" clip-path="url(#pe72485b840)" style="fill: none; stroke: #dadada; stroke-width: 0.6; stroke-linecap: square"/>
     </g>
     <g id="line2d_38">
      <g>
       <use xlink:href="#m4c96ea3d85" x="632.358637" y="427.44351" style="stroke: #000000; stroke-width: 0.8"/>
      </g>
     </g>
     <g id="text_36">
      <!-- 10 -->
      <g transform="translate(625.996137 442.041947) scale(0.1 -0.1)">
       <use xlink:href="#DejaVuSans-31"/>
       <use xlink:href="#DejaVuSans-30" transform="translate(63.623047 0)"/>
      </g>
     </g>
    </g>
    <g id="text_37">
     <!-- Entry count -->
     <g transform="translate(346.469531 455.720073) scale(0.1 -0.1)">
      <use xlink:href="#DejaVuSans-45"/>
      <use xlink:href="#DejaVuSans-6e" transform="translate(63.183594 0)"/>
      <use xlink:href="#DejaVuSans-74" transform="translate(126.5625 0)"/>
      <use xlink:href="#DejaVuSans-72" transform="translate(165.771484 0)"/>
      <use xlink:href="#DejaVuSans-79" transform="translate(206.884766 0)"/>
      <use xlink:href="#DejaVuSans-20" transform="translate(266.064453 0)"/>
      <use xlink:href="#DejaVuSans-63" transform="translate(297.851562 0)"/>
      <use xlink:href="#DejaVuSans-6f" transform="translate(352.832031 0)"/>
      <use xlink:href="#DejaVuSans-75" transform="translate(414.013672 0)"/>
      <use xlink:href="#DejaVuSans-6e" transform="translate(477.392578 0)"/>
      <use xlink:href="#DejaVuSans-74" transform="translate(540.771484 0)"/>
     </g>
    </g>
   </g>
   <g id="matplotlib.axis_4">
    <g id="ytick_11">
     <g id="line2d_39">
      <g>
       <use xlink:href="#m50cf51be37" x="91.536178" y="308.668233" style="stroke: #000000; stroke-width: 0.8"/>
      </g>
     </g>
     <g id="text_38">
      <!-- IDLE -->
      <g transform="translate(61.995553 312.467452) scale(0.1 -0.1)">
       <use xlink:href="#DejaVuSans-49"/>
       <use xlink:href="#DejaVuSans-44" transform="translate(29.492188 0)"/>
       <use xlink:href="#DejaVuSans-4c" transform="translate(106.494141 0)"/>
       <use xlink:href="#DejaVuSans-45" transform="translate(162.207031 0)"/>
      </g>
     </g>
    </g>
    <g id="ytick_12">
     <g id="line2d_40">
      <g>
       <use xlink:href="#m50cf51be37" x="91.536178" y="320.677867" style="stroke: #000000; stroke-width: 0.8"/>
      </g>
     </g>
     <g id="text_39">
      <!-- HOST_WRITE -->
      <g transform="translate(19.47524 324.388804) scale(0.1 -0.1)">
       <use xlink:href="#DejaVuSans-48"/>
       <use xlink:href="#DejaVuSans-4f" transform="translate(75.195312 0)"/>
       <use xlink:href="#DejaVuSans-53" transform="translate(153.90625 0)"/>
       <use xlink:href="#DejaVuSans-54" transform="translate(217.382812 0)"/>
       <use xlink:href="#DejaVuSans-5f" transform="translate(278.466797 0)"/>
       <use xlink:href="#DejaVuSans-57" transform="translate(328.466797 0)"/>
       <use xlink:href="#DejaVuSans-52" transform="translate(427.34375 0)"/>
       <use xlink:href="#DejaVuSans-49" transform="translate(496.826172 0)"/>
       <use xlink:href="#DejaVuSans-54" transform="translate(526.318359 0)"/>
       <use xlink:href="#DejaVuSans-45" transform="translate(587.402344 0)"/>
      </g>
     </g>
    </g>
    <g id="ytick_13">
     <g id="line2d_41">
      <g>
       <use xlink:href="#m50cf51be37" x="91.536178" y="332.6875" style="stroke: #000000; stroke-width: 0.8"/>
      </g>
     </g>
     <g id="text_40">
      <!-- FETCH -->
      <g transform="translate(52.442428 336.486719) scale(0.1 -0.1)">
       <use xlink:href="#DejaVuSans-46"/>
       <use xlink:href="#DejaVuSans-45" transform="translate(57.519531 0)"/>
       <use xlink:href="#DejaVuSans-54" transform="translate(120.703125 0)"/>
       <use xlink:href="#DejaVuSans-43" transform="translate(175.912109 0)"/>
       <use xlink:href="#DejaVuSans-48" transform="translate(245.736328 0)"/>
      </g>
     </g>
    </g>
    <g id="ytick_14">
     <g id="line2d_42">
      <g>
       <use xlink:href="#m50cf51be37" x="91.536178" y="344.697134" style="stroke: #000000; stroke-width: 0.8"/>
      </g>
     </g>
     <g id="text_41">
      <!-- DECODE -->
      <g transform="translate(41.64399 348.496353) scale(0.1 -0.1)">
       <use xlink:href="#DejaVuSans-44"/>
       <use xlink:href="#DejaVuSans-45" transform="translate(77.001953 0)"/>
       <use xlink:href="#DejaVuSans-43" transform="translate(140.185547 0)"/>
       <use xlink:href="#DejaVuSans-4f" transform="translate(210.009766 0)"/>
       <use xlink:href="#DejaVuSans-44" transform="translate(288.720703 0)"/>
       <use xlink:href="#DejaVuSans-45" transform="translate(365.722656 0)"/>
      </g>
     </g>
    </g>
    <g id="ytick_15">
     <g id="line2d_43">
      <g>
       <use xlink:href="#m50cf51be37" x="91.536178" y="356.706768" style="stroke: #000000; stroke-width: 0.8"/>
      </g>
     </g>
     <g id="text_42">
      <!-- EXEC_MATMUL -->
      <g transform="translate(10.745553 360.417705) scale(0.1 -0.1)">
       <use xlink:href="#DejaVuSans-45"/>
       <use xlink:href="#DejaVuSans-58" transform="translate(63.183594 0)"/>
       <use xlink:href="#DejaVuSans-45" transform="translate(131.689453 0)"/>
       <use xlink:href="#DejaVuSans-43" transform="translate(194.873047 0)"/>
       <use xlink:href="#DejaVuSans-5f" transform="translate(264.697266 0)"/>
       <use xlink:href="#DejaVuSans-4d" transform="translate(314.697266 0)"/>
       <use xlink:href="#DejaVuSans-41" transform="translate(400.976562 0)"/>
       <use xlink:href="#DejaVuSans-54" transform="translate(461.634766 0)"/>
       <use xlink:href="#DejaVuSans-4d" transform="translate(522.71875 0)"/>
       <use xlink:href="#DejaVuSans-55" transform="translate(608.998047 0)"/>
       <use xlink:href="#DejaVuSans-4c" transform="translate(682.191406 0)"/>
      </g>
     </g>
    </g>
    <g id="ytick_16">
     <g id="line2d_44">
      <g>
       <use xlink:href="#m50cf51be37" x="91.536178" y="368.716401" style="stroke: #000000; stroke-width: 0.8"/>
      </g>
     </g>
     <g id="text_43">
      <!-- MM_CLEAR -->
      <g transform="translate(29.617428 372.427339) scale(0.1 -0.1)">
       <use xlink:href="#DejaVuSans-4d"/>
       <use xlink:href="#DejaVuSans-4d" transform="translate(86.279297 0)"/>
       <use xlink:href="#DejaVuSans-5f" transform="translate(172.558594 0)"/>
       <use xlink:href="#DejaVuSans-43" transform="translate(222.558594 0)"/>
       <use xlink:href="#DejaVuSans-4c" transform="translate(292.382812 0)"/>
       <use xlink:href="#DejaVuSans-45" transform="translate(348.095703 0)"/>
       <use xlink:href="#DejaVuSans-41" transform="translate(411.279297 0)"/>
       <use xlink:href="#DejaVuSans-52" transform="translate(479.6875 0)"/>
      </g>
     </g>
    </g>
    <g id="ytick_17">
     <g id="line2d_45">
      <g>
       <use xlink:href="#m50cf51be37" x="91.536178" y="380.726035" style="stroke: #000000; stroke-width: 0.8"/>
      </g>
     </g>
     <g id="text_44">
      <!-- MM_FEED -->
      <g transform="translate(36.190865 384.386191) scale(0.1 -0.1)">
       <use xlink:href="#DejaVuSans-4d"/>
       <use xlink:href="#DejaVuSans-4d" transform="translate(86.279297 0)"/>
       <use xlink:href="#DejaVuSans-5f" transform="translate(172.558594 0)"/>
       <use xlink:href="#DejaVuSans-46" transform="translate(222.558594 0)"/>
       <use xlink:href="#DejaVuSans-45" transform="translate(280.078125 0)"/>
       <use xlink:href="#DejaVuSans-45" transform="translate(343.261719 0)"/>
       <use xlink:href="#DejaVuSans-44" transform="translate(406.445312 0)"/>
      </g>
     </g>
    </g>
    <g id="ytick_18">
     <g id="line2d_46">
      <g>
       <use xlink:href="#m50cf51be37" x="91.536178" y="392.735669" style="stroke: #000000; stroke-width: 0.8"/>
      </g>
     </g>
     <g id="text_45">
      <!-- MM_WAIT -->
      <g transform="translate(37.04399 396.395825) scale(0.1 -0.1)">
       <use xlink:href="#DejaVuSans-4d"/>
       <use xlink:href="#DejaVuSans-4d" transform="translate(86.279297 0)"/>
       <use xlink:href="#DejaVuSans-5f" transform="translate(172.558594 0)"/>
       <use xlink:href="#DejaVuSans-57" transform="translate(222.558594 0)"/>
       <use xlink:href="#DejaVuSans-41" transform="translate(315.935547 0)"/>
       <use xlink:href="#DejaVuSans-49" transform="translate(384.34375 0)"/>
       <use xlink:href="#DejaVuSans-54" transform="translate(413.835938 0)"/>
      </g>
     </g>
    </g>
    <g id="ytick_19">
     <g id="line2d_47">
      <g>
       <use xlink:href="#m50cf51be37" x="91.536178" y="404.745302" style="stroke: #000000; stroke-width: 0.8"/>
      </g>
     </g>
     <g id="text_46">
      <!-- MM_DRAIN_SA -->
      <g transform="translate(12.383053 408.45624) scale(0.1 -0.1)">
       <use xlink:href="#DejaVuSans-4d"/>
       <use xlink:href="#DejaVuSans-4d" transform="translate(86.279297 0)"/>
       <use xlink:href="#DejaVuSans-5f" transform="translate(172.558594 0)"/>
       <use xlink:href="#DejaVuSans-44" transform="translate(222.558594 0)"/>
       <use xlink:href="#DejaVuSans-52" transform="translate(299.560547 0)"/>
       <use xlink:href="#DejaVuSans-41" transform="translate(365.042969 0)"/>
       <use xlink:href="#DejaVuSans-49" transform="translate(433.451172 0)"/>
       <use xlink:href="#DejaVuSans-4e" transform="translate(462.943359 0)"/>
       <use xlink:href="#DejaVuSans-5f" transform="translate(537.748047 0)"/>
       <use xlink:href="#DejaVuSans-53" transform="translate(587.748047 0)"/>
       <use xlink:href="#DejaVuSans-41" transform="translate(653.099609 0)"/>
      </g>
     </g>
    </g>
    <g id="ytick_20">
     <g id="line2d_48">
      <g>
       <use xlink:href="#m50cf51be37" x="91.536178" y="416.754936" style="stroke: #000000; stroke-width: 0.8"/>
      </g>
     </g>
     <g id="text_47">
      <!-- MM_WRITEBACK -->
      <g transform="translate(3.00024 420.465874) scale(0.1 -0.1)">
       <use xlink:href="#DejaVuSans-4d"/>
       <use xlink:href="#DejaVuSans-4d" transform="translate(86.279297 0)"/>
       <use xlink:href="#DejaVuSans-5f" transform="translate(172.558594 0)"/>
       <use xlink:href="#DejaVuSans-57" transform="translate(222.558594 0)"/>
       <use xlink:href="#DejaVuSans-52" transform="translate(321.435547 0)"/>
       <use xlink:href="#DejaVuSans-49" transform="translate(390.917969 0)"/>
       <use xlink:href="#DejaVuSans-54" transform="translate(420.410156 0)"/>
       <use xlink:href="#DejaVuSans-45" transform="translate(481.494141 0)"/>
       <use xlink:href="#DejaVuSans-42" transform="translate(544.677734 0)"/>
       <use xlink:href="#DejaVuSans-41" transform="translate(613.28125 0)"/>
       <use xlink:href="#DejaVuSans-43" transform="translate(679.939453 0)"/>
       <use xlink:href="#DejaVuSans-4b" transform="translate(749.763672 0)"/>
      </g>
     </g>
    </g>
   </g>
   <g id="patch_18">
    <path d="M 91.536178 303.86438 
L 145.618423 303.86438 
L 145.618423 313.472087 
L 91.536178 313.472087 
z
" clip-path="url(#pe72485b840)" style="fill: #d9a441; stroke: #2a2a2a; stroke-width: 0.8; stroke-linejoin: miter"/>
   </g>
   <g id="patch_19">
    <path d="M 91.536178 315.874013 
L 91.536178 315.874013 
L 91.536178 325.48172 
L 91.536178 325.48172 
z
" clip-path="url(#pe72485b840)" style="fill: #d9a441; stroke: #2a2a2a; stroke-width: 0.8; stroke-linejoin: miter"/>
   </g>
   <g id="patch_20">
    <path d="M 91.536178 327.883647 
L 253.782915 327.883647 
L 253.782915 337.491354 
L 91.536178 337.491354 
z
" clip-path="url(#pe72485b840)" style="fill: #6d6e71; stroke: #2a2a2a; stroke-width: 0.8; stroke-linejoin: miter"/>
   </g>
   <g id="patch_21">
    <path d="M 91.536178 339.893281 
L 253.782915 339.893281 
L 253.782915 349.500988 
L 91.536178 349.500988 
z
" clip-path="url(#pe72485b840)" style="fill: #6d6e71; stroke: #2a2a2a; stroke-width: 0.8; stroke-linejoin: miter"/>
   </g>
   <g id="patch_22">
    <path d="M 91.536178 351.902914 
L 632.358637 351.902914 
L 632.358637 361.510621 
L 91.536178 361.510621 
z
" clip-path="url(#pe72485b840)" style="fill: #4a7ebb; stroke: #2a2a2a; stroke-width: 0.8; stroke-linejoin: miter"/>
   </g>
   <g id="patch_23">
    <path d="M 91.536178 363.912548 
L 524.194145 363.912548 
L 524.194145 373.520255 
L 91.536178 373.520255 
z
" clip-path="url(#pe72485b840)" style="fill: #4a7ebb; stroke: #2a2a2a; stroke-width: 0.8; stroke-linejoin: miter"/>
   </g>
   <g id="patch_24">
    <path d="M 91.536178 375.922182 
L 524.194145 375.922182 
L 524.194145 385.529889 
L 91.536178 385.529889 
z
" clip-path="url(#pe72485b840)" style="fill: #4a7ebb; stroke: #2a2a2a; stroke-width: 0.8; stroke-linejoin: miter"/>
   </g>
   <g id="patch_25">
    <path d="M 91.536178 387.931815 
L 524.194145 387.931815 
L 524.194145 397.539522 
L 91.536178 397.539522 
z
" clip-path="url(#pe72485b840)" style="fill: #4a7ebb; stroke: #2a2a2a; stroke-width: 0.8; stroke-linejoin: miter"/>
   </g>
   <g id="patch_26">
    <path d="M 91.536178 399.941449 
L 524.194145 399.941449 
L 524.194145 409.549156 
L 91.536178 409.549156 
z
" clip-path="url(#pe72485b840)" style="fill: #4a7ebb; stroke: #2a2a2a; stroke-width: 0.8; stroke-linejoin: miter"/>
   </g>
   <g id="patch_27">
    <path d="M 91.536178 411.951083 
L 524.194145 411.951083 
L 524.194145 421.55879 
L 91.536178 421.55879 
z
" clip-path="url(#pe72485b840)" style="fill: #4a7ebb; stroke: #2a2a2a; stroke-width: 0.8; stroke-linejoin: miter"/>
   </g>
   <g id="patch_28">
    <path d="M 91.536178 427.44351 
L 91.536178 297.979659 
" style="fill: none; stroke: #000000; stroke-width: 0.8; stroke-linejoin: miter; stroke-linecap: square"/>
   </g>
   <g id="patch_29">
    <path d="M 659.39976 427.44351 
L 659.39976 297.979659 
" style="fill: none; stroke: #000000; stroke-width: 0.8; stroke-linejoin: miter; stroke-linecap: square"/>
   </g>
   <g id="patch_30">
    <path d="M 91.536178 427.44351 
L 659.39976 427.44351 
" style="fill: none; stroke: #000000; stroke-width: 0.8; stroke-linejoin: miter; stroke-linecap: square"/>
   </g>
   <g id="patch_31">
    <path d="M 91.536178 297.979659 
L 659.39976 297.979659 
" style="fill: none; stroke: #000000; stroke-width: 0.8; stroke-linejoin: miter; stroke-linecap: square"/>
   </g>
   <g id="text_48">
    <!-- 1 -->
    <g transform="translate(153.73076 311.151671) scale(0.09 -0.09)">
     <use xlink:href="#DejaVuSans-31"/>
    </g>
   </g>
   <g id="text_49">
    <!-- 0 -->
    <g transform="translate(99.648514 323.161304) scale(0.09 -0.09)">
     <use xlink:href="#DejaVuSans-30"/>
    </g>
   </g>
   <g id="text_50">
    <!-- 3 -->
    <g transform="translate(261.895252 335.170938) scale(0.09 -0.09)">
     <use xlink:href="#DejaVuSans-33"/>
    </g>
   </g>
   <g id="text_51">
    <!-- 3 -->
    <g transform="translate(261.895252 347.180572) scale(0.09 -0.09)">
     <use xlink:href="#DejaVuSans-33"/>
    </g>
   </g>
   <g id="text_52">
    <!-- 10 -->
    <g transform="translate(640.470974 359.190205) scale(0.09 -0.09)">
     <use xlink:href="#DejaVuSans-31"/>
     <use xlink:href="#DejaVuSans-30" transform="translate(63.623047 0)"/>
    </g>
   </g>
   <g id="text_53">
    <!-- 8 -->
    <g transform="translate(532.306482 371.199839) scale(0.09 -0.09)">
     <use xlink:href="#DejaVuSans-38"/>
    </g>
   </g>
   <g id="text_54">
    <!-- 8 -->
    <g transform="translate(532.306482 383.209473) scale(0.09 -0.09)">
     <use xlink:href="#DejaVuSans-38"/>
    </g>
   </g>
   <g id="text_55">
    <!-- 8 -->
    <g transform="translate(532.306482 395.219106) scale(0.09 -0.09)">
     <use xlink:href="#DejaVuSans-38"/>
    </g>
   </g>
   <g id="text_56">
    <!-- 8 -->
    <g transform="translate(532.306482 407.22874) scale(0.09 -0.09)">
     <use xlink:href="#DejaVuSans-38"/>
    </g>
   </g>
   <g id="text_57">
    <!-- 8 -->
    <g transform="translate(532.306482 419.238374) scale(0.09 -0.09)">
     <use xlink:href="#DejaVuSans-38"/>
    </g>
   </g>
  </g>
  <g id="text_58">
   <!-- Zero-cycle states omitted: CTRL_HOST_READ, CTRL_READ_WAIT, CTRL_EXEC_MOVE, CTRL_MM_LOAD_BIAS, CTRL_HALT -->
   <g style="fill: #444444" transform="translate(7.9488 457.1136) scale(0.085 -0.085)">
    <defs>
     <path id="DejaVuSans-5a" d="M 359 4666 
L 4025 4666 
L 4025 4184 
L 1075 531 
L 4097 531 
L 4097 0 
L 288 0 
L 288 481 
L 3238 4134 
L 359 4134 
L 359 4666 
z
" transform="scale(0.015625)"/>
     <path id="DejaVuSans-3a" d="M 750 794 
L 1409 794 
L 1409 0 
L 750 0 
L 750 794 
z
M 750 3309 
L 1409 3309 
L 1409 2516 
L 750 2516 
L 750 3309 
z
" transform="scale(0.015625)"/>
     <path id="DejaVuSans-56" d="M 1831 0 
L 50 4666 
L 709 4666 
L 2188 738 
L 3669 4666 
L 4325 4666 
L 2547 0 
L 1831 0 
z
" transform="scale(0.015625)"/>
    </defs>
    <use xlink:href="#DejaVuSans-5a"/>
    <use xlink:href="#DejaVuSans-65" transform="translate(68.505859 0)"/>
    <use xlink:href="#DejaVuSans-72" transform="translate(130.029297 0)"/>
    <use xlink:href="#DejaVuSans-6f" transform="translate(168.892578 0)"/>
    <use xlink:href="#DejaVuSans-2d" transform="translate(231.949219 0)"/>
    <use xlink:href="#DejaVuSans-63" transform="translate(268.033203 0)"/>
    <use xlink:href="#DejaVuSans-79" transform="translate(323.013672 0)"/>
    <use xlink:href="#DejaVuSans-63" transform="translate(382.193359 0)"/>
    <use xlink:href="#DejaVuSans-6c" transform="translate(437.173828 0)"/>
    <use xlink:href="#DejaVuSans-65" transform="translate(464.957031 0)"/>
    <use xlink:href="#DejaVuSans-20" transform="translate(526.480469 0)"/>
    <use xlink:href="#DejaVuSans-73" transform="translate(558.267578 0)"/>
    <use xlink:href="#DejaVuSans-74" transform="translate(610.367188 0)"/>
    <use xlink:href="#DejaVuSans-61" transform="translate(649.576172 0)"/>
    <use xlink:href="#DejaVuSans-74" transform="translate(710.855469 0)"/>
    <use xlink:href="#DejaVuSans-65" transform="translate(750.064453 0)"/>
    <use xlink:href="#DejaVuSans-73" transform="translate(811.587891 0)"/>
    <use xlink:href="#DejaVuSans-20" transform="translate(863.6875 0)"/>
    <use xlink:href="#DejaVuSans-6f" transform="translate(895.474609 0)"/>
    <use xlink:href="#DejaVuSans-6d" transform="translate(956.65625 0)"/>
    <use xlink:href="#DejaVuSans-69" transform="translate(1054.068359 0)"/>
    <use xlink:href="#DejaVuSans-74" transform="translate(1081.851562 0)"/>
    <use xlink:href="#DejaVuSans-74" transform="translate(1121.060547 0)"/>
    <use xlink:href="#DejaVuSans-65" transform="translate(1160.269531 0)"/>
    <use xlink:href="#DejaVuSans-64" transform="translate(1221.792969 0)"/>
    <use xlink:href="#DejaVuSans-3a" transform="translate(1285.269531 0)"/>
    <use xlink:href="#DejaVuSans-20" transform="translate(1318.960938 0)"/>
    <use xlink:href="#DejaVuSans-43" transform="translate(1350.748047 0)"/>
    <use xlink:href="#DejaVuSans-54" transform="translate(1420.572266 0)"/>
    <use xlink:href="#DejaVuSans-52" transform="translate(1481.65625 0)"/>
    <use xlink:href="#DejaVuSans-4c" transform="translate(1551.138672 0)"/>
    <use xlink:href="#DejaVuSans-5f" transform="translate(1606.851562 0)"/>
    <use xlink:href="#DejaVuSans-48" transform="translate(1656.851562 0)"/>
    <use xlink:href="#DejaVuSans-4f" transform="translate(1732.046875 0)"/>
    <use xlink:href="#DejaVuSans-53" transform="translate(1810.757812 0)"/>
    <use xlink:href="#DejaVuSans-54" transform="translate(1874.234375 0)"/>
    <use xlink:href="#DejaVuSans-5f" transform="translate(1935.318359 0)"/>
    <use xlink:href="#DejaVuSans-52" transform="translate(1985.318359 0)"/>
    <use xlink:href="#DejaVuSans-45" transform="translate(2054.800781 0)"/>
    <use xlink:href="#DejaVuSans-41" transform="translate(2117.984375 0)"/>
    <use xlink:href="#DejaVuSans-44" transform="translate(2186.392578 0)"/>
    <use xlink:href="#DejaVuSans-2c" transform="translate(2263.394531 0)"/>
    <use xlink:href="#DejaVuSans-20" transform="translate(2295.181641 0)"/>
    <use xlink:href="#DejaVuSans-43" transform="translate(2326.96875 0)"/>
    <use xlink:href="#DejaVuSans-54" transform="translate(2396.792969 0)"/>
    <use xlink:href="#DejaVuSans-52" transform="translate(2457.876953 0)"/>
    <use xlink:href="#DejaVuSans-4c" transform="translate(2527.359375 0)"/>
    <use xlink:href="#DejaVuSans-5f" transform="translate(2583.072266 0)"/>
    <use xlink:href="#DejaVuSans-52" transform="translate(2633.072266 0)"/>
    <use xlink:href="#DejaVuSans-45" transform="translate(2702.554688 0)"/>
    <use xlink:href="#DejaVuSans-41" transform="translate(2765.738281 0)"/>
    <use xlink:href="#DejaVuSans-44" transform="translate(2834.146484 0)"/>
    <use xlink:href="#DejaVuSans-5f" transform="translate(2911.148438 0)"/>
    <use xlink:href="#DejaVuSans-57" transform="translate(2961.148438 0)"/>
    <use xlink:href="#DejaVuSans-41" transform="translate(3054.525391 0)"/>
    <use xlink:href="#DejaVuSans-49" transform="translate(3122.933594 0)"/>
    <use xlink:href="#DejaVuSans-54" transform="translate(3152.425781 0)"/>
    <use xlink:href="#DejaVuSans-2c" transform="translate(3213.509766 0)"/>
    <use xlink:href="#DejaVuSans-20" transform="translate(3245.296875 0)"/>
    <use xlink:href="#DejaVuSans-43" transform="translate(3277.083984 0)"/>
    <use xlink:href="#DejaVuSans-54" transform="translate(3346.908203 0)"/>
    <use xlink:href="#DejaVuSans-52" transform="translate(3407.992188 0)"/>
    <use xlink:href="#DejaVuSans-4c" transform="translate(3477.474609 0)"/>
    <use xlink:href="#DejaVuSans-5f" transform="translate(3533.1875 0)"/>
    <use xlink:href="#DejaVuSans-45" transform="translate(3583.1875 0)"/>
    <use xlink:href="#DejaVuSans-58" transform="translate(3646.371094 0)"/>
    <use xlink:href="#DejaVuSans-45" transform="translate(3714.876953 0)"/>
    <use xlink:href="#DejaVuSans-43" transform="translate(3778.060547 0)"/>
    <use xlink:href="#DejaVuSans-5f" transform="translate(3847.884766 0)"/>
    <use xlink:href="#DejaVuSans-4d" transform="translate(3897.884766 0)"/>
    <use xlink:href="#DejaVuSans-4f" transform="translate(3984.164062 0)"/>
    <use xlink:href="#DejaVuSans-56" transform="translate(4061.125 0)"/>
    <use xlink:href="#DejaVuSans-45" transform="translate(4129.533203 0)"/>
    <use xlink:href="#DejaVuSans-2c" transform="translate(4192.716797 0)"/>
    <use xlink:href="#DejaVuSans-20" transform="translate(4224.503906 0)"/>
    <use xlink:href="#DejaVuSans-43" transform="translate(4256.291016 0)"/>
    <use xlink:href="#DejaVuSans-54" transform="translate(4326.115234 0)"/>
    <use xlink:href="#DejaVuSans-52" transform="translate(4387.199219 0)"/>
    <use xlink:href="#DejaVuSans-4c" transform="translate(4456.681641 0)"/>
    <use xlink:href="#DejaVuSans-5f" transform="translate(4512.394531 0)"/>
    <use xlink:href="#DejaVuSans-4d" transform="translate(4562.394531 0)"/>
    <use xlink:href="#DejaVuSans-4d" transform="translate(4648.673828 0)"/>
    <use xlink:href="#DejaVuSans-5f" transform="translate(4734.953125 0)"/>
    <use xlink:href="#DejaVuSans-4c" transform="translate(4784.953125 0)"/>
    <use xlink:href="#DejaVuSans-4f" transform="translate(4837.041016 0)"/>
    <use xlink:href="#DejaVuSans-41" transform="translate(4914.001953 0)"/>
    <use xlink:href="#DejaVuSans-44" transform="translate(4982.410156 0)"/>
    <use xlink:href="#DejaVuSans-5f" transform="translate(5059.412109 0)"/>
    <use xlink:href="#DejaVuSans-42" transform="translate(5109.412109 0)"/>
    <use xlink:href="#DejaVuSans-49" transform="translate(5178.015625 0)"/>
    <use xlink:href="#DejaVuSans-41" transform="translate(5207.507812 0)"/>
    <use xlink:href="#DejaVuSans-53" transform="translate(5275.916016 0)"/>
    <use xlink:href="#DejaVuSans-2c" transform="translate(5339.392578 0)"/>
    <use xlink:href="#DejaVuSans-20" transform="translate(5371.179688 0)"/>
    <use xlink:href="#DejaVuSans-43" transform="translate(5402.966797 0)"/>
    <use xlink:href="#DejaVuSans-54" transform="translate(5472.791016 0)"/>
    <use xlink:href="#DejaVuSans-52" transform="translate(5533.875 0)"/>
    <use xlink:href="#DejaVuSans-4c" transform="translate(5603.357422 0)"/>
    <use xlink:href="#DejaVuSans-5f" transform="translate(5659.070312 0)"/>
    <use xlink:href="#DejaVuSans-48" transform="translate(5709.070312 0)"/>
    <use xlink:href="#DejaVuSans-41" transform="translate(5784.265625 0)"/>
    <use xlink:href="#DejaVuSans-4c" transform="translate(5852.673828 0)"/>
    <use xlink:href="#DejaVuSans-54" transform="translate(5894.636719 0)"/>
   </g>
  </g>
  <g id="legend_1">
   <g id="patch_32">
    <path d="M 504.68125 16.598437 
L 524.68125 16.598437 
L 524.68125 9.598437 
L 504.68125 9.598437 
z
" style="fill: #d9a441; stroke: #2a2a2a; stroke-linejoin: miter"/>
   </g>
   <g id="text_59">
    <!-- Host service -->
    <g transform="translate(532.68125 16.598437) scale(0.1 -0.1)">
     <use xlink:href="#DejaVuSans-48"/>
     <use xlink:href="#DejaVuSans-6f" transform="translate(75.195312 0)"/>
     <use xlink:href="#DejaVuSans-73" transform="translate(136.376953 0)"/>
     <use xlink:href="#DejaVuSans-74" transform="translate(188.476562 0)"/>
     <use xlink:href="#DejaVuSans-20" transform="translate(227.685547 0)"/>
     <use xlink:href="#DejaVuSans-73" transform="translate(259.472656 0)"/>
     <use xlink:href="#DejaVuSans-65" transform="translate(311.572266 0)"/>
     <use xlink:href="#DejaVuSans-72" transform="translate(373.095703 0)"/>
     <use xlink:href="#DejaVuSans-76" transform="translate(414.208984 0)"/>
     <use xlink:href="#DejaVuSans-69" transform="translate(473.388672 0)"/>
     <use xlink:href="#DejaVuSans-63" transform="translate(501.171875 0)"/>
     <use xlink:href="#DejaVuSans-65" transform="translate(556.152344 0)"/>
    </g>
   </g>
   <g id="patch_33">
    <path d="M 504.68125 31.276563 
L 524.68125 31.276563 
L 524.68125 24.276563 
L 504.68125 24.276563 
z
" style="fill: #6d6e71; stroke: #2a2a2a; stroke-linejoin: miter"/>
   </g>
   <g id="text_60">
    <!-- Fetch / decode -->
    <g transform="translate(532.68125 31.276563) scale(0.1 -0.1)">
     <defs>
      <path id="DejaVuSans-2f" d="M 1625 4666 
L 2156 4666 
L 531 -594 
L 0 -594 
L 1625 4666 
z
" transform="scale(0.015625)"/>
     </defs>
     <use xlink:href="#DejaVuSans-46"/>
     <use xlink:href="#DejaVuSans-65" transform="translate(52.019531 0)"/>
     <use xlink:href="#DejaVuSans-74" transform="translate(113.542969 0)"/>
     <use xlink:href="#DejaVuSans-63" transform="translate(152.751953 0)"/>
     <use xlink:href="#DejaVuSans-68" transform="translate(207.732422 0)"/>
     <use xlink:href="#DejaVuSans-20" transform="translate(271.111328 0)"/>
     <use xlink:href="#DejaVuSans-2f" transform="translate(302.898438 0)"/>
     <use xlink:href="#DejaVuSans-20" transform="translate(336.589844 0)"/>
     <use xlink:href="#DejaVuSans-64" transform="translate(368.376953 0)"/>
     <use xlink:href="#DejaVuSans-65" transform="translate(431.853516 0)"/>
     <use xlink:href="#DejaVuSans-63" transform="translate(493.376953 0)"/>
     <use xlink:href="#DejaVuSans-6f" transform="translate(548.357422 0)"/>
     <use xlink:href="#DejaVuSans-64" transform="translate(609.539062 0)"/>
     <use xlink:href="#DejaVuSans-65" transform="translate(673.015625 0)"/>
    </g>
   </g>
   <g id="patch_34">
    <path d="M 504.68125 45.954687 
L 524.68125 45.954687 
L 524.68125 38.954687 
L 504.68125 38.954687 
z
" style="fill: #4a7ebb; stroke: #2a2a2a; stroke-linejoin: miter"/>
   </g>
   <g id="text_61">
    <!-- Matmul micro-sequence -->
    <g transform="translate(532.68125 45.954687) scale(0.1 -0.1)">
     <defs>
      <path id="DejaVuSans-71" d="M 947 1747 
Q 947 1113 1208 752 
Q 1469 391 1925 391 
Q 2381 391 2643 752 
Q 2906 1113 2906 1747 
Q 2906 2381 2643 2742 
Q 2381 3103 1925 3103 
Q 1469 3103 1208 2742 
Q 947 2381 947 1747 
z
M 2906 525 
Q 2725 213 2448 61 
Q 2172 -91 1784 -91 
Q 1150 -91 751 415 
Q 353 922 353 1747 
Q 353 2572 751 3078 
Q 1150 3584 1784 3584 
Q 2172 3584 2448 3432 
Q 2725 3281 2906 2969 
L 2906 3500 
L 3481 3500 
L 3481 -1331 
L 2906 -1331 
L 2906 525 
z
" transform="scale(0.015625)"/>
     </defs>
     <use xlink:href="#DejaVuSans-4d"/>
     <use xlink:href="#DejaVuSans-61" transform="translate(86.279297 0)"/>
     <use xlink:href="#DejaVuSans-74" transform="translate(147.558594 0)"/>
     <use xlink:href="#DejaVuSans-6d" transform="translate(186.767578 0)"/>
     <use xlink:href="#DejaVuSans-75" transform="translate(284.179688 0)"/>
     <use xlink:href="#DejaVuSans-6c" transform="translate(347.558594 0)"/>
     <use xlink:href="#DejaVuSans-20" transform="translate(375.341797 0)"/>
     <use xlink:href="#DejaVuSans-6d" transform="translate(407.128906 0)"/>
     <use xlink:href="#DejaVuSans-69" transform="translate(504.541016 0)"/>
     <use xlink:href="#DejaVuSans-63" transform="translate(532.324219 0)"/>
     <use xlink:href="#DejaVuSans-72" transform="translate(587.304688 0)"/>
     <use xlink:href="#DejaVuSans-6f" transform="translate(626.167969 0)"/>
     <use xlink:href="#DejaVuSans-2d" transform="translate(689.224609 0)"/>
     <use xlink:href="#DejaVuSans-73" transform="translate(725.308594 0)"/>
     <use xlink:href="#DejaVuSans-65" transform="translate(777.408203 0)"/>
     <use xlink:href="#DejaVuSans-71" transform="translate(838.931641 0)"/>
     <use xlink:href="#DejaVuSans-75" transform="translate(902.408203 0)"/>
     <use xlink:href="#DejaVuSans-65" transform="translate(965.787109 0)"/>
     <use xlink:href="#DejaVuSans-6e" transform="translate(1027.310547 0)"/>
     <use xlink:href="#DejaVuSans-63" transform="translate(1090.689453 0)"/>
     <use xlink:href="#DejaVuSans-65" transform="translate(1145.669922 0)"/>
    </g>
   </g>
  </g>
 </g>
 <defs>
  <clipPath id="pa9c250137a">
   <rect x="91.536178" y="18.878209" width="567.863583" height="242.74472"/>
  </clipPath>
  <clipPath id="pe72485b840">
   <rect x="91.536178" y="297.979659" width="567.863583" height="129.463851"/>
  </clipPath>
 </defs>
</svg>
