<?xml version="1.0" encoding="UTF-8" standalone="no"?>
<!DOCTYPE svg PUBLIC "-//W3C//DTD SVG 1.1//EN"
 "http://www.w3.org/Graphics/SVG/1.1/DTD/svg11.dtd">
<!-- Generated by graphviz version 12.2.1 (20241206.2353)
 -->
<!-- Title: TinyNPUControlStates Pages: 1 -->
<svg width="2494pt" height="755pt"
 viewBox="0.00 0.00 2494.41 754.57" xmlns="http://www.w3.org/2000/svg" xmlns:xlink="http://www.w3.org/1999/xlink">
<g id="graph0" class="graph" transform="scale(1 1) rotate(0) translate(14.4 740.17)">
<title>TinyNPUControlStates</title>
<polygon fill="white" stroke="none" points="-14.4,14.4 -14.4,-740.17 2480.01,-740.17 2480.01,14.4 -14.4,14.4"/>
<text text-anchor="middle" x="1232.81" y="-702.77" font-family="Helvetica,sans-Serif" font-size="20.00">TinyNPU Control Unit State Machine</text>
<g id="clust1" class="cluster">
<title>cluster_host</title>
<path fill="white" stroke="#d18a66" stroke-width="2" stroke-dasharray="5,2" d="M26.75,-353.04C26.75,-353.04 1840.52,-353.04 1840.52,-353.04 1846.52,-353.04 1852.52,-359.04 1852.52,-365.04 1852.52,-365.04 1852.52,-632.04 1852.52,-632.04 1852.52,-638.04 1846.52,-644.04 1840.52,-644.04 1840.52,-644.04 26.75,-644.04 26.75,-644.04 20.75,-644.04 14.75,-638.04 14.75,-632.04 14.75,-632.04 14.75,-365.04 14.75,-365.04 14.75,-359.04 20.75,-353.04 26.75,-353.04"/>
<text text-anchor="middle" x="933.64" y="-623.89" font-family="Helvetica,sans-Serif" font-size="17.00" fill="#8f4f32">Host / MMIO Service</text>
</g>
<g id="clust2" class="cluster">
<title>cluster_issue</title>
<path fill="white" stroke="#8b74bd" stroke-width="2" stroke-dasharray="5,2" d="M20,-35.04C20,-35.04 442.09,-35.04 442.09,-35.04 448.09,-35.04 454.09,-41.04 454.09,-47.04 454.09,-47.04 454.09,-333.04 454.09,-333.04 454.09,-339.04 448.09,-345.04 442.09,-345.04 442.09,-345.04 20,-345.04 20,-345.04 14,-345.04 8,-339.04 8,-333.04 8,-333.04 8,-47.04 8,-47.04 8,-41.04 14,-35.04 20,-35.04"/>
<text text-anchor="middle" x="231.05" y="-324.89" font-family="Helvetica,sans-Serif" font-size="17.00" fill="#6c5b7b">Instruction Sequencing</text>
</g>
<g id="clust3" class="cluster">
<title>cluster_matmul</title>
<polygon fill="#f5f9ff" stroke="#557aab" stroke-width="2" points="634.84,-74.04 634.84,-263.04 2457.61,-263.04 2457.61,-74.04 634.84,-74.04"/>
<text text-anchor="middle" x="1546.22" y="-242.89" font-family="Helvetica,sans-Serif" font-size="17.00" fill="#355c7d">MatMul Micro&#45;Sequence</text>
</g>
<!-- IDLE -->
<g id="node1" class="node">
<title>IDLE</title>
<path fill="#ffe8db" stroke="#d18a66" stroke-width="2" d="M110.17,-524.04C110.17,-524.04 34.75,-524.04 34.75,-524.04 28.75,-524.04 22.75,-518.04 22.75,-512.04 22.75,-512.04 22.75,-500.04 22.75,-500.04 22.75,-494.04 28.75,-488.04 34.75,-488.04 34.75,-488.04 110.17,-488.04 110.17,-488.04 116.17,-488.04 122.17,-494.04 122.17,-500.04 122.17,-500.04 122.17,-512.04 122.17,-512.04 122.17,-518.04 116.17,-524.04 110.17,-524.04"/>
<text text-anchor="middle" x="72.46" y="-501.36" font-family="Helvetica,sans-Serif" font-size="14.00" fill="#40261d">CTRL_IDLE</text>
</g>
<!-- HOST_WRITE -->
<g id="node2" class="node">
<title>HOST_WRITE</title>
<path fill="#ffe8db" stroke="#d18a66" stroke-width="2" d="M1832.52,-545.04C1832.52,-545.04 1697.85,-545.04 1697.85,-545.04 1691.85,-545.04 1685.85,-539.04 1685.85,-533.04 1685.85,-533.04 1685.85,-521.04 1685.85,-521.04 1685.85,-515.04 1691.85,-509.04 1697.85,-509.04 1697.85,-509.04 1832.52,-509.04 1832.52,-509.04 1838.52,-509.04 1844.52,-515.04 1844.52,-521.04 1844.52,-521.04 1844.52,-533.04 1844.52,-533.04 1844.52,-539.04 1838.52,-545.04 1832.52,-545.04"/>
<text text-anchor="middle" x="1765.19" y="-522.36" font-family="Helvetica,sans-Serif" font-size="14.00" fill="#40261d">CTRL_HOST_WRITE</text>
</g>
<!-- IDLE&#45;&gt;HOST_WRITE -->
<g id="edge1" class="edge">
<title>IDLE&#45;&gt;HOST_WRITE</title>
<path fill="none" stroke="#2f2f2f" stroke-width="1.8" d="M87.53,-524.72C102.61,-543.05 128.41,-569.82 157.92,-581.04 714.03,-792.31 1457.97,-614.22 1691.15,-548.77"/>
<polygon fill="#2f2f2f" stroke="#2f2f2f" stroke-width="1.8" points="1691.65,-551.54 1698.59,-546.67 1690.13,-546.15 1691.65,-551.54"/>
<text text-anchor="middle" x="887.88" y="-684.27" font-family="Helvetica,sans-Serif" font-size="10.00">doorbell + CMD_WRITE_MEM</text>
</g>
<!-- HOST_READ -->
<g id="node3" class="node">
<title>HOST_READ</title>
<path fill="#ffe8db" stroke="#d18a66" stroke-width="2" d="M1141.18,-425.04C1141.18,-425.04 1012.51,-425.04 1012.51,-425.04 1006.51,-425.04 1000.51,-419.04 1000.51,-413.04 1000.51,-413.04 1000.51,-401.04 1000.51,-401.04 1000.51,-395.04 1006.51,-389.04 1012.51,-389.04 1012.51,-389.04 1141.18,-389.04 1141.18,-389.04 1147.18,-389.04 1153.18,-395.04 1153.18,-401.04 1153.18,-401.04 1153.18,-413.04 1153.18,-413.04 1153.18,-419.04 1147.18,-425.04 1141.18,-425.04"/>
<text text-anchor="middle" x="1076.85" y="-402.36" font-family="Helvetica,sans-Serif" font-size="14.00" fill="#40261d">CTRL_HOST_READ</text>
</g>
<!-- IDLE&#45;&gt;HOST_READ -->
<g id="edge2" class="edge">
<title>IDLE&#45;&gt;HOST_READ</title>
<path fill="none" stroke="#2f2f2f" stroke-width="1.8" d="M108.29,-487.04C147.55,-466.79 213.95,-436.04 275.42,-424.04 432.44,-393.37 475.09,-435.23 634.84,-444.04 702.48,-447.77 719.66,-448.35 787.26,-444.04 855.36,-439.69 931.95,-429.63 989.1,-421.09"/>
<polygon fill="#2f2f2f" stroke="#2f2f2f" stroke-width="1.8" points="989.36,-423.88 996.85,-419.92 988.52,-418.35 989.36,-423.88"/>
<text text-anchor="middle" x="544.46" y="-445.87" font-family="Helvetica,sans-Serif" font-size="10.00">doorbell + CMD_READ_MEM</text>
</g>
<!-- FETCH -->
<g id="node6" class="node">
<title>FETCH</title>
<path fill="#efe8ff" stroke="#8b74bd" stroke-width="2" d="M116.92,-258.04C116.92,-258.04 28,-258.04 28,-258.04 22,-258.04 16,-252.04 16,-246.04 16,-246.04 16,-234.04 16,-234.04 16,-228.04 22,-222.04 28,-222.04 28,-222.04 116.92,-222.04 116.92,-222.04 122.92,-222.04 128.92,-228.04 128.92,-234.04 128.92,-234.04 128.92,-246.04 128.92,-246.04 128.92,-252.04 122.92,-258.04 116.92,-258.04"/>
<text text-anchor="middle" x="72.46" y="-235.36" font-family="Helvetica,sans-Serif" font-size="14.00" fill="#2c2236">CTRL_FETCH</text>
</g>
<!-- IDLE&#45;&gt;FETCH -->
<g id="edge3" class="edge">
<title>IDLE&#45;&gt;FETCH</title>
<path fill="none" stroke="#2f2f2f" stroke-width="1.8" d="M72.46,-487.35C72.46,-441.68 72.46,-324.12 72.46,-269.16"/>
<polygon fill="#2f2f2f" stroke="#2f2f2f" stroke-width="1.8" points="75.26,-269.47 72.46,-261.47 69.66,-269.47 75.26,-269.47"/>
<text text-anchor="middle" x="63.09" y="-369.91" font-family="Helvetica,sans-Serif" font-size="10.00">doorbell + CMD_RUN</text>
</g>
<!-- HOST_WRITE&#45;&gt;IDLE -->
<g id="edge4" class="edge">
<title>HOST_WRITE&#45;&gt;IDLE</title>
<path fill="none" stroke="#2f2f2f" stroke-width="1.8" d="M1685.06,-530.32C1675.56,-530.61 1665.99,-530.87 1656.85,-531.04 1606.86,-531.97 1594.35,-531.36 1544.35,-531.04 928.12,-527.04 773.46,-542.5 157.92,-513.04 150.05,-512.66 141.78,-512.13 133.62,-511.54"/>
<polygon fill="#2f2f2f" stroke="#2f2f2f" stroke-width="1.8" points="133.9,-508.75 125.71,-510.93 133.47,-514.34 133.9,-508.75"/>
<text text-anchor="middle" x="887.88" y="-534.86" font-family="Helvetica,sans-Serif" font-size="10.00">host write complete</text>
</g>
<!-- READ_WAIT -->
<g id="node4" class="node">
<title>READ_WAIT</title>
<path fill="#ffe8db" stroke="#d18a66" stroke-width="2" d="M1503.35,-446.04C1503.35,-446.04 1378.43,-446.04 1378.43,-446.04 1372.43,-446.04 1366.43,-440.04 1366.43,-434.04 1366.43,-434.04 1366.43,-422.04 1366.43,-422.04 1366.43,-416.04 1372.43,-410.04 1378.43,-410.04 1378.43,-410.04 1503.35,-410.04 1503.35,-410.04 1509.35,-410.04 1515.35,-416.04 1515.35,-422.04 1515.35,-422.04 1515.35,-434.04 1515.35,-434.04 1515.35,-440.04 1509.35,-446.04 1503.35,-446.04"/>
<text text-anchor="middle" x="1440.89" y="-423.36" font-family="Helvetica,sans-Serif" font-size="14.00" fill="#40261d">CTRL_READ_WAIT</text>
</g>
<!-- HOST_READ&#45;&gt;READ_WAIT -->
<g id="edge5" class="edge">
<title>HOST_READ&#45;&gt;READ_WAIT</title>
<path fill="none" stroke="#2f2f2f" stroke-width="1.8" d="M1153.74,-411.44C1212.64,-414.86 1294.27,-419.59 1355.27,-423.13"/>
<polygon fill="#2f2f2f" stroke="#2f2f2f" stroke-width="1.8" points="1354.77,-425.9 1362.92,-423.57 1355.1,-420.31 1354.77,-425.9"/>
<text text-anchor="middle" x="1265.81" y="-425.08" font-family="Helvetica,sans-Serif" font-size="10.00">issue memory read</text>
</g>
<!-- READ_WAIT&#45;&gt;IDLE -->
<g id="edge10" class="edge">
<title>READ_WAIT&#45;&gt;IDLE</title>
<path fill="none" stroke="#2f2f2f" stroke-width="1.8" d="M1365.56,-439.77C1356.11,-441.01 1346.56,-442.14 1337.43,-443.04 875.64,-488.24 315.58,-501.74 133.65,-505.08"/>
<polygon fill="#2f2f2f" stroke="#2f2f2f" stroke-width="1.8" points="133.65,-502.28 125.7,-505.22 133.75,-507.87 133.65,-502.28"/>
<text text-anchor="middle" x="715.05" y="-492.55" font-family="Helvetica,sans-Serif" font-size="10.00">other / clear</text>
</g>
<!-- READ_WAIT&#45;&gt;HOST_WRITE -->
<g id="edge7" class="edge">
<title>READ_WAIT&#45;&gt;HOST_WRITE</title>
<path fill="none" stroke="#2f2f2f" stroke-width="1.8" d="M1514.43,-446.95C1556.28,-458.21 1609.79,-473.22 1656.85,-488.29 1672.25,-493.22 1688.74,-498.94 1704.06,-504.46"/>
<polygon fill="#2f2f2f" stroke="#2f2f2f" stroke-width="1.8" points="1702.9,-507.01 1711.38,-507.11 1704.81,-501.75 1702.9,-507.01"/>
<text text-anchor="middle" x="1600.6" y="-491.54" font-family="Helvetica,sans-Serif" font-size="10.00">new CMD_WRITE_MEM</text>
</g>
<!-- READ_WAIT&#45;&gt;HOST_READ -->
<g id="edge8" class="edge">
<title>READ_WAIT&#45;&gt;HOST_READ</title>
<path fill="none" stroke="#2f2f2f" stroke-width="1.8" d="M1391.13,-409.06C1374.37,-403.45 1355.33,-398.08 1337.43,-395.29 1280.31,-386.38 1215.34,-389.33 1164.69,-394.51"/>
<polygon fill="#2f2f2f" stroke="#2f2f2f" stroke-width="1.8" points="1164.47,-391.71 1156.81,-395.35 1165.06,-397.28 1164.47,-391.71"/>
<text text-anchor="middle" x="1265.81" y="-398.54" font-family="Helvetica,sans-Serif" font-size="10.00">new CMD_READ_MEM</text>
</g>
<!-- READ_WAIT&#45;&gt;READ_WAIT -->
<g id="edge6" class="edge">
<title>READ_WAIT&#45;&gt;READ_WAIT</title>
<path fill="none" stroke="#2f2f2f" stroke-width="1.8" d="M1415.16,-447.02C1404.86,-462.28 1413.44,-478.04 1440.89,-478.04 1462.34,-478.04 1472.26,-468.42 1470.67,-456.94"/>
<polygon fill="#2f2f2f" stroke="#2f2f2f" stroke-width="1.8" points="1473.27,-455.89 1467.65,-449.54 1468.08,-458.01 1473.27,-455.89"/>
<text text-anchor="middle" x="1440.89" y="-481.29" font-family="Helvetica,sans-Serif" font-size="10.00">hold data valid</text>
</g>
<!-- READ_WAIT&#45;&gt;FETCH -->
<g id="edge9" class="edge">
<title>READ_WAIT&#45;&gt;FETCH</title>
<path fill="none" stroke="#2f2f2f" stroke-width="1.8" d="M1403.79,-409.05C1384.55,-399.65 1360.21,-388.89 1337.43,-382.04 1185.92,-336.48 747.73,-377.87 634.84,-267.04 597.77,-230.64 640.72,-196.5 613.84,-152.04 567.2,-74.89 539.32,-56.42 454.09,-27.04 327.74,16.52 255.51,12.27 157.92,-79.04 118.44,-115.97 93.98,-175.56 82.12,-210.95"/>
<polygon fill="#2f2f2f" stroke="#2f2f2f" stroke-width="1.8" points="79.47,-210.03 79.67,-218.51 84.8,-211.76 79.47,-210.03"/>
<text text-anchor="middle" x="715.05" y="-331.56" font-family="Helvetica,sans-Serif" font-size="10.00">new CMD_RUN</text>
</g>
<!-- HALT -->
<g id="node5" class="node">
<title>HALT</title>
<path fill="#ffe8db" stroke="#d18a66" stroke-width="2" d="M754.26,-397.04C754.26,-397.04 675.84,-397.04 675.84,-397.04 669.84,-397.04 663.84,-391.04 663.84,-385.04 663.84,-385.04 663.84,-373.04 663.84,-373.04 663.84,-367.04 669.84,-361.04 675.84,-361.04 675.84,-361.04 754.26,-361.04 754.26,-361.04 760.26,-361.04 766.26,-367.04 766.26,-373.04 766.26,-373.04 766.26,-385.04 766.26,-385.04 766.26,-391.04 760.26,-397.04 754.26,-397.04"/>
<text text-anchor="middle" x="715.05" y="-374.36" font-family="Helvetica,sans-Serif" font-size="14.00" fill="#40261d">CTRL_HALT</text>
</g>
<!-- HALT&#45;&gt;IDLE -->
<g id="edge37" class="edge">
<title>HALT&#45;&gt;IDLE</title>
<path fill="none" stroke="#2f2f2f" stroke-width="1.8" d="M662.96,-389.16C545.77,-412.4 258.09,-469.43 133.08,-494.22"/>
<polygon fill="#2f2f2f" stroke="#2f2f2f" stroke-width="1.8" points="132.9,-491.4 125.6,-495.7 133.99,-496.89 132.9,-491.4"/>
<text text-anchor="middle" x="360.76" y="-468.61" font-family="Helvetica,sans-Serif" font-size="10.00">other / clear</text>
</g>
<!-- HALT&#45;&gt;HOST_WRITE -->
<g id="edge34" class="edge">
<title>HALT&#45;&gt;HOST_WRITE</title>
<path fill="none" stroke="#2f2f2f" stroke-width="1.8" d="M756.72,-397.92C774.64,-405.53 796.15,-413.76 816.26,-419.04 1124.26,-499.9 1504.26,-520.22 1674.42,-525.32"/>
<polygon fill="#2f2f2f" stroke="#2f2f2f" stroke-width="1.8" points="1674.27,-528.12 1682.35,-525.55 1674.43,-522.52 1674.27,-528.12"/>
<text text-anchor="middle" x="1265.81" y="-507.7" font-family="Helvetica,sans-Serif" font-size="10.00">doorbell + CMD_WRITE_MEM</text>
</g>
<!-- HALT&#45;&gt;HOST_READ -->
<g id="edge35" class="edge">
<title>HALT&#45;&gt;HOST_READ</title>
<path fill="none" stroke="#2f2f2f" stroke-width="1.8" d="M767.22,-383.02C824.98,-387.51 919.92,-394.9 989.27,-400.3"/>
<polygon fill="#2f2f2f" stroke="#2f2f2f" stroke-width="1.8" points="988.83,-403.07 997.02,-400.9 989.26,-397.49 988.83,-403.07"/>
<text text-anchor="middle" x="887.88" y="-401.23" font-family="Helvetica,sans-Serif" font-size="10.00">doorbell + CMD_READ_MEM</text>
</g>
<!-- HALT&#45;&gt;HALT -->
<g id="edge33" class="edge">
<title>HALT&#45;&gt;HALT</title>
<path fill="none" stroke="#2f2f2f" stroke-width="1.8" d="M687.56,-398.02C676.57,-413.28 685.73,-429.04 715.05,-429.04 738.18,-429.04 748.77,-419.23 746.8,-407.59"/>
<polygon fill="#2f2f2f" stroke="#2f2f2f" stroke-width="1.8" points="749.46,-406.67 743.65,-400.51 744.35,-408.95 749.46,-406.67"/>
<text text-anchor="middle" x="715.05" y="-432.29" font-family="Helvetica,sans-Serif" font-size="10.00">stay halted</text>
</g>
<!-- HALT&#45;&gt;FETCH -->
<g id="edge36" class="edge">
<title>HALT&#45;&gt;FETCH</title>
<path fill="none" stroke="#2f2f2f" stroke-width="1.8" d="M663.02,-379.16C562.22,-377.64 332.26,-365.41 157.92,-290.04 141.75,-283.05 124.87,-273.55 110.49,-264.71"/>
<polygon fill="#2f2f2f" stroke="#2f2f2f" stroke-width="1.8" points="112.01,-262.36 103.74,-260.48 109.03,-267.1 112.01,-262.36"/>
<text text-anchor="middle" x="360.76" y="-367.53" font-family="Helvetica,sans-Serif" font-size="10.00">doorbell + CMD_RUN</text>
</g>
<!-- DECODE -->
<g id="node7" class="node">
<title>DECODE</title>
<path fill="#efe8ff" stroke="#8b74bd" stroke-width="2" d="M412.72,-308.04C412.72,-308.04 308.8,-308.04 308.8,-308.04 302.8,-308.04 296.8,-302.04 296.8,-296.04 296.8,-296.04 296.8,-284.04 296.8,-284.04 296.8,-278.04 302.8,-272.04 308.8,-272.04 308.8,-272.04 412.72,-272.04 412.72,-272.04 418.72,-272.04 424.72,-278.04 424.72,-284.04 424.72,-284.04 424.72,-296.04 424.72,-296.04 424.72,-302.04 418.72,-308.04 412.72,-308.04"/>
<text text-anchor="middle" x="360.76" y="-285.36" font-family="Helvetica,sans-Serif" font-size="14.00" fill="#2c2236">CTRL_DECODE</text>
</g>
<!-- FETCH&#45;&gt;DECODE -->
<g id="edge11" class="edge">
<title>FETCH&#45;&gt;DECODE</title>
<path fill="none" stroke="#2f2f2f" stroke-width="1.8" d="M129.82,-232.6C163.96,-229.7 208.15,-228.82 246.42,-237.29 271.96,-242.94 298.58,-254.96 319.59,-266.11"/>
<polygon fill="#2f2f2f" stroke="#2f2f2f" stroke-width="1.8" points="318.07,-268.47 326.44,-269.83 320.75,-263.55 318.07,-268.47"/>
<text text-anchor="middle" x="202.17" y="-240.54" font-family="Helvetica,sans-Serif" font-size="10.00">read IM[pc]</text>
</g>
<!-- DECODE&#45;&gt;HALT -->
<g id="edge15" class="edge">
<title>DECODE&#45;&gt;HALT</title>
<path fill="none" stroke="#2f2f2f" stroke-width="1.8" d="M425.71,-296.85C477.28,-303.38 551.27,-315.15 613.84,-334.29 632.12,-339.88 651.46,-347.96 668.22,-355.72"/>
<polygon fill="#2f2f2f" stroke="#2f2f2f" stroke-width="1.8" points="666.87,-358.18 675.3,-359.07 669.27,-353.12 666.87,-358.18"/>
<text text-anchor="middle" x="544.46" y="-337.54" font-family="Helvetica,sans-Serif" font-size="10.00">HALT / invalid opcode</text>
</g>
<!-- DECODE&#45;&gt;FETCH -->
<g id="edge12" class="edge">
<title>DECODE&#45;&gt;FETCH</title>
<path fill="none" stroke="#2f2f2f" stroke-width="1.8" d="M295.93,-278.89C249.58,-270.8 187.03,-259.87 140.06,-251.67"/>
<polygon fill="#2f2f2f" stroke="#2f2f2f" stroke-width="1.8" points="140.73,-248.94 132.36,-250.32 139.76,-254.46 140.73,-248.94"/>
<text text-anchor="middle" x="202.17" y="-272.76" font-family="Helvetica,sans-Serif" font-size="10.00">NOP</text>
</g>
<!-- EXEC_MOVE -->
<g id="node8" class="node">
<title>EXEC_MOVE</title>
<path fill="#efe8ff" stroke="#8b74bd" stroke-width="2" d="M425.47,-79.04C425.47,-79.04 296.05,-79.04 296.05,-79.04 290.05,-79.04 284.05,-73.04 284.05,-67.04 284.05,-67.04 284.05,-55.04 284.05,-55.04 284.05,-49.04 290.05,-43.04 296.05,-43.04 296.05,-43.04 425.47,-43.04 425.47,-43.04 431.47,-43.04 437.47,-49.04 437.47,-55.04 437.47,-55.04 437.47,-67.04 437.47,-67.04 437.47,-73.04 431.47,-79.04 425.47,-79.04"/>
<text text-anchor="middle" x="360.76" y="-56.36" font-family="Helvetica,sans-Serif" font-size="14.00" fill="#2c2236">CTRL_EXEC_MOVE</text>
</g>
<!-- DECODE&#45;&gt;EXEC_MOVE -->
<g id="edge13" class="edge">
<title>DECODE&#45;&gt;EXEC_MOVE</title>
<path fill="none" stroke="#2f2f2f" stroke-width="1.8" d="M302.75,-271.17C270.02,-257.2 231.9,-234.58 212.64,-200.41 184.89,-151.19 249.72,-109.04 302.23,-84.36"/>
<polygon fill="#2f2f2f" stroke="#2f2f2f" stroke-width="1.8" points="303.27,-86.96 309.38,-81.08 300.94,-81.86 303.27,-86.96"/>
<text text-anchor="middle" x="202.17" y="-190.91" font-family="Helvetica,sans-Serif" font-size="10.00">MOVE</text>
</g>
<!-- EXEC_MATMUL -->
<g id="node9" class="node">
<title>EXEC_MATMUL</title>
<path fill="#efe8ff" stroke="#8b74bd" stroke-width="2" d="M434.09,-178.04C434.09,-178.04 287.42,-178.04 287.42,-178.04 281.42,-178.04 275.42,-172.04 275.42,-166.04 275.42,-166.04 275.42,-154.04 275.42,-154.04 275.42,-148.04 281.42,-142.04 287.42,-142.04 287.42,-142.04 434.09,-142.04 434.09,-142.04 440.09,-142.04 446.09,-148.04 446.09,-154.04 446.09,-154.04 446.09,-166.04 446.09,-166.04 446.09,-172.04 440.09,-178.04 434.09,-178.04"/>
<text text-anchor="middle" x="360.76" y="-155.36" font-family="Helvetica,sans-Serif" font-size="14.00" fill="#2c2236">CTRL_EXEC_MATMUL</text>
</g>
<!-- DECODE&#45;&gt;EXEC_MATMUL -->
<g id="edge14" class="edge">
<title>DECODE&#45;&gt;EXEC_MATMUL</title>
<path fill="none" stroke="#2f2f2f" stroke-width="1.8" d="M360.76,-271.11C360.76,-249.73 360.76,-214.65 360.76,-189.64"/>
<polygon fill="#2f2f2f" stroke="#2f2f2f" stroke-width="1.8" points="363.56,-189.66 360.76,-181.66 357.96,-189.66 363.56,-189.66"/>
<text text-anchor="middle" x="351.38" y="-221.91" font-family="Helvetica,sans-Serif" font-size="10.00">MATMUL</text>
</g>
<!-- EXEC_MOVE&#45;&gt;FETCH -->
<g id="edge17" class="edge">
<title>EXEC_MOVE&#45;&gt;FETCH</title>
<path fill="none" stroke="#2f2f2f" stroke-width="1.8" d="M283.39,-76.04C243.36,-86.55 195.08,-103.6 157.92,-130.29 127.75,-151.95 103.23,-187.44 88.54,-212.17"/>
<polygon fill="#2f2f2f" stroke="#2f2f2f" stroke-width="1.8" points="86.15,-210.71 84.57,-219.04 91,-213.51 86.15,-210.71"/>
<text text-anchor="middle" x="202.17" y="-133.54" font-family="Helvetica,sans-Serif" font-size="10.00">move_count == 0</text>
</g>
<!-- EXEC_MOVE&#45;&gt;EXEC_MOVE -->
<g id="edge16" class="edge">
<title>EXEC_MOVE&#45;&gt;EXEC_MOVE</title>
<path fill="none" stroke="#2f2f2f" stroke-width="1.8" d="M335.2,-80.02C324.98,-95.28 333.5,-111.04 360.76,-111.04 382.05,-111.04 391.91,-101.42 390.33,-89.94"/>
<polygon fill="#2f2f2f" stroke="#2f2f2f" stroke-width="1.8" points="392.93,-88.91 387.33,-82.54 387.74,-91.01 392.93,-88.91"/>
<text text-anchor="middle" x="360.76" y="-114.29" font-family="Helvetica,sans-Serif" font-size="10.00">read then write copied word</text>
</g>
<!-- EXEC_MATMUL&#45;&gt;FETCH -->
<g id="edge18" class="edge">
<title>EXEC_MATMUL&#45;&gt;FETCH</title>
<path fill="none" stroke="#2f2f2f" stroke-width="1.8" d="M274.72,-150.74C237.69,-149.78 194.48,-152.96 157.92,-167.29 133.45,-176.87 111.18,-196.76 95.66,-213.32"/>
<polygon fill="#2f2f2f" stroke="#2f2f2f" stroke-width="1.8" points="93.72,-211.29 90.43,-219.1 97.87,-215.05 93.72,-211.29"/>
<text text-anchor="middle" x="202.17" y="-170.54" font-family="Helvetica,sans-Serif" font-size="10.00">all M tiles done</text>
</g>
<!-- EXEC_MATMUL&#45;&gt;EXEC_MATMUL -->
<g id="edge19" class="edge">
<title>EXEC_MATMUL&#45;&gt;EXEC_MATMUL</title>
<path fill="none" stroke="#2f2f2f" stroke-width="1.8" d="M335.2,-179.02C324.98,-194.28 333.5,-210.04 360.76,-210.04 382.05,-210.04 391.91,-200.42 390.33,-188.94"/>
<polygon fill="#2f2f2f" stroke="#2f2f2f" stroke-width="1.8" points="392.93,-187.91 387.33,-181.54 387.74,-190.01 392.93,-187.91"/>
<text text-anchor="middle" x="360.76" y="-213.29" font-family="Helvetica,sans-Serif" font-size="10.00">advance M/N tile indices</text>
</g>
<!-- MM_CLEAR -->
<g id="node10" class="node">
<title>MM_CLEAR</title>
<path fill="#e8f0fe" stroke="#557aab" stroke-width="2" d="M775.26,-178.04C775.26,-178.04 654.84,-178.04 654.84,-178.04 648.84,-178.04 642.84,-172.04 642.84,-166.04 642.84,-166.04 642.84,-154.04 642.84,-154.04 642.84,-148.04 648.84,-142.04 654.84,-142.04 654.84,-142.04 775.26,-142.04 775.26,-142.04 781.26,-142.04 787.26,-148.04 787.26,-154.04 787.26,-154.04 787.26,-166.04 787.26,-166.04 787.26,-172.04 781.26,-178.04 775.26,-178.04"/>
<text text-anchor="middle" x="715.05" y="-155.36" font-family="Helvetica,sans-Serif" font-size="14.00" fill="#1f2d3d">CTRL_MM_CLEAR</text>
</g>
<!-- EXEC_MATMUL&#45;&gt;MM_CLEAR -->
<g id="edge20" class="edge">
<title>EXEC_MATMUL&#45;&gt;MM_CLEAR</title>
<path fill="none" stroke="#2f2f2f" stroke-width="1.8" d="M447.04,-160.04C503.09,-160.04 576.05,-160.04 631.53,-160.04"/>
<polygon fill="#2f2f2f" stroke="#2f2f2f" stroke-width="1.8" points="631.31,-162.84 639.31,-160.04 631.31,-157.24 631.31,-162.84"/>
<text text-anchor="middle" x="544.46" y="-163.29" font-family="Helvetica,sans-Serif" font-size="10.00">start next output tile</text>
</g>
<!-- MM_LOAD_BIAS -->
<g id="node11" class="node">
<title>MM_LOAD_BIAS</title>
<path fill="#e8f0fe" stroke="#557aab" stroke-width="2" d="M1153.18,-118.04C1153.18,-118.04 1000.51,-118.04 1000.51,-118.04 994.51,-118.04 988.51,-112.04 988.51,-106.04 988.51,-106.04 988.51,-94.04 988.51,-94.04 988.51,-88.04 994.51,-82.04 1000.51,-82.04 1000.51,-82.04 1153.18,-82.04 1153.18,-82.04 1159.18,-82.04 1165.18,-88.04 1165.18,-94.04 1165.18,-94.04 1165.18,-106.04 1165.18,-106.04 1165.18,-112.04 1159.18,-118.04 1153.18,-118.04"/>
<text text-anchor="middle" x="1076.85" y="-95.36" font-family="Helvetica,sans-Serif" font-size="14.00" fill="#1f2d3d">CTRL_MM_LOAD_BIAS</text>
</g>
<!-- MM_CLEAR&#45;&gt;MM_LOAD_BIAS -->
<g id="edge21" class="edge">
<title>MM_CLEAR&#45;&gt;MM_LOAD_BIAS</title>
<path fill="none" stroke="#2f2f2f" stroke-width="1.8" d="M788,-148.04C842.37,-138.97 917.63,-126.42 977.56,-116.43"/>
<polygon fill="#2f2f2f" stroke="#2f2f2f" stroke-width="1.8" points="977.68,-119.25 985.11,-115.17 976.76,-113.72 977.68,-119.25"/>
<text text-anchor="middle" x="887.88" y="-145.56" font-family="Helvetica,sans-Serif" font-size="10.00">bias present</text>
</g>
<!-- MM_FEED -->
<g id="node12" class="node">
<title>MM_FEED</title>
<path fill="#e8f0fe" stroke="#557aab" stroke-width="2" d="M1496.6,-132.04C1496.6,-132.04 1385.18,-132.04 1385.18,-132.04 1379.18,-132.04 1373.18,-126.04 1373.18,-120.04 1373.18,-120.04 1373.18,-108.04 1373.18,-108.04 1373.18,-102.04 1379.18,-96.04 1385.18,-96.04 1385.18,-96.04 1496.6,-96.04 1496.6,-96.04 1502.6,-96.04 1508.6,-102.04 1508.6,-108.04 1508.6,-108.04 1508.6,-120.04 1508.6,-120.04 1508.6,-126.04 1502.6,-132.04 1496.6,-132.04"/>
<text text-anchor="middle" x="1440.89" y="-109.36" font-family="Helvetica,sans-Serif" font-size="14.00" fill="#1f2d3d">CTRL_MM_FEED</text>
</g>
<!-- MM_CLEAR&#45;&gt;MM_FEED -->
<g id="edge22" class="edge">
<title>MM_CLEAR&#45;&gt;MM_FEED</title>
<path fill="none" stroke="#2f2f2f" stroke-width="1.8" d="M788.03,-162.35C797.52,-162.61 807.12,-162.85 816.26,-163.04 971.3,-166.26 1010.75,-179.25 1165.18,-165.04 1232.23,-158.87 1307.33,-144.39 1362.04,-132.44"/>
<polygon fill="#2f2f2f" stroke="#2f2f2f" stroke-width="1.8" points="1362.49,-135.2 1369.7,-130.75 1361.28,-129.74 1362.49,-135.2"/>
<text text-anchor="middle" x="1076.85" y="-174.8" font-family="Helvetica,sans-Serif" font-size="10.00">no bias</text>
</g>
<!-- MM_LOAD_BIAS&#45;&gt;MM_LOAD_BIAS -->
<g id="edge23" class="edge">
<title>MM_LOAD_BIAS&#45;&gt;MM_LOAD_BIAS</title>
<path fill="none" stroke="#2f2f2f" stroke-width="1.8" d="M1046.4,-119.02C1034.22,-134.28 1044.37,-150.04 1076.85,-150.04 1102.47,-150.04 1114.2,-140.23 1112.02,-128.59"/>
<polygon fill="#2f2f2f" stroke="#2f2f2f" stroke-width="1.8" points="1114.55,-127.39 1108.5,-121.46 1109.53,-129.87 1114.55,-127.39"/>
<text text-anchor="middle" x="1076.85" y="-153.29" font-family="Helvetica,sans-Serif" font-size="10.00">load first bias word</text>
</g>
<!-- MM_LOAD_BIAS&#45;&gt;MM_FEED -->
<g id="edge24" class="edge">
<title>MM_LOAD_BIAS&#45;&gt;MM_FEED</title>
<path fill="none" stroke="#2f2f2f" stroke-width="1.8" d="M1165.95,-103.44C1225.75,-105.76 1304.12,-108.79 1361.71,-111.01"/>
<polygon fill="#2f2f2f" stroke="#2f2f2f" stroke-width="1.8" points="1361.38,-113.8 1369.48,-111.31 1361.6,-108.21 1361.38,-113.8"/>
<text text-anchor="middle" x="1265.81" y="-113.15" font-family="Helvetica,sans-Serif" font-size="10.00">load second bias word</text>
</g>
<!-- MM_FEED&#45;&gt;MM_FEED -->
<g id="edge25" class="edge">
<title>MM_FEED&#45;&gt;MM_FEED</title>
<path fill="none" stroke="#2f2f2f" stroke-width="1.8" d="M1415.16,-133.02C1404.86,-148.28 1413.44,-164.04 1440.89,-164.04 1462.34,-164.04 1472.26,-154.42 1470.67,-142.94"/>
<polygon fill="#2f2f2f" stroke="#2f2f2f" stroke-width="1.8" points="1473.27,-141.89 1467.65,-135.54 1468.08,-144.01 1473.27,-141.89"/>
<text text-anchor="middle" x="1440.89" y="-167.29" font-family="Helvetica,sans-Serif" font-size="10.00">stream A/B words and markers</text>
</g>
<!-- MM_WAIT -->
<g id="node13" class="node">
<title>MM_WAIT</title>
<path fill="#e8f0fe" stroke="#557aab" stroke-width="2" d="M1820.15,-132.04C1820.15,-132.04 1710.23,-132.04 1710.23,-132.04 1704.23,-132.04 1698.23,-126.04 1698.23,-120.04 1698.23,-120.04 1698.23,-108.04 1698.23,-108.04 1698.23,-102.04 1704.23,-96.04 1710.23,-96.04 1710.23,-96.04 1820.15,-96.04 1820.15,-96.04 1826.15,-96.04 1832.15,-102.04 1832.15,-108.04 1832.15,-108.04 1832.15,-120.04 1832.15,-120.04 1832.15,-126.04 1826.15,-132.04 1820.15,-132.04"/>
<text text-anchor="middle" x="1765.19" y="-109.36" font-family="Helvetica,sans-Serif" font-size="14.00" fill="#1f2d3d">CTRL_MM_WAIT</text>
</g>
<!-- MM_FEED&#45;&gt;MM_WAIT -->
<g id="edge26" class="edge">
<title>MM_FEED&#45;&gt;MM_WAIT</title>
<path fill="none" stroke="#2f2f2f" stroke-width="1.8" d="M1509.45,-114.04C1561.19,-114.04 1632.63,-114.04 1686.69,-114.04"/>
<polygon fill="#2f2f2f" stroke="#2f2f2f" stroke-width="1.8" points="1686.54,-116.84 1694.54,-114.04 1686.54,-111.24 1686.54,-116.84"/>
<text text-anchor="middle" x="1600.6" y="-117.29" font-family="Helvetica,sans-Serif" font-size="10.00">last K tile fed</text>
</g>
<!-- MM_WAIT&#45;&gt;MM_WAIT -->
<g id="edge27" class="edge">
<title>MM_WAIT&#45;&gt;MM_WAIT</title>
<path fill="none" stroke="#2f2f2f" stroke-width="1.8" d="M1743.26,-133.02C1734.49,-148.28 1741.8,-164.04 1765.19,-164.04 1783.46,-164.04 1791.92,-154.42 1790.56,-142.94"/>
<polygon fill="#2f2f2f" stroke="#2f2f2f" stroke-width="1.8" points="1793.28,-142.23 1788.01,-135.59 1787.99,-144.07 1793.28,-142.23"/>
<text text-anchor="middle" x="1765.19" y="-167.29" font-family="Helvetica,sans-Serif" font-size="10.00">flush skewers until all_done</text>
</g>
<!-- MM_DRAIN_SA -->
<g id="node14" class="node">
<title>MM_DRAIN_SA</title>
<path fill="#e8f0fe" stroke="#557aab" stroke-width="2" d="M2114.44,-132.04C2114.44,-132.04 1970.02,-132.04 1970.02,-132.04 1964.02,-132.04 1958.02,-126.04 1958.02,-120.04 1958.02,-120.04 1958.02,-108.04 1958.02,-108.04 1958.02,-102.04 1964.02,-96.04 1970.02,-96.04 1970.02,-96.04 2114.44,-96.04 2114.44,-96.04 2120.44,-96.04 2126.44,-102.04 2126.44,-108.04 2126.44,-108.04 2126.44,-120.04 2126.44,-120.04 2126.44,-126.04 2120.44,-132.04 2114.44,-132.04"/>
<text text-anchor="middle" x="2042.23" y="-109.36" font-family="Helvetica,sans-Serif" font-size="14.00" fill="#1f2d3d">CTRL_MM_DRAIN_SA</text>
</g>
<!-- MM_WAIT&#45;&gt;MM_DRAIN_SA -->
<g id="edge28" class="edge">
<title>MM_WAIT&#45;&gt;MM_DRAIN_SA</title>
<path fill="none" stroke="#2f2f2f" stroke-width="1.8" d="M1833.12,-114.04C1867.27,-114.04 1909.4,-114.04 1946.8,-114.04"/>
<polygon fill="#2f2f2f" stroke="#2f2f2f" stroke-width="1.8" points="1946.49,-116.84 1954.49,-114.04 1946.49,-111.24 1946.49,-116.84"/>
<text text-anchor="middle" x="1901.27" y="-117.29" font-family="Helvetica,sans-Serif" font-size="10.00">all_done_in</text>
</g>
<!-- MM_DRAIN_SA&#45;&gt;MM_DRAIN_SA -->
<g id="edge29" class="edge">
<title>MM_DRAIN_SA&#45;&gt;MM_DRAIN_SA</title>
<path fill="none" stroke="#2f2f2f" stroke-width="1.8" d="M2019.52,-133.02C2010.43,-148.28 2018,-164.04 2042.23,-164.04 2061.16,-164.04 2069.92,-154.42 2068.51,-142.94"/>
<polygon fill="#2f2f2f" stroke="#2f2f2f" stroke-width="1.8" points="2071.21,-142.16 2065.87,-135.58 2065.94,-144.06 2071.21,-142.16"/>
<text text-anchor="middle" x="2042.23" y="-167.29" font-family="Helvetica,sans-Serif" font-size="10.00">capture one drained row</text>
</g>
<!-- MM_WRITEBACK -->
<g id="node15" class="node">
<title>MM_WRITEBACK</title>
<path fill="#e8f0fe" stroke="#557aab" stroke-width="2" d="M2437.61,-125.04C2437.61,-125.04 2280.44,-125.04 2280.44,-125.04 2274.44,-125.04 2268.44,-119.04 2268.44,-113.04 2268.44,-113.04 2268.44,-101.04 2268.44,-101.04 2268.44,-95.04 2274.44,-89.04 2280.44,-89.04 2280.44,-89.04 2437.61,-89.04 2437.61,-89.04 2443.61,-89.04 2449.61,-95.04 2449.61,-101.04 2449.61,-101.04 2449.61,-113.04 2449.61,-113.04 2449.61,-119.04 2443.61,-125.04 2437.61,-125.04"/>
<text text-anchor="middle" x="2359.03" y="-102.36" font-family="Helvetica,sans-Serif" font-size="14.00" fill="#1f2d3d">CTRL_MM_WRITEBACK</text>
</g>
<!-- MM_DRAIN_SA&#45;&gt;MM_WRITEBACK -->
<g id="edge30" class="edge">
<title>MM_DRAIN_SA&#45;&gt;MM_WRITEBACK</title>
<path fill="none" stroke="#2f2f2f" stroke-width="1.8" d="M2127.18,-112.17C2167.14,-111.28 2215.24,-110.21 2257.17,-109.28"/>
<polygon fill="#2f2f2f" stroke="#2f2f2f" stroke-width="1.8" points="2257.03,-112.08 2264.97,-109.11 2256.91,-106.48 2257.03,-112.08"/>
<text text-anchor="middle" x="2197.44" y="-114.62" font-family="Helvetica,sans-Serif" font-size="10.00">all rows captured</text>
</g>
<!-- MM_WRITEBACK&#45;&gt;EXEC_MATMUL -->
<g id="edge32" class="edge">
<title>MM_WRITEBACK&#45;&gt;EXEC_MATMUL</title>
<path fill="none" stroke="#2f2f2f" stroke-width="1.8" d="M2308.98,-88.08C2247.75,-66.15 2139.37,-33.04 2043.23,-33.04 714.05,-33.04 714.05,-33.04 714.05,-33.04 710.24,-33.04 523.39,-101.03 423.4,-137.52"/>
<polygon fill="#2f2f2f" stroke="#2f2f2f" stroke-width="1.8" points="422.53,-134.85 415.98,-140.23 424.45,-140.11 422.53,-134.85"/>
<text text-anchor="middle" x="1440.89" y="-36.29" font-family="Helvetica,sans-Serif" font-size="10.00">advance N tile</text>
</g>
<!-- MM_WRITEBACK&#45;&gt;MM_WRITEBACK -->
<g id="edge31" class="edge">
<title>MM_WRITEBACK&#45;&gt;MM_WRITEBACK</title>
<path fill="none" stroke="#2f2f2f" stroke-width="1.8" d="M2332.99,-126.02C2322.57,-141.28 2331.25,-157.04 2359.03,-157.04 2380.94,-157.04 2390.97,-147.23 2389.1,-135.59"/>
<polygon fill="#2f2f2f" stroke="#2f2f2f" stroke-width="1.8" points="2391.81,-134.81 2386.12,-128.53 2386.65,-136.99 2391.81,-134.81"/>
<text text-anchor="middle" x="2359.03" y="-160.29" font-family="Helvetica,sans-Serif" font-size="10.00">write packed row to UB</text>
</g>
</g>
</svg>
