<?xml version="1.0" encoding="UTF-8" standalone="no"?>
<!DOCTYPE svg PUBLIC "-//W3C//DTD SVG 1.1//EN"
 "http://www.w3.org/Graphics/SVG/1.1/DTD/svg11.dtd">
<!-- Generated by graphviz version 2.43.0 (0)
 -->
<!-- Title: TinyNPUArchitecture Pages: 1 -->
<svg width="1311pt" height="758pt"
 viewBox="0.00 0.00 1310.62 758.06" xmlns="http://www.w3.org/2000/svg" xmlns:xlink="http://www.w3.org/1999/xlink">
<g id="graph0" class="graph" transform="scale(1 1) rotate(0) translate(14.4 743.66)">
<title>TinyNPUArchitecture</title>
<polygon fill="white" stroke="transparent" points="-14.4,14.4 -14.4,-743.66 1296.22,-743.66 1296.22,14.4 -14.4,14.4"/>
<g id="clust1" class="cluster">
<title>cluster_hostcpu</title>
<path fill="white" stroke="#557aab" stroke-width="2" stroke-dasharray="5,2" d="M76.81,-340.9C76.81,-340.9 232.81,-340.9 232.81,-340.9 238.81,-340.9 244.81,-346.9 244.81,-352.9 244.81,-352.9 244.81,-464.9 244.81,-464.9 244.81,-470.9 238.81,-476.9 232.81,-476.9 232.81,-476.9 76.81,-476.9 76.81,-476.9 70.81,-476.9 64.81,-470.9 64.81,-464.9 64.81,-464.9 64.81,-352.9 64.81,-352.9 64.81,-346.9 70.81,-340.9 76.81,-340.9"/>
<text text-anchor="middle" x="154.81" y="-458.5" font-family="Helvetica,sans-Serif" font-size="18.00" fill="#355c7d">Host CPU</text>
</g>
<g id="clust2" class="cluster">
<title>cluster_pipeline</title>
<polygon fill="#f7fcf8" stroke="#6ab285" stroke-width="2.2" points="424.31,-232.9 424.31,-550.9 1260.32,-550.9 1260.32,-232.9 424.31,-232.9"/>
<text text-anchor="middle" x="842.32" y="-530.9" font-family="Helvetica,sans-Serif" font-size="20.00" fill="#2d6a4f">Pipelined Compute Path</text>
</g>
<!-- Runtime -->
<g id="node1" class="node">
<title>Runtime</title>
<polygon fill="#e8f0fe" stroke="#557aab" stroke-width="2.2" points="226.81,-430.9 82.81,-430.9 82.81,-358.9 226.81,-358.9 226.81,-430.9"/>
<text text-anchor="middle" x="154.81" y="-391.1" font-family="Helvetica,sans-Serif" font-size="16.00" fill="#1f2d3d">Runtime</text>
</g>
<!-- MMIO -->
<g id="node2" class="node">
<title>MMIO</title>
<polygon fill="#e8f0fe" stroke="#557aab" stroke-width="2.2" points="232.81,-600.9 76.81,-600.9 76.81,-558.9 232.81,-558.9 232.81,-600.9"/>
<text text-anchor="middle" x="154.81" y="-576.1" font-family="Helvetica,sans-Serif" font-size="16.00" fill="#1f2d3d">MMIO Interface</text>
</g>
<!-- Runtime&#45;&gt;MMIO -->
<g id="edge5" class="edge">
<title>Runtime:e&#45;&gt;MMIO:s</title>
<path fill="none" stroke="#2f2f2f" stroke-width="2" d="M156.38,-548.95C166.2,-514.57 218.92,-459.41 226.81,-430.9 231.08,-415.48 243.82,-394.9 227.81,-394.9"/>
<polygon fill="#2f2f2f" stroke="#2f2f2f" stroke-width="2" points="153.1,-549.52 154.81,-558.9 159.33,-550.5 153.1,-549.52"/>
<text text-anchor="middle" x="239.31" y="-491.8" font-family="Helvetica,sans-Serif" font-size="12.00">host commands</text>
</g>
<!-- RuntimeMMIOSpacer -->
<!-- Runtime&#45;&gt;RuntimeMMIOSpacer -->
<!-- MMIO&#45;&gt;Runtime -->
<g id="edge6" class="edge">
<title>MMIO:s&#45;&gt;Runtime:w</title>
<path fill="none" stroke="#2f2f2f" stroke-width="2" d="M71.7,-395.01C-63.12,-397.86 30.41,-459.22 54.81,-501.4 80.48,-545.78 154.81,-507.63 154.81,-558.9"/>
<polygon fill="#2f2f2f" stroke="#2f2f2f" stroke-width="2" points="72.84,-398.14 81.81,-394.9 72.78,-391.85 72.84,-398.14"/>
<text text-anchor="middle" x="92.31" y="-491.8" font-family="Helvetica,sans-Serif" font-size="12.00">status / data</text>
</g>
<!-- IM -->
<g id="node3" class="node">
<title>IM</title>
<polygon fill="#efe8ff" stroke="#8b74bd" stroke-width="2.2" points="606.81,-600.9 415.81,-600.9 415.81,-558.9 606.81,-558.9 606.81,-600.9"/>
<text text-anchor="middle" x="511.31" y="-576.1" font-family="Helvetica,sans-Serif" font-size="16.00" fill="#2c2236">Instruction Memory</text>
</g>
<!-- MMIO&#45;&gt;IM -->
<g id="edge7" class="edge">
<title>MMIO&#45;&gt;IM</title>
<path fill="none" stroke="#2f2f2f" stroke-width="2" d="M233.03,-594.99C241.37,-596.18 249.75,-597.2 257.81,-597.9 316.7,-603.06 331.86,-602.32 390.81,-597.9 395.97,-597.52 401.24,-597.04 406.56,-596.49"/>
<polygon fill="#2f2f2f" stroke="#2f2f2f" stroke-width="2" points="406.95,-599.61 415.55,-595.5 406.26,-593.35 406.95,-599.61"/>
<text text-anchor="middle" x="324.31" y="-604.3" font-family="Helvetica,sans-Serif" font-size="12.00">instruction load</text>
</g>
<!-- MMIO&#45;&gt;IM -->
<!-- UB -->
<g id="node5" class="node">
<title>UB</title>
<polygon fill="#efe8ff" stroke="#8b74bd" stroke-width="2.2" points="590.31,-495.4 432.31,-495.4 432.31,-416.4 590.31,-416.4 590.31,-495.4"/>
<text text-anchor="middle" x="511.31" y="-452.1" font-family="Helvetica,sans-Serif" font-size="16.00" fill="#2c2236">Unified Buffer</text>
</g>
<!-- MMIO&#45;&gt;UB -->
<g id="edge8" class="edge">
<title>MMIO&#45;&gt;UB</title>
<path fill="none" stroke="#2f2f2f" stroke-width="2" d="M224.53,-555.87C281.35,-535.99 362.37,-507.65 423.64,-486.22"/>
<polygon fill="#2f2f2f" stroke="#2f2f2f" stroke-width="2" points="223.4,-552.92 215.95,-558.87 225.48,-558.87 223.4,-552.92"/>
<polygon fill="#2f2f2f" stroke="#2f2f2f" stroke-width="2" points="424.7,-489.19 432.15,-483.24 422.62,-483.24 424.7,-489.19"/>
<text text-anchor="middle" x="324.31" y="-546.3" font-family="Helvetica,sans-Serif" font-size="12.00">buffer load / readback</text>
</g>
<!-- IM&#45;&gt;UB -->
<!-- RuntimeMMIOSpacer&#45;&gt;MMIO -->
<!-- InStream -->
<g id="node6" class="node">
<title>InStream</title>
<polygon fill="#e7f6ec" stroke="#4f9a6c" stroke-width="2.2" points="930.83,-360.9 751.05,-360.9 704.8,-240.9 884.58,-240.9 930.83,-360.9"/>
<text text-anchor="middle" x="817.82" y="-306.1" font-family="Helvetica,sans-Serif" font-size="16.00" fill="#1f3328">Input</text>
<text text-anchor="middle" x="817.82" y="-288.1" font-family="Helvetica,sans-Serif" font-size="16.00" fill="#1f3328">Streamer</text>
</g>
<!-- UB&#45;&gt;InStream -->
<g id="edge1" class="edge">
<title>UB&#45;&gt;InStream:w</title>
<path fill="none" stroke="#2f2f2f" stroke-width="2" d="M541.24,-416.39C577.07,-372.26 642.64,-306.3 717.63,-301.22"/>
<polygon fill="#2f2f2f" stroke="#2f2f2f" stroke-width="2" points="717.93,-304.36 726.82,-300.9 717.71,-298.06 717.93,-304.36"/>
<text text-anchor="middle" x="655.81" y="-333.3" font-family="Helvetica,sans-Serif" font-size="12.00">A words</text>
</g>
<!-- WtStream -->
<g id="node7" class="node">
<title>WtStream</title>
<polygon fill="#e7f6ec" stroke="#4f9a6c" stroke-width="2.2" points="930.83,-512.9 751.05,-512.9 704.8,-392.9 884.58,-392.9 930.83,-512.9"/>
<text text-anchor="middle" x="817.82" y="-458.1" font-family="Helvetica,sans-Serif" font-size="16.00" fill="#1f3328">Weight</text>
<text text-anchor="middle" x="817.82" y="-440.1" font-family="Helvetica,sans-Serif" font-size="16.00" fill="#1f3328">Streamer</text>
</g>
<!-- UB&#45;&gt;WtStream -->
<g id="edge2" class="edge">
<title>UB&#45;&gt;WtStream:w</title>
<path fill="none" stroke="#2f2f2f" stroke-width="2" d="M590.5,-454.28C628.46,-453.62 674.99,-452.99 717.75,-452.91"/>
<polygon fill="#2f2f2f" stroke="#2f2f2f" stroke-width="2" points="717.82,-456.06 726.82,-452.9 717.81,-449.76 717.82,-456.06"/>
<text text-anchor="middle" x="655.81" y="-456.3" font-family="Helvetica,sans-Serif" font-size="12.00">weights</text>
</g>
<!-- PPU -->
<g id="node9" class="node">
<title>PPU</title>
<polygon fill="#ffe8db" stroke="#d18a66" stroke-width="2.2" points="1281.32,-200.9 1072.32,-200.9 1072.32,-114.9 1281.32,-114.9 1281.32,-200.9"/>
<text text-anchor="middle" x="1176.82" y="-163.1" font-family="Helvetica,sans-Serif" font-size="16.00" fill="#40261d">Post&#45;Processing Unit</text>
<text text-anchor="middle" x="1176.82" y="-145.1" font-family="Helvetica,sans-Serif" font-size="16.00" fill="#40261d">+ Layout Reformatter</text>
</g>
<!-- UB&#45;&gt;PPU -->
<g id="edge10" class="edge">
<title>UB&#45;&gt;PPU</title>
<path fill="none" stroke="#7a7a7a" stroke-width="2" stroke-dasharray="5,2" d="M530.82,-415.98C559.34,-359.56 619.77,-258.25 704.81,-211.9 815.72,-151.46 962.91,-144.08 1063.03,-147.86"/>
<polygon fill="#7a7a7a" stroke="#7a7a7a" stroke-width="2" points="1063.15,-151.02 1072.27,-148.25 1063.41,-144.72 1063.15,-151.02"/>
<text text-anchor="middle" x="817.82" y="-215.3" font-family="Helvetica,sans-Serif" font-size="12.00" fill="#6e6e6e">bias</text>
</g>
<!-- XFORM -->
<g id="node10" class="node">
<title>XFORM</title>
<polygon fill="#fff4cc" stroke="#c49a3a" stroke-width="2.2" points="1281.82,-82.4 1071.82,-82.4 1071.82,-3.4 1281.82,-3.4 1281.82,-82.4"/>
<text text-anchor="middle" x="1176.82" y="-48.1" font-family="Helvetica,sans-Serif" font-size="16.00" fill="#3b2d0f">XFORM Unit</text>
<text text-anchor="middle" x="1176.82" y="-30.1" font-family="Helvetica,sans-Serif" font-size="16.00" fill="#3b2d0f">FP16/INT16 boundary</text>
</g>
<!-- UB&#45;&gt;XFORM -->
<g id="edge12" class="edge">
<title>UB&#45;&gt;XFORM</title>
<path fill="none" stroke="#2f2f2f" stroke-width="2" d="M524.87,-407.5C547.1,-332.88 601.12,-191.87 704.81,-129.9 814.35,-64.44 961.82,-46.2 1062.38,-42.09"/>
<polygon fill="#2f2f2f" stroke="#2f2f2f" stroke-width="2" points="521.81,-406.74 522.32,-416.26 527.86,-408.5 521.81,-406.74"/>
<polygon fill="#2f2f2f" stroke="#2f2f2f" stroke-width="2" points="1062.78,-45.22 1071.65,-41.74 1062.54,-38.93 1062.78,-45.22"/>
<text text-anchor="middle" x="817.82" y="-133.3" font-family="Helvetica,sans-Serif" font-size="12.00">quantize / dequantize</text>
</g>
<!-- SA -->
<g id="node8" class="node">
<title>SA</title>
<polygon fill="#e7f6ec" stroke="#4f9a6c" stroke-width="2.2" points="1252.32,-415.4 1101.32,-415.4 1101.32,-264.4 1252.32,-264.4 1252.32,-415.4"/>
<text text-anchor="middle" x="1176.82" y="-354.1" font-family="Helvetica,sans-Serif" font-size="16.00" fill="#1f3328">N x N</text>
<text text-anchor="middle" x="1176.82" y="-336.1" font-family="Helvetica,sans-Serif" font-size="16.00" fill="#1f3328">Systolic</text>
<text text-anchor="middle" x="1176.82" y="-318.1" font-family="Helvetica,sans-Serif" font-size="16.00" fill="#1f3328">Array</text>
</g>
<!-- InStream&#45;&gt;SA -->
<g id="edge3" class="edge">
<title>InStream&#45;&gt;SA:w</title>
<path fill="none" stroke="#2f2f2f" stroke-width="2" d="M915.57,-321.03C966.91,-330.1 1031.47,-338.99 1090.74,-339.84"/>
<polygon fill="#2f2f2f" stroke="#2f2f2f" stroke-width="2" points="1090.8,-342.99 1099.82,-339.9 1090.84,-336.69 1090.8,-342.99"/>
<text text-anchor="middle" x="1001.32" y="-340.3" font-family="Helvetica,sans-Serif" font-size="12.00">horizontal feed</text>
</g>
<!-- WtStream&#45;&gt;SA -->
<g id="edge4" class="edge">
<title>WtStream&#45;&gt;SA:n</title>
<path fill="none" stroke="#2f2f2f" stroke-width="2" d="M918.54,-480.7C1021.26,-504.03 1167.64,-520.22 1176.41,-426.05"/>
<polygon fill="#2f2f2f" stroke="#2f2f2f" stroke-width="2" points="1179.56,-426.04 1176.82,-416.9 1173.27,-425.75 1179.56,-426.04"/>
<text text-anchor="middle" x="1001.32" y="-501.3" font-family="Helvetica,sans-Serif" font-size="12.00">vertical feed</text>
</g>
<!-- SA&#45;&gt;PPU -->
<g id="edge9" class="edge">
<title>SA&#45;&gt;PPU</title>
<path fill="none" stroke="#2f2f2f" stroke-width="2" d="M1176.82,-264.32C1176.82,-246.11 1176.82,-227.05 1176.82,-210.17"/>
<polygon fill="#2f2f2f" stroke="#2f2f2f" stroke-width="2" points="1179.97,-210.03 1176.82,-201.03 1173.67,-210.03 1179.97,-210.03"/>
<text text-anchor="middle" x="1167.32" y="-229.55" font-family="Helvetica,sans-Serif" font-size="12.00">drain / capture</text>
</g>
<!-- PPU&#45;&gt;UB -->
<g id="edge11" class="edge">
<title>PPU&#45;&gt;UB</title>
<path fill="none" stroke="#2f2f2f" stroke-width="2" d="M1101.23,-114.9C1029.37,-73.48 931.42,-17.06 930.82,-16.9 901.75,-9.13 698.67,28.13 631.81,-42.9 535.04,-145.72 516.03,-322.08 512.7,-407.17"/>
<polygon fill="#2f2f2f" stroke="#2f2f2f" stroke-width="2" points="509.55,-407.24 512.39,-416.34 515.85,-407.45 509.55,-407.24"/>
<text text-anchor="middle" x="817.82" y="-33.3" font-family="Helvetica,sans-Serif" font-size="12.00">layout&#45;aware writeback</text>
<text text-anchor="middle" x="817.82" y="-20.3" font-family="Helvetica,sans-Serif" font-size="12.00">transpose / repack</text>
</g>
</g>
</svg>
