<?xml version="1.0" encoding="UTF-8" standalone="no"?>
<!DOCTYPE svg PUBLIC "-//W3C//DTD SVG 1.1//EN"
 "http://www.w3.org/Graphics/SVG/1.1/DTD/svg11.dtd">
<!-- Generated by graphviz version 12.2.1 (20241206.2353)
 -->
<!-- Title: TinyNPUArchitecture Pages: 1 -->
<svg width="1304pt" height="647pt"
 viewBox="0.00 0.00 1304.02 647.12" xmlns="http://www.w3.org/2000/svg" xmlns:xlink="http://www.w3.org/1999/xlink">
<g id="graph0" class="graph" transform="scale(1 1) rotate(0) translate(14.4 632.72)">
<title>TinyNPUArchitecture</title>
<polygon fill="white" stroke="none" points="-14.4,14.4 -14.4,-632.72 1289.62,-632.72 1289.62,14.4 -14.4,14.4"/>
<g id="clust1" class="cluster">
<title>cluster_hostcpu</title>
<path fill="white" stroke="#557aab" stroke-width="2" stroke-dasharray="5,2" d="M68.46,-229.6C68.46,-229.6 224.46,-229.6 224.46,-229.6 230.46,-229.6 236.46,-235.6 236.46,-241.6 236.46,-241.6 236.46,-355.6 236.46,-355.6 236.46,-361.6 230.46,-367.6 224.46,-367.6 224.46,-367.6 68.46,-367.6 68.46,-367.6 62.46,-367.6 56.46,-361.6 56.46,-355.6 56.46,-355.6 56.46,-241.6 56.46,-241.6 56.46,-235.6 62.46,-229.6 68.46,-229.6"/>
<text text-anchor="middle" x="146.46" y="-346.5" font-family="Helvetica,sans-Serif" font-size="18.00" fill="#355c7d">Host CPU</text>
</g>
<g id="clust2" class="cluster">
<title>cluster_pipeline</title>
<polygon fill="#f7fcf8" stroke="#6ab285" stroke-width="2.2" points="414.94,-111.6 414.94,-439.6 1260.17,-439.6 1260.17,-111.6 414.94,-111.6"/>
<text text-anchor="middle" x="837.55" y="-416.6" font-family="Helvetica,sans-Serif" font-size="20.00" fill="#2d6a4f">Pipelined Compute Path</text>
</g>
<!-- Runtime -->
<g id="node1" class="node">
<title>Runtime</title>
<polygon fill="#e8f0fe" stroke="#557aab" stroke-width="2.2" points="218.46,-319.6 74.46,-319.6 74.46,-247.6 218.46,-247.6 218.46,-319.6"/>
<text text-anchor="middle" x="146.46" y="-278.15" font-family="Helvetica,sans-Serif" font-size="16.00" fill="#1f2d3d">Runtime</text>
</g>
<!-- MMIO -->
<g id="node2" class="node">
<title>MMIO</title>
<polygon fill="#e8f0fe" stroke="#557aab" stroke-width="2.2" points="224.49,-489.87 68.43,-489.87 68.43,-447.33 224.49,-447.33 224.49,-489.87"/>
<text text-anchor="middle" x="146.46" y="-463.15" font-family="Helvetica,sans-Serif" font-size="16.00" fill="#1f2d3d">MMIO Interface</text>
</g>
<!-- Runtime&#45;&gt;MMIO -->
<g id="edge5" class="edge">
<title>Runtime:e&#45;&gt;MMIO:s</title>
<path fill="none" stroke="#2f2f2f" stroke-width="2" d="M148.43,-436.05C159.2,-401.66 210.67,-347.69 218.46,-319.6 222.73,-304.18 235.46,-283.6 219.46,-283.6"/>
<polygon fill="#2f2f2f" stroke="#2f2f2f" stroke-width="2" points="145.43,-434.94 146.98,-444.35 151.63,-436.03 145.43,-434.94"/>
<text text-anchor="middle" x="231.26" y="-379.19" font-family="Helvetica,sans-Serif" font-size="12.00">host commands</text>
</g>
<!-- RuntimeMMIOSpacer -->
<!-- Runtime&#45;&gt;RuntimeMMIOSpacer -->
<!-- MMIO&#45;&gt;Runtime -->
<g id="edge6" class="edge">
<title>MMIO:s&#45;&gt;Runtime:w</title>
<path fill="none" stroke="#2f2f2f" stroke-width="2" d="M62.16,-283.77C-52.43,-287.48 23.21,-349.23 47.21,-390.59 72.7,-434.54 146.46,-396.52 146.46,-447.33"/>
<polygon fill="#2f2f2f" stroke="#2f2f2f" stroke-width="2" points="61.48,-286.94 70.43,-283.65 61.38,-280.64 61.48,-286.94"/>
<text text-anchor="middle" x="84.33" y="-379.19" font-family="Helvetica,sans-Serif" font-size="12.00">status / data</text>
</g>
<!-- IM -->
<g id="node3" class="node">
<title>IM</title>
<polygon fill="#efe8ff" stroke="#8b74bd" stroke-width="2.2" points="597.8,-489.87 406.49,-489.87 406.49,-447.33 597.8,-447.33 597.8,-489.87"/>
<text text-anchor="middle" x="502.14" y="-463.15" font-family="Helvetica,sans-Serif" font-size="16.00" fill="#2c2236">Instruction Memory</text>
</g>
<!-- MMIO&#45;&gt;IM -->
<g id="edge7" class="edge">
<title>MMIO&#45;&gt;IM</title>
<path fill="none" stroke="#2f2f2f" stroke-width="2" d="M225.26,-483.77C233.41,-484.93 241.6,-485.91 249.49,-486.6 307.93,-491.72 322.98,-490.98 381.49,-486.6 385.54,-486.3 389.66,-485.94 393.82,-485.53"/>
<polygon fill="#2f2f2f" stroke="#2f2f2f" stroke-width="2" points="393.98,-488.68 402.59,-484.59 393.31,-482.42 393.98,-488.68"/>
<text text-anchor="middle" x="315.49" y="-493.01" font-family="Helvetica,sans-Serif" font-size="12.00">instruction load</text>
</g>
<!-- MMIO&#45;&gt;IM -->
<!-- UB -->
<g id="node5" class="node">
<title>UB</title>
<polygon fill="#efe8ff" stroke="#8b74bd" stroke-width="2.2" points="581.34,-384.2 422.94,-384.2 422.94,-305 581.34,-305 581.34,-384.2"/>
<text text-anchor="middle" x="502.14" y="-339.15" font-family="Helvetica,sans-Serif" font-size="16.00" fill="#2c2236">Unified Buffer</text>
</g>
<!-- MMIO&#45;&gt;UB -->
<g id="edge8" class="edge">
<title>MMIO&#45;&gt;UB</title>
<path fill="none" stroke="#2f2f2f" stroke-width="2" d="M221.74,-442.56C276.87,-423.23 352.33,-396.77 410.93,-376.23"/>
<polygon fill="#2f2f2f" stroke="#2f2f2f" stroke-width="2" points="220.99,-439.48 213.54,-445.43 223.08,-445.42 220.99,-439.48"/>
<polygon fill="#2f2f2f" stroke="#2f2f2f" stroke-width="2" points="411.74,-379.28 419.19,-373.33 409.65,-373.34 411.74,-379.28"/>
<text text-anchor="middle" x="315.49" y="-434.81" font-family="Helvetica,sans-Serif" font-size="12.00">buffer load / readback</text>
</g>
<!-- IM&#45;&gt;UB -->
<!-- RuntimeMMIOSpacer&#45;&gt;MMIO -->
<!-- InStream -->
<g id="node6" class="node">
<title>InStream</title>
<polygon fill="#e7f6ec" stroke="#4f9a6c" stroke-width="2.2" points="937.91,-243.64 758.46,-243.64 712.3,-119.56 891.75,-119.56 937.91,-243.64"/>
<text text-anchor="middle" x="825.1" y="-185.9" font-family="Helvetica,sans-Serif" font-size="16.00" fill="#1f3328">Input</text>
<text text-anchor="middle" x="825.1" y="-166.4" font-family="Helvetica,sans-Serif" font-size="16.00" fill="#1f3328">Streamer</text>
</g>
<!-- UB&#45;&gt;InStream -->
<g id="edge1" class="edge">
<title>UB&#45;&gt;InStream:w</title>
<path fill="none" stroke="#2f2f2f" stroke-width="2" d="M533.33,-304.31C571.4,-258.3 641.63,-188.52 721.48,-182.08"/>
<polygon fill="#2f2f2f" stroke="#2f2f2f" stroke-width="2" points="721.44,-185.23 730.31,-181.72 721.19,-178.94 721.44,-185.23"/>
<text text-anchor="middle" x="655.05" y="-219.66" font-family="Helvetica,sans-Serif" font-size="12.00">activations</text>
</g>
<!-- WtStream -->
<g id="node7" class="node">
<title>WtStream</title>
<polygon fill="#e7f6ec" stroke="#4f9a6c" stroke-width="2.2" points="937.91,-399.64 758.46,-399.64 712.3,-275.56 891.75,-275.56 937.91,-399.64"/>
<text text-anchor="middle" x="825.1" y="-341.9" font-family="Helvetica,sans-Serif" font-size="16.00" fill="#1f3328">Weight</text>
<text text-anchor="middle" x="825.1" y="-322.4" font-family="Helvetica,sans-Serif" font-size="16.00" fill="#1f3328">Streamer</text>
</g>
<!-- UB&#45;&gt;WtStream -->
<g id="edge2" class="edge">
<title>UB&#45;&gt;WtStream:w</title>
<path fill="none" stroke="#2f2f2f" stroke-width="2" d="M582.23,-341.01C623.16,-339.42 674.31,-337.86 721.44,-337.63"/>
<polygon fill="#2f2f2f" stroke="#2f2f2f" stroke-width="2" points="721.31,-340.78 730.31,-337.61 721.3,-334.48 721.31,-340.78"/>
<text text-anchor="middle" x="655.05" y="-342.33" font-family="Helvetica,sans-Serif" font-size="12.00">weights</text>
</g>
<!-- PPU -->
<g id="node9" class="node">
<title>PPU</title>
<polygon fill="#ffe8db" stroke="#d18a66" stroke-width="2.2" points="1275.22,-79.2 1077.91,-79.2 1077.91,0 1275.22,0 1275.22,-79.2"/>
<text text-anchor="middle" x="1176.57" y="-34.15" font-family="Helvetica,sans-Serif" font-size="16.00" fill="#40261d">Post&#45;Processing Unit</text>
</g>
<!-- UB&#45;&gt;PPU -->
<g id="edge10" class="edge">
<title>UB&#45;&gt;PPU</title>
<path fill="none" stroke="#7a7a7a" stroke-width="2" stroke-dasharray="5,2" d="M520.94,-304.2C550.41,-243.23 615.85,-130.46 712.3,-89.35 804.54,-50.03 838.39,-77.1 937.91,-89.35 949.28,-90.75 951.55,-94.2 962.91,-95.6 1002.61,-100.49 1013.83,-104.1 1052.91,-95.6 1065,-92.97 1077.32,-89.04 1089.26,-84.46"/>
<polygon fill="#7a7a7a" stroke="#7a7a7a" stroke-width="2" points="1090.13,-87.51 1097.3,-81.23 1087.77,-81.67 1090.13,-87.51"/>
<text text-anchor="middle" x="825.1" y="-92.2" font-family="Helvetica,sans-Serif" font-size="12.00" fill="#6e6e6e">bias</text>
</g>
<!-- SA -->
<g id="node8" class="node">
<title>SA</title>
<polygon fill="#e7f6ec" stroke="#4f9a6c" stroke-width="2.2" points="1252.17,-294.2 1100.97,-294.2 1100.97,-143 1252.17,-143 1252.17,-294.2"/>
<text text-anchor="middle" x="1176.57" y="-232.65" font-family="Helvetica,sans-Serif" font-size="16.00" fill="#1f3328">N x N</text>
<text text-anchor="middle" x="1176.57" y="-213.15" font-family="Helvetica,sans-Serif" font-size="16.00" fill="#1f3328">Systolic</text>
<text text-anchor="middle" x="1176.57" y="-193.65" font-family="Helvetica,sans-Serif" font-size="16.00" fill="#1f3328">Array</text>
</g>
<!-- InStream&#45;&gt;SA -->
<g id="edge3" class="edge">
<title>InStream&#45;&gt;SA:w</title>
<path fill="none" stroke="#2f2f2f" stroke-width="2" d="M922.95,-201.13C971.7,-209.43 1032.17,-217.46 1088.11,-218.49"/>
<polygon fill="#2f2f2f" stroke="#2f2f2f" stroke-width="2" points="1087.91,-221.64 1096.94,-218.57 1087.97,-215.34 1087.91,-221.64"/>
<text text-anchor="middle" x="1007.91" y="-219.48" font-family="Helvetica,sans-Serif" font-size="12.00">horizontal feed</text>
</g>
<!-- WtStream&#45;&gt;SA -->
<g id="edge4" class="edge">
<title>WtStream&#45;&gt;SA:n</title>
<path fill="none" stroke="#2f2f2f" stroke-width="2" d="M925.13,-363.19C1024.51,-383.65 1164.52,-396.05 1175.84,-307.17"/>
<polygon fill="#2f2f2f" stroke="#2f2f2f" stroke-width="2" points="1178.98,-307.4 1176.38,-298.22 1172.69,-307.01 1178.98,-307.4"/>
<text text-anchor="middle" x="1007.91" y="-380.74" font-family="Helvetica,sans-Serif" font-size="12.00">vertical feed</text>
</g>
<!-- SA&#45;&gt;PPU -->
<g id="edge9" class="edge">
<title>SA&#45;&gt;PPU</title>
<path fill="none" stroke="#2f2f2f" stroke-width="2" d="M1176.57,-142.23C1176.57,-125.1 1176.57,-107.33 1176.57,-91.48"/>
<polygon fill="#2f2f2f" stroke="#2f2f2f" stroke-width="2" points="1179.72,-91.8 1176.57,-82.8 1173.42,-91.8 1179.72,-91.8"/>
<text text-anchor="middle" x="1166.44" y="-106.82" font-family="Helvetica,sans-Serif" font-size="12.00">drain / capture</text>
</g>
<!-- PPU&#45;&gt;UB -->
<g id="edge11" class="edge">
<title>PPU&#45;&gt;UB</title>
<path fill="none" stroke="#2f2f2f" stroke-width="2" d="M1077.05,-27.66C982,-19.25 834.9,-14.45 712.3,-46.35 668.56,-57.73 653.97,-61.89 622.8,-94.6 568.4,-151.67 534.62,-238.1 517.35,-292.92"/>
<polygon fill="#2f2f2f" stroke="#2f2f2f" stroke-width="2" points="514.43,-291.7 514.8,-301.23 520.45,-293.55 514.43,-291.7"/>
<text text-anchor="middle" x="825.1" y="-49.2" font-family="Helvetica,sans-Serif" font-size="12.00">packed writeback</text>
</g>
</g>
</svg>
