<?xml version="1.0" encoding="UTF-8" standalone="no"?>
<!DOCTYPE svg PUBLIC "-//W3C//DTD SVG 1.1//EN"
 "http://www.w3.org/Graphics/SVG/1.1/DTD/svg11.dtd">
<!-- Generated by graphviz version 12.2.1 (20241206.2353)
 -->
<!-- Title: TinyNPUArchitecture Pages: 1 -->
<svg width="1919pt" height="630pt"
 viewBox="0.00 0.00 1919.20 629.69" xmlns="http://www.w3.org/2000/svg" xmlns:xlink="http://www.w3.org/1999/xlink">
<g id="graph0" class="graph" transform="scale(1 1) rotate(0) translate(14.4 615.29)">
<title>TinyNPUArchitecture</title>
<polygon fill="white" stroke="none" points="-14.4,14.4 -14.4,-615.29 1904.8,-615.29 1904.8,14.4 -14.4,14.4"/>
<g id="clust1" class="cluster">
<title>cluster_hostcpu</title>
<path fill="white" stroke="#557aab" stroke-width="2" stroke-dasharray="5,2" d="M68.46,-212.17C68.46,-212.17 224.46,-212.17 224.46,-212.17 230.46,-212.17 236.46,-218.17 236.46,-224.17 236.46,-224.17 236.46,-338.17 236.46,-338.17 236.46,-344.17 230.46,-350.17 224.46,-350.17 224.46,-350.17 68.46,-350.17 68.46,-350.17 62.46,-350.17 56.46,-344.17 56.46,-338.17 56.46,-338.17 56.46,-224.17 56.46,-224.17 56.46,-218.17 62.46,-212.17 68.46,-212.17"/>
<text text-anchor="middle" x="146.46" y="-329.07" font-family="Helvetica,sans-Serif" font-size="18.00" fill="#355c7d">Host CPU</text>
</g>
<g id="clust2" class="cluster">
<title>cluster_pipeline</title>
<polygon fill="#f7fcf8" stroke="#6ab285" stroke-width="2.2" points="414.94,-123.17 414.94,-422.17 1869.35,-422.17 1869.35,-123.17 414.94,-123.17"/>
<text text-anchor="middle" x="1142.14" y="-399.17" font-family="Helvetica,sans-Serif" font-size="20.00" fill="#2d6a4f">Pipelined Compute Path</text>
</g>
<!-- Runtime -->
<g id="node1" class="node">
<title>Runtime</title>
<polygon fill="#e8f0fe" stroke="#557aab" stroke-width="2.2" points="218.46,-302.17 74.46,-302.17 74.46,-230.17 218.46,-230.17 218.46,-302.17"/>
<text text-anchor="middle" x="146.46" y="-260.72" font-family="Helvetica,sans-Serif" font-size="16.00" fill="#1f2d3d">Runtime</text>
</g>
<!-- MMIO -->
<g id="node2" class="node">
<title>MMIO</title>
<polygon fill="#e8f0fe" stroke="#557aab" stroke-width="2.2" points="224.49,-472.44 68.43,-472.44 68.43,-429.9 224.49,-429.9 224.49,-472.44"/>
<text text-anchor="middle" x="146.46" y="-445.72" font-family="Helvetica,sans-Serif" font-size="16.00" fill="#1f2d3d">MMIO Interface</text>
</g>
<!-- Runtime&#45;&gt;MMIO -->
<g id="edge7" class="edge">
<title>Runtime:e&#45;&gt;MMIO:s</title>
<path fill="none" stroke="#2f2f2f" stroke-width="2" d="M148.43,-418.63C159.2,-384.23 210.67,-330.26 218.46,-302.17 222.73,-286.75 235.46,-266.17 219.46,-266.17"/>
<polygon fill="#2f2f2f" stroke="#2f2f2f" stroke-width="2" points="145.43,-417.51 146.98,-426.92 151.63,-418.6 145.43,-417.51"/>
<text text-anchor="middle" x="231.26" y="-361.76" font-family="Helvetica,sans-Serif" font-size="12.00">host commands</text>
</g>
<!-- RuntimeMMIOSpacer -->
<!-- Runtime&#45;&gt;RuntimeMMIOSpacer -->
<!-- MMIO&#45;&gt;Runtime -->
<g id="edge8" class="edge">
<title>MMIO:s&#45;&gt;Runtime:w</title>
<path fill="none" stroke="#2f2f2f" stroke-width="2" d="M62.16,-266.35C-52.43,-270.05 23.21,-331.8 47.21,-373.16 72.7,-417.11 146.46,-379.09 146.46,-429.9"/>
<polygon fill="#2f2f2f" stroke="#2f2f2f" stroke-width="2" points="61.48,-269.51 70.43,-266.22 61.38,-263.21 61.48,-269.51"/>
<text text-anchor="middle" x="84.33" y="-361.76" font-family="Helvetica,sans-Serif" font-size="12.00">status / data</text>
</g>
<!-- IM -->
<g id="node3" class="node">
<title>IM</title>
<polygon fill="#efe8ff" stroke="#8b74bd" stroke-width="2.2" points="597.8,-472.44 406.49,-472.44 406.49,-429.9 597.8,-429.9 597.8,-472.44"/>
<text text-anchor="middle" x="502.14" y="-445.72" font-family="Helvetica,sans-Serif" font-size="16.00" fill="#2c2236">Instruction Memory</text>
</g>
<!-- MMIO&#45;&gt;IM -->
<g id="edge9" class="edge">
<title>MMIO&#45;&gt;IM</title>
<path fill="none" stroke="#2f2f2f" stroke-width="2" d="M225.26,-466.34C233.41,-467.5 241.6,-468.48 249.49,-469.17 307.93,-474.29 322.98,-473.55 381.49,-469.17 385.54,-468.87 389.66,-468.51 393.82,-468.1"/>
<polygon fill="#2f2f2f" stroke="#2f2f2f" stroke-width="2" points="393.98,-471.25 402.59,-467.16 393.31,-464.99 393.98,-471.25"/>
<text text-anchor="middle" x="315.49" y="-475.59" font-family="Helvetica,sans-Serif" font-size="12.00">instruction load</text>
</g>
<!-- MMIO&#45;&gt;IM -->
<!-- UB -->
<g id="node5" class="node">
<title>UB</title>
<polygon fill="#efe8ff" stroke="#8b74bd" stroke-width="2.2" points="581.34,-366.77 422.94,-366.77 422.94,-287.57 581.34,-287.57 581.34,-366.77"/>
<text text-anchor="middle" x="502.14" y="-321.72" font-family="Helvetica,sans-Serif" font-size="16.00" fill="#2c2236">Unified Buffer</text>
</g>
<!-- MMIO&#45;&gt;UB -->
<g id="edge10" class="edge">
<title>MMIO&#45;&gt;UB</title>
<path fill="none" stroke="#2f2f2f" stroke-width="2" d="M221.74,-425.13C276.87,-405.8 352.33,-379.34 410.93,-358.8"/>
<polygon fill="#2f2f2f" stroke="#2f2f2f" stroke-width="2" points="220.99,-422.05 213.54,-428 223.08,-428 220.99,-422.05"/>
<polygon fill="#2f2f2f" stroke="#2f2f2f" stroke-width="2" points="411.74,-361.85 419.19,-355.9 409.65,-355.91 411.74,-361.85"/>
<text text-anchor="middle" x="315.49" y="-417.38" font-family="Helvetica,sans-Serif" font-size="12.00">buffer load / readback</text>
</g>
<!-- IM&#45;&gt;UB -->
<!-- RuntimeMMIOSpacer&#45;&gt;MMIO -->
<!-- WinGather -->
<g id="node6" class="node">
<title>WinGather</title>
<polygon fill="#e7f6ec" stroke="#4f9a6c" stroke-width="2.2" points="1039.86,-255.21 777.53,-255.21 710.05,-131.13 972.37,-131.13 1039.86,-255.21"/>
<text text-anchor="middle" x="874.95" y="-197.47" font-family="Helvetica,sans-Serif" font-size="16.00" fill="#1f3328">Window Gather</text>
<text text-anchor="middle" x="874.95" y="-177.97" font-family="Helvetica,sans-Serif" font-size="16.00" fill="#1f3328">(conv\_stream)</text>
</g>
<!-- UB&#45;&gt;WinGather -->
<g id="edge1" class="edge">
<title>UB&#45;&gt;WinGather:w</title>
<path fill="none" stroke="#2f2f2f" stroke-width="2" d="M544.46,-286.6C586.9,-249.17 656.91,-198.62 729.92,-193.58"/>
<polygon fill="#2f2f2f" stroke="#2f2f2f" stroke-width="2" points="729.75,-196.74 738.63,-193.28 729.53,-190.44 729.75,-196.74"/>
<text text-anchor="middle" x="653.92" y="-231.96" font-family="Helvetica,sans-Serif" font-size="12.00">lane reads</text>
</g>
<!-- InStream -->
<g id="node7" class="node">
<title>InStream</title>
<polygon fill="#e7f6ec" stroke="#4f9a6c" stroke-width="2.2" points="1541.09,-255.21 1361.64,-255.21 1315.48,-131.13 1494.93,-131.13 1541.09,-255.21"/>
<text text-anchor="middle" x="1428.28" y="-197.47" font-family="Helvetica,sans-Serif" font-size="16.00" fill="#1f3328">Input</text>
<text text-anchor="middle" x="1428.28" y="-177.97" font-family="Helvetica,sans-Serif" font-size="16.00" fill="#1f3328">Streamer</text>
</g>
<!-- UB&#45;&gt;InStream -->
<g id="edge3" class="edge">
<title>UB&#45;&gt;InStream:n</title>
<path fill="none" stroke="#7a7a7a" stroke-width="2" stroke-dasharray="5,2" d="M582.18,-322.86C710.12,-315.21 956.64,-297.57 1039.86,-271.17 1052,-267.32 1052.54,-260.39 1064.86,-257.17 1065.13,-257.1 1354.46,-257.2 1416.61,-257"/>
<polygon fill="#7a7a7a" stroke="#7a7a7a" stroke-width="2" points="1416.28,-260.15 1425.26,-256.94 1416.23,-253.85 1416.28,-260.15"/>
<text text-anchor="middle" x="874.95" y="-331.11" font-family="Helvetica,sans-Serif" font-size="12.00" fill="#6e6e6e">direct A read</text>
<text text-anchor="middle" x="874.95" y="-316.86" font-family="Helvetica,sans-Serif" font-size="12.00" fill="#6e6e6e">(conv\_stream off)</text>
</g>
<!-- WtStream -->
<g id="node8" class="node">
<title>WtStream</title>
<polygon fill="#e7f6ec" stroke="#4f9a6c" stroke-width="2.2" points="1290.48,-382.21 1111.02,-382.21 1064.86,-258.13 1244.31,-258.13 1290.48,-382.21"/>
<text text-anchor="middle" x="1177.67" y="-324.47" font-family="Helvetica,sans-Serif" font-size="16.00" fill="#1f3328">Weight</text>
<text text-anchor="middle" x="1177.67" y="-304.97" font-family="Helvetica,sans-Serif" font-size="16.00" fill="#1f3328">Streamer</text>
</g>
<!-- UB&#45;&gt;WtStream -->
<g id="edge4" class="edge">
<title>UB&#45;&gt;WtStream:w</title>
<path fill="none" stroke="#2f2f2f" stroke-width="2" d="M581.96,-340.85C620.45,-346.85 667.53,-353.21 710.05,-356.17 856.27,-366.37 901.27,-403.92 1039.86,-356.17 1060,-349.23 1060.6,-329.45 1074.5,-322.57"/>
<polygon fill="#2f2f2f" stroke="#2f2f2f" stroke-width="2" points="1074.77,-325.73 1082.93,-320.79 1073.48,-319.56 1074.77,-325.73"/>
<text text-anchor="middle" x="653.92" y="-356.64" font-family="Helvetica,sans-Serif" font-size="12.00">weights</text>
</g>
<!-- PPU -->
<g id="node10" class="node">
<title>PPU</title>
<polygon fill="#ffe8db" stroke="#d18a66" stroke-width="2.2" points="1890.4,-93.37 1681.09,-93.37 1681.09,-6.97 1890.4,-6.97 1890.4,-93.37"/>
<text text-anchor="middle" x="1785.75" y="-54.47" font-family="Helvetica,sans-Serif" font-size="16.00" fill="#40261d">Post&#45;Processing Unit</text>
<text text-anchor="middle" x="1785.75" y="-34.97" font-family="Helvetica,sans-Serif" font-size="16.00" fill="#40261d">+ Layout Reformatter</text>
</g>
<!-- UB&#45;&gt;PPU -->
<g id="edge12" class="edge">
<title>UB&#45;&gt;PPU</title>
<path fill="none" stroke="#7a7a7a" stroke-width="2" stroke-dasharray="5,2" d="M526.95,-286.65C560.22,-234.72 626.07,-147.54 710.05,-115.17 882.36,-48.75 1359.17,-83.42 1541.09,-115.17 1552.73,-117.2 1554.46,-122.14 1566.09,-124.17 1605.5,-131.05 1617.45,-134.49 1656.09,-124.17 1667.01,-121.26 1685.55,-111.65 1705.21,-100.28"/>
<polygon fill="#7a7a7a" stroke="#7a7a7a" stroke-width="2" points="1706.78,-103.01 1712.94,-95.74 1703.59,-97.58 1706.78,-103.01"/>
<text text-anchor="middle" x="1177.67" y="-89.32" font-family="Helvetica,sans-Serif" font-size="12.00" fill="#6e6e6e">bias</text>
</g>
<!-- WinGather&#45;&gt;InStream -->
<g id="edge2" class="edge">
<title>WinGather&#45;&gt;InStream:w</title>
<path fill="none" stroke="#2f2f2f" stroke-width="2" d="M1006.97,-193.17C1095.9,-193.17 1216.54,-193.17 1324.74,-193.17"/>
<polygon fill="#2f2f2f" stroke="#2f2f2f" stroke-width="2" points="1324.49,-196.32 1333.49,-193.17 1324.49,-190.02 1324.49,-196.32"/>
<text text-anchor="middle" x="1177.67" y="-196.02" font-family="Helvetica,sans-Serif" font-size="12.00">gathered A word</text>
</g>
<!-- SA -->
<g id="node9" class="node">
<title>SA</title>
<polygon fill="#e7f6ec" stroke="#4f9a6c" stroke-width="2.2" points="1861.35,-307.77 1710.15,-307.77 1710.15,-156.57 1861.35,-156.57 1861.35,-307.77"/>
<text text-anchor="middle" x="1785.75" y="-246.22" font-family="Helvetica,sans-Serif" font-size="16.00" fill="#1f3328">N x N</text>
<text text-anchor="middle" x="1785.75" y="-226.72" font-family="Helvetica,sans-Serif" font-size="16.00" fill="#1f3328">Systolic</text>
<text text-anchor="middle" x="1785.75" y="-207.22" font-family="Helvetica,sans-Serif" font-size="16.00" fill="#1f3328">Array</text>
</g>
<!-- InStream&#45;&gt;SA -->
<g id="edge5" class="edge">
<title>InStream&#45;&gt;SA:w</title>
<path fill="none" stroke="#2f2f2f" stroke-width="2" d="M1526.61,-213.47C1576.76,-222.34 1639.38,-230.98 1697.26,-232.06"/>
<polygon fill="#2f2f2f" stroke="#2f2f2f" stroke-width="2" points="1697.09,-235.21 1706.12,-232.14 1697.15,-228.91 1697.09,-235.21"/>
<text text-anchor="middle" x="1611.09" y="-232.94" font-family="Helvetica,sans-Serif" font-size="12.00">horizontal feed</text>
</g>
<!-- WtStream&#45;&gt;SA -->
<g id="edge6" class="edge">
<title>WtStream&#45;&gt;SA:n</title>
<path fill="none" stroke="#2f2f2f" stroke-width="2" d="M1283.03,-359.66C1453.04,-418.51 1772.31,-503.89 1785.34,-320.64"/>
<polygon fill="#2f2f2f" stroke="#2f2f2f" stroke-width="2" points="1788.48,-320.9 1785.64,-311.8 1782.18,-320.68 1788.48,-320.9"/>
<text text-anchor="middle" x="1428.28" y="-428.33" font-family="Helvetica,sans-Serif" font-size="12.00">vertical feed</text>
</g>
<!-- SA&#45;&gt;PPU -->
<g id="edge11" class="edge">
<title>SA&#45;&gt;PPU</title>
<path fill="none" stroke="#2f2f2f" stroke-width="2" d="M1785.75,-155.84C1785.75,-139.1 1785.75,-121.67 1785.75,-105.91"/>
<polygon fill="#2f2f2f" stroke="#2f2f2f" stroke-width="2" points="1788.9,-106.26 1785.75,-97.26 1782.6,-106.26 1788.9,-106.26"/>
<text text-anchor="middle" x="1775.62" y="-120.7" font-family="Helvetica,sans-Serif" font-size="12.00">drain / capture</text>
</g>
<!-- PPU&#45;&gt;UB -->
<g id="edge13" class="edge">
<title>PPU&#45;&gt;UB</title>
<path fill="none" stroke="#2f2f2f" stroke-width="2" d="M1680.15,-32.88C1484.34,-4.65 1051.4,38.13 710.05,-69.17 667.2,-82.64 654.48,-88.33 622.8,-120.17 577.85,-165.33 543.79,-230.75 523.71,-275.91"/>
<polygon fill="#2f2f2f" stroke="#2f2f2f" stroke-width="2" points="520.83,-274.64 520.12,-284.15 526.6,-277.16 520.83,-274.64"/>
<text text-anchor="middle" x="1177.67" y="-22.48" font-family="Helvetica,sans-Serif" font-size="12.00">layout&#45;aware writeback</text>
<text text-anchor="middle" x="1177.67" y="-8.23" font-family="Helvetica,sans-Serif" font-size="12.00">transpose / repack</text>
</g>
</g>
</svg>
