<?xml version="1.0" encoding="UTF-8" standalone="no"?>
<!DOCTYPE svg PUBLIC "-//W3C//DTD SVG 1.1//EN"
 "http://www.w3.org/Graphics/SVG/1.1/DTD/svg11.dtd">
<!-- Generated by graphviz version 12.2.1 (20241206.2353)
 -->
<!-- Title: TinyNPUArchitecture Pages: 1 -->
<svg width="1316pt" height="654pt"
 viewBox="0.00 0.00 1316.02 653.72" xmlns="http://www.w3.org/2000/svg" xmlns:xlink="http://www.w3.org/1999/xlink">
<g id="graph0" class="graph" transform="scale(1 1) rotate(0) translate(14.4 639.32)">
<title>TinyNPUArchitecture</title>
<polygon fill="white" stroke="none" points="-14.4,14.4 -14.4,-639.32 1301.62,-639.32 1301.62,14.4 -14.4,14.4"/>
<g id="clust1" class="cluster">
<title>cluster_hostcpu</title>
<path fill="white" stroke="#557aab" stroke-width="2" stroke-dasharray="5,2" d="M68.46,-236.2C68.46,-236.2 224.46,-236.2 224.46,-236.2 230.46,-236.2 236.46,-242.2 236.46,-248.2 236.46,-248.2 236.46,-362.2 236.46,-362.2 236.46,-368.2 230.46,-374.2 224.46,-374.2 224.46,-374.2 68.46,-374.2 68.46,-374.2 62.46,-374.2 56.46,-368.2 56.46,-362.2 56.46,-362.2 56.46,-248.2 56.46,-248.2 56.46,-242.2 62.46,-236.2 68.46,-236.2"/>
<text text-anchor="middle" x="146.46" y="-353.1" font-family="Helvetica,sans-Serif" font-size="18.00" fill="#355c7d">Host CPU</text>
</g>
<g id="clust2" class="cluster">
<title>cluster_pipeline</title>
<polygon fill="#f7fcf8" stroke="#6ab285" stroke-width="2.2" points="414.94,-118.2 414.94,-446.2 1266.17,-446.2 1266.17,-118.2 414.94,-118.2"/>
<text text-anchor="middle" x="840.55" y="-423.2" font-family="Helvetica,sans-Serif" font-size="20.00" fill="#2d6a4f">Pipelined Compute Path</text>
</g>
<!-- Runtime -->
<g id="node1" class="node">
<title>Runtime</title>
<polygon fill="#e8f0fe" stroke="#557aab" stroke-width="2.2" points="218.46,-326.2 74.46,-326.2 74.46,-254.2 218.46,-254.2 218.46,-326.2"/>
<text text-anchor="middle" x="146.46" y="-284.75" font-family="Helvetica,sans-Serif" font-size="16.00" fill="#1f2d3d">Runtime</text>
</g>
<!-- MMIO -->
<g id="node2" class="node">
<title>MMIO</title>
<polygon fill="#e8f0fe" stroke="#557aab" stroke-width="2.2" points="224.49,-496.47 68.43,-496.47 68.43,-453.93 224.49,-453.93 224.49,-496.47"/>
<text text-anchor="middle" x="146.46" y="-469.75" font-family="Helvetica,sans-Serif" font-size="16.00" fill="#1f2d3d">MMIO Interface</text>
</g>
<!-- Runtime&#45;&gt;MMIO -->
<g id="edge5" class="edge">
<title>Runtime:e&#45;&gt;MMIO:s</title>
<path fill="none" stroke="#2f2f2f" stroke-width="2" d="M148.43,-442.65C159.2,-408.26 210.67,-354.29 218.46,-326.2 222.73,-310.78 235.46,-290.2 219.46,-290.2"/>
<polygon fill="#2f2f2f" stroke="#2f2f2f" stroke-width="2" points="145.43,-441.54 146.98,-450.95 151.63,-442.63 145.43,-441.54"/>
<text text-anchor="middle" x="231.26" y="-385.79" font-family="Helvetica,sans-Serif" font-size="12.00">host commands</text>
</g>
<!-- RuntimeMMIOSpacer -->
<!-- Runtime&#45;&gt;RuntimeMMIOSpacer -->
<!-- MMIO&#45;&gt;Runtime -->
<g id="edge6" class="edge">
<title>MMIO:s&#45;&gt;Runtime:w</title>
<path fill="none" stroke="#2f2f2f" stroke-width="2" d="M62.16,-290.37C-52.43,-294.08 23.21,-355.83 47.21,-397.19 72.7,-441.14 146.46,-403.12 146.46,-453.93"/>
<polygon fill="#2f2f2f" stroke="#2f2f2f" stroke-width="2" points="61.48,-293.54 70.43,-290.25 61.38,-287.24 61.48,-293.54"/>
<text text-anchor="middle" x="84.33" y="-385.79" font-family="Helvetica,sans-Serif" font-size="12.00">status / data</text>
</g>
<!-- IM -->
<g id="node3" class="node">
<title>IM</title>
<polygon fill="#efe8ff" stroke="#8b74bd" stroke-width="2.2" points="597.8,-496.47 406.49,-496.47 406.49,-453.93 597.8,-453.93 597.8,-496.47"/>
<text text-anchor="middle" x="502.14" y="-469.75" font-family="Helvetica,sans-Serif" font-size="16.00" fill="#2c2236">Instruction Memory</text>
</g>
<!-- MMIO&#45;&gt;IM -->
<g id="edge7" class="edge">
<title>MMIO&#45;&gt;IM</title>
<path fill="none" stroke="#2f2f2f" stroke-width="2" d="M225.26,-490.37C233.41,-491.53 241.6,-492.51 249.49,-493.2 307.93,-498.32 322.98,-497.58 381.49,-493.2 385.54,-492.9 389.66,-492.54 393.82,-492.13"/>
<polygon fill="#2f2f2f" stroke="#2f2f2f" stroke-width="2" points="393.98,-495.28 402.59,-491.19 393.31,-489.02 393.98,-495.28"/>
<text text-anchor="middle" x="315.49" y="-499.61" font-family="Helvetica,sans-Serif" font-size="12.00">instruction load</text>
</g>
<!-- MMIO&#45;&gt;IM -->
<!-- UB -->
<g id="node5" class="node">
<title>UB</title>
<polygon fill="#efe8ff" stroke="#8b74bd" stroke-width="2.2" points="581.34,-390.8 422.94,-390.8 422.94,-311.6 581.34,-311.6 581.34,-390.8"/>
<text text-anchor="middle" x="502.14" y="-345.75" font-family="Helvetica,sans-Serif" font-size="16.00" fill="#2c2236">Unified Buffer</text>
</g>
<!-- MMIO&#45;&gt;UB -->
<g id="edge8" class="edge">
<title>MMIO&#45;&gt;UB</title>
<path fill="none" stroke="#2f2f2f" stroke-width="2" d="M221.74,-449.16C276.87,-429.83 352.33,-403.37 410.93,-382.83"/>
<polygon fill="#2f2f2f" stroke="#2f2f2f" stroke-width="2" points="220.99,-446.08 213.54,-452.03 223.08,-452.02 220.99,-446.08"/>
<polygon fill="#2f2f2f" stroke="#2f2f2f" stroke-width="2" points="411.74,-385.88 419.19,-379.93 409.65,-379.94 411.74,-385.88"/>
<text text-anchor="middle" x="315.49" y="-441.41" font-family="Helvetica,sans-Serif" font-size="12.00">buffer load / readback</text>
</g>
<!-- IM&#45;&gt;UB -->
<!-- RuntimeMMIOSpacer&#45;&gt;MMIO -->
<!-- InStream -->
<g id="node6" class="node">
<title>InStream</title>
<polygon fill="#e7f6ec" stroke="#4f9a6c" stroke-width="2.2" points="937.91,-250.24 758.46,-250.24 712.3,-126.16 891.75,-126.16 937.91,-250.24"/>
<text text-anchor="middle" x="825.1" y="-192.5" font-family="Helvetica,sans-Serif" font-size="16.00" fill="#1f3328">Input</text>
<text text-anchor="middle" x="825.1" y="-173" font-family="Helvetica,sans-Serif" font-size="16.00" fill="#1f3328">Streamer</text>
</g>
<!-- UB&#45;&gt;InStream -->
<g id="edge1" class="edge">
<title>UB&#45;&gt;InStream:w</title>
<path fill="none" stroke="#2f2f2f" stroke-width="2" d="M533.33,-310.91C571.4,-264.9 641.63,-195.12 721.48,-188.68"/>
<polygon fill="#2f2f2f" stroke="#2f2f2f" stroke-width="2" points="721.44,-191.83 730.31,-188.32 721.19,-185.54 721.44,-191.83"/>
<text text-anchor="middle" x="655.05" y="-226.26" font-family="Helvetica,sans-Serif" font-size="12.00">activations</text>
</g>
<!-- WtStream -->
<g id="node7" class="node">
<title>WtStream</title>
<polygon fill="#e7f6ec" stroke="#4f9a6c" stroke-width="2.2" points="937.91,-406.24 758.46,-406.24 712.3,-282.16 891.75,-282.16 937.91,-406.24"/>
<text text-anchor="middle" x="825.1" y="-348.5" font-family="Helvetica,sans-Serif" font-size="16.00" fill="#1f3328">Weight</text>
<text text-anchor="middle" x="825.1" y="-329" font-family="Helvetica,sans-Serif" font-size="16.00" fill="#1f3328">Streamer</text>
</g>
<!-- UB&#45;&gt;WtStream -->
<g id="edge2" class="edge">
<title>UB&#45;&gt;WtStream:w</title>
<path fill="none" stroke="#2f2f2f" stroke-width="2" d="M582.23,-347.61C623.16,-346.02 674.31,-344.46 721.44,-344.23"/>
<polygon fill="#2f2f2f" stroke="#2f2f2f" stroke-width="2" points="721.31,-347.38 730.31,-344.21 721.3,-341.08 721.31,-347.38"/>
<text text-anchor="middle" x="655.05" y="-348.93" font-family="Helvetica,sans-Serif" font-size="12.00">weights</text>
</g>
<!-- PPU -->
<g id="node9" class="node">
<title>PPU</title>
<polygon fill="#ffe8db" stroke="#d18a66" stroke-width="2.2" points="1287.22,-86.4 1077.91,-86.4 1077.91,0 1287.22,0 1287.22,-86.4"/>
<text text-anchor="middle" x="1182.57" y="-47.5" font-family="Helvetica,sans-Serif" font-size="16.00" fill="#40261d">Post&#45;Processing Unit</text>
<text text-anchor="middle" x="1182.57" y="-28" font-family="Helvetica,sans-Serif" font-size="16.00" fill="#40261d">+ Layout Reformatter</text>
</g>
<!-- UB&#45;&gt;PPU -->
<g id="edge10" class="edge">
<title>UB&#45;&gt;PPU</title>
<path fill="none" stroke="#7a7a7a" stroke-width="2" stroke-dasharray="5,2" d="M520.94,-310.8C550.41,-249.83 615.85,-137.06 712.3,-95.95 804.54,-56.63 837.85,-89.47 937.91,-95.95 949.09,-96.67 951.73,-98.48 962.91,-99.2 1002.83,-101.78 1013.75,-107.35 1052.91,-99.2 1062.43,-97.22 1072.1,-94.5 1081.65,-91.31"/>
<polygon fill="#7a7a7a" stroke="#7a7a7a" stroke-width="2" points="1082.5,-94.35 1089.94,-88.38 1080.4,-88.41 1082.5,-94.35"/>
<text text-anchor="middle" x="825.1" y="-98.8" font-family="Helvetica,sans-Serif" font-size="12.00" fill="#6e6e6e">bias</text>
</g>
<!-- SA -->
<g id="node8" class="node">
<title>SA</title>
<polygon fill="#e7f6ec" stroke="#4f9a6c" stroke-width="2.2" points="1258.17,-300.8 1106.97,-300.8 1106.97,-149.6 1258.17,-149.6 1258.17,-300.8"/>
<text text-anchor="middle" x="1182.57" y="-239.25" font-family="Helvetica,sans-Serif" font-size="16.00" fill="#1f3328">N x N</text>
<text text-anchor="middle" x="1182.57" y="-219.75" font-family="Helvetica,sans-Serif" font-size="16.00" fill="#1f3328">Systolic</text>
<text text-anchor="middle" x="1182.57" y="-200.25" font-family="Helvetica,sans-Serif" font-size="16.00" fill="#1f3328">Array</text>
</g>
<!-- InStream&#45;&gt;SA -->
<g id="edge3" class="edge">
<title>InStream&#45;&gt;SA:w</title>
<path fill="none" stroke="#2f2f2f" stroke-width="2" d="M922.83,-207.35C973.08,-215.8 1035.98,-224.06 1094.04,-225.09"/>
<polygon fill="#2f2f2f" stroke="#2f2f2f" stroke-width="2" points="1093.91,-228.24 1102.94,-225.17 1093.97,-221.94 1093.91,-228.24"/>
<text text-anchor="middle" x="1007.91" y="-226.08" font-family="Helvetica,sans-Serif" font-size="12.00">horizontal feed</text>
</g>
<!-- WtStream&#45;&gt;SA -->
<g id="edge4" class="edge">
<title>WtStream&#45;&gt;SA:n</title>
<path fill="none" stroke="#2f2f2f" stroke-width="2" d="M925.4,-370.13C1026.65,-391.33 1170.5,-404.77 1181.85,-313.74"/>
<polygon fill="#2f2f2f" stroke="#2f2f2f" stroke-width="2" points="1184.99,-313.99 1182.39,-304.82 1178.7,-313.62 1184.99,-313.99"/>
<text text-anchor="middle" x="1007.91" y="-388.46" font-family="Helvetica,sans-Serif" font-size="12.00">vertical feed</text>
</g>
<!-- SA&#45;&gt;PPU -->
<g id="edge9" class="edge">
<title>SA&#45;&gt;PPU</title>
<path fill="none" stroke="#2f2f2f" stroke-width="2" d="M1182.57,-148.87C1182.57,-132.13 1182.57,-114.7 1182.57,-98.94"/>
<polygon fill="#2f2f2f" stroke="#2f2f2f" stroke-width="2" points="1185.72,-99.28 1182.57,-90.28 1179.42,-99.28 1185.72,-99.28"/>
<text text-anchor="middle" x="1172.44" y="-113.72" font-family="Helvetica,sans-Serif" font-size="12.00">drain / capture</text>
</g>
<!-- PPU&#45;&gt;UB -->
<g id="edge11" class="edge">
<title>PPU&#45;&gt;UB</title>
<path fill="none" stroke="#2f2f2f" stroke-width="2" d="M1076.92,-25.13C980.08,-12.46 833.24,-3.66 712.3,-40.7 597.98,-75.71 539.95,-220.73 516.35,-299.58"/>
<polygon fill="#2f2f2f" stroke="#2f2f2f" stroke-width="2" points="513.45,-298.29 513.96,-307.81 519.5,-300.05 513.45,-298.29"/>
<text text-anchor="middle" x="825.1" y="-57.8" font-family="Helvetica,sans-Serif" font-size="12.00">layout&#45;aware writeback</text>
<text text-anchor="middle" x="825.1" y="-43.55" font-family="Helvetica,sans-Serif" font-size="12.00">transpose / repack</text>
</g>
</g>
</svg>
