<?xml version="1.0" encoding="UTF-8" standalone="no"?>
<!DOCTYPE svg PUBLIC "-//W3C//DTD SVG 1.1//EN"
 "http://www.w3.org/Graphics/SVG/1.1/DTD/svg11.dtd">
<!-- Generated by graphviz version 2.43.0 (0)
 -->
<!-- Title: TinyNPUArchitecture Pages: 1 -->
<svg width="1420pt" height="643pt"
 viewBox="0.00 0.00 1420.31 643.16" xmlns="http://www.w3.org/2000/svg" xmlns:xlink="http://www.w3.org/1999/xlink">
<g id="graph0" class="graph" transform="scale(1 1) rotate(0) translate(14.4 628.76)">
<title>TinyNPUArchitecture</title>
<polygon fill="white" stroke="transparent" points="-14.4,14.4 -14.4,-628.76 1405.91,-628.76 1405.91,14.4 -14.4,14.4"/>
<g id="clust1" class="cluster">
<title>cluster_hostcpu</title>
<path fill="white" stroke="#557aab" stroke-width="2" stroke-dasharray="5,2" d="M169.5,-196C169.5,-196 348.5,-196 348.5,-196 354.5,-196 360.5,-202 360.5,-208 360.5,-208 360.5,-320 360.5,-320 360.5,-326 354.5,-332 348.5,-332 348.5,-332 169.5,-332 169.5,-332 163.5,-332 157.5,-326 157.5,-320 157.5,-320 157.5,-208 157.5,-208 157.5,-202 163.5,-196 169.5,-196"/>
<text text-anchor="middle" x="259" y="-313.6" font-family="Helvetica,sans-Serif" font-size="18.00" fill="#355c7d">CV32E40P Host Core</text>
</g>
<g id="clust2" class="cluster">
<title>cluster_pipeline</title>
<polygon fill="#f7fcf8" stroke="#6ab285" stroke-width="2.2" points="535,-118 535,-436 1370.51,-436 1370.51,-118 535,-118"/>
<text text-anchor="middle" x="952.76" y="-416" font-family="Helvetica,sans-Serif" font-size="20.00" fill="#2d6a4f">Pipelined Compute Path</text>
</g>
<!-- Runtime -->
<g id="node1" class="node">
<title>Runtime</title>
<polygon fill="#e8f0fe" stroke="#557aab" stroke-width="2.2" points="330.5,-286 186.5,-286 186.5,-214 330.5,-214 330.5,-286"/>
<text text-anchor="middle" x="258.5" y="-255.2" font-family="Helvetica,sans-Serif" font-size="16.00" fill="#1f2d3d">Firmware</text>
<text text-anchor="middle" x="258.5" y="-237.2" font-family="Helvetica,sans-Serif" font-size="16.00" fill="#1f2d3d">Runtime</text>
</g>
<!-- MMIO -->
<g id="node2" class="node">
<title>MMIO</title>
<polygon fill="#e8f0fe" stroke="#557aab" stroke-width="2.2" points="336.5,-486 180.5,-486 180.5,-444 336.5,-444 336.5,-486"/>
<text text-anchor="middle" x="258.5" y="-461.2" font-family="Helvetica,sans-Serif" font-size="16.00" fill="#1f2d3d">MMIO Interface</text>
</g>
<!-- Runtime&#45;&gt;MMIO -->
<g id="edge5" class="edge">
<title>Runtime:e&#45;&gt;MMIO:s</title>
<path fill="none" stroke="#2f2f2f" stroke-width="2" d="M331.5,-250C347.51,-250 340.36,-273.39 330.5,-286 257.96,-378.7 143.49,-269.35 78.5,-367.5 38.34,-428.15 207.82,-437.42 249.45,-441.49"/>
<polygon fill="#2f2f2f" stroke="#2f2f2f" stroke-width="2" points="249.1,-444.63 258.5,-443 250.14,-438.41 249.1,-444.63"/>
<text text-anchor="middle" x="101" y="-370.9" font-family="Helvetica,sans-Serif" font-size="12.00">host commands</text>
</g>
<!-- Shared -->
<g id="node3" class="node">
<title>Shared</title>
<polygon fill="#e8f0fe" stroke="#557aab" stroke-width="2.2" points="330,-410 187,-410 187,-350 330,-350 330,-410"/>
<text text-anchor="middle" x="258.5" y="-385.2" font-family="Helvetica,sans-Serif" font-size="16.00" fill="#1f2d3d">Shared&#45;SRAM</text>
<text text-anchor="middle" x="258.5" y="-367.2" font-family="Helvetica,sans-Serif" font-size="16.00" fill="#1f2d3d">Host Window</text>
</g>
<!-- Runtime&#45;&gt;Shared -->
<g id="edge9" class="edge">
<title>Runtime&#45;&gt;Shared</title>
<path fill="none" stroke="#2f2f2f" stroke-width="2" d="M258.5,-286.21C258.5,-303.07 258.5,-323.17 258.5,-340.43"/>
<polygon fill="#2f2f2f" stroke="#2f2f2f" stroke-width="2" points="255.35,-340.69 258.5,-349.69 261.65,-340.69 255.35,-340.69"/>
<text text-anchor="middle" x="249" y="-314.9" font-family="Helvetica,sans-Serif" font-size="12.00">bulk preload / readback</text>
</g>
<!-- RuntimeMMIOSpacer -->
<!-- Runtime&#45;&gt;RuntimeMMIOSpacer -->
<!-- MMIO&#45;&gt;Runtime -->
<g id="edge6" class="edge">
<title>MMIO:s&#45;&gt;Runtime:w</title>
<path fill="none" stroke="#2f2f2f" stroke-width="2" d="M258.5,-443C258.5,-420.24 177.9,-436.08 157.5,-426 120.43,-407.68 105.98,-400.43 89.5,-362.5 64.54,-305.04 114.66,-254.91 176.33,-250.34"/>
<polygon fill="#2f2f2f" stroke="#2f2f2f" stroke-width="2" points="176.62,-253.48 185.5,-250 176.39,-247.19 176.62,-253.48"/>
<text text-anchor="middle" x="101" y="-352.9" font-family="Helvetica,sans-Serif" font-size="12.00">status / data</text>
</g>
<!-- IM -->
<g id="node4" class="node">
<title>IM</title>
<polygon fill="#efe8ff" stroke="#8b74bd" stroke-width="2.2" points="717.5,-486 526.5,-486 526.5,-444 717.5,-444 717.5,-486"/>
<text text-anchor="middle" x="622" y="-461.2" font-family="Helvetica,sans-Serif" font-size="16.00" fill="#2c2236">Instruction Memory</text>
</g>
<!-- MMIO&#45;&gt;IM -->
<g id="edge7" class="edge">
<title>MMIO&#45;&gt;IM</title>
<path fill="none" stroke="#2f2f2f" stroke-width="2" d="M336.72,-479.35C347.36,-480.86 358.18,-482.15 368.5,-483 427.41,-487.83 442.55,-487.41 501.5,-483 506.66,-482.61 511.94,-482.13 517.26,-481.58"/>
<polygon fill="#2f2f2f" stroke="#2f2f2f" stroke-width="2" points="517.64,-484.71 526.24,-480.59 516.95,-478.45 517.64,-484.71"/>
<text text-anchor="middle" x="435" y="-489.4" font-family="Helvetica,sans-Serif" font-size="12.00">instruction load</text>
</g>
<!-- MMIO&#45;&gt;IM -->
<!-- UB -->
<g id="node6" class="node">
<title>UB</title>
<polygon fill="#efe8ff" stroke="#8b74bd" stroke-width="2.2" points="701,-380.5 543,-380.5 543,-301.5 701,-301.5 701,-380.5"/>
<text text-anchor="middle" x="622" y="-337.2" font-family="Helvetica,sans-Serif" font-size="16.00" fill="#2c2236">Unified Buffer</text>
</g>
<!-- MMIO&#45;&gt;UB -->
<g id="edge8" class="edge">
<title>MMIO&#45;&gt;UB</title>
<path fill="none" stroke="#2f2f2f" stroke-width="2" d="M345.5,-442.75C392.15,-429.93 450.52,-412.69 501.5,-394 512.28,-390.05 523.47,-385.59 534.48,-380.97"/>
<polygon fill="#2f2f2f" stroke="#2f2f2f" stroke-width="2" points="344.49,-439.76 336.64,-445.17 346.15,-445.83 344.49,-439.76"/>
<polygon fill="#2f2f2f" stroke="#2f2f2f" stroke-width="2" points="535.81,-383.83 542.86,-377.42 533.35,-378.03 535.81,-383.83"/>
<text text-anchor="middle" x="435" y="-438.4" font-family="Helvetica,sans-Serif" font-size="12.00">buffer load / readback</text>
</g>
<!-- Shared&#45;&gt;IM -->
<g id="edge10" class="edge">
<title>Shared&#45;&gt;IM</title>
<path fill="none" stroke="#2f2f2f" stroke-width="2" d="M330,-359.09C381.86,-348.16 451.71,-343.19 501.5,-377 524.09,-392.34 507.76,-415.2 524.81,-437.09"/>
<polygon fill="#2f2f2f" stroke="#2f2f2f" stroke-width="2" points="522.76,-439.51 531.25,-443.84 527.32,-435.16 522.76,-439.51"/>
<text text-anchor="middle" x="435" y="-380.4" font-family="Helvetica,sans-Serif" font-size="12.00">instruction image</text>
</g>
<!-- Shared&#45;&gt;UB -->
<g id="edge11" class="edge">
<title>Shared&#45;&gt;UB</title>
<path fill="none" stroke="#2f2f2f" stroke-width="2" d="M338.22,-354.81C346.17,-350.55 353.78,-345.64 360.5,-340 365.7,-335.64 362.58,-330.31 368.5,-327 418.3,-299.17 482.61,-303.2 533.86,-313.92"/>
<polygon fill="#2f2f2f" stroke="#2f2f2f" stroke-width="2" points="336.79,-352 330.16,-358.85 339.62,-357.62 336.79,-352"/>
<polygon fill="#2f2f2f" stroke="#2f2f2f" stroke-width="2" points="533.47,-317.06 542.94,-315.91 534.83,-310.91 533.47,-317.06"/>
<text text-anchor="middle" x="435" y="-330.4" font-family="Helvetica,sans-Serif" font-size="12.00">buffer image</text>
</g>
<!-- IM&#45;&gt;UB -->
<!-- RuntimeMMIOSpacer&#45;&gt;MMIO -->
<!-- InStream -->
<g id="node7" class="node">
<title>InStream</title>
<polygon fill="#e7f6ec" stroke="#4f9a6c" stroke-width="2.2" points="1041.52,-246 861.74,-246 815.49,-126 995.27,-126 1041.52,-246"/>
<text text-anchor="middle" x="928.51" y="-191.2" font-family="Helvetica,sans-Serif" font-size="16.00" fill="#1f3328">Input</text>
<text text-anchor="middle" x="928.51" y="-173.2" font-family="Helvetica,sans-Serif" font-size="16.00" fill="#1f3328">Streamer</text>
</g>
<!-- UB&#45;&gt;InStream -->
<g id="edge1" class="edge">
<title>UB&#45;&gt;InStream:w</title>
<path fill="none" stroke="#2f2f2f" stroke-width="2" d="M651.93,-301.49C687.76,-257.36 753.33,-191.4 828.32,-186.31"/>
<polygon fill="#2f2f2f" stroke="#2f2f2f" stroke-width="2" points="828.62,-189.45 837.51,-186 828.4,-183.16 828.62,-189.45"/>
<text text-anchor="middle" x="766.5" y="-218.4" font-family="Helvetica,sans-Serif" font-size="12.00">A words</text>
</g>
<!-- WtStream -->
<g id="node8" class="node">
<title>WtStream</title>
<polygon fill="#e7f6ec" stroke="#4f9a6c" stroke-width="2.2" points="1041.52,-398 861.74,-398 815.49,-278 995.27,-278 1041.52,-398"/>
<text text-anchor="middle" x="928.51" y="-343.2" font-family="Helvetica,sans-Serif" font-size="16.00" fill="#1f3328">Weight</text>
<text text-anchor="middle" x="928.51" y="-325.2" font-family="Helvetica,sans-Serif" font-size="16.00" fill="#1f3328">Streamer</text>
</g>
<!-- UB&#45;&gt;WtStream -->
<g id="edge2" class="edge">
<title>UB&#45;&gt;WtStream:w</title>
<path fill="none" stroke="#2f2f2f" stroke-width="2" d="M701.19,-339.38C739.15,-338.72 785.68,-338.09 828.44,-338.01"/>
<polygon fill="#2f2f2f" stroke="#2f2f2f" stroke-width="2" points="828.51,-341.16 837.51,-338 828.5,-334.86 828.51,-341.16"/>
<text text-anchor="middle" x="766.5" y="-341.4" font-family="Helvetica,sans-Serif" font-size="12.00">weights</text>
</g>
<!-- PPU -->
<g id="node10" class="node">
<title>PPU</title>
<polygon fill="#ffe8db" stroke="#d18a66" stroke-width="2.2" points="1391.51,-86 1182.51,-86 1182.51,0 1391.51,0 1391.51,-86"/>
<text text-anchor="middle" x="1287.01" y="-48.2" font-family="Helvetica,sans-Serif" font-size="16.00" fill="#40261d">Post&#45;Processing Unit</text>
<text text-anchor="middle" x="1287.01" y="-30.2" font-family="Helvetica,sans-Serif" font-size="16.00" fill="#40261d">+ Layout Reformatter</text>
</g>
<!-- UB&#45;&gt;PPU -->
<g id="edge13" class="edge">
<title>UB&#45;&gt;PPU</title>
<path fill="none" stroke="#7a7a7a" stroke-width="2" stroke-dasharray="5,2" d="M640.15,-301.2C667.54,-243.45 727.22,-138.77 815.5,-97 906.3,-54.04 941.24,-91.01 1041.51,-97 1052.68,-97.67 1055.34,-99.33 1066.51,-100 1106.88,-102.41 1117.95,-108.38 1157.51,-100 1169.52,-97.46 1181.77,-93.71 1193.7,-89.34"/>
<polygon fill="#7a7a7a" stroke="#7a7a7a" stroke-width="2" points="1195.04,-92.2 1202.33,-86.05 1192.79,-86.31 1195.04,-92.2"/>
<text text-anchor="middle" x="928.51" y="-100.4" font-family="Helvetica,sans-Serif" font-size="12.00" fill="#6e6e6e">bias</text>
</g>
<!-- SA -->
<g id="node9" class="node">
<title>SA</title>
<polygon fill="#e7f6ec" stroke="#4f9a6c" stroke-width="2.2" points="1362.51,-300.5 1211.51,-300.5 1211.51,-149.5 1362.51,-149.5 1362.51,-300.5"/>
<text text-anchor="middle" x="1287.01" y="-239.2" font-family="Helvetica,sans-Serif" font-size="16.00" fill="#1f3328">N x N</text>
<text text-anchor="middle" x="1287.01" y="-221.2" font-family="Helvetica,sans-Serif" font-size="16.00" fill="#1f3328">Systolic</text>
<text text-anchor="middle" x="1287.01" y="-203.2" font-family="Helvetica,sans-Serif" font-size="16.00" fill="#1f3328">Array</text>
</g>
<!-- InStream&#45;&gt;SA -->
<g id="edge3" class="edge">
<title>InStream&#45;&gt;SA:w</title>
<path fill="none" stroke="#2f2f2f" stroke-width="2" d="M1026.41,-206.19C1077.61,-215.24 1141.92,-224.09 1200.96,-224.93"/>
<polygon fill="#2f2f2f" stroke="#2f2f2f" stroke-width="2" points="1200.99,-228.08 1210.01,-225 1201.04,-221.78 1200.99,-228.08"/>
<text text-anchor="middle" x="1112.01" y="-225.4" font-family="Helvetica,sans-Serif" font-size="12.00">horizontal feed</text>
</g>
<!-- WtStream&#45;&gt;SA -->
<g id="edge4" class="edge">
<title>WtStream&#45;&gt;SA:n</title>
<path fill="none" stroke="#2f2f2f" stroke-width="2" d="M1029.09,-365.75C1131.67,-389.03 1277.84,-405.17 1286.6,-311.13"/>
<polygon fill="#2f2f2f" stroke="#2f2f2f" stroke-width="2" points="1289.75,-311.13 1287.01,-302 1283.46,-310.85 1289.75,-311.13"/>
<text text-anchor="middle" x="1112.01" y="-386.4" font-family="Helvetica,sans-Serif" font-size="12.00">vertical feed</text>
</g>
<!-- SA&#45;&gt;PPU -->
<g id="edge12" class="edge">
<title>SA&#45;&gt;PPU</title>
<path fill="none" stroke="#2f2f2f" stroke-width="2" d="M1287.01,-149.42C1287.01,-131.21 1287.01,-112.14 1287.01,-95.26"/>
<polygon fill="#2f2f2f" stroke="#2f2f2f" stroke-width="2" points="1290.16,-95.13 1287.01,-86.13 1283.86,-95.13 1290.16,-95.13"/>
<text text-anchor="middle" x="1277.51" y="-114.65" font-family="Helvetica,sans-Serif" font-size="12.00">drain / capture</text>
</g>
<!-- PPU&#45;&gt;UB -->
<g id="edge14" class="edge">
<title>PPU&#45;&gt;UB</title>
<path fill="none" stroke="#2f2f2f" stroke-width="2" d="M1182.41,-22.69C1084.62,-8.11 935.5,2.08 815.5,-42 708.86,-81.17 656.06,-218.53 634.81,-292.67"/>
<polygon fill="#2f2f2f" stroke="#2f2f2f" stroke-width="2" points="631.76,-291.87 632.37,-301.39 637.83,-293.57 631.76,-291.87"/>
<text text-anchor="middle" x="928.51" y="-58.4" font-family="Helvetica,sans-Serif" font-size="12.00">layout&#45;aware writeback</text>
<text text-anchor="middle" x="928.51" y="-45.4" font-family="Helvetica,sans-Serif" font-size="12.00">transpose / repack</text>
</g>
</g>
</svg>
