<?xml version="1.0" encoding="UTF-8" standalone="no"?>
<!DOCTYPE svg PUBLIC "-//W3C//DTD SVG 1.1//EN"
 "http://www.w3.org/Graphics/SVG/1.1/DTD/svg11.dtd">
<!-- Generated by graphviz version 2.43.0 (0)
 -->
<!-- Title: TinyNPUArchitecture Pages: 1 -->
<svg width="1597pt" height="584pt"
 viewBox="0.00 0.00 1596.81 583.80" xmlns="http://www.w3.org/2000/svg" xmlns:xlink="http://www.w3.org/1999/xlink">
<g id="graph0" class="graph" transform="scale(1 1) rotate(0) translate(14.4 569.4)">
<title>TinyNPUArchitecture</title>
<polygon fill="white" stroke="transparent" points="-14.4,14.4 -14.4,-569.4 1582.41,-569.4 1582.41,14.4 -14.4,14.4"/>
<g id="clust1" class="cluster">
<title>cluster_core</title>
<path fill="white" stroke="#557aab" stroke-width="2" stroke-dasharray="5,2" d="M20,-411C20,-411 176,-411 176,-411 182,-411 188,-417 188,-423 188,-423 188,-535 188,-535 188,-541 182,-547 176,-547 176,-547 20,-547 20,-547 14,-547 8,-541 8,-535 8,-535 8,-423 8,-423 8,-417 14,-411 20,-411"/>
<text text-anchor="middle" x="98" y="-528.6" font-family="Helvetica,sans-Serif" font-size="18.00" fill="#355c7d">CV32E40P Core</text>
</g>
<g id="clust2" class="cluster">
<title>cluster_memory_interface</title>
<path fill="white" stroke="#557aab" stroke-width="2" stroke-dasharray="5,2" d="M298,-307C298,-307 525,-307 525,-307 531,-307 537,-313 537,-319 537,-319 537,-535 537,-535 537,-541 531,-547 525,-547 525,-547 298,-547 298,-547 292,-547 286,-541 286,-535 286,-535 286,-319 286,-319 286,-313 292,-307 298,-307"/>
<text text-anchor="middle" x="411.5" y="-528.6" font-family="Helvetica,sans-Serif" font-size="18.00" fill="#355c7d">Memory Interface</text>
</g>
<g id="clust3" class="cluster">
<title>cluster_pipeline</title>
<polygon fill="#f7fcf8" stroke="#6ab285" stroke-width="2.2" points="711.5,-118 711.5,-436 1547.01,-436 1547.01,-118 711.5,-118"/>
<text text-anchor="middle" x="1129.26" y="-416" font-family="Helvetica,sans-Serif" font-size="20.00" fill="#2d6a4f">Pipelined Compute Path</text>
</g>
<!-- Runtime -->
<g id="node1" class="node">
<title>Runtime</title>
<polygon fill="#e8f0fe" stroke="#557aab" stroke-width="2.2" points="170,-501 26,-501 26,-429 170,-429 170,-501"/>
<text text-anchor="middle" x="98" y="-470.2" font-family="Helvetica,sans-Serif" font-size="16.00" fill="#1f2d3d">Firmware</text>
<text text-anchor="middle" x="98" y="-452.2" font-family="Helvetica,sans-Serif" font-size="16.00" fill="#1f2d3d">Runtime</text>
</g>
<!-- MMIO -->
<g id="node2" class="node">
<title>MMIO</title>
<polygon fill="#e8f0fe" stroke="#557aab" stroke-width="2.2" points="500.5,-501 322.5,-501 322.5,-429 500.5,-429 500.5,-501"/>
<text text-anchor="middle" x="411.5" y="-470.2" font-family="Helvetica,sans-Serif" font-size="16.00" fill="#1f2d3d">MMIO</text>
<text text-anchor="middle" x="411.5" y="-452.2" font-family="Helvetica,sans-Serif" font-size="16.00" fill="#1f2d3d">commands/status</text>
</g>
<!-- Runtime&#45;&gt;MMIO -->
<g id="edge5" class="edge">
<title>Runtime&#45;&gt;MMIO</title>
<path fill="none" stroke="#2f2f2f" stroke-width="2" d="M179.04,-481.04C184.76,-481.82 190.46,-482.49 196,-483 234.25,-486.52 276.37,-484.31 313.08,-480.41"/>
<polygon fill="#2f2f2f" stroke="#2f2f2f" stroke-width="2" points="179.4,-477.91 170.04,-479.73 178.49,-484.14 179.4,-477.91"/>
<polygon fill="#2f2f2f" stroke="#2f2f2f" stroke-width="2" points="313.69,-483.51 322.29,-479.38 312.99,-477.25 313.69,-483.51"/>
<text text-anchor="middle" x="237" y="-487.4" font-family="Helvetica,sans-Serif" font-size="12.00">control/status</text>
</g>
<!-- Runtime&#45;&gt;MMIO -->
<!-- Shared -->
<g id="node3" class="node">
<title>Shared</title>
<polygon fill="#e8f0fe" stroke="#557aab" stroke-width="2.2" points="519,-397 304,-397 304,-325 519,-325 519,-397"/>
<text text-anchor="middle" x="411.5" y="-366.2" font-family="Helvetica,sans-Serif" font-size="16.00" fill="#1f2d3d">Shared Buffer</text>
<text text-anchor="middle" x="411.5" y="-348.2" font-family="Helvetica,sans-Serif" font-size="16.00" fill="#1f2d3d">bulk tensor/IM window</text>
</g>
<!-- Runtime&#45;&gt;Shared -->
<g id="edge6" class="edge">
<title>Runtime&#45;&gt;Shared</title>
<path fill="none" stroke="#2f2f2f" stroke-width="2" d="M179.06,-438.27C214.4,-426.47 256.61,-412.38 295.24,-399.48"/>
<polygon fill="#2f2f2f" stroke="#2f2f2f" stroke-width="2" points="177.61,-435.43 170.07,-441.27 179.61,-441.41 177.61,-435.43"/>
<polygon fill="#2f2f2f" stroke="#2f2f2f" stroke-width="2" points="296.4,-402.41 303.94,-396.58 294.41,-396.44 296.4,-402.41"/>
<text text-anchor="middle" x="237" y="-434.4" font-family="Helvetica,sans-Serif" font-size="12.00">bulk copies</text>
</g>
<!-- IM -->
<g id="node4" class="node">
<title>IM</title>
<polygon fill="#efe8ff" stroke="#8b74bd" stroke-width="2.2" points="894,-486 703,-486 703,-444 894,-444 894,-486"/>
<text text-anchor="middle" x="798.5" y="-461.2" font-family="Helvetica,sans-Serif" font-size="16.00" fill="#2c2236">Instruction Memory</text>
</g>
<!-- MMIO&#45;&gt;IM -->
<g id="edge7" class="edge">
<title>MMIO&#45;&gt;IM</title>
<path fill="none" stroke="#2f2f2f" stroke-width="2" d="M500.71,-478.67C515.46,-480.47 530.64,-482.03 545,-483 603.98,-486.99 619.05,-487.41 678,-483 683.16,-482.61 688.44,-482.13 693.76,-481.58"/>
<polygon fill="#2f2f2f" stroke="#2f2f2f" stroke-width="2" points="694.14,-484.71 702.74,-480.59 693.45,-478.45 694.14,-484.71"/>
<text text-anchor="middle" x="611.5" y="-489.4" font-family="Helvetica,sans-Serif" font-size="12.00">instruction load</text>
</g>
<!-- MMIO&#45;&gt;IM -->
<!-- UB -->
<g id="node5" class="node">
<title>UB</title>
<polygon fill="#efe8ff" stroke="#8b74bd" stroke-width="2.2" points="877.5,-380.5 719.5,-380.5 719.5,-301.5 877.5,-301.5 877.5,-380.5"/>
<text text-anchor="middle" x="798.5" y="-337.2" font-family="Helvetica,sans-Serif" font-size="16.00" fill="#2c2236">Unified Buffer</text>
</g>
<!-- MMIO&#45;&gt;UB -->
<g id="edge8" class="edge">
<title>MMIO&#45;&gt;UB</title>
<path fill="none" stroke="#2f2f2f" stroke-width="2" d="M509.55,-442.91C560.31,-430.39 623.14,-413.37 678,-394 688.83,-390.18 700.05,-385.79 711.07,-381.22"/>
<polygon fill="#2f2f2f" stroke="#2f2f2f" stroke-width="2" points="508.53,-439.92 500.54,-445.12 510.03,-446.04 508.53,-439.92"/>
<polygon fill="#2f2f2f" stroke="#2f2f2f" stroke-width="2" points="712.39,-384.09 719.46,-377.7 709.94,-378.28 712.39,-384.09"/>
<text text-anchor="middle" x="611.5" y="-435.4" font-family="Helvetica,sans-Serif" font-size="12.00">buffer load / readback</text>
</g>
<!-- Shared&#45;&gt;IM -->
<g id="edge9" class="edge">
<title>Shared&#45;&gt;IM</title>
<path fill="none" stroke="#2f2f2f" stroke-width="2" d="M519.2,-356.07C581.64,-355.34 652.99,-358.89 678,-377 700.11,-393.01 684.17,-415.32 701.3,-437.11"/>
<polygon fill="#2f2f2f" stroke="#2f2f2f" stroke-width="2" points="699.25,-439.52 707.75,-443.84 703.8,-435.17 699.25,-439.52"/>
<text text-anchor="middle" x="611.5" y="-380.4" font-family="Helvetica,sans-Serif" font-size="12.00">instruction image</text>
</g>
<!-- Shared&#45;&gt;UB -->
<g id="edge10" class="edge">
<title>Shared&#45;&gt;UB</title>
<path fill="none" stroke="#2f2f2f" stroke-width="2" d="M528.06,-329.55C533.77,-328.57 539.43,-327.7 545,-327 603.65,-319.6 618.99,-323.56 678,-327 688.43,-327.61 699.34,-328.51 710.15,-329.58"/>
<polygon fill="#2f2f2f" stroke="#2f2f2f" stroke-width="2" points="527.37,-326.48 519.08,-331.2 528.5,-332.67 527.37,-326.48"/>
<polygon fill="#2f2f2f" stroke="#2f2f2f" stroke-width="2" points="709.92,-332.72 719.19,-330.5 710.56,-326.45 709.92,-332.72"/>
<text text-anchor="middle" x="611.5" y="-330.4" font-family="Helvetica,sans-Serif" font-size="12.00">buffer image</text>
</g>
<!-- IM&#45;&gt;UB -->
<!-- InStream -->
<g id="node6" class="node">
<title>InStream</title>
<polygon fill="#e7f6ec" stroke="#4f9a6c" stroke-width="2.2" points="1218.02,-246 1038.24,-246 991.99,-126 1171.77,-126 1218.02,-246"/>
<text text-anchor="middle" x="1105.01" y="-191.2" font-family="Helvetica,sans-Serif" font-size="16.00" fill="#1f3328">Input</text>
<text text-anchor="middle" x="1105.01" y="-173.2" font-family="Helvetica,sans-Serif" font-size="16.00" fill="#1f3328">Streamer</text>
</g>
<!-- UB&#45;&gt;InStream -->
<g id="edge1" class="edge">
<title>UB&#45;&gt;InStream:w</title>
<path fill="none" stroke="#2f2f2f" stroke-width="2" d="M828.43,-301.49C864.26,-257.36 929.83,-191.4 1004.82,-186.31"/>
<polygon fill="#2f2f2f" stroke="#2f2f2f" stroke-width="2" points="1005.12,-189.45 1014.01,-186 1004.9,-183.16 1005.12,-189.45"/>
<text text-anchor="middle" x="943" y="-218.4" font-family="Helvetica,sans-Serif" font-size="12.00">A words</text>
</g>
<!-- WtStream -->
<g id="node7" class="node">
<title>WtStream</title>
<polygon fill="#e7f6ec" stroke="#4f9a6c" stroke-width="2.2" points="1218.02,-398 1038.24,-398 991.99,-278 1171.77,-278 1218.02,-398"/>
<text text-anchor="middle" x="1105.01" y="-343.2" font-family="Helvetica,sans-Serif" font-size="16.00" fill="#1f3328">Weight</text>
<text text-anchor="middle" x="1105.01" y="-325.2" font-family="Helvetica,sans-Serif" font-size="16.00" fill="#1f3328">Streamer</text>
</g>
<!-- UB&#45;&gt;WtStream -->
<g id="edge2" class="edge">
<title>UB&#45;&gt;WtStream:w</title>
<path fill="none" stroke="#2f2f2f" stroke-width="2" d="M877.69,-339.38C915.65,-338.72 962.18,-338.09 1004.94,-338.01"/>
<polygon fill="#2f2f2f" stroke="#2f2f2f" stroke-width="2" points="1005.01,-341.16 1014.01,-338 1005,-334.86 1005.01,-341.16"/>
<text text-anchor="middle" x="943" y="-341.4" font-family="Helvetica,sans-Serif" font-size="12.00">weights</text>
</g>
<!-- PPU -->
<g id="node9" class="node">
<title>PPU</title>
<polygon fill="#ffe8db" stroke="#d18a66" stroke-width="2.2" points="1568.01,-86 1359.01,-86 1359.01,0 1568.01,0 1568.01,-86"/>
<text text-anchor="middle" x="1463.51" y="-48.2" font-family="Helvetica,sans-Serif" font-size="16.00" fill="#40261d">Post&#45;Processing Unit</text>
<text text-anchor="middle" x="1463.51" y="-30.2" font-family="Helvetica,sans-Serif" font-size="16.00" fill="#40261d">+ Layout Reformatter</text>
</g>
<!-- UB&#45;&gt;PPU -->
<g id="edge12" class="edge">
<title>UB&#45;&gt;PPU</title>
<path fill="none" stroke="#7a7a7a" stroke-width="2" stroke-dasharray="5,2" d="M816.65,-301.2C844.04,-243.45 903.72,-138.77 992,-97 1082.8,-54.04 1117.74,-91.01 1218.01,-97 1229.18,-97.67 1231.84,-99.33 1243.01,-100 1283.38,-102.41 1294.45,-108.38 1334.01,-100 1346.02,-97.46 1358.27,-93.71 1370.2,-89.34"/>
<polygon fill="#7a7a7a" stroke="#7a7a7a" stroke-width="2" points="1371.54,-92.2 1378.83,-86.05 1369.29,-86.31 1371.54,-92.2"/>
<text text-anchor="middle" x="1105.01" y="-100.4" font-family="Helvetica,sans-Serif" font-size="12.00" fill="#6e6e6e">bias</text>
</g>
<!-- SA -->
<g id="node8" class="node">
<title>SA</title>
<polygon fill="#e7f6ec" stroke="#4f9a6c" stroke-width="2.2" points="1539.01,-300.5 1388.01,-300.5 1388.01,-149.5 1539.01,-149.5 1539.01,-300.5"/>
<text text-anchor="middle" x="1463.51" y="-239.2" font-family="Helvetica,sans-Serif" font-size="16.00" fill="#1f3328">N x N</text>
<text text-anchor="middle" x="1463.51" y="-221.2" font-family="Helvetica,sans-Serif" font-size="16.00" fill="#1f3328">Systolic</text>
<text text-anchor="middle" x="1463.51" y="-203.2" font-family="Helvetica,sans-Serif" font-size="16.00" fill="#1f3328">Array</text>
</g>
<!-- InStream&#45;&gt;SA -->
<g id="edge3" class="edge">
<title>InStream&#45;&gt;SA:w</title>
<path fill="none" stroke="#2f2f2f" stroke-width="2" d="M1202.91,-206.19C1254.11,-215.24 1318.42,-224.09 1377.46,-224.93"/>
<polygon fill="#2f2f2f" stroke="#2f2f2f" stroke-width="2" points="1377.49,-228.08 1386.51,-225 1377.54,-221.78 1377.49,-228.08"/>
<text text-anchor="middle" x="1288.51" y="-225.4" font-family="Helvetica,sans-Serif" font-size="12.00">horizontal feed</text>
</g>
<!-- WtStream&#45;&gt;SA -->
<g id="edge4" class="edge">
<title>WtStream&#45;&gt;SA:n</title>
<path fill="none" stroke="#2f2f2f" stroke-width="2" d="M1205.59,-365.75C1308.17,-389.03 1454.34,-405.17 1463.1,-311.13"/>
<polygon fill="#2f2f2f" stroke="#2f2f2f" stroke-width="2" points="1466.25,-311.13 1463.51,-302 1459.96,-310.85 1466.25,-311.13"/>
<text text-anchor="middle" x="1288.51" y="-386.4" font-family="Helvetica,sans-Serif" font-size="12.00">vertical feed</text>
</g>
<!-- SA&#45;&gt;PPU -->
<g id="edge11" class="edge">
<title>SA&#45;&gt;PPU</title>
<path fill="none" stroke="#2f2f2f" stroke-width="2" d="M1463.51,-149.42C1463.51,-131.21 1463.51,-112.14 1463.51,-95.26"/>
<polygon fill="#2f2f2f" stroke="#2f2f2f" stroke-width="2" points="1466.66,-95.13 1463.51,-86.13 1460.36,-95.13 1466.66,-95.13"/>
<text text-anchor="middle" x="1454.01" y="-114.65" font-family="Helvetica,sans-Serif" font-size="12.00">drain / capture</text>
</g>
<!-- PPU&#45;&gt;UB -->
<g id="edge13" class="edge">
<title>PPU&#45;&gt;UB</title>
<path fill="none" stroke="#2f2f2f" stroke-width="2" d="M1358.99,-23.24C1261.26,-9.11 1112.17,0.6 992,-43 885.45,-81.66 832.62,-218.72 811.33,-292.74"/>
<polygon fill="#2f2f2f" stroke="#2f2f2f" stroke-width="2" points="808.28,-291.93 808.89,-301.44 814.35,-293.63 808.28,-291.93"/>
<text text-anchor="middle" x="1105.01" y="-59.4" font-family="Helvetica,sans-Serif" font-size="12.00">layout&#45;aware writeback</text>
<text text-anchor="middle" x="1105.01" y="-46.4" font-family="Helvetica,sans-Serif" font-size="12.00">transpose / repack</text>
</g>
</g>
</svg>
