<?xml version="1.0" encoding="UTF-8" standalone="no"?>
<!DOCTYPE svg PUBLIC "-//W3C//DTD SVG 1.1//EN"
 "http://www.w3.org/Graphics/SVG/1.1/DTD/svg11.dtd">
<!-- Generated by graphviz version 2.43.0 (0)
 -->
<!-- Title: TinyNPUArchitecture Pages: 1 -->
<svg width="1404pt" height="643pt"
 viewBox="0.00 0.00 1404.31 643.16" xmlns="http://www.w3.org/2000/svg" xmlns:xlink="http://www.w3.org/1999/xlink">
<g id="graph0" class="graph" transform="scale(1 1) rotate(0) translate(14.4 628.76)">
<title>TinyNPUArchitecture</title>
<polygon fill="white" stroke="transparent" points="-14.4,14.4 -14.4,-628.76 1389.91,-628.76 1389.91,14.4 -14.4,14.4"/>
<g id="clust1" class="cluster">
<title>cluster_core</title>
<path fill="white" stroke="#557aab" stroke-width="2" stroke-dasharray="5,2" d="M171.5,-196C171.5,-196 327.5,-196 327.5,-196 333.5,-196 339.5,-202 339.5,-208 339.5,-208 339.5,-320 339.5,-320 339.5,-326 333.5,-332 327.5,-332 327.5,-332 171.5,-332 171.5,-332 165.5,-332 159.5,-326 159.5,-320 159.5,-320 159.5,-208 159.5,-208 159.5,-202 165.5,-196 171.5,-196"/>
<text text-anchor="middle" x="249.5" y="-313.6" font-family="Helvetica,sans-Serif" font-size="18.00" fill="#355c7d">CV32E40P Core</text>
</g>
<g id="clust2" class="cluster">
<title>cluster_pipeline</title>
<polygon fill="#f7fcf8" stroke="#6ab285" stroke-width="2.2" points="519,-118 519,-436 1354.51,-436 1354.51,-118 519,-118"/>
<text text-anchor="middle" x="936.76" y="-416" font-family="Helvetica,sans-Serif" font-size="20.00" fill="#2d6a4f">Pipelined Compute Path</text>
</g>
<!-- Runtime -->
<g id="node1" class="node">
<title>Runtime</title>
<polygon fill="#e8f0fe" stroke="#557aab" stroke-width="2.2" points="321.5,-286 177.5,-286 177.5,-214 321.5,-214 321.5,-286"/>
<text text-anchor="middle" x="249.5" y="-255.2" font-family="Helvetica,sans-Serif" font-size="16.00" fill="#1f2d3d">Firmware</text>
<text text-anchor="middle" x="249.5" y="-237.2" font-family="Helvetica,sans-Serif" font-size="16.00" fill="#1f2d3d">Runtime</text>
</g>
<!-- MMIO -->
<g id="node2" class="node">
<title>MMIO</title>
<polygon fill="#e8f0fe" stroke="#557aab" stroke-width="2.2" points="327.5,-486 171.5,-486 171.5,-444 327.5,-444 327.5,-486"/>
<text text-anchor="middle" x="249.5" y="-461.2" font-family="Helvetica,sans-Serif" font-size="16.00" fill="#1f2d3d">MMIO Interface</text>
</g>
<!-- Runtime&#45;&gt;MMIO -->
<g id="edge5" class="edge">
<title>Runtime:e&#45;&gt;MMIO:s</title>
<path fill="none" stroke="#2f2f2f" stroke-width="2" d="M322.5,-250C338.51,-250 331.25,-273.31 321.5,-286 251.06,-377.66 139.55,-271.94 74.5,-367.5 43.06,-413.68 44.79,-385.54 159.5,-426 175.55,-431.66 227.66,-425.51 244.32,-435.23"/>
<polygon fill="#2f2f2f" stroke="#2f2f2f" stroke-width="2" points="241.89,-437.26 249.5,-443 247.13,-433.76 241.89,-437.26"/>
<text text-anchor="middle" x="98" y="-370.9" font-family="Helvetica,sans-Serif" font-size="12.00">core commands</text>
</g>
<!-- Shared -->
<g id="node3" class="node">
<title>Shared</title>
<polygon fill="#e8f0fe" stroke="#557aab" stroke-width="2.2" points="321,-410 178,-410 178,-350 321,-350 321,-410"/>
<text text-anchor="middle" x="249.5" y="-385.2" font-family="Helvetica,sans-Serif" font-size="16.00" fill="#1f2d3d">Shared&#45;SRAM</text>
<text text-anchor="middle" x="249.5" y="-367.2" font-family="Helvetica,sans-Serif" font-size="16.00" fill="#1f2d3d">Core Window</text>
</g>
<!-- Runtime&#45;&gt;Shared -->
<g id="edge9" class="edge">
<title>Runtime&#45;&gt;Shared</title>
<path fill="none" stroke="#2f2f2f" stroke-width="2" d="M249.5,-286.21C249.5,-303.07 249.5,-323.17 249.5,-340.43"/>
<polygon fill="#2f2f2f" stroke="#2f2f2f" stroke-width="2" points="246.35,-340.69 249.5,-349.69 252.65,-340.69 246.35,-340.69"/>
<text text-anchor="middle" x="240" y="-314.9" font-family="Helvetica,sans-Serif" font-size="12.00">bulk preload / readback</text>
</g>
<!-- RuntimeMMIOSpacer -->
<!-- Runtime&#45;&gt;RuntimeMMIOSpacer -->
<!-- MMIO&#45;&gt;Runtime -->
<g id="edge6" class="edge">
<title>MMIO:s&#45;&gt;Runtime:w</title>
<path fill="none" stroke="#2f2f2f" stroke-width="2" d="M249.5,-443C249.5,-422.65 177.85,-434.82 159.5,-426 120.44,-407.23 103.6,-401.88 85.5,-362.5 59.96,-306.92 107.15,-255.29 167.16,-250.38"/>
<polygon fill="#2f2f2f" stroke="#2f2f2f" stroke-width="2" points="167.64,-253.51 176.5,-250 167.38,-247.22 167.64,-253.51"/>
<text text-anchor="middle" x="98" y="-352.9" font-family="Helvetica,sans-Serif" font-size="12.00">status / data</text>
</g>
<!-- IM -->
<g id="node4" class="node">
<title>IM</title>
<polygon fill="#efe8ff" stroke="#8b74bd" stroke-width="2.2" points="701.5,-486 510.5,-486 510.5,-444 701.5,-444 701.5,-486"/>
<text text-anchor="middle" x="606" y="-461.2" font-family="Helvetica,sans-Serif" font-size="16.00" fill="#2c2236">Instruction Memory</text>
</g>
<!-- MMIO&#45;&gt;IM -->
<g id="edge7" class="edge">
<title>MMIO&#45;&gt;IM</title>
<path fill="none" stroke="#2f2f2f" stroke-width="2" d="M327.72,-480.09C336.06,-481.28 344.44,-482.29 352.5,-483 411.39,-488.16 426.55,-487.41 485.5,-483 490.66,-482.61 495.94,-482.13 501.26,-481.58"/>
<polygon fill="#2f2f2f" stroke="#2f2f2f" stroke-width="2" points="501.64,-484.71 510.24,-480.59 500.95,-478.45 501.64,-484.71"/>
<text text-anchor="middle" x="419" y="-489.4" font-family="Helvetica,sans-Serif" font-size="12.00">instruction load</text>
</g>
<!-- MMIO&#45;&gt;IM -->
<!-- UB -->
<g id="node6" class="node">
<title>UB</title>
<polygon fill="#efe8ff" stroke="#8b74bd" stroke-width="2.2" points="685,-380.5 527,-380.5 527,-301.5 685,-301.5 685,-380.5"/>
<text text-anchor="middle" x="606" y="-337.2" font-family="Helvetica,sans-Serif" font-size="16.00" fill="#2c2236">Unified Buffer</text>
</g>
<!-- MMIO&#45;&gt;UB -->
<g id="edge8" class="edge">
<title>MMIO&#45;&gt;UB</title>
<path fill="none" stroke="#2f2f2f" stroke-width="2" d="M336.59,-441.77C381.43,-428.97 436.9,-412.04 485.5,-394 496.27,-390 507.45,-385.52 518.45,-380.89"/>
<polygon fill="#2f2f2f" stroke="#2f2f2f" stroke-width="2" points="335.56,-438.78 327.76,-444.27 337.28,-444.84 335.56,-438.78"/>
<polygon fill="#2f2f2f" stroke="#2f2f2f" stroke-width="2" points="519.78,-383.75 526.83,-377.33 517.31,-377.95 519.78,-383.75"/>
<text text-anchor="middle" x="419" y="-440.4" font-family="Helvetica,sans-Serif" font-size="12.00">buffer load / readback</text>
</g>
<!-- Shared&#45;&gt;IM -->
<g id="edge10" class="edge">
<title>Shared&#45;&gt;IM</title>
<path fill="none" stroke="#2f2f2f" stroke-width="2" d="M321.08,-359.22C371.21,-348.89 437.82,-344.62 485.5,-377 508.09,-392.34 491.76,-415.2 508.81,-437.09"/>
<polygon fill="#2f2f2f" stroke="#2f2f2f" stroke-width="2" points="506.76,-439.51 515.25,-443.84 511.32,-435.16 506.76,-439.51"/>
<text text-anchor="middle" x="419" y="-380.4" font-family="Helvetica,sans-Serif" font-size="12.00">instruction image</text>
</g>
<!-- Shared&#45;&gt;UB -->
<g id="edge11" class="edge">
<title>Shared&#45;&gt;UB</title>
<path fill="none" stroke="#2f2f2f" stroke-width="2" d="M329.19,-346.6C332.74,-344.48 336.19,-342.28 339.5,-340 346.23,-335.36 344.95,-330.13 352.5,-327 404.54,-305.44 467.84,-309.01 518.04,-317.93"/>
<polygon fill="#2f2f2f" stroke="#2f2f2f" stroke-width="2" points="327.55,-343.91 321.29,-351.09 330.67,-349.38 327.55,-343.91"/>
<polygon fill="#2f2f2f" stroke="#2f2f2f" stroke-width="2" points="517.51,-321.04 526.93,-319.59 518.66,-314.84 517.51,-321.04"/>
<text text-anchor="middle" x="419" y="-330.4" font-family="Helvetica,sans-Serif" font-size="12.00">buffer image</text>
</g>
<!-- IM&#45;&gt;UB -->
<!-- RuntimeMMIOSpacer&#45;&gt;MMIO -->
<!-- InStream -->
<g id="node7" class="node">
<title>InStream</title>
<polygon fill="#e7f6ec" stroke="#4f9a6c" stroke-width="2.2" points="1025.52,-246 845.74,-246 799.49,-126 979.27,-126 1025.52,-246"/>
<text text-anchor="middle" x="912.51" y="-191.2" font-family="Helvetica,sans-Serif" font-size="16.00" fill="#1f3328">Input</text>
<text text-anchor="middle" x="912.51" y="-173.2" font-family="Helvetica,sans-Serif" font-size="16.00" fill="#1f3328">Streamer</text>
</g>
<!-- UB&#45;&gt;InStream -->
<g id="edge1" class="edge">
<title>UB&#45;&gt;InStream:w</title>
<path fill="none" stroke="#2f2f2f" stroke-width="2" d="M635.93,-301.49C671.76,-257.36 737.33,-191.4 812.32,-186.31"/>
<polygon fill="#2f2f2f" stroke="#2f2f2f" stroke-width="2" points="812.62,-189.45 821.51,-186 812.4,-183.16 812.62,-189.45"/>
<text text-anchor="middle" x="750.5" y="-218.4" font-family="Helvetica,sans-Serif" font-size="12.00">A words</text>
</g>
<!-- WtStream -->
<g id="node8" class="node">
<title>WtStream</title>
<polygon fill="#e7f6ec" stroke="#4f9a6c" stroke-width="2.2" points="1025.52,-398 845.74,-398 799.49,-278 979.27,-278 1025.52,-398"/>
<text text-anchor="middle" x="912.51" y="-343.2" font-family="Helvetica,sans-Serif" font-size="16.00" fill="#1f3328">Weight</text>
<text text-anchor="middle" x="912.51" y="-325.2" font-family="Helvetica,sans-Serif" font-size="16.00" fill="#1f3328">Streamer</text>
</g>
<!-- UB&#45;&gt;WtStream -->
<g id="edge2" class="edge">
<title>UB&#45;&gt;WtStream:w</title>
<path fill="none" stroke="#2f2f2f" stroke-width="2" d="M685.19,-339.38C723.15,-338.72 769.68,-338.09 812.44,-338.01"/>
<polygon fill="#2f2f2f" stroke="#2f2f2f" stroke-width="2" points="812.51,-341.16 821.51,-338 812.5,-334.86 812.51,-341.16"/>
<text text-anchor="middle" x="750.5" y="-341.4" font-family="Helvetica,sans-Serif" font-size="12.00">weights</text>
</g>
<!-- PPU -->
<g id="node10" class="node">
<title>PPU</title>
<polygon fill="#ffe8db" stroke="#d18a66" stroke-width="2.2" points="1375.51,-86 1166.51,-86 1166.51,0 1375.51,0 1375.51,-86"/>
<text text-anchor="middle" x="1271.01" y="-48.2" font-family="Helvetica,sans-Serif" font-size="16.00" fill="#40261d">Post&#45;Processing Unit</text>
<text text-anchor="middle" x="1271.01" y="-30.2" font-family="Helvetica,sans-Serif" font-size="16.00" fill="#40261d">+ Layout Reformatter</text>
</g>
<!-- UB&#45;&gt;PPU -->
<g id="edge13" class="edge">
<title>UB&#45;&gt;PPU</title>
<path fill="none" stroke="#7a7a7a" stroke-width="2" stroke-dasharray="5,2" d="M624.15,-301.2C651.54,-243.45 711.22,-138.77 799.5,-97 890.3,-54.04 925.24,-91.01 1025.51,-97 1036.68,-97.67 1039.34,-99.33 1050.51,-100 1090.88,-102.41 1101.95,-108.38 1141.51,-100 1153.52,-97.46 1165.77,-93.71 1177.7,-89.34"/>
<polygon fill="#7a7a7a" stroke="#7a7a7a" stroke-width="2" points="1179.04,-92.2 1186.33,-86.05 1176.79,-86.31 1179.04,-92.2"/>
<text text-anchor="middle" x="912.51" y="-100.4" font-family="Helvetica,sans-Serif" font-size="12.00" fill="#6e6e6e">bias</text>
</g>
<!-- SA -->
<g id="node9" class="node">
<title>SA</title>
<polygon fill="#e7f6ec" stroke="#4f9a6c" stroke-width="2.2" points="1346.51,-300.5 1195.51,-300.5 1195.51,-149.5 1346.51,-149.5 1346.51,-300.5"/>
<text text-anchor="middle" x="1271.01" y="-239.2" font-family="Helvetica,sans-Serif" font-size="16.00" fill="#1f3328">N x N</text>
<text text-anchor="middle" x="1271.01" y="-221.2" font-family="Helvetica,sans-Serif" font-size="16.00" fill="#1f3328">Systolic</text>
<text text-anchor="middle" x="1271.01" y="-203.2" font-family="Helvetica,sans-Serif" font-size="16.00" fill="#1f3328">Array</text>
</g>
<!-- InStream&#45;&gt;SA -->
<g id="edge3" class="edge">
<title>InStream&#45;&gt;SA:w</title>
<path fill="none" stroke="#2f2f2f" stroke-width="2" d="M1010.41,-206.19C1061.61,-215.24 1125.92,-224.09 1184.96,-224.93"/>
<polygon fill="#2f2f2f" stroke="#2f2f2f" stroke-width="2" points="1184.99,-228.08 1194.01,-225 1185.04,-221.78 1184.99,-228.08"/>
<text text-anchor="middle" x="1096.01" y="-225.4" font-family="Helvetica,sans-Serif" font-size="12.00">horizontal feed</text>
</g>
<!-- WtStream&#45;&gt;SA -->
<g id="edge4" class="edge">
<title>WtStream&#45;&gt;SA:n</title>
<path fill="none" stroke="#2f2f2f" stroke-width="2" d="M1013.09,-365.75C1115.67,-389.03 1261.84,-405.17 1270.6,-311.13"/>
<polygon fill="#2f2f2f" stroke="#2f2f2f" stroke-width="2" points="1273.75,-311.13 1271.01,-302 1267.46,-310.85 1273.75,-311.13"/>
<text text-anchor="middle" x="1096.01" y="-386.4" font-family="Helvetica,sans-Serif" font-size="12.00">vertical feed</text>
</g>
<!-- SA&#45;&gt;PPU -->
<g id="edge12" class="edge">
<title>SA&#45;&gt;PPU</title>
<path fill="none" stroke="#2f2f2f" stroke-width="2" d="M1271.01,-149.42C1271.01,-131.21 1271.01,-112.14 1271.01,-95.26"/>
<polygon fill="#2f2f2f" stroke="#2f2f2f" stroke-width="2" points="1274.16,-95.13 1271.01,-86.13 1267.86,-95.13 1274.16,-95.13"/>
<text text-anchor="middle" x="1261.51" y="-114.65" font-family="Helvetica,sans-Serif" font-size="12.00">drain / capture</text>
</g>
<!-- PPU&#45;&gt;UB -->
<g id="edge14" class="edge">
<title>PPU&#45;&gt;UB</title>
<path fill="none" stroke="#2f2f2f" stroke-width="2" d="M1166.41,-22.69C1068.62,-8.11 919.5,2.08 799.5,-42 692.86,-81.17 640.06,-218.53 618.81,-292.67"/>
<polygon fill="#2f2f2f" stroke="#2f2f2f" stroke-width="2" points="615.76,-291.87 616.37,-301.39 621.83,-293.57 615.76,-291.87"/>
<text text-anchor="middle" x="912.51" y="-58.4" font-family="Helvetica,sans-Serif" font-size="12.00">layout&#45;aware writeback</text>
<text text-anchor="middle" x="912.51" y="-45.4" font-family="Helvetica,sans-Serif" font-size="12.00">transpose / repack</text>
</g>
</g>
</svg>
