<?xml version="1.0" encoding="UTF-8" standalone="no"?>
<!DOCTYPE svg PUBLIC "-//W3C//DTD SVG 1.1//EN"
 "http://www.w3.org/Graphics/SVG/1.1/DTD/svg11.dtd">
<!-- Generated by graphviz version 2.43.0 (0)
 -->
<!-- Title: TinyNPUArchitecture Pages: 1 -->
<svg width="1329pt" height="643pt"
 viewBox="0.00 0.00 1328.62 643.16" xmlns="http://www.w3.org/2000/svg" xmlns:xlink="http://www.w3.org/1999/xlink">
<g id="graph0" class="graph" transform="scale(1 1) rotate(0) translate(14.4 628.76)">
<title>TinyNPUArchitecture</title>
<polygon fill="white" stroke="transparent" points="-14.4,14.4 -14.4,-628.76 1314.22,-628.76 1314.22,14.4 -14.4,14.4"/>
<g id="clust1" class="cluster">
<title>cluster_hostcpu</title>
<path fill="white" stroke="#557aab" stroke-width="2" stroke-dasharray="5,2" d="M76.81,-226C76.81,-226 232.81,-226 232.81,-226 238.81,-226 244.81,-232 244.81,-238 244.81,-238 244.81,-350 244.81,-350 244.81,-356 238.81,-362 232.81,-362 232.81,-362 76.81,-362 76.81,-362 70.81,-362 64.81,-356 64.81,-350 64.81,-350 64.81,-238 64.81,-238 64.81,-232 70.81,-226 76.81,-226"/>
<text text-anchor="middle" x="154.81" y="-343.6" font-family="Helvetica,sans-Serif" font-size="18.00" fill="#355c7d">Host CPU</text>
</g>
<g id="clust2" class="cluster">
<title>cluster_pipeline</title>
<polygon fill="#f7fcf8" stroke="#6ab285" stroke-width="2.2" points="407.81,-118 407.81,-436 1278.82,-436 1278.82,-118 407.81,-118"/>
<text text-anchor="middle" x="843.32" y="-416" font-family="Helvetica,sans-Serif" font-size="20.00" fill="#2d6a4f">Pipelined Compute Path</text>
</g>
<!-- Runtime -->
<g id="node1" class="node">
<title>Runtime</title>
<polygon fill="#e8f0fe" stroke="#557aab" stroke-width="2.2" points="226.81,-316 82.81,-316 82.81,-244 226.81,-244 226.81,-316"/>
<text text-anchor="middle" x="154.81" y="-276.2" font-family="Helvetica,sans-Serif" font-size="16.00" fill="#1f2d3d">Runtime</text>
</g>
<!-- MMIO -->
<g id="node2" class="node">
<title>MMIO</title>
<polygon fill="#e8f0fe" stroke="#557aab" stroke-width="2.2" points="232.81,-486 76.81,-486 76.81,-444 232.81,-444 232.81,-486"/>
<text text-anchor="middle" x="154.81" y="-461.2" font-family="Helvetica,sans-Serif" font-size="16.00" fill="#1f2d3d">MMIO Interface</text>
</g>
<!-- Runtime&#45;&gt;MMIO -->
<g id="edge6" class="edge">
<title>Runtime:e&#45;&gt;MMIO:s</title>
<path fill="none" stroke="#2f2f2f" stroke-width="2" d="M156.38,-434.05C166.2,-399.67 218.92,-344.5 226.81,-316 231.08,-300.57 243.82,-280 227.81,-280"/>
<polygon fill="#2f2f2f" stroke="#2f2f2f" stroke-width="2" points="153.1,-434.62 154.81,-444 159.33,-435.6 153.1,-434.62"/>
<text text-anchor="middle" x="239.31" y="-376.9" font-family="Helvetica,sans-Serif" font-size="12.00">host commands</text>
</g>
<!-- RuntimeMMIOSpacer -->
<!-- Runtime&#45;&gt;RuntimeMMIOSpacer -->
<!-- MMIO&#45;&gt;Runtime -->
<g id="edge7" class="edge">
<title>MMIO:s&#45;&gt;Runtime:w</title>
<path fill="none" stroke="#2f2f2f" stroke-width="2" d="M71.7,-280.1C-63.12,-282.96 30.41,-344.32 54.81,-386.5 80.48,-430.88 154.81,-392.73 154.81,-444"/>
<polygon fill="#2f2f2f" stroke="#2f2f2f" stroke-width="2" points="72.84,-283.24 81.81,-280 72.78,-276.94 72.84,-283.24"/>
<text text-anchor="middle" x="92.31" y="-376.9" font-family="Helvetica,sans-Serif" font-size="12.00">status / data</text>
</g>
<!-- IM -->
<g id="node3" class="node">
<title>IM</title>
<polygon fill="#efe8ff" stroke="#8b74bd" stroke-width="2.2" points="616.31,-486 425.31,-486 425.31,-444 616.31,-444 616.31,-486"/>
<text text-anchor="middle" x="520.81" y="-461.2" font-family="Helvetica,sans-Serif" font-size="16.00" fill="#2c2236">Instruction Memory</text>
</g>
<!-- MMIO&#45;&gt;IM -->
<g id="edge8" class="edge">
<title>MMIO&#45;&gt;IM</title>
<path fill="none" stroke="#2f2f2f" stroke-width="2" d="M233.03,-480.09C241.37,-481.28 249.75,-482.29 257.81,-483 316.7,-488.16 331.84,-487.09 390.81,-483 399.1,-482.42 407.66,-481.64 416.26,-480.73"/>
<polygon fill="#2f2f2f" stroke="#2f2f2f" stroke-width="2" points="416.62,-483.86 425.21,-479.73 415.92,-477.6 416.62,-483.86"/>
<text text-anchor="middle" x="324.31" y="-489.4" font-family="Helvetica,sans-Serif" font-size="12.00">instruction load</text>
</g>
<!-- MMIO&#45;&gt;IM -->
<!-- UB -->
<g id="node5" class="node">
<title>UB</title>
<polygon fill="#efe8ff" stroke="#8b74bd" stroke-width="2.2" points="599.81,-254.5 441.81,-254.5 441.81,-175.5 599.81,-175.5 599.81,-254.5"/>
<text text-anchor="middle" x="520.81" y="-211.2" font-family="Helvetica,sans-Serif" font-size="16.00" fill="#2c2236">Unified Buffer</text>
</g>
<!-- MMIO&#45;&gt;UB -->
<g id="edge9" class="edge">
<title>MMIO&#45;&gt;UB</title>
<path fill="none" stroke="#2f2f2f" stroke-width="2" d="M194,-438.77C255.84,-396.3 378.62,-311.97 454.53,-259.84"/>
<polygon fill="#2f2f2f" stroke="#2f2f2f" stroke-width="2" points="192.17,-436.21 186.53,-443.9 195.73,-441.4 192.17,-436.21"/>
<polygon fill="#2f2f2f" stroke="#2f2f2f" stroke-width="2" points="456.54,-262.27 462.18,-254.58 452.98,-257.08 456.54,-262.27"/>
<text text-anchor="middle" x="324.31" y="-394.4" font-family="Helvetica,sans-Serif" font-size="12.00">buffer load / readback</text>
</g>
<!-- IM&#45;&gt;UB -->
<!-- RuntimeMMIOSpacer&#45;&gt;MMIO -->
<!-- XFORM -->
<g id="node6" class="node">
<title>XFORM</title>
<polygon fill="#fff4cc" stroke="#c49a3a" stroke-width="2.2" points="625.81,-397.5 415.81,-397.5 415.81,-318.5 625.81,-318.5 625.81,-397.5"/>
<text text-anchor="middle" x="520.81" y="-363.2" font-family="Helvetica,sans-Serif" font-size="16.00" fill="#3b2d0f">XFORM Unit</text>
<text text-anchor="middle" x="520.81" y="-345.2" font-family="Helvetica,sans-Serif" font-size="16.00" fill="#3b2d0f">FP16/INT16 boundary</text>
</g>
<!-- UB&#45;&gt;XFORM -->
<g id="edge1" class="edge">
<title>UB&#45;&gt;XFORM</title>
<path fill="none" stroke="#2f2f2f" stroke-width="2" d="M520.81,-263.91C520.81,-278.48 520.81,-294.45 520.81,-309.03"/>
<polygon fill="#2f2f2f" stroke="#2f2f2f" stroke-width="2" points="523.96,-263.83 520.81,-254.83 517.66,-263.83 523.96,-263.83"/>
<polygon fill="#2f2f2f" stroke="#2f2f2f" stroke-width="2" points="517.66,-309.38 520.81,-318.38 523.96,-309.38 517.66,-309.38"/>
<text text-anchor="middle" x="504.81" y="-289.9" font-family="Helvetica,sans-Serif" font-size="12.00">quantize /</text>
<text text-anchor="middle" x="504.81" y="-276.9" font-family="Helvetica,sans-Serif" font-size="12.00">dequantize</text>
</g>
<!-- InStream -->
<g id="node7" class="node">
<title>InStream</title>
<polygon fill="#e7f6ec" stroke="#4f9a6c" stroke-width="2.2" points="949.83,-246 770.05,-246 723.8,-126 903.58,-126 949.83,-246"/>
<text text-anchor="middle" x="836.82" y="-191.2" font-family="Helvetica,sans-Serif" font-size="16.00" fill="#1f3328">Input</text>
<text text-anchor="middle" x="836.82" y="-173.2" font-family="Helvetica,sans-Serif" font-size="16.00" fill="#1f3328">Streamer</text>
</g>
<!-- UB&#45;&gt;InStream -->
<g id="edge2" class="edge">
<title>UB&#45;&gt;InStream:w</title>
<path fill="none" stroke="#2f2f2f" stroke-width="2" d="M600.02,-199.86C640.22,-193.27 690.36,-186.85 736.62,-186.08"/>
<polygon fill="#2f2f2f" stroke="#2f2f2f" stroke-width="2" points="736.84,-189.23 745.82,-186 736.79,-182.93 736.84,-189.23"/>
<text text-anchor="middle" x="674.81" y="-195.4" font-family="Helvetica,sans-Serif" font-size="12.00">A words</text>
</g>
<!-- WtStream -->
<g id="node8" class="node">
<title>WtStream</title>
<polygon fill="#e7f6ec" stroke="#4f9a6c" stroke-width="2.2" points="949.83,-398 770.05,-398 723.8,-278 903.58,-278 949.83,-398"/>
<text text-anchor="middle" x="836.82" y="-343.2" font-family="Helvetica,sans-Serif" font-size="16.00" fill="#1f3328">Weight</text>
<text text-anchor="middle" x="836.82" y="-325.2" font-family="Helvetica,sans-Serif" font-size="16.00" fill="#1f3328">Streamer</text>
</g>
<!-- UB&#45;&gt;WtStream -->
<g id="edge3" class="edge">
<title>UB&#45;&gt;WtStream:w</title>
<path fill="none" stroke="#2f2f2f" stroke-width="2" d="M563.54,-254.6C604.12,-289.01 669.36,-333.94 736.73,-337.74"/>
<polygon fill="#2f2f2f" stroke="#2f2f2f" stroke-width="2" points="736.73,-340.89 745.82,-338 736.91,-334.6 736.73,-340.89"/>
<text text-anchor="middle" x="674.81" y="-334.4" font-family="Helvetica,sans-Serif" font-size="12.00">weights</text>
</g>
<!-- PPU -->
<g id="node10" class="node">
<title>PPU</title>
<polygon fill="#ffe8db" stroke="#d18a66" stroke-width="2.2" points="1299.82,-86 1090.82,-86 1090.82,0 1299.82,0 1299.82,-86"/>
<text text-anchor="middle" x="1195.32" y="-48.2" font-family="Helvetica,sans-Serif" font-size="16.00" fill="#40261d">Post&#45;Processing Unit</text>
<text text-anchor="middle" x="1195.32" y="-30.2" font-family="Helvetica,sans-Serif" font-size="16.00" fill="#40261d">+ Layout Reformatter</text>
</g>
<!-- UB&#45;&gt;PPU -->
<g id="edge11" class="edge">
<title>UB&#45;&gt;PPU</title>
<path fill="none" stroke="#7a7a7a" stroke-width="2" stroke-dasharray="5,2" d="M571.96,-175.49C610.89,-147.46 667.55,-112.23 723.81,-97 820.77,-70.75 849.55,-91.01 949.82,-97 960.99,-97.67 963.65,-99.33 974.82,-100 1015.19,-102.41 1026.26,-108.38 1065.82,-100 1077.83,-97.46 1090.08,-93.71 1102.01,-89.34"/>
<polygon fill="#7a7a7a" stroke="#7a7a7a" stroke-width="2" points="1103.35,-92.2 1110.64,-86.05 1101.1,-86.31 1103.35,-92.2"/>
<text text-anchor="middle" x="836.82" y="-100.4" font-family="Helvetica,sans-Serif" font-size="12.00" fill="#6e6e6e">bias</text>
</g>
<!-- SA -->
<g id="node9" class="node">
<title>SA</title>
<polygon fill="#e7f6ec" stroke="#4f9a6c" stroke-width="2.2" points="1270.82,-300.5 1119.82,-300.5 1119.82,-149.5 1270.82,-149.5 1270.82,-300.5"/>
<text text-anchor="middle" x="1195.32" y="-239.2" font-family="Helvetica,sans-Serif" font-size="16.00" fill="#1f3328">N x N</text>
<text text-anchor="middle" x="1195.32" y="-221.2" font-family="Helvetica,sans-Serif" font-size="16.00" fill="#1f3328">Systolic</text>
<text text-anchor="middle" x="1195.32" y="-203.2" font-family="Helvetica,sans-Serif" font-size="16.00" fill="#1f3328">Array</text>
</g>
<!-- InStream&#45;&gt;SA -->
<g id="edge4" class="edge">
<title>InStream&#45;&gt;SA:w</title>
<path fill="none" stroke="#2f2f2f" stroke-width="2" d="M934.72,-206.19C985.92,-215.24 1050.23,-224.09 1109.27,-224.93"/>
<polygon fill="#2f2f2f" stroke="#2f2f2f" stroke-width="2" points="1109.3,-228.08 1118.32,-225 1109.34,-221.78 1109.3,-228.08"/>
<text text-anchor="middle" x="1020.32" y="-225.4" font-family="Helvetica,sans-Serif" font-size="12.00">horizontal feed</text>
</g>
<!-- WtStream&#45;&gt;SA -->
<g id="edge5" class="edge">
<title>WtStream&#45;&gt;SA:n</title>
<path fill="none" stroke="#2f2f2f" stroke-width="2" d="M937.4,-365.75C1039.98,-389.03 1186.15,-405.17 1194.91,-311.13"/>
<polygon fill="#2f2f2f" stroke="#2f2f2f" stroke-width="2" points="1198.06,-311.13 1195.32,-302 1191.77,-310.85 1198.06,-311.13"/>
<text text-anchor="middle" x="1020.32" y="-386.4" font-family="Helvetica,sans-Serif" font-size="12.00">vertical feed</text>
</g>
<!-- SA&#45;&gt;PPU -->
<g id="edge10" class="edge">
<title>SA&#45;&gt;PPU</title>
<path fill="none" stroke="#2f2f2f" stroke-width="2" d="M1195.32,-149.42C1195.32,-131.21 1195.32,-112.14 1195.32,-95.26"/>
<polygon fill="#2f2f2f" stroke="#2f2f2f" stroke-width="2" points="1198.47,-95.13 1195.32,-86.13 1192.17,-95.13 1198.47,-95.13"/>
<text text-anchor="middle" x="1185.82" y="-114.65" font-family="Helvetica,sans-Serif" font-size="12.00">drain / capture</text>
</g>
<!-- PPU&#45;&gt;UB -->
<g id="edge12" class="edge">
<title>PPU&#45;&gt;UB</title>
<path fill="none" stroke="#2f2f2f" stroke-width="2" d="M1090.81,-27.95C993.73,-17.62 845.66,-11.68 723.81,-49 656.11,-69.73 595.92,-126.83 559.22,-168.27"/>
<polygon fill="#2f2f2f" stroke="#2f2f2f" stroke-width="2" points="556.63,-166.45 553.09,-175.3 561.38,-170.59 556.63,-166.45"/>
<text text-anchor="middle" x="836.82" y="-65.4" font-family="Helvetica,sans-Serif" font-size="12.00">layout&#45;aware writeback</text>
<text text-anchor="middle" x="836.82" y="-52.4" font-family="Helvetica,sans-Serif" font-size="12.00">transpose / repack</text>
</g>
</g>
</svg>
