<?xml version="1.0" encoding="UTF-8" standalone="no"?>
<!DOCTYPE svg PUBLIC "-//W3C//DTD SVG 1.1//EN"
 "http://www.w3.org/Graphics/SVG/1.1/DTD/svg11.dtd">
<!-- Generated by graphviz version 12.2.1 (20241206.2353)
 -->
<!-- Title: TinyNPURuntimeState Pages: 1 -->
<svg width="776pt" height="1106pt"
 viewBox="0.00 0.00 776.42 1106.00" xmlns="http://www.w3.org/2000/svg" xmlns:xlink="http://www.w3.org/1999/xlink">
<g id="graph0" class="graph" transform="scale(1 1) rotate(0) translate(7.2 1098.8)">
<title>TinyNPURuntimeState</title>
<polygon fill="white" stroke="none" points="-7.2,7.2 -7.2,-1098.8 769.22,-1098.8 769.22,7.2 -7.2,7.2"/>
<g id="clust1" class="cluster">
<title>cluster_npu</title>
<polygon fill="#f5f9ff" stroke="#557aab" stroke-width="2" points="305.02,-308.75 305.02,-1083.6 754.02,-1083.6 754.02,-308.75 305.02,-308.75"/>
<text text-anchor="middle" x="529.52" y="-1064.4" font-family="Helvetica,sans-Serif" font-size="16.00" fill="#355c7d">Host&#45;side NPU Segment Handling</text>
</g>
<!-- Start -->
<g id="node1" class="node">
<title>Start</title>
<ellipse fill="#f4f7fb" stroke="#6f8fb3" stroke-width="1.8" cx="199.02" cy="-549.2" rx="98.49" ry="21.85"/>
<text text-anchor="middle" x="199.02" y="-545.1" font-family="Helvetica,sans-Serif" font-size="13.00" fill="#233142">Start runtime call</text>
</g>
<!-- Init -->
<g id="node2" class="node">
<title>Init</title>
<polygon fill="#efe8ff" stroke="#8b74bd" stroke-width="1.8" points="286.17,-459.05 119.88,-459.05 119.88,-411.65 286.17,-411.65 286.17,-459.05"/>
<text text-anchor="middle" x="203.02" y="-439.5" font-family="Helvetica,sans-Serif" font-size="13.00" fill="#2c2236">materialize constants</text>
<text text-anchor="middle" x="203.02" y="-423" font-family="Helvetica,sans-Serif" font-size="13.00" fill="#2c2236">bind runtime inputs</text>
</g>
<!-- Start&#45;&gt;Init -->
<g id="edge1" class="edge">
<title>Start&#45;&gt;Init</title>
<path fill="none" stroke="#2f2f2f" stroke-width="1.6" d="M199.78,-526.9C200.36,-510.79 201.16,-488.37 201.82,-469.86"/>
<polygon fill="#2f2f2f" stroke="#2f2f2f" stroke-width="1.6" points="204.62,-470.02 202.11,-461.92 199.02,-469.81 204.62,-470.02"/>
</g>
<!-- Session -->
<g id="node3" class="node">
<title>Session</title>
<polygon fill="#ffe8db" stroke="#d18a66" stroke-width="1.8" points="295.17,-380.65 128.88,-380.65 128.88,-316.75 295.17,-316.75 295.17,-380.65"/>
<text text-anchor="middle" x="212.02" y="-361.1" font-family="Helvetica,sans-Serif" font-size="13.00" fill="#40261d">optional reset</text>
<text text-anchor="middle" x="212.02" y="-344.6" font-family="Helvetica,sans-Serif" font-size="13.00" fill="#40261d">reuse session state</text>
<text text-anchor="middle" x="212.02" y="-328.1" font-family="Helvetica,sans-Serif" font-size="13.00" fill="#40261d">preload static UB / IM</text>
</g>
<!-- Init&#45;&gt;Session -->
<g id="edge2" class="edge">
<title>Init&#45;&gt;Session</title>
<path fill="none" stroke="#2f2f2f" stroke-width="1.6" d="M205.48,-411.22C206.14,-404.97 206.88,-398.01 207.62,-391.09"/>
<polygon fill="#2f2f2f" stroke="#2f2f2f" stroke-width="1.6" points="210.37,-391.71 208.43,-383.46 204.8,-391.12 210.37,-391.71"/>
</g>
<!-- Dispatch -->
<g id="node4" class="node">
<title>Dispatch</title>
<polygon fill="#f4f7fb" stroke="#6f8fb3" stroke-width="1.8" points="335.02,-273 210.73,-242.1 335.02,-211.2 459.31,-242.1 335.02,-273"/>
<text text-anchor="middle" x="335.02" y="-238" font-family="Helvetica,sans-Serif" font-size="13.00" fill="#233142">next plan step?</text>
</g>
<!-- Session&#45;&gt;Dispatch -->
<g id="edge3" class="edge">
<title>Session&#45;&gt;Dispatch</title>
<path fill="none" stroke="#2f2f2f" stroke-width="1.6" d="M248.92,-316.32C265.1,-302.56 283.99,-286.49 299.95,-272.92"/>
<polygon fill="#2f2f2f" stroke="#2f2f2f" stroke-width="1.6" points="301.4,-275.36 305.68,-268.05 297.78,-271.1 301.4,-275.36"/>
</g>
<!-- Kind -->
<g id="node5" class="node">
<title>Kind</title>
<polygon fill="#f4f7fb" stroke="#6f8fb3" stroke-width="1.8" points="249.02,-168.45 158.48,-137.55 249.02,-106.65 339.56,-137.55 249.02,-168.45"/>
<text text-anchor="middle" x="249.02" y="-133.45" font-family="Helvetica,sans-Serif" font-size="13.00" fill="#233142">step kind?</text>
</g>
<!-- Dispatch&#45;&gt;Kind -->
<g id="edge5" class="edge">
<title>Dispatch&#45;&gt;Kind</title>
<path fill="none" stroke="#2f2f2f" stroke-width="1.6" d="M312.77,-216.61C306.92,-210.04 300.67,-202.9 295.02,-196.2 288.01,-187.89 280.6,-178.76 273.81,-170.25"/>
<polygon fill="#2f2f2f" stroke="#2f2f2f" stroke-width="1.6" points="276.21,-168.77 269.04,-164.24 271.82,-172.25 276.21,-168.77"/>
<text text-anchor="middle" x="329.52" y="-186.7" font-family="Helvetica,sans-Serif" font-size="10.00">step available</text>
</g>
<!-- Finalize -->
<g id="node18" class="node">
<title>Finalize</title>
<polygon fill="#efe8ff" stroke="#8b74bd" stroke-width="1.8" points="653.29,-161.25 454.75,-161.25 454.75,-113.85 653.29,-113.85 653.29,-161.25"/>
<text text-anchor="middle" x="554.02" y="-141.7" font-family="Helvetica,sans-Serif" font-size="13.00" fill="#2c2236">collect final outputs</text>
<text text-anchor="middle" x="554.02" y="-125.2" font-family="Helvetica,sans-Serif" font-size="13.00" fill="#2c2236">trace tensors / benchmark</text>
</g>
<!-- Dispatch&#45;&gt;Finalize -->
<g id="edge4" class="edge">
<title>Dispatch&#45;&gt;Finalize</title>
<path fill="none" stroke="#2f2f2f" stroke-width="1.6" d="M377.25,-221.33C410.82,-205.61 458.17,-183.43 495.41,-165.99"/>
<polygon fill="#2f2f2f" stroke="#2f2f2f" stroke-width="1.6" points="496.4,-168.62 502.46,-162.7 494.02,-163.55 496.4,-168.62"/>
<text text-anchor="middle" x="495.13" y="-186.7" font-family="Helvetica,sans-Serif" font-size="10.00">plan exhausted</text>
</g>
<!-- Pack -->
<g id="node6" class="node">
<title>Pack</title>
<polygon fill="#e8f0fe" stroke="#557aab" stroke-width="1.8" points="501.54,-1048.1 322.5,-1048.1 322.5,-1000.7 501.54,-1000.7 501.54,-1048.1"/>
<text text-anchor="middle" x="412.02" y="-1028.55" font-family="Helvetica,sans-Serif" font-size="13.00" fill="#1f2d3d">pack runtime tensors</text>
<text text-anchor="middle" x="412.02" y="-1012.05" font-family="Helvetica,sans-Serif" font-size="13.00" fill="#1f2d3d">into role&#45;specific layout</text>
</g>
<!-- Kind&#45;&gt;Pack -->
<g id="edge6" class="edge">
<title>Kind&#45;&gt;Pack</title>
<path fill="none" stroke="#2f2f2f" stroke-width="1.6" d="M205.72,-154.04C153.32,-174.14 72.02,-210.29 72.02,-241.1 72.02,-923.3 72.02,-923.3 72.02,-923.3 72.02,-973.79 211.75,-1000.68 312.06,-1013.48"/>
<polygon fill="#2f2f2f" stroke="#2f2f2f" stroke-width="1.6" points="311.56,-1016.24 319.84,-1014.45 312.25,-1010.69 311.56,-1016.24"/>
<text text-anchor="middle" x="103.52" y="-614.85" font-family="Helvetica,sans-Serif" font-size="10.00">NpuSegment</text>
</g>
<!-- HostOp -->
<g id="node16" class="node">
<title>HostOp</title>
<polygon fill="#fff4e8" stroke="#c98a43" stroke-width="1.8" points="194.04,-63.9 0,-63.9 0,0 194.04,0 194.04,-63.9"/>
<text text-anchor="middle" x="97.02" y="-44.35" font-family="Helvetica,sans-Serif" font-size="13.00" fill="#4a3520">HostOp execution</text>
<text text-anchor="middle" x="97.02" y="-27.85" font-family="Helvetica,sans-Serif" font-size="13.00" fill="#4a3520">dequantize / requantize /</text>
<text text-anchor="middle" x="97.02" y="-11.35" font-family="Helvetica,sans-Serif" font-size="13.00" fill="#4a3520">softmax / mean / reshape</text>
</g>
<!-- Kind&#45;&gt;HostOp -->
<g id="edge7" class="edge">
<title>Kind&#45;&gt;HostOp</title>
<path fill="none" stroke="#2f2f2f" stroke-width="1.6" d="M219.35,-116.33C200.12,-103.22 174.5,-85.76 151.67,-70.2"/>
<polygon fill="#2f2f2f" stroke="#2f2f2f" stroke-width="1.6" points="153.26,-67.89 145.07,-65.7 150.11,-72.52 153.26,-67.89"/>
<text text-anchor="middle" x="200.12" y="-82.15" font-family="Helvetica,sans-Serif" font-size="10.00">HostOp</text>
</g>
<!-- Verify -->
<g id="node17" class="node">
<title>Verify</title>
<polygon fill="#fff7d9" stroke="#c9a227" stroke-width="1.8" points="459.29,-55.65 212.75,-55.65 212.75,-8.25 459.29,-8.25 459.29,-55.65"/>
<text text-anchor="middle" x="336.02" y="-36.1" font-family="Helvetica,sans-Serif" font-size="13.00" fill="#4a3a00">optional verification</text>
<text text-anchor="middle" x="336.02" y="-19.6" font-family="Helvetica,sans-Serif" font-size="13.00" fill="#4a3a00">compare against expected tensor</text>
</g>
<!-- Kind&#45;&gt;Verify -->
<g id="edge8" class="edge">
<title>Kind&#45;&gt;Verify</title>
<path fill="none" stroke="#2f2f2f" stroke-width="1.6" d="M268.76,-113.04C280.97,-98.5 296.78,-79.67 310.01,-63.92"/>
<polygon fill="#2f2f2f" stroke="#2f2f2f" stroke-width="1.6" points="312.1,-65.79 315.1,-57.86 307.81,-62.19 312.1,-65.79"/>
<text text-anchor="middle" x="324.75" y="-82.15" font-family="Helvetica,sans-Serif" font-size="10.00">VerifyTensor</text>
</g>
<!-- WriteSel -->
<g id="node7" class="node">
<title>WriteSel</title>
<polygon fill="#f4f7fb" stroke="#6f8fb3" stroke-width="1.8" points="422.02,-969.7 312.73,-922.3 422.02,-874.9 531.31,-922.3 422.02,-969.7"/>
<text text-anchor="middle" x="422.02" y="-926.45" font-family="Helvetica,sans-Serif" font-size="13.00" fill="#233142">shared SRAM</text>
<text text-anchor="middle" x="422.02" y="-909.95" font-family="Helvetica,sans-Serif" font-size="13.00" fill="#233142">write path?</text>
</g>
<!-- Pack&#45;&gt;WriteSel -->
<g id="edge9" class="edge">
<title>Pack&#45;&gt;WriteSel</title>
<path fill="none" stroke="#2f2f2f" stroke-width="1.6" d="M414.29,-1000.69C414.96,-993.95 415.73,-986.26 416.52,-978.4"/>
<polygon fill="#2f2f2f" stroke="#2f2f2f" stroke-width="1.6" points="419.3,-978.68 417.31,-970.44 413.73,-978.13 419.3,-978.68"/>
</g>
<!-- WriteShared -->
<g id="node8" class="node">
<title>WriteShared</title>
<polygon fill="#e8f0fe" stroke="#557aab" stroke-width="1.8" points="508.16,-832.15 317.88,-832.15 317.88,-784.75 508.16,-784.75 508.16,-832.15"/>
<text text-anchor="middle" x="413.02" y="-812.6" font-family="Helvetica,sans-Serif" font-size="13.00" fill="#1f2d3d">stage UB/IM through</text>
<text text-anchor="middle" x="413.02" y="-796.1" font-family="Helvetica,sans-Serif" font-size="13.00" fill="#1f2d3d">shared&#45;SRAM word writes</text>
</g>
<!-- WriteSel&#45;&gt;WriteShared -->
<g id="edge10" class="edge">
<title>WriteSel&#45;&gt;WriteShared</title>
<path fill="none" stroke="#2f2f2f" stroke-width="1.6" d="M418.39,-876.13C417.49,-864.97 416.54,-853.22 415.7,-842.74"/>
<polygon fill="#2f2f2f" stroke="#2f2f2f" stroke-width="1.6" points="418.49,-842.52 415.06,-834.77 412.91,-842.97 418.49,-842.52"/>
<text text-anchor="middle" x="425.61" y="-850.4" font-family="Helvetica,sans-Serif" font-size="10.00">yes</text>
</g>
<!-- WriteMMIO -->
<g id="node9" class="node">
<title>WriteMMIO</title>
<polygon fill="#e8f0fe" stroke="#557aab" stroke-width="1.8" points="727.04,-832.15 527,-832.15 527,-784.75 727.04,-784.75 727.04,-832.15"/>
<text text-anchor="middle" x="627.02" y="-812.6" font-family="Helvetica,sans-Serif" font-size="13.00" fill="#1f2d3d">MMIO WRITE_MEM fallback</text>
<text text-anchor="middle" x="627.02" y="-796.1" font-family="Helvetica,sans-Serif" font-size="13.00" fill="#1f2d3d">packed helper path</text>
</g>
<!-- WriteSel&#45;&gt;WriteMMIO -->
<g id="edge11" class="edge">
<title>WriteSel&#45;&gt;WriteMMIO</title>
<path fill="none" stroke="#2f2f2f" stroke-width="1.6" d="M469.82,-895.22C501.62,-877.87 543.34,-855.1 575.81,-837.39"/>
<polygon fill="#2f2f2f" stroke="#2f2f2f" stroke-width="1.6" points="576.9,-839.98 582.59,-833.69 574.22,-835.07 576.9,-839.98"/>
<text text-anchor="middle" x="560.86" y="-850.4" font-family="Helvetica,sans-Serif" font-size="10.00">no</text>
</g>
<!-- Launch -->
<g id="node10" class="node">
<title>Launch</title>
<polygon fill="#e8f0fe" stroke="#557aab" stroke-width="1.8" points="522.91,-753.75 331.12,-753.75 331.12,-706.35 522.91,-706.35 522.91,-753.75"/>
<text text-anchor="middle" x="427.02" y="-734.2" font-family="Helvetica,sans-Serif" font-size="13.00" fill="#1f2d3d">issue CMD_RUN via MMIO</text>
<text text-anchor="middle" x="427.02" y="-717.7" font-family="Helvetica,sans-Serif" font-size="13.00" fill="#1f2d3d">set start address</text>
</g>
<!-- WriteShared&#45;&gt;Launch -->
<g id="edge12" class="edge">
<title>WriteShared&#45;&gt;Launch</title>
<path fill="none" stroke="#2f2f2f" stroke-width="1.6" d="M417.22,-784.53C418.4,-778.09 419.71,-770.96 420.97,-764.06"/>
<polygon fill="#2f2f2f" stroke="#2f2f2f" stroke-width="1.6" points="423.65,-764.98 422.34,-756.6 418.14,-763.97 423.65,-764.98"/>
</g>
<!-- WriteMMIO&#45;&gt;Launch -->
<g id="edge13" class="edge">
<title>WriteMMIO&#45;&gt;Launch</title>
<path fill="none" stroke="#2f2f2f" stroke-width="1.6" d="M566.47,-784.32C544.64,-775.98 519.82,-766.5 497.24,-757.87"/>
<polygon fill="#2f2f2f" stroke="#2f2f2f" stroke-width="1.6" points="498.44,-755.34 489.97,-755.1 496.44,-760.57 498.44,-755.34"/>
</g>
<!-- Wait -->
<g id="node11" class="node">
<title>Wait</title>
<polygon fill="#e8f0fe" stroke="#557aab" stroke-width="1.8" points="508.29,-675.35 345.75,-675.35 345.75,-639.35 508.29,-639.35 508.29,-675.35"/>
<text text-anchor="middle" x="427.02" y="-653.25" font-family="Helvetica,sans-Serif" font-size="13.00" fill="#1f2d3d">poll status until HALT</text>
</g>
<!-- Launch&#45;&gt;Wait -->
<g id="edge14" class="edge">
<title>Launch&#45;&gt;Wait</title>
<path fill="none" stroke="#2f2f2f" stroke-width="1.6" d="M427.02,-705.9C427.02,-699.45 427.02,-692.39 427.02,-685.72"/>
<polygon fill="#2f2f2f" stroke="#2f2f2f" stroke-width="1.6" points="429.82,-686.14 427.02,-678.14 424.22,-686.14 429.82,-686.14"/>
</g>
<!-- ReadSel -->
<g id="node12" class="node">
<title>ReadSel</title>
<polygon fill="#f4f7fb" stroke="#6f8fb3" stroke-width="1.8" points="427.02,-596.6 317.73,-549.2 427.02,-501.8 536.31,-549.2 427.02,-596.6"/>
<text text-anchor="middle" x="427.02" y="-553.35" font-family="Helvetica,sans-Serif" font-size="13.00" fill="#233142">shared SRAM</text>
<text text-anchor="middle" x="427.02" y="-536.85" font-family="Helvetica,sans-Serif" font-size="13.00" fill="#233142">read path?</text>
</g>
<!-- Wait&#45;&gt;ReadSel -->
<g id="edge15" class="edge">
<title>Wait&#45;&gt;ReadSel</title>
<path fill="none" stroke="#2f2f2f" stroke-width="1.6" d="M427.02,-639.3C427.02,-630.41 427.02,-618.98 427.02,-607.28"/>
<polygon fill="#2f2f2f" stroke="#2f2f2f" stroke-width="1.6" points="429.82,-607.42 427.02,-599.42 424.22,-607.42 429.82,-607.42"/>
</g>
<!-- ReadShared -->
<g id="node13" class="node">
<title>ReadShared</title>
<polygon fill="#e8f0fe" stroke="#557aab" stroke-width="1.8" points="532.79,-459.05 313.25,-459.05 313.25,-411.65 532.79,-411.65 532.79,-459.05"/>
<text text-anchor="middle" x="423.02" y="-439.5" font-family="Helvetica,sans-Serif" font-size="13.00" fill="#1f2d3d">read output vectors</text>
<text text-anchor="middle" x="423.02" y="-423" font-family="Helvetica,sans-Serif" font-size="13.00" fill="#1f2d3d">through shared&#45;SRAM window</text>
</g>
<!-- ReadSel&#45;&gt;ReadShared -->
<g id="edge16" class="edge">
<title>ReadSel&#45;&gt;ReadShared</title>
<path fill="none" stroke="#2f2f2f" stroke-width="1.6" d="M425.37,-502.06C424.98,-491.16 424.57,-479.75 424.21,-469.56"/>
<polygon fill="#2f2f2f" stroke="#2f2f2f" stroke-width="1.6" points="427.02,-469.76 423.93,-461.86 421.42,-469.96 427.02,-469.76"/>
<text text-anchor="middle" x="433.41" y="-477.3" font-family="Helvetica,sans-Serif" font-size="10.00">yes</text>
</g>
<!-- ReadMMIO -->
<g id="node14" class="node">
<title>ReadMMIO</title>
<polygon fill="#e8f0fe" stroke="#557aab" stroke-width="1.8" points="746.04,-453.35 552,-453.35 552,-417.35 746.04,-417.35 746.04,-453.35"/>
<text text-anchor="middle" x="649.02" y="-431.25" font-family="Helvetica,sans-Serif" font-size="13.00" fill="#1f2d3d">MMIO READ_MEM fallback</text>
</g>
<!-- ReadSel&#45;&gt;ReadMMIO -->
<g id="edge17" class="edge">
<title>ReadSel&#45;&gt;ReadMMIO</title>
<path fill="none" stroke="#2f2f2f" stroke-width="1.6" d="M476.84,-523.1C515.5,-503.62 568.55,-476.89 605.51,-458.27"/>
<polygon fill="#2f2f2f" stroke="#2f2f2f" stroke-width="1.6" points="606.49,-460.91 612.38,-454.81 603.97,-455.91 606.49,-460.91"/>
<text text-anchor="middle" x="576.88" y="-477.3" font-family="Helvetica,sans-Serif" font-size="10.00">no</text>
</g>
<!-- Unpack -->
<g id="node15" class="node">
<title>Unpack</title>
<polygon fill="#e8f0fe" stroke="#557aab" stroke-width="1.8" points="506.91,-380.65 339.12,-380.65 339.12,-316.75 506.91,-316.75 506.91,-380.65"/>
<text text-anchor="middle" x="423.02" y="-361.1" font-family="Helvetica,sans-Serif" font-size="13.00" fill="#1f2d3d">unpack vectors into</text>
<text text-anchor="middle" x="423.02" y="-344.6" font-family="Helvetica,sans-Serif" font-size="13.00" fill="#1f2d3d">logical output tensors</text>
<text text-anchor="middle" x="423.02" y="-328.1" font-family="Helvetica,sans-Serif" font-size="13.00" fill="#1f2d3d">(layout&#45;aware)</text>
</g>
<!-- ReadShared&#45;&gt;Unpack -->
<g id="edge18" class="edge">
<title>ReadShared&#45;&gt;Unpack</title>
<path fill="none" stroke="#2f2f2f" stroke-width="1.6" d="M423.02,-411.22C423.02,-404.97 423.02,-398.01 423.02,-391.09"/>
<polygon fill="#2f2f2f" stroke="#2f2f2f" stroke-width="1.6" points="425.82,-391.48 423.02,-383.48 420.22,-391.48 425.82,-391.48"/>
</g>
<!-- ReadMMIO&#45;&gt;Unpack -->
<g id="edge19" class="edge">
<title>ReadMMIO&#45;&gt;Unpack</title>
<path fill="none" stroke="#2f2f2f" stroke-width="1.6" d="M602.47,-416.91C577.63,-407.61 546.15,-395.82 516.52,-384.72"/>
<polygon fill="#2f2f2f" stroke="#2f2f2f" stroke-width="1.6" points="517.72,-382.18 509.25,-382 515.76,-387.42 517.72,-382.18"/>
</g>
<!-- Unpack&#45;&gt;Dispatch -->
<g id="edge20" class="edge">
<title>Unpack&#45;&gt;Dispatch</title>
<path fill="none" stroke="#2f2f2f" stroke-width="1.6" d="M396.62,-316.32C385.88,-303.56 373.48,-288.81 362.63,-275.91"/>
<polygon fill="#2f2f2f" stroke="#2f2f2f" stroke-width="1.6" points="364.95,-274.33 357.66,-270.01 360.66,-277.93 364.95,-274.33"/>
<text text-anchor="middle" x="402.66" y="-291.25" font-family="Helvetica,sans-Serif" font-size="10.00">continue</text>
</g>
<!-- HostOp&#45;&gt;Dispatch -->
<g id="edge21" class="edge">
<title>HostOp&#45;&gt;Dispatch</title>
<path fill="none" stroke="#2f2f2f" stroke-width="1.6" d="M90.19,-64.17C85.55,-94.15 83.86,-139.1 107.02,-168.45 136.09,-205.29 183.89,-223.76 228.24,-232.91"/>
<polygon fill="#2f2f2f" stroke="#2f2f2f" stroke-width="1.6" points="227.47,-235.61 235.86,-234.37 228.53,-230.11 227.47,-235.61"/>
<text text-anchor="middle" x="128.02" y="-134.43" font-family="Helvetica,sans-Serif" font-size="10.00">continue</text>
</g>
<!-- Verify&#45;&gt;Dispatch -->
<g id="edge22" class="edge">
<title>Verify&#45;&gt;Dispatch</title>
<path fill="none" stroke="#2f2f2f" stroke-width="1.6" d="M349.27,-56.13C352.73,-63.22 356.04,-71.19 358.02,-78.9 405.93,-265.04 370.87,-172.98 364.02,-196.2 362.96,-199.79 361.51,-203.37 359.83,-206.85"/>
<polygon fill="#2f2f2f" stroke="#2f2f2f" stroke-width="1.6" points="357.5,-205.28 356.08,-213.63 362.4,-207.98 357.5,-205.28"/>
<text text-anchor="middle" x="399.89" y="-134.43" font-family="Helvetica,sans-Serif" font-size="10.00">continue</text>
</g>
<!-- Done -->
<g id="node19" class="node">
<title>Done</title>
<ellipse fill="#f4f7fb" stroke="#6f8fb3" stroke-width="1.8" cx="569.02" cy="-31.95" rx="91.07" ry="21.85"/>
<text text-anchor="middle" x="569.02" y="-27.85" font-family="Helvetica,sans-Serif" font-size="13.00" fill="#233142">ExecutionResult</text>
</g>
<!-- Finalize&#45;&gt;Done -->
<g id="edge23" class="edge">
<title>Finalize&#45;&gt;Done</title>
<path fill="none" stroke="#2f2f2f" stroke-width="1.6" d="M557.35,-113.56C559.46,-98.99 562.21,-79.95 564.52,-64.04"/>
<polygon fill="#2f2f2f" stroke="#2f2f2f" stroke-width="1.6" points="567.23,-64.83 565.61,-56.51 561.69,-64.03 567.23,-64.83"/>
</g>
</g>
</svg>
