<?xml version="1.0" encoding="UTF-8" standalone="no"?>
<!DOCTYPE svg PUBLIC "-//W3C//DTD SVG 1.1//EN"
 "http://www.w3.org/Graphics/SVG/1.1/DTD/svg11.dtd">
<!-- Generated by graphviz version 2.43.0 (0)
 -->
<!-- Title: TinyNPURuntimeState Pages: 1 -->
<svg width="651pt" height="953pt"
 viewBox="0.00 0.00 651.40 953.40" xmlns="http://www.w3.org/2000/svg" xmlns:xlink="http://www.w3.org/1999/xlink">
<g id="graph0" class="graph" transform="scale(1 1) rotate(0) translate(7.2 946.2)">
<title>TinyNPURuntimeState</title>
<polygon fill="white" stroke="transparent" points="-7.2,7.2 -7.2,-946.2 644.2,-946.2 644.2,7.2 -7.2,7.2"/>
<g id="clust1" class="cluster">
<title>cluster_npu</title>
<polygon fill="#f5f9ff" stroke="#557aab" stroke-width="2" points="296,-284 296,-931 629,-931 629,-284 296,-284"/>
<text text-anchor="middle" x="462.5" y="-914.2" font-family="Helvetica,sans-Serif" font-size="16.00" fill="#355c7d">runtime_v2.c NPU Segment</text>
</g>
<!-- Start -->
<g id="node1" class="node">
<title>Start</title>
<ellipse fill="#f4f7fb" stroke="#6f8fb3" stroke-width="1.8" cx="174" cy="-476" rx="106.55" ry="19.6"/>
<text text-anchor="middle" x="174" y="-472.6" font-family="Helvetica,sans-Serif" font-size="13.00" fill="#233142">Enter runtime_v2.c</text>
</g>
<!-- Init -->
<g id="node2" class="node">
<title>Init</title>
<polygon fill="#efe8ff" stroke="#8b74bd" stroke-width="1.8" points="235,-407 113,-407 113,-365 235,-365 235,-407"/>
<text text-anchor="middle" x="174" y="-389.6" font-family="Helvetica,sans-Serif" font-size="13.00" fill="#2c2236">load constants</text>
<text text-anchor="middle" x="174" y="-375.6" font-family="Helvetica,sans-Serif" font-size="13.00" fill="#2c2236">bind inputs</text>
</g>
<!-- Start&#45;&gt;Init -->
<g id="edge1" class="edge">
<title>Start&#45;&gt;Init</title>
<path fill="none" stroke="#2f2f2f" stroke-width="1.6" d="M174,-455.91C174,-444.13 174,-428.8 174,-415.6"/>
<polygon fill="#2f2f2f" stroke="#2f2f2f" stroke-width="1.6" points="176.8,-415.28 174,-407.28 171.2,-415.28 176.8,-415.28"/>
</g>
<!-- Session -->
<g id="node3" class="node">
<title>Session</title>
<polygon fill="#ffe8db" stroke="#d18a66" stroke-width="1.8" points="288,-334 60,-334 60,-292 288,-292 288,-334"/>
<text text-anchor="middle" x="174" y="-316.6" font-family="Helvetica,sans-Serif" font-size="13.00" fill="#40261d">reset or reuse state</text>
<text text-anchor="middle" x="174" y="-302.6" font-family="Helvetica,sans-Serif" font-size="13.00" fill="#40261d">preload weights + instructions</text>
</g>
<!-- Init&#45;&gt;Session -->
<g id="edge2" class="edge">
<title>Init&#45;&gt;Session</title>
<path fill="none" stroke="#2f2f2f" stroke-width="1.6" d="M174,-364.84C174,-358.01 174,-350.23 174,-342.85"/>
<polygon fill="#2f2f2f" stroke="#2f2f2f" stroke-width="1.6" points="176.8,-342.45 174,-334.45 171.2,-342.45 176.8,-342.45"/>
</g>
<!-- Dispatch -->
<g id="node4" class="node">
<title>Dispatch</title>
<polygon fill="#f4f7fb" stroke="#6f8fb3" stroke-width="1.8" points="297,-250 171,-222 297,-194 423,-222 297,-250"/>
<text text-anchor="middle" x="297" y="-218.6" font-family="Helvetica,sans-Serif" font-size="13.00" fill="#233142">next plan step?</text>
</g>
<!-- Session&#45;&gt;Dispatch -->
<g id="edge3" class="edge">
<title>Session&#45;&gt;Dispatch</title>
<path fill="none" stroke="#2f2f2f" stroke-width="1.6" d="M201.91,-291.8C219.59,-279.01 242.6,-262.36 261.56,-248.64"/>
<polygon fill="#2f2f2f" stroke="#2f2f2f" stroke-width="1.6" points="263.51,-250.69 268.35,-243.73 260.22,-246.15 263.51,-250.69"/>
</g>
<!-- Kind -->
<g id="node5" class="node">
<title>Kind</title>
<polygon fill="#f4f7fb" stroke="#6f8fb3" stroke-width="1.8" points="210,-153 118,-125 210,-97 302,-125 210,-153"/>
<text text-anchor="middle" x="210" y="-121.6" font-family="Helvetica,sans-Serif" font-size="13.00" fill="#233142">step kind?</text>
</g>
<!-- Dispatch&#45;&gt;Kind -->
<g id="edge5" class="edge">
<title>Dispatch&#45;&gt;Kind</title>
<path fill="none" stroke="#2f2f2f" stroke-width="1.6" d="M274.62,-198.56C268.51,-192.3 261.94,-185.45 256,-179 248.57,-170.93 240.67,-161.98 233.56,-153.77"/>
<polygon fill="#2f2f2f" stroke="#2f2f2f" stroke-width="1.6" points="235.64,-151.89 228.3,-147.66 231.4,-155.54 235.64,-151.89"/>
<text text-anchor="middle" x="291" y="-171" font-family="Helvetica,sans-Serif" font-size="10.00">step available</text>
</g>
<!-- Finalize -->
<g id="node18" class="node">
<title>Finalize</title>
<polygon fill="#efe8ff" stroke="#8b74bd" stroke-width="1.8" points="539.5,-146 402.5,-146 402.5,-104 539.5,-104 539.5,-146"/>
<text text-anchor="middle" x="471" y="-128.6" font-family="Helvetica,sans-Serif" font-size="13.00" fill="#2c2236">return outputs</text>
<text text-anchor="middle" x="471" y="-114.6" font-family="Helvetica,sans-Serif" font-size="13.00" fill="#2c2236">and cycle counts</text>
</g>
<!-- Dispatch&#45;&gt;Finalize -->
<g id="edge4" class="edge">
<title>Dispatch&#45;&gt;Finalize</title>
<path fill="none" stroke="#2f2f2f" stroke-width="1.6" d="M332.21,-201.78C359.58,-186.83 397.71,-166.02 427.08,-149.98"/>
<polygon fill="#2f2f2f" stroke="#2f2f2f" stroke-width="1.6" points="428.66,-152.31 434.34,-146.01 425.98,-147.39 428.66,-152.31"/>
<text text-anchor="middle" x="427" y="-171" font-family="Helvetica,sans-Serif" font-size="10.00">plan exhausted</text>
</g>
<!-- Pack -->
<g id="node6" class="node">
<title>Pack</title>
<polygon fill="#e8f0fe" stroke="#557aab" stroke-width="1.8" points="436,-897 324,-897 324,-855 436,-855 436,-897"/>
<text text-anchor="middle" x="380" y="-879.6" font-family="Helvetica,sans-Serif" font-size="13.00" fill="#1f2d3d">pack tensors</text>
<text text-anchor="middle" x="380" y="-865.6" font-family="Helvetica,sans-Serif" font-size="13.00" fill="#1f2d3d">for UB layout</text>
</g>
<!-- Kind&#45;&gt;Pack -->
<g id="edge6" class="edge">
<title>Kind&#45;&gt;Pack</title>
<path fill="none" stroke="#2f2f2f" stroke-width="1.6" d="M166.21,-139.73C113.22,-157.69 31,-190.48 31,-221 31,-797 31,-797 31,-797 31,-854.73 215.16,-869.75 315.93,-873.64"/>
<polygon fill="#2f2f2f" stroke="#2f2f2f" stroke-width="1.6" points="315.83,-876.44 323.93,-873.94 316.03,-870.84 315.83,-876.44"/>
<text text-anchor="middle" x="63" y="-522" font-family="Helvetica,sans-Serif" font-size="10.00">NpuSegment</text>
</g>
<!-- HostOp -->
<g id="node16" class="node">
<title>HostOp</title>
<polygon fill="#fff4e8" stroke="#c98a43" stroke-width="1.8" points="154,-56 0,-56 0,0 154,0 154,-56"/>
<text text-anchor="middle" x="77" y="-38.6" font-family="Helvetica,sans-Serif" font-size="13.00" fill="#4a3520">CPU step</text>
<text text-anchor="middle" x="77" y="-24.6" font-family="Helvetica,sans-Serif" font-size="13.00" fill="#4a3520">softmax / reshape /</text>
<text text-anchor="middle" x="77" y="-10.6" font-family="Helvetica,sans-Serif" font-size="13.00" fill="#4a3520">other fallback</text>
</g>
<!-- Kind&#45;&gt;HostOp -->
<g id="edge7" class="edge">
<title>Kind&#45;&gt;HostOp</title>
<path fill="none" stroke="#2f2f2f" stroke-width="1.6" d="M183.41,-105C165.69,-92.35 141.98,-75.41 121.43,-60.74"/>
<polygon fill="#2f2f2f" stroke="#2f2f2f" stroke-width="1.6" points="123.02,-58.43 114.89,-56.06 119.77,-62.99 123.02,-58.43"/>
<text text-anchor="middle" x="166.5" y="-74" font-family="Helvetica,sans-Serif" font-size="10.00">HostOp</text>
</g>
<!-- Verify -->
<g id="node17" class="node">
<title>Verify</title>
<polygon fill="#fff7d9" stroke="#c9a227" stroke-width="1.8" points="390.5,-46 213.5,-46 213.5,-10 390.5,-10 390.5,-46"/>
<text text-anchor="middle" x="302" y="-24.6" font-family="Helvetica,sans-Serif" font-size="13.00" fill="#4a3a00">check expected output</text>
</g>
<!-- Kind&#45;&gt;Verify -->
<g id="edge8" class="edge">
<title>Kind&#45;&gt;Verify</title>
<path fill="none" stroke="#2f2f2f" stroke-width="1.6" d="M230.42,-102.92C245,-87.86 264.61,-67.61 279.62,-52.11"/>
<polygon fill="#2f2f2f" stroke="#2f2f2f" stroke-width="1.6" points="281.77,-53.91 285.33,-46.22 277.75,-50.02 281.77,-53.91"/>
<text text-anchor="middle" x="289" y="-74" font-family="Helvetica,sans-Serif" font-size="10.00">VerifyTensor</text>
</g>
<!-- WriteSel -->
<g id="node7" class="node">
<title>WriteSel</title>
<polygon fill="#f4f7fb" stroke="#6f8fb3" stroke-width="1.8" points="401,-824 304,-796 401,-768 498,-796 401,-824"/>
<text text-anchor="middle" x="401" y="-792.6" font-family="Helvetica,sans-Serif" font-size="13.00" fill="#233142">bulk write?</text>
</g>
<!-- Pack&#45;&gt;WriteSel -->
<g id="edge9" class="edge">
<title>Pack&#45;&gt;WriteSel</title>
<path fill="none" stroke="#2f2f2f" stroke-width="1.6" d="M385.41,-854.91C387.43,-847.39 389.79,-838.62 392.06,-830.22"/>
<polygon fill="#2f2f2f" stroke="#2f2f2f" stroke-width="1.6" points="394.8,-830.79 394.18,-822.33 389.4,-829.33 394.8,-830.79"/>
</g>
<!-- WriteShared -->
<g id="node8" class="node">
<title>WriteShared</title>
<polygon fill="#e8f0fe" stroke="#557aab" stroke-width="1.8" points="484,-727 304,-727 304,-685 484,-685 484,-727"/>
<text text-anchor="middle" x="394" y="-709.6" font-family="Helvetica,sans-Serif" font-size="13.00" fill="#1f2d3d">write UB/IM</text>
<text text-anchor="middle" x="394" y="-695.6" font-family="Helvetica,sans-Serif" font-size="13.00" fill="#1f2d3d">through shared window</text>
</g>
<!-- WriteSel&#45;&gt;WriteShared -->
<g id="edge10" class="edge">
<title>WriteSel&#45;&gt;WriteShared</title>
<path fill="none" stroke="#2f2f2f" stroke-width="1.6" d="M398.9,-768.6C398.07,-758.13 397.11,-746.07 396.26,-735.42"/>
<polygon fill="#2f2f2f" stroke="#2f2f2f" stroke-width="1.6" points="399.03,-734.98 395.61,-727.23 393.45,-735.43 399.03,-734.98"/>
<text text-anchor="middle" x="406" y="-745" font-family="Helvetica,sans-Serif" font-size="10.00">yes</text>
</g>
<!-- WriteMMIO -->
<g id="node9" class="node">
<title>WriteMMIO</title>
<polygon fill="#e8f0fe" stroke="#557aab" stroke-width="1.8" points="621,-727 503,-727 503,-685 621,-685 621,-727"/>
<text text-anchor="middle" x="562" y="-709.6" font-family="Helvetica,sans-Serif" font-size="13.00" fill="#1f2d3d">write UB/IM</text>
<text text-anchor="middle" x="562" y="-695.6" font-family="Helvetica,sans-Serif" font-size="13.00" fill="#1f2d3d">through MMIO</text>
</g>
<!-- WriteSel&#45;&gt;WriteMMIO -->
<g id="edge11" class="edge">
<title>WriteSel&#45;&gt;WriteMMIO</title>
<path fill="none" stroke="#2f2f2f" stroke-width="1.6" d="M433.58,-777.19C457.85,-763.92 491.26,-745.66 517.92,-731.09"/>
<polygon fill="#2f2f2f" stroke="#2f2f2f" stroke-width="1.6" points="519.57,-733.38 525.25,-727.09 516.89,-728.47 519.57,-733.38"/>
<text text-anchor="middle" x="501.5" y="-745" font-family="Helvetica,sans-Serif" font-size="10.00">no</text>
</g>
<!-- Launch -->
<g id="node10" class="node">
<title>Launch</title>
<polygon fill="#e8f0fe" stroke="#557aab" stroke-width="1.8" points="522,-654 400,-654 400,-612 522,-612 522,-654"/>
<text text-anchor="middle" x="461" y="-636.6" font-family="Helvetica,sans-Serif" font-size="13.00" fill="#1f2d3d">start NPU</text>
<text text-anchor="middle" x="461" y="-622.6" font-family="Helvetica,sans-Serif" font-size="13.00" fill="#1f2d3d">with CMD_RUN</text>
</g>
<!-- WriteShared&#45;&gt;Launch -->
<g id="edge12" class="edge">
<title>WriteShared&#45;&gt;Launch</title>
<path fill="none" stroke="#2f2f2f" stroke-width="1.6" d="M413.02,-684.84C420.17,-677.26 428.42,-668.53 436.03,-660.46"/>
<polygon fill="#2f2f2f" stroke="#2f2f2f" stroke-width="1.6" points="438.25,-662.19 441.7,-654.45 434.17,-658.35 438.25,-662.19"/>
</g>
<!-- WriteMMIO&#45;&gt;Launch -->
<g id="edge13" class="edge">
<title>WriteMMIO&#45;&gt;Launch</title>
<path fill="none" stroke="#2f2f2f" stroke-width="1.6" d="M533.33,-684.84C521.81,-676.75 508.42,-667.34 496.32,-658.83"/>
<polygon fill="#2f2f2f" stroke="#2f2f2f" stroke-width="1.6" points="497.9,-656.52 489.74,-654.21 494.68,-661.1 497.9,-656.52"/>
</g>
<!-- Wait -->
<g id="node11" class="node">
<title>Wait</title>
<polygon fill="#e8f0fe" stroke="#557aab" stroke-width="1.8" points="517,-581 405,-581 405,-545 517,-545 517,-581"/>
<text text-anchor="middle" x="461" y="-559.6" font-family="Helvetica,sans-Serif" font-size="13.00" fill="#1f2d3d">wait for HALT</text>
</g>
<!-- Launch&#45;&gt;Wait -->
<g id="edge14" class="edge">
<title>Launch&#45;&gt;Wait</title>
<path fill="none" stroke="#2f2f2f" stroke-width="1.6" d="M461,-611.97C461,-604.98 461,-597.05 461,-589.67"/>
<polygon fill="#2f2f2f" stroke="#2f2f2f" stroke-width="1.6" points="463.8,-589.36 461,-581.36 458.2,-589.36 463.8,-589.36"/>
</g>
<!-- ReadSel -->
<g id="node12" class="node">
<title>ReadSel</title>
<polygon fill="#f4f7fb" stroke="#6f8fb3" stroke-width="1.8" points="461,-504 367,-476 461,-448 555,-476 461,-504"/>
<text text-anchor="middle" x="461" y="-472.6" font-family="Helvetica,sans-Serif" font-size="13.00" fill="#233142">bulk read?</text>
</g>
<!-- Wait&#45;&gt;ReadSel -->
<g id="edge15" class="edge">
<title>Wait&#45;&gt;ReadSel</title>
<path fill="none" stroke="#2f2f2f" stroke-width="1.6" d="M461,-544.8C461,-535.43 461,-523.48 461,-512.24"/>
<polygon fill="#2f2f2f" stroke="#2f2f2f" stroke-width="1.6" points="463.8,-512.22 461,-504.22 458.2,-512.22 463.8,-512.22"/>
</g>
<!-- ReadShared -->
<g id="node13" class="node">
<title>ReadShared</title>
<polygon fill="#e8f0fe" stroke="#557aab" stroke-width="1.8" points="484,-407 304,-407 304,-365 484,-365 484,-407"/>
<text text-anchor="middle" x="394" y="-389.6" font-family="Helvetica,sans-Serif" font-size="13.00" fill="#1f2d3d">read outputs</text>
<text text-anchor="middle" x="394" y="-375.6" font-family="Helvetica,sans-Serif" font-size="13.00" fill="#1f2d3d">through shared window</text>
</g>
<!-- ReadSel&#45;&gt;ReadShared -->
<g id="edge16" class="edge">
<title>ReadSel&#45;&gt;ReadShared</title>
<path fill="none" stroke="#2f2f2f" stroke-width="1.6" d="M444.09,-452.79C435.07,-440.94 423.89,-426.25 414.38,-413.77"/>
<polygon fill="#2f2f2f" stroke="#2f2f2f" stroke-width="1.6" points="416.37,-411.76 409.3,-407.09 411.92,-415.15 416.37,-411.76"/>
<text text-anchor="middle" x="436" y="-425" font-family="Helvetica,sans-Serif" font-size="10.00">yes</text>
</g>
<!-- ReadMMIO -->
<g id="node14" class="node">
<title>ReadMMIO</title>
<polygon fill="#e8f0fe" stroke="#557aab" stroke-width="1.8" points="621,-407 503,-407 503,-365 621,-365 621,-407"/>
<text text-anchor="middle" x="562" y="-389.6" font-family="Helvetica,sans-Serif" font-size="13.00" fill="#1f2d3d">read outputs</text>
<text text-anchor="middle" x="562" y="-375.6" font-family="Helvetica,sans-Serif" font-size="13.00" fill="#1f2d3d">through MMIO</text>
</g>
<!-- ReadSel&#45;&gt;ReadMMIO -->
<g id="edge17" class="edge">
<title>ReadSel&#45;&gt;ReadMMIO</title>
<path fill="none" stroke="#2f2f2f" stroke-width="1.6" d="M484.17,-454.81C498.54,-442.29 517.14,-426.09 532.55,-412.66"/>
<polygon fill="#2f2f2f" stroke="#2f2f2f" stroke-width="1.6" points="534.74,-414.46 538.94,-407.1 531.07,-410.24 534.74,-414.46"/>
<text text-anchor="middle" x="526.5" y="-425" font-family="Helvetica,sans-Serif" font-size="10.00">no</text>
</g>
<!-- Unpack -->
<g id="node15" class="node">
<title>Unpack</title>
<polygon fill="#e8f0fe" stroke="#557aab" stroke-width="1.8" points="457.5,-334 330.5,-334 330.5,-292 457.5,-292 457.5,-334"/>
<text text-anchor="middle" x="394" y="-316.6" font-family="Helvetica,sans-Serif" font-size="13.00" fill="#1f2d3d">unpack outputs</text>
<text text-anchor="middle" x="394" y="-302.6" font-family="Helvetica,sans-Serif" font-size="13.00" fill="#1f2d3d">for next step</text>
</g>
<!-- ReadShared&#45;&gt;Unpack -->
<g id="edge18" class="edge">
<title>ReadShared&#45;&gt;Unpack</title>
<path fill="none" stroke="#2f2f2f" stroke-width="1.6" d="M394,-364.84C394,-358.01 394,-350.23 394,-342.85"/>
<polygon fill="#2f2f2f" stroke="#2f2f2f" stroke-width="1.6" points="396.8,-342.45 394,-334.45 391.2,-342.45 396.8,-342.45"/>
</g>
<!-- ReadMMIO&#45;&gt;Unpack -->
<g id="edge19" class="edge">
<title>ReadMMIO&#45;&gt;Unpack</title>
<path fill="none" stroke="#2f2f2f" stroke-width="1.6" d="M514.31,-364.84C494,-356.26 470.2,-346.2 449.14,-337.3"/>
<polygon fill="#2f2f2f" stroke="#2f2f2f" stroke-width="1.6" points="449.98,-334.62 441.52,-334.08 447.8,-339.78 449.98,-334.62"/>
</g>
<!-- Unpack&#45;&gt;Dispatch -->
<g id="edge20" class="edge">
<title>Unpack&#45;&gt;Dispatch</title>
<path fill="none" stroke="#2f2f2f" stroke-width="1.6" d="M371.99,-291.8C358.69,-279.6 341.55,-263.87 327.01,-250.54"/>
<polygon fill="#2f2f2f" stroke="#2f2f2f" stroke-width="1.6" points="328.75,-248.33 320.96,-244.99 324.96,-252.46 328.75,-248.33"/>
<text text-anchor="middle" x="375.5" y="-268" font-family="Helvetica,sans-Serif" font-size="10.00">continue</text>
</g>
<!-- HostOp&#45;&gt;Dispatch -->
<g id="edge21" class="edge">
<title>HostOp&#45;&gt;Dispatch</title>
<path fill="none" stroke="#2f2f2f" stroke-width="1.6" d="M64.64,-56.04C54.25,-83.27 44.13,-125.13 65,-153 83.63,-177.88 158.35,-196.73 218.03,-208.2"/>
<polygon fill="#2f2f2f" stroke="#2f2f2f" stroke-width="1.6" points="217.59,-210.97 225.97,-209.7 218.63,-205.46 217.59,-210.97"/>
<text text-anchor="middle" x="86.5" y="-122.5" font-family="Helvetica,sans-Serif" font-size="10.00">continue</text>
</g>
<!-- Verify&#45;&gt;Dispatch -->
<g id="edge22" class="edge">
<title>Verify&#45;&gt;Dispatch</title>
<path fill="none" stroke="#2f2f2f" stroke-width="1.6" d="M312.78,-46.32C316.77,-53.65 320.84,-62.46 323,-71 373.55,-271.22 332.2,-159.11 326,-179 324.75,-183.02 322.96,-187 320.88,-190.81"/>
<polygon fill="#2f2f2f" stroke="#2f2f2f" stroke-width="1.6" points="318.34,-189.6 316.58,-197.89 323.12,-192.5 318.34,-189.6"/>
<text text-anchor="middle" x="362.5" y="-122.5" font-family="Helvetica,sans-Serif" font-size="10.00">continue</text>
</g>
<!-- Done -->
<g id="node19" class="node">
<title>Done</title>
<ellipse fill="#f4f7fb" stroke="#6f8fb3" stroke-width="1.8" cx="471" cy="-28" rx="41.94" ry="19.6"/>
<text text-anchor="middle" x="471" y="-24.6" font-family="Helvetica,sans-Serif" font-size="13.00" fill="#233142">Done</text>
</g>
<!-- Finalize&#45;&gt;Done -->
<g id="edge23" class="edge">
<title>Finalize&#45;&gt;Done</title>
<path fill="none" stroke="#2f2f2f" stroke-width="1.6" d="M471,-103.85C471,-89.88 471,-71.12 471,-55.88"/>
<polygon fill="#2f2f2f" stroke="#2f2f2f" stroke-width="1.6" points="473.8,-55.83 471,-47.83 468.2,-55.83 473.8,-55.83"/>
</g>
</g>
</svg>
