<?xml version="1.0" encoding="UTF-8" standalone="no"?>
<!DOCTYPE svg PUBLIC "-//W3C//DTD SVG 1.1//EN"
 "http://www.w3.org/Graphics/SVG/1.1/DTD/svg11.dtd">
<!-- Generated by graphviz version 2.43.0 (0)
 -->
<!-- Title: TinyNPURuntimeState Pages: 1 -->
<svg width="677pt" height="953pt"
 viewBox="0.00 0.00 677.40 953.40" xmlns="http://www.w3.org/2000/svg" xmlns:xlink="http://www.w3.org/1999/xlink">
<g id="graph0" class="graph" transform="scale(1 1) rotate(0) translate(7.2 946.2)">
<title>TinyNPURuntimeState</title>
<polygon fill="white" stroke="transparent" points="-7.2,7.2 -7.2,-946.2 670.2,-946.2 670.2,7.2 -7.2,7.2"/>
<g id="clust1" class="cluster">
<title>cluster_npu</title>
<polygon fill="#f5f9ff" stroke="#557aab" stroke-width="2" points="322,-284 322,-931 655,-931 655,-284 322,-284"/>
<text text-anchor="middle" x="488.5" y="-914.2" font-family="Helvetica,sans-Serif" font-size="16.00" fill="#355c7d">Accelerator Segment</text>
</g>
<!-- Start -->
<g id="node1" class="node">
<title>Start</title>
<ellipse fill="#f4f7fb" stroke="#6f8fb3" stroke-width="1.8" cx="187" cy="-476" rx="126.64" ry="19.6"/>
<text text-anchor="middle" x="187" y="-472.6" font-family="Helvetica,sans-Serif" font-size="13.00" fill="#233142">Enter firmware runtime</text>
</g>
<!-- Init -->
<g id="node2" class="node">
<title>Init</title>
<polygon fill="#efe8ff" stroke="#8b74bd" stroke-width="1.8" points="251,-407 129,-407 129,-365 251,-365 251,-407"/>
<text text-anchor="middle" x="190" y="-389.6" font-family="Helvetica,sans-Serif" font-size="13.00" fill="#2c2236">load constants</text>
<text text-anchor="middle" x="190" y="-375.6" font-family="Helvetica,sans-Serif" font-size="13.00" fill="#2c2236">bind inputs</text>
</g>
<!-- Start&#45;&gt;Init -->
<g id="edge1" class="edge">
<title>Start&#45;&gt;Init</title>
<path fill="none" stroke="#2f2f2f" stroke-width="1.6" d="M187.65,-455.91C188.05,-444.13 188.57,-428.8 189.03,-415.6"/>
<polygon fill="#2f2f2f" stroke="#2f2f2f" stroke-width="1.6" points="191.83,-415.37 189.31,-407.28 186.24,-415.18 191.83,-415.37"/>
</g>
<!-- Session -->
<g id="node3" class="node">
<title>Session</title>
<polygon fill="#ffe8db" stroke="#d18a66" stroke-width="1.8" points="312,-334 84,-334 84,-292 312,-292 312,-334"/>
<text text-anchor="middle" x="198" y="-316.6" font-family="Helvetica,sans-Serif" font-size="13.00" fill="#40261d">reset or reuse state</text>
<text text-anchor="middle" x="198" y="-302.6" font-family="Helvetica,sans-Serif" font-size="13.00" fill="#40261d">preload weights + instructions</text>
</g>
<!-- Init&#45;&gt;Session -->
<g id="edge2" class="edge">
<title>Init&#45;&gt;Session</title>
<path fill="none" stroke="#2f2f2f" stroke-width="1.6" d="M192.27,-364.84C193.04,-358.01 193.92,-350.23 194.75,-342.85"/>
<polygon fill="#2f2f2f" stroke="#2f2f2f" stroke-width="1.6" points="197.58,-342.72 195.7,-334.45 192.02,-342.09 197.58,-342.72"/>
</g>
<!-- Dispatch -->
<g id="node4" class="node">
<title>Dispatch</title>
<polygon fill="#f4f7fb" stroke="#6f8fb3" stroke-width="1.8" points="274,-250 148,-222 274,-194 400,-222 274,-250"/>
<text text-anchor="middle" x="274" y="-218.6" font-family="Helvetica,sans-Serif" font-size="13.00" fill="#233142">next plan step?</text>
</g>
<!-- Session&#45;&gt;Dispatch -->
<g id="edge3" class="edge">
<title>Session&#45;&gt;Dispatch</title>
<path fill="none" stroke="#2f2f2f" stroke-width="1.6" d="M215.25,-291.8C225.26,-280.08 238.04,-265.11 249.13,-252.13"/>
<polygon fill="#2f2f2f" stroke="#2f2f2f" stroke-width="1.6" points="251.35,-253.84 254.41,-245.94 247.09,-250.21 251.35,-253.84"/>
</g>
<!-- Kind -->
<g id="node5" class="node">
<title>Kind</title>
<polygon fill="#f4f7fb" stroke="#6f8fb3" stroke-width="1.8" points="210,-153 118,-125 210,-97 302,-125 210,-153"/>
<text text-anchor="middle" x="210" y="-121.6" font-family="Helvetica,sans-Serif" font-size="13.00" fill="#233142">step kind?</text>
</g>
<!-- Dispatch&#45;&gt;Kind -->
<g id="edge5" class="edge">
<title>Dispatch&#45;&gt;Kind</title>
<path fill="none" stroke="#2f2f2f" stroke-width="1.6" d="M257.85,-197.03C249.34,-184.39 238.82,-168.78 229.82,-155.41"/>
<polygon fill="#2f2f2f" stroke="#2f2f2f" stroke-width="1.6" points="232.06,-153.73 225.26,-148.66 227.41,-156.86 232.06,-153.73"/>
<text text-anchor="middle" x="279" y="-171" font-family="Helvetica,sans-Serif" font-size="10.00">step available</text>
</g>
<!-- Finalize -->
<g id="node18" class="node">
<title>Finalize</title>
<polygon fill="#efe8ff" stroke="#8b74bd" stroke-width="1.8" points="539.5,-146 402.5,-146 402.5,-104 539.5,-104 539.5,-146"/>
<text text-anchor="middle" x="471" y="-128.6" font-family="Helvetica,sans-Serif" font-size="13.00" fill="#2c2236">return outputs</text>
<text text-anchor="middle" x="471" y="-114.6" font-family="Helvetica,sans-Serif" font-size="13.00" fill="#2c2236">and cycle counts</text>
</g>
<!-- Dispatch&#45;&gt;Finalize -->
<g id="edge4" class="edge">
<title>Dispatch&#45;&gt;Finalize</title>
<path fill="none" stroke="#2f2f2f" stroke-width="1.6" d="M312.45,-202.46C343.68,-187.4 387.93,-166.06 421.76,-149.75"/>
<polygon fill="#2f2f2f" stroke="#2f2f2f" stroke-width="1.6" points="423.25,-152.14 429.24,-146.14 420.82,-147.09 423.25,-152.14"/>
<text text-anchor="middle" x="416" y="-171" font-family="Helvetica,sans-Serif" font-size="10.00">plan exhausted</text>
</g>
<!-- Pack -->
<g id="node6" class="node">
<title>Pack</title>
<polygon fill="#e8f0fe" stroke="#557aab" stroke-width="1.8" points="462,-897 350,-897 350,-855 462,-855 462,-897"/>
<text text-anchor="middle" x="406" y="-879.6" font-family="Helvetica,sans-Serif" font-size="13.00" fill="#1f2d3d">pack tensors</text>
<text text-anchor="middle" x="406" y="-865.6" font-family="Helvetica,sans-Serif" font-size="13.00" fill="#1f2d3d">for UB layout</text>
</g>
<!-- Kind&#45;&gt;Pack -->
<g id="edge6" class="edge">
<title>Kind&#45;&gt;Pack</title>
<path fill="none" stroke="#2f2f2f" stroke-width="1.6" d="M166.21,-139.73C113.22,-157.69 31,-190.48 31,-221 31,-797 31,-797 31,-797 31,-859.7 234.5,-872.35 341.68,-874.67"/>
<polygon fill="#2f2f2f" stroke="#2f2f2f" stroke-width="1.6" points="341.81,-877.47 349.86,-874.83 341.92,-871.87 341.81,-877.47"/>
<text text-anchor="middle" x="58.5" y="-522" font-family="Helvetica,sans-Serif" font-size="10.00">accelerator</text>
</g>
<!-- ScalarOp -->
<g id="node16" class="node">
<title>ScalarOp</title>
<polygon fill="#fff4e8" stroke="#c98a43" stroke-width="1.8" points="154,-56 0,-56 0,0 154,0 154,-56"/>
<text text-anchor="middle" x="77" y="-38.6" font-family="Helvetica,sans-Serif" font-size="13.00" fill="#4a3520">Scalar op on core</text>
<text text-anchor="middle" x="77" y="-24.6" font-family="Helvetica,sans-Serif" font-size="13.00" fill="#4a3520">softmax / reshape /</text>
<text text-anchor="middle" x="77" y="-10.6" font-family="Helvetica,sans-Serif" font-size="13.00" fill="#4a3520">layout work</text>
</g>
<!-- Kind&#45;&gt;ScalarOp -->
<g id="edge7" class="edge">
<title>Kind&#45;&gt;ScalarOp</title>
<path fill="none" stroke="#2f2f2f" stroke-width="1.6" d="M183.41,-105C165.69,-92.35 141.98,-75.41 121.43,-60.74"/>
<polygon fill="#2f2f2f" stroke="#2f2f2f" stroke-width="1.6" points="123.02,-58.43 114.89,-56.06 119.77,-62.99 123.02,-58.43"/>
<text text-anchor="middle" x="163" y="-74" font-family="Helvetica,sans-Serif" font-size="10.00">scalar</text>
</g>
<!-- Verify -->
<g id="node17" class="node">
<title>Verify</title>
<polygon fill="#fff7d9" stroke="#c9a227" stroke-width="1.8" points="390.5,-46 213.5,-46 213.5,-10 390.5,-10 390.5,-46"/>
<text text-anchor="middle" x="302" y="-24.6" font-family="Helvetica,sans-Serif" font-size="13.00" fill="#4a3a00">check expected output</text>
</g>
<!-- Kind&#45;&gt;Verify -->
<g id="edge8" class="edge">
<title>Kind&#45;&gt;Verify</title>
<path fill="none" stroke="#2f2f2f" stroke-width="1.6" d="M230.42,-102.92C245,-87.86 264.61,-67.61 279.62,-52.11"/>
<polygon fill="#2f2f2f" stroke="#2f2f2f" stroke-width="1.6" points="281.77,-53.91 285.33,-46.22 277.75,-50.02 281.77,-53.91"/>
<text text-anchor="middle" x="273.5" y="-74" font-family="Helvetica,sans-Serif" font-size="10.00">check</text>
</g>
<!-- WriteSel -->
<g id="node7" class="node">
<title>WriteSel</title>
<polygon fill="#f4f7fb" stroke="#6f8fb3" stroke-width="1.8" points="427,-824 330,-796 427,-768 524,-796 427,-824"/>
<text text-anchor="middle" x="427" y="-792.6" font-family="Helvetica,sans-Serif" font-size="13.00" fill="#233142">bulk write?</text>
</g>
<!-- Pack&#45;&gt;WriteSel -->
<g id="edge9" class="edge">
<title>Pack&#45;&gt;WriteSel</title>
<path fill="none" stroke="#2f2f2f" stroke-width="1.6" d="M411.41,-854.91C413.43,-847.39 415.79,-838.62 418.06,-830.22"/>
<polygon fill="#2f2f2f" stroke="#2f2f2f" stroke-width="1.6" points="420.8,-830.79 420.18,-822.33 415.4,-829.33 420.8,-830.79"/>
</g>
<!-- WriteShared -->
<g id="node8" class="node">
<title>WriteShared</title>
<polygon fill="#e8f0fe" stroke="#557aab" stroke-width="1.8" points="510,-727 330,-727 330,-685 510,-685 510,-727"/>
<text text-anchor="middle" x="420" y="-709.6" font-family="Helvetica,sans-Serif" font-size="13.00" fill="#1f2d3d">write UB/IM</text>
<text text-anchor="middle" x="420" y="-695.6" font-family="Helvetica,sans-Serif" font-size="13.00" fill="#1f2d3d">through shared window</text>
</g>
<!-- WriteSel&#45;&gt;WriteShared -->
<g id="edge10" class="edge">
<title>WriteSel&#45;&gt;WriteShared</title>
<path fill="none" stroke="#2f2f2f" stroke-width="1.6" d="M424.9,-768.6C424.07,-758.13 423.11,-746.07 422.26,-735.42"/>
<polygon fill="#2f2f2f" stroke="#2f2f2f" stroke-width="1.6" points="425.03,-734.98 421.61,-727.23 419.45,-735.43 425.03,-734.98"/>
<text text-anchor="middle" x="432" y="-745" font-family="Helvetica,sans-Serif" font-size="10.00">yes</text>
</g>
<!-- WriteMMIO -->
<g id="node9" class="node">
<title>WriteMMIO</title>
<polygon fill="#e8f0fe" stroke="#557aab" stroke-width="1.8" points="647,-727 529,-727 529,-685 647,-685 647,-727"/>
<text text-anchor="middle" x="588" y="-709.6" font-family="Helvetica,sans-Serif" font-size="13.00" fill="#1f2d3d">write UB/IM</text>
<text text-anchor="middle" x="588" y="-695.6" font-family="Helvetica,sans-Serif" font-size="13.00" fill="#1f2d3d">through MMIO</text>
</g>
<!-- WriteSel&#45;&gt;WriteMMIO -->
<g id="edge11" class="edge">
<title>WriteSel&#45;&gt;WriteMMIO</title>
<path fill="none" stroke="#2f2f2f" stroke-width="1.6" d="M459.58,-777.19C483.85,-763.92 517.26,-745.66 543.92,-731.09"/>
<polygon fill="#2f2f2f" stroke="#2f2f2f" stroke-width="1.6" points="545.57,-733.38 551.25,-727.09 542.89,-728.47 545.57,-733.38"/>
<text text-anchor="middle" x="527.5" y="-745" font-family="Helvetica,sans-Serif" font-size="10.00">no</text>
</g>
<!-- Launch -->
<g id="node10" class="node">
<title>Launch</title>
<polygon fill="#e8f0fe" stroke="#557aab" stroke-width="1.8" points="505,-654 383,-654 383,-612 505,-612 505,-654"/>
<text text-anchor="middle" x="444" y="-636.6" font-family="Helvetica,sans-Serif" font-size="13.00" fill="#1f2d3d">start NPU</text>
<text text-anchor="middle" x="444" y="-622.6" font-family="Helvetica,sans-Serif" font-size="13.00" fill="#1f2d3d">with CMD_RUN</text>
</g>
<!-- WriteShared&#45;&gt;Launch -->
<g id="edge12" class="edge">
<title>WriteShared&#45;&gt;Launch</title>
<path fill="none" stroke="#2f2f2f" stroke-width="1.6" d="M426.81,-684.84C429.17,-677.86 431.87,-669.89 434.41,-662.37"/>
<polygon fill="#2f2f2f" stroke="#2f2f2f" stroke-width="1.6" points="437.18,-662.93 437.09,-654.45 431.87,-661.13 437.18,-662.93"/>
</g>
<!-- WriteMMIO&#45;&gt;Launch -->
<g id="edge13" class="edge">
<title>WriteMMIO&#45;&gt;Launch</title>
<path fill="none" stroke="#2f2f2f" stroke-width="1.6" d="M547.12,-684.84C530.1,-676.45 510.2,-666.64 492.44,-657.89"/>
<polygon fill="#2f2f2f" stroke="#2f2f2f" stroke-width="1.6" points="493.4,-655.23 484.98,-654.21 490.92,-660.26 493.4,-655.23"/>
</g>
<!-- Wait -->
<g id="node11" class="node">
<title>Wait</title>
<polygon fill="#e8f0fe" stroke="#557aab" stroke-width="1.8" points="500,-581 388,-581 388,-545 500,-545 500,-581"/>
<text text-anchor="middle" x="444" y="-559.6" font-family="Helvetica,sans-Serif" font-size="13.00" fill="#1f2d3d">wait for HALT</text>
</g>
<!-- Launch&#45;&gt;Wait -->
<g id="edge14" class="edge">
<title>Launch&#45;&gt;Wait</title>
<path fill="none" stroke="#2f2f2f" stroke-width="1.6" d="M444,-611.97C444,-604.98 444,-597.05 444,-589.67"/>
<polygon fill="#2f2f2f" stroke="#2f2f2f" stroke-width="1.6" points="446.8,-589.36 444,-581.36 441.2,-589.36 446.8,-589.36"/>
</g>
<!-- ReadSel -->
<g id="node12" class="node">
<title>ReadSel</title>
<polygon fill="#f4f7fb" stroke="#6f8fb3" stroke-width="1.8" points="444,-504 350,-476 444,-448 538,-476 444,-504"/>
<text text-anchor="middle" x="444" y="-472.6" font-family="Helvetica,sans-Serif" font-size="13.00" fill="#233142">bulk read?</text>
</g>
<!-- Wait&#45;&gt;ReadSel -->
<g id="edge15" class="edge">
<title>Wait&#45;&gt;ReadSel</title>
<path fill="none" stroke="#2f2f2f" stroke-width="1.6" d="M444,-544.8C444,-535.43 444,-523.48 444,-512.24"/>
<polygon fill="#2f2f2f" stroke="#2f2f2f" stroke-width="1.6" points="446.8,-512.22 444,-504.22 441.2,-512.22 446.8,-512.22"/>
</g>
<!-- ReadShared -->
<g id="node13" class="node">
<title>ReadShared</title>
<polygon fill="#e8f0fe" stroke="#557aab" stroke-width="1.8" points="510,-407 330,-407 330,-365 510,-365 510,-407"/>
<text text-anchor="middle" x="420" y="-389.6" font-family="Helvetica,sans-Serif" font-size="13.00" fill="#1f2d3d">read outputs</text>
<text text-anchor="middle" x="420" y="-375.6" font-family="Helvetica,sans-Serif" font-size="13.00" fill="#1f2d3d">through shared window</text>
</g>
<!-- ReadSel&#45;&gt;ReadShared -->
<g id="edge16" class="edge">
<title>ReadSel&#45;&gt;ReadShared</title>
<path fill="none" stroke="#2f2f2f" stroke-width="1.6" d="M437.19,-450.02C434.2,-439.06 430.68,-426.15 427.6,-414.88"/>
<polygon fill="#2f2f2f" stroke="#2f2f2f" stroke-width="1.6" points="430.27,-414 425.46,-407.02 424.86,-415.47 430.27,-414"/>
<text text-anchor="middle" x="441" y="-425" font-family="Helvetica,sans-Serif" font-size="10.00">yes</text>
</g>
<!-- ReadMMIO -->
<g id="node14" class="node">
<title>ReadMMIO</title>
<polygon fill="#e8f0fe" stroke="#557aab" stroke-width="1.8" points="647,-407 529,-407 529,-365 647,-365 647,-407"/>
<text text-anchor="middle" x="588" y="-389.6" font-family="Helvetica,sans-Serif" font-size="13.00" fill="#1f2d3d">read outputs</text>
<text text-anchor="middle" x="588" y="-375.6" font-family="Helvetica,sans-Serif" font-size="13.00" fill="#1f2d3d">through MMIO</text>
</g>
<!-- ReadSel&#45;&gt;ReadMMIO -->
<g id="edge17" class="edge">
<title>ReadSel&#45;&gt;ReadMMIO</title>
<path fill="none" stroke="#2f2f2f" stroke-width="1.6" d="M473.84,-456.77C495.34,-443.63 524.58,-425.75 548.09,-411.39"/>
<polygon fill="#2f2f2f" stroke="#2f2f2f" stroke-width="1.6" points="549.82,-413.61 555.19,-407.05 546.9,-408.83 549.82,-413.61"/>
<text text-anchor="middle" x="534.5" y="-425" font-family="Helvetica,sans-Serif" font-size="10.00">no</text>
</g>
<!-- Unpack -->
<g id="node15" class="node">
<title>Unpack</title>
<polygon fill="#e8f0fe" stroke="#557aab" stroke-width="1.8" points="483.5,-334 356.5,-334 356.5,-292 483.5,-292 483.5,-334"/>
<text text-anchor="middle" x="420" y="-316.6" font-family="Helvetica,sans-Serif" font-size="13.00" fill="#1f2d3d">unpack outputs</text>
<text text-anchor="middle" x="420" y="-302.6" font-family="Helvetica,sans-Serif" font-size="13.00" fill="#1f2d3d">for next step</text>
</g>
<!-- ReadShared&#45;&gt;Unpack -->
<g id="edge18" class="edge">
<title>ReadShared&#45;&gt;Unpack</title>
<path fill="none" stroke="#2f2f2f" stroke-width="1.6" d="M420,-364.84C420,-358.01 420,-350.23 420,-342.85"/>
<polygon fill="#2f2f2f" stroke="#2f2f2f" stroke-width="1.6" points="422.8,-342.45 420,-334.45 417.2,-342.45 422.8,-342.45"/>
</g>
<!-- ReadMMIO&#45;&gt;Unpack -->
<g id="edge19" class="edge">
<title>ReadMMIO&#45;&gt;Unpack</title>
<path fill="none" stroke="#2f2f2f" stroke-width="1.6" d="M540.31,-364.84C520,-356.26 496.2,-346.2 475.14,-337.3"/>
<polygon fill="#2f2f2f" stroke="#2f2f2f" stroke-width="1.6" points="475.98,-334.62 467.52,-334.08 473.8,-339.78 475.98,-334.62"/>
</g>
<!-- Unpack&#45;&gt;Dispatch -->
<g id="edge20" class="edge">
<title>Unpack&#45;&gt;Dispatch</title>
<path fill="none" stroke="#2f2f2f" stroke-width="1.6" d="M386.87,-291.8C365.06,-278.51 336.41,-261.05 313.43,-247.04"/>
<polygon fill="#2f2f2f" stroke="#2f2f2f" stroke-width="1.6" points="314.78,-244.58 306.5,-242.81 311.87,-249.36 314.78,-244.58"/>
<text text-anchor="middle" x="381.5" y="-268" font-family="Helvetica,sans-Serif" font-size="10.00">continue</text>
</g>
<!-- ScalarOp&#45;&gt;Dispatch -->
<g id="edge21" class="edge">
<title>ScalarOp&#45;&gt;Dispatch</title>
<path fill="none" stroke="#2f2f2f" stroke-width="1.6" d="M64.72,-56.17C54.5,-83.3 44.6,-124.91 65,-153 89.8,-187.15 132.2,-204.49 172.35,-213.16"/>
<polygon fill="#2f2f2f" stroke="#2f2f2f" stroke-width="1.6" points="171.95,-215.94 180.34,-214.78 173.06,-210.45 171.95,-215.94"/>
<text text-anchor="middle" x="86.5" y="-122.5" font-family="Helvetica,sans-Serif" font-size="10.00">continue</text>
</g>
<!-- Verify&#45;&gt;Dispatch -->
<g id="edge22" class="edge">
<title>Verify&#45;&gt;Dispatch</title>
<path fill="none" stroke="#2f2f2f" stroke-width="1.6" d="M309.06,-46C319.85,-74.69 337.27,-133.97 318,-179 315.66,-184.47 312.21,-189.57 308.27,-194.2"/>
<polygon fill="#2f2f2f" stroke="#2f2f2f" stroke-width="1.6" points="306.06,-192.45 302.63,-200.2 310.15,-196.29 306.06,-192.45"/>
<text text-anchor="middle" x="347.5" y="-122.5" font-family="Helvetica,sans-Serif" font-size="10.00">continue</text>
</g>
<!-- Done -->
<g id="node19" class="node">
<title>Done</title>
<ellipse fill="#f4f7fb" stroke="#6f8fb3" stroke-width="1.8" cx="471" cy="-28" rx="41.94" ry="19.6"/>
<text text-anchor="middle" x="471" y="-24.6" font-family="Helvetica,sans-Serif" font-size="13.00" fill="#233142">Done</text>
</g>
<!-- Finalize&#45;&gt;Done -->
<g id="edge23" class="edge">
<title>Finalize&#45;&gt;Done</title>
<path fill="none" stroke="#2f2f2f" stroke-width="1.6" d="M471,-103.85C471,-89.88 471,-71.12 471,-55.88"/>
<polygon fill="#2f2f2f" stroke="#2f2f2f" stroke-width="1.6" points="473.8,-55.83 471,-47.83 468.2,-55.83 473.8,-55.83"/>
</g>
</g>
</svg>
