<?xml version="1.0" encoding="UTF-8" standalone="no"?>
<!DOCTYPE svg PUBLIC "-//W3C//DTD SVG 1.1//EN"
 "http://www.w3.org/Graphics/SVG/1.1/DTD/svg11.dtd">
<!-- Generated by graphviz version 12.2.1 (20241206.2353)
 -->
<!-- Title: TinyNPURuntimeState Pages: 1 -->
<svg width="674pt" height="886pt"
 viewBox="0.00 0.00 674.49 885.60" xmlns="http://www.w3.org/2000/svg" xmlns:xlink="http://www.w3.org/1999/xlink">
<g id="graph0" class="graph" transform="scale(1 1) rotate(0) translate(7.2 878.4)">
<title>TinyNPURuntimeState</title>
<polygon fill="white" stroke="none" points="-7.2,7.2 -7.2,-878.4 667.29,-878.4 667.29,7.2 -7.2,7.2"/>
<g id="clust1" class="cluster">
<title>cluster_npu</title>
<polygon fill="#f5f9ff" stroke="#557aab" stroke-width="2" points="305.02,-308.75 305.02,-863.2 591.02,-863.2 591.02,-308.75 305.02,-308.75"/>
<text text-anchor="middle" x="448.02" y="-844" font-family="Helvetica,sans-Serif" font-size="16.00" fill="#355c7d">Host&#45;side NPU Segment Handling</text>
</g>
<!-- Start -->
<g id="node1" class="node">
<title>Start</title>
<ellipse fill="#f4f7fb" stroke="#6f8fb3" stroke-width="1.8" cx="199.02" cy="-535.4" rx="98.49" ry="21.85"/>
<text text-anchor="middle" x="199.02" y="-531.3" font-family="Helvetica,sans-Serif" font-size="13.00" fill="#233142">Start runtime call</text>
</g>
<!-- Init -->
<g id="node2" class="node">
<title>Init</title>
<polygon fill="#efe8ff" stroke="#8b74bd" stroke-width="1.8" points="285.17,-470.8 118.88,-470.8 118.88,-423.4 285.17,-423.4 285.17,-470.8"/>
<text text-anchor="middle" x="202.02" y="-451.25" font-family="Helvetica,sans-Serif" font-size="13.00" fill="#2c2236">materialize constants</text>
<text text-anchor="middle" x="202.02" y="-434.75" font-family="Helvetica,sans-Serif" font-size="13.00" fill="#2c2236">bind runtime inputs</text>
</g>
<!-- Start&#45;&gt;Init -->
<g id="edge1" class="edge">
<title>Start&#45;&gt;Init</title>
<path fill="none" stroke="#2f2f2f" stroke-width="1.6" d="M199.76,-513.07C200.09,-503.48 200.5,-491.95 200.87,-481.28"/>
<polygon fill="#2f2f2f" stroke="#2f2f2f" stroke-width="1.6" points="203.66,-481.51 201.14,-473.42 198.06,-481.32 203.66,-481.51"/>
</g>
<!-- Session -->
<g id="node3" class="node">
<title>Session</title>
<polygon fill="#ffe8db" stroke="#d18a66" stroke-width="1.8" points="293.17,-380.65 126.88,-380.65 126.88,-316.75 293.17,-316.75 293.17,-380.65"/>
<text text-anchor="middle" x="210.02" y="-361.1" font-family="Helvetica,sans-Serif" font-size="13.00" fill="#40261d">optional reset</text>
<text text-anchor="middle" x="210.02" y="-344.6" font-family="Helvetica,sans-Serif" font-size="13.00" fill="#40261d">reuse session state</text>
<text text-anchor="middle" x="210.02" y="-328.1" font-family="Helvetica,sans-Serif" font-size="13.00" fill="#40261d">preload static UB / IM</text>
</g>
<!-- Init&#45;&gt;Session -->
<g id="edge2" class="edge">
<title>Init&#45;&gt;Session</title>
<path fill="none" stroke="#2f2f2f" stroke-width="1.6" d="M203.92,-423.25C204.71,-413.72 205.65,-402.33 206.56,-391.4"/>
<polygon fill="#2f2f2f" stroke="#2f2f2f" stroke-width="1.6" points="209.34,-391.75 207.21,-383.55 203.76,-391.29 209.34,-391.75"/>
</g>
<!-- Dispatch -->
<g id="node4" class="node">
<title>Dispatch</title>
<polygon fill="#f4f7fb" stroke="#6f8fb3" stroke-width="1.8" points="335.02,-273 210.73,-242.1 335.02,-211.2 459.31,-242.1 335.02,-273"/>
<text text-anchor="middle" x="335.02" y="-238" font-family="Helvetica,sans-Serif" font-size="13.00" fill="#233142">next plan step?</text>
</g>
<!-- Session&#45;&gt;Dispatch -->
<g id="edge3" class="edge">
<title>Session&#45;&gt;Dispatch</title>
<path fill="none" stroke="#2f2f2f" stroke-width="1.6" d="M247.52,-316.32C263.96,-302.56 283.16,-286.49 299.38,-272.92"/>
<polygon fill="#2f2f2f" stroke="#2f2f2f" stroke-width="1.6" points="300.89,-275.31 305.22,-268.03 297.29,-271.02 300.89,-275.31"/>
</g>
<!-- Kind -->
<g id="node5" class="node">
<title>Kind</title>
<polygon fill="#f4f7fb" stroke="#6f8fb3" stroke-width="1.8" points="249.02,-168.45 158.48,-137.55 249.02,-106.65 339.56,-137.55 249.02,-168.45"/>
<text text-anchor="middle" x="249.02" y="-133.45" font-family="Helvetica,sans-Serif" font-size="13.00" fill="#233142">step kind?</text>
</g>
<!-- Dispatch&#45;&gt;Kind -->
<g id="edge5" class="edge">
<title>Dispatch&#45;&gt;Kind</title>
<path fill="none" stroke="#2f2f2f" stroke-width="1.6" d="M312.77,-216.61C306.92,-210.04 300.67,-202.9 295.02,-196.2 288.01,-187.89 280.6,-178.76 273.81,-170.25"/>
<polygon fill="#2f2f2f" stroke="#2f2f2f" stroke-width="1.6" points="276.21,-168.77 269.04,-164.24 271.82,-172.25 276.21,-168.77"/>
<text text-anchor="middle" x="329.52" y="-186.7" font-family="Helvetica,sans-Serif" font-size="10.00">step available</text>
</g>
<!-- Finalize -->
<g id="node14" class="node">
<title>Finalize</title>
<polygon fill="#efe8ff" stroke="#8b74bd" stroke-width="1.8" points="653.29,-161.25 454.75,-161.25 454.75,-113.85 653.29,-113.85 653.29,-161.25"/>
<text text-anchor="middle" x="554.02" y="-141.7" font-family="Helvetica,sans-Serif" font-size="13.00" fill="#2c2236">collect final outputs</text>
<text text-anchor="middle" x="554.02" y="-125.2" font-family="Helvetica,sans-Serif" font-size="13.00" fill="#2c2236">trace tensors / benchmark</text>
</g>
<!-- Dispatch&#45;&gt;Finalize -->
<g id="edge4" class="edge">
<title>Dispatch&#45;&gt;Finalize</title>
<path fill="none" stroke="#2f2f2f" stroke-width="1.6" d="M377.25,-221.33C410.82,-205.61 458.17,-183.43 495.41,-165.99"/>
<polygon fill="#2f2f2f" stroke="#2f2f2f" stroke-width="1.6" points="496.4,-168.62 502.46,-162.7 494.02,-163.55 496.4,-168.62"/>
<text text-anchor="middle" x="495.13" y="-186.7" font-family="Helvetica,sans-Serif" font-size="10.00">plan exhausted</text>
</g>
<!-- Pack -->
<g id="node6" class="node">
<title>Pack</title>
<polygon fill="#e8f0fe" stroke="#557aab" stroke-width="1.8" points="498.54,-827.7 319.5,-827.7 319.5,-780.3 498.54,-780.3 498.54,-827.7"/>
<text text-anchor="middle" x="409.02" y="-808.15" font-family="Helvetica,sans-Serif" font-size="13.00" fill="#1f2d3d">pack runtime tensors</text>
<text text-anchor="middle" x="409.02" y="-791.65" font-family="Helvetica,sans-Serif" font-size="13.00" fill="#1f2d3d">into role&#45;specific layout</text>
</g>
<!-- Kind&#45;&gt;Pack -->
<g id="edge6" class="edge">
<title>Kind&#45;&gt;Pack</title>
<path fill="none" stroke="#2f2f2f" stroke-width="1.6" d="M205.72,-154.04C153.32,-174.14 72.02,-210.29 72.02,-241.1 72.02,-714.85 72.02,-714.85 72.02,-714.85 72.02,-764.33 209.7,-786.57 309.06,-796.18"/>
<polygon fill="#2f2f2f" stroke="#2f2f2f" stroke-width="1.6" points="308.52,-798.94 316.74,-796.9 309.04,-793.36 308.52,-798.94"/>
<text text-anchor="middle" x="103.52" y="-489.05" font-family="Helvetica,sans-Serif" font-size="10.00">NpuSegment</text>
</g>
<!-- HostOp -->
<g id="node12" class="node">
<title>HostOp</title>
<polygon fill="#fff4e8" stroke="#c98a43" stroke-width="1.8" points="194.04,-63.9 0,-63.9 0,0 194.04,0 194.04,-63.9"/>
<text text-anchor="middle" x="97.02" y="-44.35" font-family="Helvetica,sans-Serif" font-size="13.00" fill="#4a3520">HostOp execution</text>
<text text-anchor="middle" x="97.02" y="-27.85" font-family="Helvetica,sans-Serif" font-size="13.00" fill="#4a3520">dequantize / requantize /</text>
<text text-anchor="middle" x="97.02" y="-11.35" font-family="Helvetica,sans-Serif" font-size="13.00" fill="#4a3520">softmax / mean / reshape</text>
</g>
<!-- Kind&#45;&gt;HostOp -->
<g id="edge7" class="edge">
<title>Kind&#45;&gt;HostOp</title>
<path fill="none" stroke="#2f2f2f" stroke-width="1.6" d="M219.35,-116.33C200.12,-103.22 174.5,-85.76 151.67,-70.2"/>
<polygon fill="#2f2f2f" stroke="#2f2f2f" stroke-width="1.6" points="153.26,-67.89 145.07,-65.7 150.11,-72.52 153.26,-67.89"/>
<text text-anchor="middle" x="200.12" y="-82.15" font-family="Helvetica,sans-Serif" font-size="10.00">HostOp</text>
</g>
<!-- Verify -->
<g id="node13" class="node">
<title>Verify</title>
<polygon fill="#fff7d9" stroke="#c9a227" stroke-width="1.8" points="459.29,-55.65 212.75,-55.65 212.75,-8.25 459.29,-8.25 459.29,-55.65"/>
<text text-anchor="middle" x="336.02" y="-36.1" font-family="Helvetica,sans-Serif" font-size="13.00" fill="#4a3a00">optional verification</text>
<text text-anchor="middle" x="336.02" y="-19.6" font-family="Helvetica,sans-Serif" font-size="13.00" fill="#4a3a00">compare against expected tensor</text>
</g>
<!-- Kind&#45;&gt;Verify -->
<g id="edge8" class="edge">
<title>Kind&#45;&gt;Verify</title>
<path fill="none" stroke="#2f2f2f" stroke-width="1.6" d="M268.76,-113.04C280.97,-98.5 296.78,-79.67 310.01,-63.92"/>
<polygon fill="#2f2f2f" stroke="#2f2f2f" stroke-width="1.6" points="312.1,-65.79 315.1,-57.86 307.81,-62.19 312.1,-65.79"/>
<text text-anchor="middle" x="324.75" y="-82.15" font-family="Helvetica,sans-Serif" font-size="10.00">VerifyTensor</text>
</g>
<!-- WriteUB -->
<g id="node7" class="node">
<title>WriteUB</title>
<polygon fill="#e8f0fe" stroke="#557aab" stroke-width="1.8" points="516.91,-737.55 313.12,-737.55 313.12,-690.15 516.91,-690.15 516.91,-737.55"/>
<text text-anchor="middle" x="415.02" y="-718" font-family="Helvetica,sans-Serif" font-size="13.00" fill="#1f2d3d">write vectors to UB</text>
<text text-anchor="middle" x="415.02" y="-701.5" font-family="Helvetica,sans-Serif" font-size="13.00" fill="#1f2d3d">overlay inputs / reload bias</text>
</g>
<!-- Pack&#45;&gt;WriteUB -->
<g id="edge9" class="edge">
<title>Pack&#45;&gt;WriteUB</title>
<path fill="none" stroke="#2f2f2f" stroke-width="1.6" d="M410.6,-779.84C411.26,-770.12 412.04,-758.64 412.76,-748.05"/>
<polygon fill="#2f2f2f" stroke="#2f2f2f" stroke-width="1.6" points="415.54,-748.44 413.29,-740.27 409.95,-748.06 415.54,-748.44"/>
<text text-anchor="middle" x="433.38" y="-755.8" font-family="Helvetica,sans-Serif" font-size="10.00">continue</text>
</g>
<!-- Launch -->
<g id="node8" class="node">
<title>Launch</title>
<polygon fill="#e8f0fe" stroke="#557aab" stroke-width="1.8" points="504.66,-647.4 317.38,-647.4 317.38,-600 504.66,-600 504.66,-647.4"/>
<text text-anchor="middle" x="411.02" y="-627.85" font-family="Helvetica,sans-Serif" font-size="13.00" fill="#1f2d3d">issue RUN through MMIO</text>
<text text-anchor="middle" x="411.02" y="-611.35" font-family="Helvetica,sans-Serif" font-size="13.00" fill="#1f2d3d">set start address</text>
</g>
<!-- WriteUB&#45;&gt;Launch -->
<g id="edge10" class="edge">
<title>WriteUB&#45;&gt;Launch</title>
<path fill="none" stroke="#2f2f2f" stroke-width="1.6" d="M413.97,-689.69C413.53,-679.97 413.01,-668.49 412.53,-657.9"/>
<polygon fill="#2f2f2f" stroke="#2f2f2f" stroke-width="1.6" points="415.33,-657.99 412.17,-650.12 409.74,-658.24 415.33,-657.99"/>
<text text-anchor="middle" x="434.26" y="-665.65" font-family="Helvetica,sans-Serif" font-size="10.00">continue</text>
</g>
<!-- Wait -->
<g id="node9" class="node">
<title>Wait</title>
<polygon fill="#e8f0fe" stroke="#557aab" stroke-width="1.8" points="483.29,-553.4 320.75,-553.4 320.75,-517.4 483.29,-517.4 483.29,-553.4"/>
<text text-anchor="middle" x="402.02" y="-531.3" font-family="Helvetica,sans-Serif" font-size="13.00" fill="#1f2d3d">poll status until HALT</text>
</g>
<!-- Launch&#45;&gt;Wait -->
<g id="edge11" class="edge">
<title>Launch&#45;&gt;Wait</title>
<path fill="none" stroke="#2f2f2f" stroke-width="1.6" d="M408.61,-599.57C407.47,-588.68 406.11,-575.59 404.92,-564.16"/>
<polygon fill="#2f2f2f" stroke="#2f2f2f" stroke-width="1.6" points="407.7,-563.91 404.09,-556.25 402.13,-564.49 407.7,-563.91"/>
<text text-anchor="middle" x="428.06" y="-575.5" font-family="Helvetica,sans-Serif" font-size="10.00">continue</text>
</g>
<!-- ReadUB -->
<g id="node10" class="node">
<title>ReadUB</title>
<polygon fill="#e8f0fe" stroke="#557aab" stroke-width="1.8" points="478.16,-470.8 323.88,-470.8 323.88,-423.4 478.16,-423.4 478.16,-470.8"/>
<text text-anchor="middle" x="401.02" y="-451.25" font-family="Helvetica,sans-Serif" font-size="13.00" fill="#1f2d3d">read output vectors</text>
<text text-anchor="middle" x="401.02" y="-434.75" font-family="Helvetica,sans-Serif" font-size="13.00" fill="#1f2d3d">from UB</text>
</g>
<!-- Wait&#45;&gt;ReadUB -->
<g id="edge12" class="edge">
<title>Wait&#45;&gt;ReadUB</title>
<path fill="none" stroke="#2f2f2f" stroke-width="1.6" d="M401.82,-516.94C401.7,-506.73 401.55,-493.5 401.41,-481.38"/>
<polygon fill="#2f2f2f" stroke="#2f2f2f" stroke-width="1.6" points="404.21,-481.49 401.31,-473.53 398.61,-481.56 404.21,-481.49"/>
<text text-anchor="middle" x="422.58" y="-489.05" font-family="Helvetica,sans-Serif" font-size="10.00">continue</text>
</g>
<!-- Unpack -->
<g id="node11" class="node">
<title>Unpack</title>
<polygon fill="#e8f0fe" stroke="#557aab" stroke-width="1.8" points="481.91,-380.65 314.12,-380.65 314.12,-316.75 481.91,-316.75 481.91,-380.65"/>
<text text-anchor="middle" x="398.02" y="-361.1" font-family="Helvetica,sans-Serif" font-size="13.00" fill="#1f2d3d">unpack vectors into</text>
<text text-anchor="middle" x="398.02" y="-344.6" font-family="Helvetica,sans-Serif" font-size="13.00" fill="#1f2d3d">logical output tensors</text>
<text text-anchor="middle" x="398.02" y="-328.1" font-family="Helvetica,sans-Serif" font-size="13.00" fill="#1f2d3d">(layout&#45;aware)</text>
</g>
<!-- ReadUB&#45;&gt;Unpack -->
<g id="edge13" class="edge">
<title>ReadUB&#45;&gt;Unpack</title>
<path fill="none" stroke="#2f2f2f" stroke-width="1.6" d="M400.31,-423.25C400.01,-413.72 399.66,-402.33 399.32,-391.4"/>
<polygon fill="#2f2f2f" stroke="#2f2f2f" stroke-width="1.6" points="402.12,-391.46 399.07,-383.55 396.52,-391.64 402.12,-391.46"/>
<text text-anchor="middle" x="420.79" y="-398.9" font-family="Helvetica,sans-Serif" font-size="10.00">continue</text>
</g>
<!-- Unpack&#45;&gt;Dispatch -->
<g id="edge14" class="edge">
<title>Unpack&#45;&gt;Dispatch</title>
<path fill="none" stroke="#2f2f2f" stroke-width="1.6" d="M379.12,-316.32C371.88,-304.31 363.59,-290.54 356.16,-278.2"/>
<polygon fill="#2f2f2f" stroke="#2f2f2f" stroke-width="1.6" points="358.71,-277 352.18,-271.59 353.91,-279.89 358.71,-277"/>
<text text-anchor="middle" x="389.41" y="-291.25" font-family="Helvetica,sans-Serif" font-size="10.00">continue</text>
</g>
<!-- HostOp&#45;&gt;Dispatch -->
<g id="edge15" class="edge">
<title>HostOp&#45;&gt;Dispatch</title>
<path fill="none" stroke="#2f2f2f" stroke-width="1.6" d="M90.19,-64.17C85.55,-94.15 83.86,-139.1 107.02,-168.45 136.09,-205.29 183.89,-223.76 228.24,-232.91"/>
<polygon fill="#2f2f2f" stroke="#2f2f2f" stroke-width="1.6" points="227.47,-235.61 235.86,-234.37 228.53,-230.11 227.47,-235.61"/>
<text text-anchor="middle" x="128.02" y="-134.43" font-family="Helvetica,sans-Serif" font-size="10.00">continue</text>
</g>
<!-- Verify&#45;&gt;Dispatch -->
<g id="edge16" class="edge">
<title>Verify&#45;&gt;Dispatch</title>
<path fill="none" stroke="#2f2f2f" stroke-width="1.6" d="M349.27,-56.13C352.73,-63.22 356.04,-71.19 358.02,-78.9 405.93,-265.04 370.87,-172.98 364.02,-196.2 362.96,-199.79 361.51,-203.37 359.83,-206.85"/>
<polygon fill="#2f2f2f" stroke="#2f2f2f" stroke-width="1.6" points="357.5,-205.28 356.08,-213.63 362.4,-207.98 357.5,-205.28"/>
<text text-anchor="middle" x="399.89" y="-134.43" font-family="Helvetica,sans-Serif" font-size="10.00">continue</text>
</g>
<!-- Done -->
<g id="node15" class="node">
<title>Done</title>
<ellipse fill="#f4f7fb" stroke="#6f8fb3" stroke-width="1.8" cx="569.02" cy="-31.95" rx="91.07" ry="21.85"/>
<text text-anchor="middle" x="569.02" y="-27.85" font-family="Helvetica,sans-Serif" font-size="13.00" fill="#233142">ExecutionResult</text>
</g>
<!-- Finalize&#45;&gt;Done -->
<g id="edge17" class="edge">
<title>Finalize&#45;&gt;Done</title>
<path fill="none" stroke="#2f2f2f" stroke-width="1.6" d="M557.35,-113.56C559.46,-98.99 562.21,-79.95 564.52,-64.04"/>
<polygon fill="#2f2f2f" stroke="#2f2f2f" stroke-width="1.6" points="567.23,-64.83 565.61,-56.51 561.69,-64.03 567.23,-64.83"/>
</g>
</g>
</svg>
